<?xml version="1.0" encoding="utf-8"?>
<svg width="49" height="132" viewBox="0 0 49 132" fill="none" xmlns="http://www.w3.org/2000/svg">
  <g id="1" transform="translate(-0 0)">
    <path id="Path" d="M0 63.0938L0 56.7657L14.5782 56.7657L14.5782 9.4688L3.09375 9.4688C3.09375 9.4688 3.09375 4.5469 3.09375 4.5469C8.53128 3.60944 12.9531 2.0938 16.3594 0C16.3594 0 22.1719 0 22.1719 0L22.1719 56.7657L35.3438 56.7657L35.3438 63.0938L0 63.0938L0 63.0938Z" fill="none" stroke-width="3" stroke="#9E211F" transform="translate(7.781 35.016)" />
    <path d="M7.78125 98.1094L7.78125 91.7813L22.3594 91.7813L22.3594 44.4844L10.875 44.4844L10.875 39.5625Q19.0313 38.1563 24.1406 35.0156L29.9531 35.0156L29.9531 91.7813L43.125 91.7813L43.125 98.1094L7.78125 98.1094Z" fill="#EBCB23" transform="matrix(1 0 -0 1 0 0)" />
  </g>
</svg>