<?xml version="1.0" encoding="utf-8"?>
<svg width="376" height="323" viewBox="0 0 376 323" fill="none" xmlns="http://www.w3.org/2000/svg">
  <path d="M201.888 104.256Q201.888 86.4 196.128 76.32Q185.184 56.448 168.768 56.448L98.208 56.448Q79.2 56.448 61.488 70.992Q43.776 85.536 37.44 104.256L201.888 104.256ZM-3.744 255.168L162.144 254.88L175.968 206.208L92.448 206.208Q104.544 196.128 133.2 185.04Q161.856 173.952 173.664 165.024Q194.112 148.896 199.584 123.552L126.72 123.552Q127.008 124.128 127.008 124.987Q127.008 133.033 97.056 147.118Q52.704 167.805 34.56 183.037Q-0.864 212.35 -3.744 255.168ZM304.992 57.024L350.784 57.024Q388.512 56.736 388.512 96.192Q388.512 100.224 388.224 104.832L223.776 104.832Q229.536 86.76 244.512 72.4725Q260.64 57.024 278.208 57.024L304.992 57.024ZM269.28 185.184L271.584 177.408L286.852 123.552L219.744 123.552L205.056 177.696Q201.024 192.384 201.024 205.92Q201.024 217.44 204.192 225.216Q211.104 242.784 231.84 249.984Q243.36 254.016 264.672 255.168L272.448 255.456C323.52 253.338 355.296 229.381 367.776 183.586Q369.216 177.813 373.824 160.785L383.328 123.552L317.686 123.552L301.275 184.617Q297.814 197.568 284.557 198.144Q269.28 198.72 269.28 188.352Q269.28 186.912 269.28 185.184Z" fill="#FFFFFF" fill-opacity="0.122" />
</svg>