<?xml version="1.0" encoding="utf-8"?>
<svg width="390" height="323" viewBox="0 0 390 323" fill="none" xmlns="http://www.w3.org/2000/svg">
  <path d="M48.096 57.024L33.984 104.832L99.072 104.832L112.32 57.312L48.096 57.024ZM147.983 57.024L134.654 104.832L199.85 104.832L212.832 57.312L147.983 57.024ZM93.888 255.456L112.896 189.216L12.384 189.216L29.664 123.552L93.888 123.552L89.568 140.544L126.144 140.544L129.888 123.552L195.264 123.552L159.552 256.032L93.888 255.456ZM402.336 104.256Q402.336 86.976 396.864 76.32Q386.208 56.448 368.928 56.448L298.368 56.448Q279.36 56.448 261.216 71.424Q244.224 85.536 237.6 104.256L402.336 104.256ZM296.928 174.816Q324.576 174.816 324.576 186.336Q324.576 192.96 317.376 199.008Q311.616 203.904 303.84 206.208Q297.216 208.224 290.88 208.224Q278.784 208.224 278.784 199.008Q278.784 196.416 279.936 193.248L215.424 193.248Q211.968 211.392 213.696 218.592C218.88 243.168 235.008 255.456 262.08 255.456L315.36 255.456Q342.432 250.272 362.016 227.52Q381.6 204.768 381.6 177.408Q381.6 161.28 373.248 151.2Q389.376 137.088 396.288 123.552L285.984 123.552L272.16 174.816L296.928 174.816Z" fill="#FFFFFF" fill-opacity="0.2" />
</svg>