<?xml version="1.0" encoding="utf-8"?>
<svg width="624" height="369" viewBox="0 0 624 369" fill="none" xmlns="http://www.w3.org/2000/svg">
  <path id="Shape" d="M624 0.00320435L606.046 102.268L447.624 102.268C447.624 102.268 446.04 109.648 446.04 109.648C446.04 110.521 447.253 111.516 449.678 112.632C450.219 112.881 450.767 113.116 451.321 113.338C451.321 113.338 521.026 140.222 521.026 140.222C532.222 144.334 542.63 150.332 551.795 157.956C560.267 165.125 567.375 173.76 572.777 183.447C580.936 197.883 585.173 214.198 585.068 230.773C585.068 236.348 584.627 242.051 583.745 247.883C583.618 248.722 583.482 249.558 583.338 250.394C578.281 277.65 564.785 302.634 544.75 321.828C540.323 326.199 535.666 330.331 530.798 334.208C514.991 347.092 496.837 356.802 477.337 362.804C463.413 366.958 448.954 369.045 434.422 368.999C434.422 368.999 289.202 368.999 289.202 368.999L307.157 266.735C307.157 266.735 452.905 266.735 452.905 266.735C459.594 266.735 465.755 265.065 471.387 261.724C472.836 260.879 474.213 259.916 475.505 258.847C476.852 257.715 477.953 256.54 478.809 255.321C479.867 253.857 480.58 252.172 480.893 250.393C480.893 248.988 480.717 247.582 480.365 246.176C480.083 245.072 479.601 244.029 478.94 243.1C478.725 242.796 478.496 242.502 478.252 242.22C477.366 241.193 476.388 240.248 475.331 239.396C475.076 239.191 474.818 238.991 474.556 238.796C473.298 237.859 471.935 237.07 470.496 236.446C470.266 236.347 470.036 236.252 469.803 236.161C469.803 236.161 399.569 209.804 399.569 209.804C389.083 205.838 379.387 200.039 370.937 192.679C363.79 186.346 357.76 178.858 353.099 170.53C343.284 153.133 339.976 133.704 343.177 112.245C343.306 111.377 343.445 110.512 343.594 109.647C343.594 109.647 363.132 0.00320435 363.132 0.00320435L624 0.00320435L624 0.00320435ZM140.814 0.00320435C140.814 0.00320435 206.823 0.00320435 206.823 0.00320435C217.61 -0.0787354 228.351 1.41367 238.706 4.43307C247.42 7.02386 255.712 10.8582 263.327 15.8173C279.521 26.36 291.315 40.6798 298.708 58.7766C303.583 70.7775 306.055 83.616 305.984 96.566C305.984 103.54 305.319 110.712 303.988 118.082C303.988 118.082 281.809 242.486 281.809 242.486C276.352 274.058 260.597 302.945 236.996 324.657C234.401 327.125 231.735 329.518 229.003 331.833C216.171 342.912 201.679 351.913 186.054 358.51C169.205 365.487 151.135 369.053 132.893 368.999C132.893 368.999 8.79614 368.999 8.79614 368.999L26.7506 266.735C26.7506 266.735 151.376 266.735 151.376 266.735C156.109 266.712 160.743 265.383 164.766 262.895C166.373 261.926 167.899 260.829 169.33 259.616C171.926 257.471 174.147 254.912 175.904 252.042C177.667 249.111 178.841 245.865 179.363 242.486C179.363 242.486 180.948 235.634 180.948 235.634C180.948 235.634 99.0964 235.634 99.0964 235.634C87.0332 235.764 75.0306 233.911 63.5703 230.149C47.2362 224.594 32.8191 214.521 21.9979 201.104C2.98743 178.087 -3.70154 150.413 1.93127 118.082C5.80371 96.645 14.605 76.8766 28.3348 58.7766C42.0647 40.6798 58.963 26.36 79.0298 15.8173C92.1952 8.78116 106.432 3.95938 121.169 1.54593C127.667 0.516998 134.235 0.00115967 140.814 0.00320435C140.814 0.00320435 140.814 0.00320435 140.814 0.00320435ZM497.263 184.501C497.263 184.501 427.029 158.144 427.029 158.144C423.459 156.739 420.047 154.963 416.85 152.844C414.226 151.096 411.796 149.073 409.603 146.808C405.026 142.066 401.77 136.443 399.836 129.94C398.594 125.811 397.961 121.523 397.956 117.211C397.956 114.876 398.141 112.523 398.51 110.196C398.51 110.196 408.547 54.8254 408.547 54.8254L586.507 54.8254L588.091 47.4455L402.21 47.4455C402.21 47.4455 391.12 110.175 391.12 110.175C390.558 113.36 390.277 116.478 390.277 119.528C390.254 127.822 392.461 135.969 396.668 143.119C401.626 151.625 409.045 158.435 417.95 162.656C419.707 163.52 421.503 164.301 423.333 164.997C423.333 164.997 493.566 191.881 493.566 191.881C499.485 194.119 505.022 197.258 509.98 201.186C514.807 205.063 518.905 209.766 522.082 215.075C528.419 225.618 530.531 237.391 528.419 250.393C525.919 263.99 519.333 276.504 509.534 286.272C506.294 289.589 502.811 292.661 499.113 295.461C482.741 307.938 464.522 314.177 444.455 314.177C444.455 314.177 326.167 314.177 326.167 314.177L325.111 321.557C325.111 321.557 442.871 321.557 442.871 321.557C465.05 321.557 485.206 314.615 503.338 300.733C510.535 295.323 516.925 288.919 522.315 281.712C529.182 272.456 533.802 261.735 535.812 250.393C536.382 247.105 536.699 243.777 536.761 240.441C536.939 229.859 534.334 219.998 528.947 210.858C522.72 200.34 513.461 191.94 502.379 186.755C500.701 185.942 498.995 185.191 497.263 184.501C497.263 184.501 497.263 184.501 497.263 184.501ZM234.283 242.486C234.283 242.486 256.462 118.082 256.462 118.082C257.217 114.066 257.601 109.99 257.61 105.905C257.617 100.767 256.966 95.6476 255.672 90.6729C254.402 85.6831 252.533 80.8646 250.105 76.322C248.523 73.3864 246.675 70.602 244.583 68.0039C240.198 62.6193 234.779 58.1648 228.643 54.9028C227.377 54.2169 226.088 53.575 224.777 52.9781C217.099 49.513 208.795 47.639 200.37 47.4697C199.705 47.4525 199.039 47.4444 198.374 47.4455C198.374 47.4455 132.365 47.4455 132.365 47.4455C115.346 47.4692 98.7926 52.9898 85.1775 63.1823C83.0673 64.7106 81.0165 66.319 79.0294 68.0039C70.9429 74.7132 64.1198 82.8082 58.8804 91.9088C54.3469 99.9494 51.2487 108.716 49.724 117.816C49.1644 121.037 48.8052 124.29 48.6484 127.556C47.9443 142.909 52.2626 156.268 61.6031 167.633C71.5248 179.877 86.2278 187.29 101.989 187.993C103.838 188.126 105.691 188.192 107.545 188.191C107.545 188.191 236.395 188.191 236.395 188.191C236.395 188.191 226.89 242.486 226.89 242.486C223.465 262.134 213.162 279.93 197.817 292.7C197.564 292.919 197.311 293.136 197.056 293.353C189.625 299.773 181.192 304.937 172.091 308.64C162.814 312.331 152.913 314.211 142.926 314.177C142.926 314.177 46.2891 314.177 46.2891 314.177L44.7048 321.557C44.7048 321.557 141.342 321.557 141.342 321.557C160.672 321.537 179.462 315.186 194.827 303.479C197.04 301.852 199.192 300.145 201.281 298.363C210.201 290.897 217.765 281.951 223.639 271.919C228.877 262.802 232.479 252.841 234.283 242.486C234.283 242.486 234.283 242.486 234.283 242.486ZM131.309 54.8255C131.309 54.8255 196.79 54.8255 196.79 54.8255C203.212 54.7563 209.604 55.7064 215.728 57.6401C224.671 60.5528 232.581 65.9821 238.507 73.2753C246.221 82.4402 250.371 94.0711 250.198 106.04C250.198 108.938 249.986 111.921 249.563 114.987C249.42 116.022 249.255 117.054 249.069 118.082C249.069 118.082 237.979 180.811 237.979 180.811C237.979 180.811 109.13 180.811 109.13 180.811C102.709 180.88 96.3186 179.93 90.1967 177.997C81.2515 175.085 73.3395 169.655 67.412 162.361C59.7174 153.245 55.5692 141.667 55.7266 129.747C55.7266 126.871 55.9381 123.916 56.3612 120.882C56.5028 119.857 56.666 118.834 56.8506 117.816C60.019 100.422 68.8202 85.5751 83.2542 73.2753C97.6881 60.9754 113.706 54.8255 131.309 54.8255C131.309 54.8255 131.309 54.8255 131.309 54.8255ZM198.902 133.369C198.902 133.369 201.542 118.082 201.542 118.082C201.642 117.296 201.692 116.504 201.693 115.712C201.702 113.826 201.384 111.953 200.753 110.175C199.871 107.715 198.374 105.782 196.262 104.376C194.496 103.212 192.465 102.51 190.356 102.336C189.861 102.29 189.365 102.267 188.869 102.268C188.869 102.268 122.86 102.268 122.86 102.268C119.418 102.28 116.054 103.288 113.175 105.169C112.414 105.652 111.681 106.179 110.98 106.746C107.282 109.735 105.081 113.425 104.377 117.816C103.673 122.21 104.553 125.9 107.017 128.886C108.901 131.165 111.561 132.67 114.488 133.113C115.509 133.287 116.543 133.373 117.579 133.369C117.579 133.369 198.902 133.369 198.902 133.369L198.902 133.369Z" fill="#FFFFFF" fill-rule="evenodd" fill-opacity="0.122" stroke-width="-0.75" stroke="#FFFFFF" stroke-opacity="0.122" stroke-linecap="round" />
</svg>