<?xml version="1.0" encoding="utf-8"?>
<svg width="97" height="97" viewBox="0 0 97 97" fill="none" xmlns="http://www.w3.org/2000/svg">
  <path id="Shape" d="M68.6036 56.7927L40.2073 28.3964L68.6036 0L97 28.3964L68.6036 56.7927L68.6036 56.7927ZM0 46.7412L0 6.53394L40.2072 6.53394L40.2072 46.7412L0 46.7412L0 46.7412ZM50.259 97.0005L50.259 56.7932L90.4663 56.7932L90.4663 97.0005L50.259 97.0005L50.259 97.0005ZM0 97.0005L0 56.7932L40.2072 56.7932L40.2072 97.0005L0 97.0005L0 97.0005ZM10.052 36.6893L30.1556 36.6893L30.1556 16.5857L10.052 16.5857L10.052 36.6893L10.052 36.6893ZM68.7297 42.7208L82.9279 28.5227L68.7297 14.3245L54.5315 28.5227L68.7297 42.7208L68.7297 42.7208ZM60.3108 86.9484L80.4144 86.9484L80.4144 66.8447L60.3108 66.8447L60.3108 86.9484L60.3108 86.9484ZM10.052 86.9484L30.1556 86.9484L30.1556 66.8447L10.052 66.8447L10.052 86.9484L10.052 86.9484Z" fill="#FFFFFF" />
</svg>