<?xml version="1.0" encoding="utf-8"?>
<svg width="656" height="577" viewBox="0 0 656 577" fill="none" xmlns="http://www.w3.org/2000/svg">
  <g>
    <rect width="656" height="577" />
    <g id="Group" transform="translate(0.573 0)">
      <path id="Shape" d="M323.001 0C208.387 12.4037 135.436 152.083 109.939 249.657C109.821 250.12 109.39 250.435 108.908 250.413C85.9618 249.374 66.1978 241.46 49.6159 226.673C43.3558 221.083 40.5015 212.83 35.1767 206.364C28.7007 198.507 20.1259 195.712 10.7237 200.534C-12.0385 212.194 6.874 252.764 17.6434 267.303C33.3539 288.524 54.8927 308.161 79.6096 318.118C79.7591 318.172 79.8442 318.325 79.8118 318.481C79.7793 318.638 79.6386 318.752 79.4777 318.754C79.4777 318.754 12.9663 318.802 12.9663 318.802C12.4066 318.802 12.1268 319.081 12.1268 319.641C12.1268 319.641 11.9829 477.71 11.9829 477.71C11.9797 477.954 12.0743 478.189 12.2456 478.363C12.4168 478.536 12.6505 478.634 12.8943 478.634C12.8943 478.634 136.767 478.634 136.767 478.634C137.167 478.634 137.482 478.798 137.714 479.126C188.911 552.157 274.143 582.494 360.49 575.453C429.724 569.803 491.462 537.21 530.727 479.126C530.95 478.798 531.262 478.634 531.662 478.634C531.662 478.634 655.426 478.61 655.426 478.61M347.298 0C379.918 3.80268 409.061 17.6459 434.665 37.9069C435.048 38.2088 435.599 38.1616 435.924 37.7989C457.499 14.1911 477.647 2.96297 510.999 5.26617C520.737 5.92595 527.656 10.5443 534.78 16.6982C536.651 18.3137 538.542 19.4932 540.453 20.237C561.704 28.5381 585.209 30.9013 586.001 59.9912C586.193 66.8888 587.248 74.926 583.458 81.3198C577.546 91.3124 562.447 98.6058 551.666 101.149C539.529 104.016 522.991 102.492 509.511 102.588C509.014 102.597 508.569 102.892 508.372 103.344C508.372 103.344 503.551 114.38 503.551 114.38C503.391 114.748 503.419 115.104 503.635 115.448C539.865 171.996 564.738 238.801 568.468 305.894C568.779 311.604 568.995 315.667 569.115 318.082C569.139 318.562 569.391 318.801 569.871 318.801C569.871 318.801 655.427 318.813 655.427 318.813" fill="none" stroke-width="2" stroke="#FFFFFF" stroke-opacity="0.2" />
      <path id="Path" d="M431.053 39.3116C414.591 25.5963 396.422 15.1519 376.546 7.97843C313.021 -14.9456 252.278 14.3122 209.02 60.3043C159.898 112.534 126.846 180.539 108.965 249.491C108.756 250.286 108.038 250.836 107.226 250.822C84.0564 250.462 60.2629 241.789 43.3053 225.583C35.9417 218.553 32.7157 206.989 24.8365 201.303C13.9592 193.446 -0.468051 202.599 0.0116558 215.878C1.05502 245.1 17.3531 266.621 38.6521 286.45C51.4203 298.35 64.8441 307.087 78.9235 312.661C81.426 313.652 83.5847 314.608 85.3996 315.528C86.1763 315.922 86.5812 316.798 86.3787 317.645C86.1762 318.493 85.4191 319.09 84.5481 319.091C84.5481 319.091 12.3162 319.091 12.3162 319.091C11.985 319.091 11.7165 319.359 11.7165 319.69C11.7165 319.69 11.7165 471.438 11.7165 471.438C11.7165 471.935 12.1192 472.338 12.616 472.338C12.616 472.338 134.666 472.338 134.666 472.338C135.105 472.338 135.449 472.513 135.697 472.865C166.574 517.066 208.169 546.22 260.481 560.327C357.885 586.598 467.271 560.831 525.219 472.853C525.451 472.51 525.771 472.338 526.179 472.338C526.179 472.338 648.528 472.338 648.528 472.338C648.859 472.338 649.128 472.069 649.128 471.738C649.128 471.738 649.128 320.026 649.128 320.026C649.128 319.402 648.816 319.091 648.192 319.091C648.192 319.091 563.092 319.091 563.092 319.091C562.631 319.091 562.254 318.718 562.241 318.251C560.658 245.052 535.953 174.157 496.317 112.954C496.048 112.534 496.007 112.007 496.209 111.551C496.209 111.551 502.181 98.1272 502.181 98.1272C502.741 96.8876 503.7 96.2678 505.06 96.2678C518.875 96.2678 536.337 97.6593 548.509 94.5764C559.195 91.8773 575.829 83.7201 578.779 71.8323C579.606 68.4974 579.246 64.1189 579.27 60.3643C579.39 34.9211 562.445 28.2754 541.302 22.5294C528.385 19.0266 522.869 7.66651 509.737 5.9631C475.522 1.51264 454.546 15.4998 432.492 39.2276C432.044 39.7074 431.564 39.7354 431.053 39.3115" fill="none" stroke-width="2" stroke="#FFFFFF" stroke-opacity="0.2" transform="translate(3.6 2.998)" />
      <path id="Shape" d="M401.491 37.3669C401.732 36.9761 401.644 36.4674 401.287 36.1793C388.615 25.8788 374.695 17.4098 359.529 10.7721C292.477 -18.5937 229.468 16.0862 185.743 66.5288C143.516 115.22 114.326 175.919 97.8602 237.973C97.7322 238.453 97.9161 238.649 98.4118 238.561C98.4118 238.561 109.901 236.486 109.901 236.486C110.328 236.404 110.672 236.093 110.788 235.682C125.887 184.244 147.942 136.453 179.291 93.3755C210.639 50.3224 263.767 5.34997 321.416 12.6794C349.287 16.2182 372.876 29.3057 395.243 46.4477C395.603 46.7196 395.898 46.6637 396.13 46.2798C396.13 46.2798 401.491 37.3669 401.491 37.3669M211.515 319.161C211.515 319.161 0.611628 319.197 0.611628 319.197C0.203876 319.197 0 319.397 0 319.797C0 319.797 0 450.504 0 450.504C0 451.352 0.687273 452.039 1.53506 452.039C1.53506 452.039 118.368 452.039 118.368 452.039C118.688 452.039 118.943 452.171 119.135 452.435C122.461 456.929 125.759 461.456 129.029 466.014C153.698 500.382 192.447 525.634 232.37 537.809C317.099 563.66 414.971 548.738 476.469 480.589C478.02 478.87 481.223 475.015 486.076 469.025C490.081 464.083 493.367 458.013 497.313 452.567C497.538 452.251 497.905 452.063 498.296 452.063C498.296 452.063 615.812 451.979 615.812 451.979C616.364 451.979 616.64 451.703 616.64 451.151C616.64 451.151 616.508 319.833 616.508 319.833C616.508 319.401 616.296 319.185 615.872 319.185C615.872 319.185 530.964 319.185 530.964 319.185C530.229 319.185 529.865 318.817 529.873 318.081C530.257 246.43 507.902 176.662 470.257 116C469.921 115.456 469.622 115.48 469.358 116.071C469.358 116.071 464.213 127.947 464.213 127.947C464.061 128.299 464.077 128.647 464.261 128.991C464.261 128.991 473.016 145.257 473.016 145.257C501.906 198.999 517.808 256.987 517.664 318.189C517.664 318.573 517.476 318.773 517.101 318.789C513.031 319.005 508.962 319.117 504.892 319.125C461.159 319.165 417.429 319.185 373.704 319.185C373.52 319.185 373.364 319.113 373.236 318.969C373.14 318.857 373.001 318.829 372.817 318.885" fill="none" stroke-width="2" stroke="#FFFFFF" stroke-opacity="0.2" transform="translate(26.11 12.5)" />
      <path id="Path" d="M386.055 313.19C385.035 298.963 375.129 297.403 364.084 292.449C362.925 291.929 362.437 290.502 362.621 288.167C362.645 287.807 362.797 287.511 363.077 287.279C383.872 269.909 398.155 252.767 400.122 224.397C400.282 222.125 400.486 219.822 400.734 217.487C400.782 217.071 400.974 216.739 401.309 216.491C414.133 207.287 424.547 195.891 432.55 182.303C432.648 182.129 432.87 182.065 433.054 182.159C436.212 183.799 439.338 185.542 442.432 187.39C446.426 189.765 448.692 193.112 451.403 196.734C451.563 196.95 451.763 197.126 452.002 197.262C452.354 197.462 452.59 197.598 452.71 197.67C453.027 197.838 453.406 197.844 453.727 197.687C454.048 197.53 454.272 197.229 454.329 196.878C455.109 192.068 456.236 182.483 451.295 179.412C448.96 177.973 446.582 176.289 444.159 174.362C443.475 173.818 443.214 172.898 443.51 172.076C443.806 171.254 444.593 170.711 445.466 170.727C455.252 170.871 459.054 170.319 466.693 177.109C467.249 177.609 468.022 177.79 468.742 177.588C469.462 177.386 470.028 176.83 470.243 176.113C474.333 162.714 461.776 162.63 454.617 156.332C449.388 151.738 452.518 146.94 455.264 140.606C462.988 122.764 470.791 104.954 478.674 87.1763C483.531 76.2241 484.563 70.4061 496.807 70.3341C517.614 70.2141 537.282 73.7049 554.708 59.1779C558.941 55.6512 559.181 51.8125 559.001 46.5343C558.641 35.2463 556.471 27.1491 544.982 22.4587C535.376 18.548 520.445 16.1129 513.417 9.62313C504.339 1.25003 500.057 0.242384 488.064 0.0144615C465.494 -0.417387 452.338 8.8554 436.892 23.5023C424.863 34.9104 419.142 45.2028 408.445 63.7364C401.129 76.404 393.85 87.0803 378.103 88.6397C365.711 89.8553 353.323 91.1909 340.938 92.6464C303.317 97.0368 268.25 117.286 241.903 143.821C228.471 157.34 214.259 171.015 201.967 184.822C196.546 190.908 189.614 198.826 181.172 208.574C142.375 253.355 70.7909 258.609 26.334 217.787C23.6316 215.316 21.0932 212.217 18.7186 208.49C15.5405 203.524 12.5304 196.926 7.61338 193.531C7.29358 193.307 6.9338 193.199 6.53404 193.207C2.39657 193.255 -0.181864 195.703 0.0100193 200.069C1.36519 229.567 22.5203 253.942 44.6588 271.408C74.5686 294.992 119.637 303.497 156.419 301.158C173.112 300.09 191.245 294.788 208.107 290.626C210.833 289.954 214.207 289.446 218.229 289.102C218.653 289.062 218.809 289.246 218.697 289.654C218.697 289.654 214.943 303.113 214.943 303.113C214.527 304.601 214.931 305.82 216.154 306.772C216.154 306.772 224.753 313.466 224.753 313.466" fill="none" stroke-width="2" stroke="#FFFFFF" stroke-opacity="0.2" transform="translate(12.872 18.195)" />
      <path id="Path" d="M79.9073 0L0 0.287903" fill="none" stroke-width="2" stroke="#FFFFFF" stroke-opacity="0.2" transform="translate(319.02 331.385)" />
      <path id="Path" d="M37.9365 48.476C33.823 40.3668 39.8553 31.4179 43.9808 23.4286C47.5066 16.579 46.3074 7.01834 46.3553 0.744507C46.3634 0.28064 46.1355 0.040741 45.6718 0.0247498C34.5905 -0.347137 29.3857 3.47955 21.6864 10.821C15.8339 16.399 7.87079 20.3457 2.61801 24.5443C-0.41214 26.9514 -0.81192 29.8784 1.41873 33.3252C1.61136 33.6184 1.91138 33.8285 2.25821 33.913C12.3201 36.2762 15.0904 36.768 14.2149 48.4279" fill="none" stroke-width="2" stroke="#FFFFFF" stroke-opacity="0.2" transform="translate(281.083 283.197)" />
      <path id="Path" d="M57.6729 0L0 0.0359802" fill="none" stroke-width="2" stroke="#FFFFFF" stroke-opacity="0.2" transform="translate(237.625 331.625)" />
      <path id="Shape" d="M257.195 0L280.917 0.0480042M592.583 12.8596C592.583 12.416 592.223 12.0561 591.779 12.0559C591.779 12.0559 0.803509 12.0559 0.803509 12.0559C0.590397 12.0559 0.386021 12.1406 0.235336 12.2914C0.0846481 12.442 -3.8147e-06 12.6465 0 12.8596C0 12.8596 0 119.647 0 119.647C-7.62939e-05 119.86 0.0845108 120.064 0.235146 120.215C0.385788 120.366 0.590137 120.45 0.803242 120.45C0.803242 120.45 591.779 120.45 591.779 120.45C592.223 120.45 592.583 120.091 592.583 119.647C592.583 119.647 592.583 12.8597 592.583 12.8597M385.997 202.238C409.346 192.689 430.286 178.918 448.119 161.104C456.502 152.719 461.802 147.501 467.103 138.312C467.319 137.952 467.603 137.656 467.955 137.424C469.386 136.497 470.369 135.185 470.905 133.49C471.033 133.074 470.877 132.866 470.437 132.866C470.437 132.866 457.473 132.95 457.473 132.95C457.163 132.949 456.87 133.096 456.681 133.346C434.879 161.912 407.2 182.253 373.644 194.369C366.149 197.068 357.25 199.287 348.987 201.578C345.173 202.634 341.828 203.054 338.278 203.941C334.56 204.877 330.195 204.565 327.017 204.925C255.516 213.13 182.181 191.382 136.537 133.478C136.233 133.102 135.841 132.91 135.361 132.902C135.361 132.902 122.098 132.734 122.098 132.734C121.482 132.726 121.342 132.982 121.678 133.502C124.7 138.24 129.077 143.134 131.908 146.577C145.915 163.683 162.633 177.607 182.061 188.347C182.229 188.435 182.413 188.647 182.613 188.983C182.824 189.351 183.136 189.65 183.512 189.846C183.512 189.846 194.03 195.508 194.03 195.508C194.389 195.7 194.769 195.812 195.169 195.844C197.076 195.976 198.755 197.656 199.954 198.183C245.262 218.049 296.087 222.895 344.766 214.342C349.827 213.442 355.847 211.631 361.484 210.575C366.736 209.579 372.013 207.168 375.491 206.065C379.041 204.929 382.543 203.654 385.997 202.238" fill="none" stroke-width="2" stroke="#FFFFFF" stroke-opacity="0.2" transform="translate(38.103 331.625)" />
      <path id="Shape" d="M358.066 46.2235C361.232 68.8596 380.996 82.7748 403.194 81.1434C418.657 80.0078 430.138 72.1505 437.637 57.5716C437.861 57.1397 437.741 56.8358 437.277 56.6599C437.277 56.6599 420.428 50.2421 420.428 50.2421C420.052 50.0974 419.624 50.2434 419.408 50.59C410.402 65.045 388.599 66.7364 380.156 51.5497C365.609 25.3747 405.029 5.16171 419.396 31.0368C419.572 31.3567 419.832 31.4486 420.176 31.3127C420.176 31.3127 437.253 24.7029 437.253 24.7029C437.637 24.551 437.737 24.2951 437.553 23.9352C428.823 6.58923 411.757 -2.10776 392.845 0.435364C370.598 3.43433 354.984 24.1631 358.066 46.2235M334.963 41.7492C335.13 31.0859 330.866 20.7899 323.109 13.1262C315.352 5.46249 304.737 1.0589 293.6 0.884155C270.408 0.519867 251.324 18.225 250.976 40.4297C250.808 51.093 255.072 61.3889 262.829 69.0526C270.586 76.7163 281.201 81.1199 292.338 81.2947C315.531 81.659 334.614 63.9539 334.963 41.7492M541.104 40.4884C540.917 29.7899 536.313 19.6074 528.303 12.1805C520.294 4.75357 509.536 0.690582 498.395 0.885345C475.197 1.29022 456.706 19.6774 457.095 41.9543C457.282 52.6528 461.886 62.8353 469.896 70.2622C477.905 77.6891 488.663 81.7521 499.804 81.5574C523.002 81.1525 541.493 62.7653 541.104 40.4884M176.053 80.7116C176.271 80.7116 176.448 80.5343 176.449 80.3157C176.449 80.3157 176.401 45.9836 176.401 45.9836C176.4 45.8358 176.483 45.7003 176.614 45.6321C176.745 45.564 176.903 45.5746 177.024 45.6598C177.024 45.6598 227.106 80.4117 227.106 80.4117C227.226 80.4968 227.385 80.5075 227.516 80.4394C227.647 80.3712 227.729 80.2357 227.729 80.0878C227.729 80.0878 227.693 1.81497 227.693 1.81497C227.693 1.70792 227.65 1.60538 227.573 1.53076C227.496 1.45615 227.393 1.41589 227.286 1.4191C227.286 1.4191 207.402 1.71899 207.402 1.71899C207.188 1.72552 207.018 1.90085 207.018 2.1149C207.018 2.1149 207.018 34.7076 207.018 34.7076C207.018 34.8554 206.936 34.991 206.805 35.0592C206.673 35.1273 206.515 35.1166 206.394 35.0315C206.394 35.0315 156.673 1.2872 156.673 1.2872C156.552 1.20215 156.394 1.19144 156.262 1.25958C156.131 1.3277 156.049 1.46326 156.049 1.61111C156.049 1.61111 156.049 80.3398 156.049 80.3398C156.049 80.5586 156.226 80.7358 156.445 80.7357C156.445 80.7357 176.053 80.7117 176.053 80.7117M8.39233e-05 3.25449C8.39233e-05 3.25449 0.263927 79.0682 0.263927 79.0682C0.270489 79.5605 0.671276 79.956 1.16337 79.9559C1.16337 79.9559 31.7207 79.848 31.7207 79.848C42.6479 79.812 53.1147 75.8862 60.8181 68.9345C68.5214 61.9828 72.83 52.5749 72.7957 42.7808C72.7957 42.7808 72.7717 39.0141 72.7717 39.0141C72.7006 18.625 54.2047 2.15964 31.4568 2.23483C31.4568 2.23483 0.899441 2.3428 0.899441 2.3428C0.658794 2.34277 0.428181 2.43924 0.259151 2.61057C0.0901222 2.78189 -0.00322342 3.01379 -1.14441e-05 3.25449M123.657 2.84662C123.657 2.50873 123.383 2.23483 123.045 2.23483C123.045 2.23483 101.794 2.23483 101.794 2.23483C101.456 2.23483 101.182 2.50876 101.182 2.84662C101.182 2.84662 101.182 79.2841 101.182 79.2841C101.182 79.622 101.456 79.8959 101.794 79.8959C101.794 79.8959 123.045 79.8959 123.045 79.8959C123.383 79.8959 123.657 79.622 123.657 79.2841C123.657 79.2841 123.657 2.84662 123.657 2.84662" fill="none" stroke-width="2" stroke="#FFFFFF" stroke-opacity="0.2" transform="translate(63.743 356.441)" />
      <path id="Shape" d="M292.07 21.7689C292.049 9.72498 282.013 -0.0214539 269.654 3.05176e-05C257.294 0.0217896 247.292 9.80353 247.314 21.8481C247.335 33.892 257.371 43.6384 269.73 43.6169C282.089 43.5952 292.091 33.8134 292.07 21.7689M498.31 22.4502C498.666 10.4505 488.919 0.42514 476.539 0.0575867C470.593 -0.119141 464.824 2.00052 460.499 5.95026C456.174 9.89999 453.648 15.3563 453.477 21.1187C453.121 33.1184 462.868 43.1438 475.249 43.5113C481.194 43.688 486.964 41.5684 491.289 37.6187C495.613 33.6689 498.139 28.2126 498.31 22.4502M0 1.53534C0 1.53534 0 41.8174 0 41.8174C-1.52588e-05 41.9097 0.0366287 41.9982 0.10186 42.0635C0.167076 42.1287 0.255547 42.1653 0.347786 42.1653C0.347786 42.1653 6.7279 42.1653 6.7279 42.1653C17.5968 42.1653 26.4079 33.685 26.4079 23.2239C26.4079 23.2239 26.4079 20.129 26.4079 20.129C26.4079 9.66788 17.5968 1.1875 6.72787 1.1875C6.72787 1.1875 0.347755 1.1875 0.347755 1.1875C0.255524 1.1875 0.167053 1.22415 0.10183 1.28943C0.0366058 1.35464 -3.05176e-05 1.44315 -3.05176e-05 1.5354" fill="none" stroke-width="2" stroke="#FFFFFF" stroke-opacity="0.2" transform="translate(86.925 375.662)" />
    </g>
    <path id="Path" d="M0 0C0 0 323.575 0 323.575 0C208.961 12.4037 136.009 152.083 110.513 249.657C110.394 250.12 109.963 250.435 109.481 250.413C86.5352 249.374 66.7713 241.46 50.1894 226.673C43.9292 221.083 41.0749 212.83 35.7502 206.364C29.2741 198.507 20.6994 195.712 11.2971 200.535C-11.465 212.194 7.44745 252.764 18.2169 267.303C33.9273 288.524 55.4662 308.161 80.1831 318.118C80.3325 318.172 80.4177 318.325 80.3852 318.481C80.3527 318.638 80.212 318.752 80.0512 318.754C80.0512 318.754 13.5397 318.802 13.5397 318.802C12.9801 318.802 12.7002 319.081 12.7002 319.641C12.7002 319.641 12.5563 477.71 12.5563 477.71C12.5531 477.954 12.6477 478.189 12.819 478.363C12.9903 478.536 13.224 478.634 13.4678 478.634C13.4678 478.634 137.34 478.634 137.34 478.634C137.74 478.634 138.056 478.798 138.288 479.126C189.484 552.157 274.716 582.494 361.064 575.453C430.298 569.803 492.036 537.21 531.3 479.126C531.524 478.798 531.836 478.634 532.235 478.634C532.235 478.634 656 478.61 656 478.61L656 577L0 577L0 0L0 0Z" fill="#FFFFFF" fill-rule="evenodd" fill-opacity="0" />
    <path id="Shape" d="M323.001 0C323.001 0 347.298 0 347.298 0C379.919 3.80268 409.061 17.6459 434.665 37.9069C435.048 38.2088 435.599 38.1616 435.924 37.7989C457.499 14.1911 477.647 2.96297 510.999 5.26617C520.737 5.92595 527.656 10.5443 534.78 16.6982C536.651 18.3137 538.542 19.4932 540.453 20.237C561.704 28.5381 585.209 30.9013 586.001 59.9912C586.193 66.8888 587.248 74.926 583.458 81.3198C577.546 91.3124 562.447 98.6058 551.666 101.149C539.529 104.016 522.991 102.492 509.512 102.588C509.015 102.597 508.569 102.892 508.372 103.344C508.372 103.344 503.551 114.38 503.551 114.38C503.391 114.748 503.419 115.104 503.635 115.448C539.865 171.996 564.738 238.801 568.468 305.894C568.779 311.604 568.995 315.667 569.115 318.082C569.139 318.562 569.391 318.802 569.871 318.802C569.871 318.802 655.427 318.814 655.427 318.814L655.427 478.61C655.427 478.61 531.662 478.634 531.662 478.634C531.262 478.634 530.95 478.798 530.727 479.126C491.463 537.21 429.724 569.803 360.49 575.453C274.143 582.494 188.911 552.157 137.714 479.126C137.482 478.798 137.167 478.634 136.767 478.634C136.767 478.634 12.8943 478.634 12.8943 478.634C12.6505 478.634 12.4168 478.536 12.2456 478.363C12.0743 478.189 11.9797 477.954 11.9829 477.71C11.9829 477.71 12.1268 319.641 12.1268 319.641C12.1268 319.081 12.4066 318.802 12.9663 318.802C12.9663 318.802 79.4777 318.754 79.4777 318.754C79.6386 318.752 79.7793 318.638 79.8118 318.481C79.8442 318.325 79.7591 318.172 79.6097 318.118C54.8927 308.161 33.3539 288.524 17.6434 267.303C6.87401 252.764 -12.0385 212.194 10.7237 200.535C20.1259 195.712 28.7007 198.507 35.1767 206.364C40.5015 212.83 43.3558 221.083 49.6159 226.673C66.1978 241.46 85.9618 249.374 108.908 250.413C109.39 250.435 109.821 250.12 109.939 249.657C135.436 152.083 208.387 12.4037 323.001 0C323.001 0 323.001 0 323.001 0ZM434.653 42.3094C418.191 28.5941 400.022 18.1497 380.146 10.9762C316.621 -11.9478 255.878 17.31 212.621 63.3021C163.498 115.532 130.447 183.536 112.566 252.489C112.356 253.284 111.638 253.834 110.827 253.82C87.6567 253.46 63.8633 244.787 46.9056 228.581C39.5421 221.551 36.3161 209.987 28.4369 204.301C17.5595 196.444 3.13229 205.597 3.612 218.876C4.65536 248.098 20.9534 269.619 42.2524 289.448C55.0207 301.348 68.4445 310.085 82.5239 315.659C85.0264 316.65 87.185 317.606 88.9999 318.526C89.7766 318.92 90.1815 319.796 89.979 320.643C89.7765 321.49 89.0194 322.088 88.1485 322.088C88.1485 322.088 15.9165 322.088 15.9165 322.088C15.5853 322.088 15.3169 322.357 15.3169 322.688C15.3169 322.688 15.3169 474.436 15.3169 474.436C15.3169 474.933 15.7196 475.335 16.2163 475.335C16.2163 475.335 138.266 475.335 138.266 475.335C138.706 475.335 139.049 475.511 139.297 475.863C170.174 520.064 211.769 549.218 264.081 563.325C361.486 589.596 470.871 563.829 528.82 475.851C529.052 475.507 529.371 475.335 529.779 475.335C529.779 475.335 652.129 475.335 652.129 475.335C652.46 475.335 652.728 475.067 652.728 474.736C652.728 474.736 652.728 323.024 652.728 323.024C652.728 322.4 652.416 322.088 651.793 322.088C651.793 322.088 566.693 322.088 566.693 322.088C566.232 322.088 565.854 321.716 565.841 321.249C564.258 248.05 539.553 177.155 499.917 115.952C499.648 115.532 499.608 115.005 499.809 114.548C499.809 114.548 505.782 101.125 505.782 101.125C506.341 99.8854 507.301 99.2656 508.66 99.2656C522.476 99.2656 539.937 100.657 552.109 97.5742C562.795 94.8751 579.429 86.7179 582.379 74.8301C583.207 71.4952 582.847 67.1168 582.871 63.3621C582.991 37.9189 566.045 31.2732 544.902 25.5272C531.986 22.0244 526.469 10.6643 513.337 8.96091C479.122 4.51045 458.147 18.4976 436.092 42.2254C435.645 42.7052 435.165 42.7332 434.653 42.3093C434.653 42.3093 434.653 42.3094 434.653 42.3094Z" fill="#FFFFFF" fill-opacity="0.2" transform="translate(0.573 0)" />
    <path id="Path" d="M0 0L308.128 0L308.128 318.813C308.128 318.813 222.572 318.801 222.572 318.801C222.093 318.801 221.841 318.562 221.817 318.082C221.697 315.667 221.481 311.604 221.169 305.894C217.439 238.801 192.567 171.996 156.337 115.448C156.121 115.104 156.093 114.748 156.253 114.38C156.253 114.38 161.074 103.344 161.074 103.344C161.271 102.892 161.716 102.597 162.213 102.588C175.693 102.492 192.231 104.016 204.367 101.149C215.149 98.6058 230.248 91.3123 236.16 81.3198C239.95 74.926 238.894 66.8888 238.702 59.9912C237.911 30.9013 214.405 28.5381 193.154 20.237C191.243 19.4932 189.352 18.3136 187.482 16.6982C180.358 10.5443 173.438 5.92592 163.7 5.26615C130.349 2.96295 110.201 14.1911 88.6259 37.7989C88.3004 38.1615 87.7492 38.2088 87.3667 37.9068C61.7623 17.6459 32.6201 3.80268 0 0C0 0 0 0 0 0Z" fill="#FFFFFF" fill-rule="evenodd" fill-opacity="0" transform="translate(347.872 0)" />
    <path id="Shape" d="M431.053 39.3116C431.565 39.7354 432.044 39.7074 432.492 39.2276C454.547 15.4998 475.522 1.51267 509.737 5.96313C522.869 7.66654 528.385 19.0266 541.302 22.5294C562.445 28.2754 579.39 34.9211 579.271 60.3643C579.247 64.119 579.606 68.4975 578.779 71.8323C575.829 83.7202 559.195 91.8773 548.509 94.5764C536.337 97.6593 518.875 96.2678 505.06 96.2678C503.701 96.2678 502.741 96.8876 502.181 98.1272C502.181 98.1272 496.209 111.551 496.209 111.551C496.008 112.007 496.048 112.534 496.317 112.954C535.953 174.157 560.658 245.052 562.241 318.251C562.254 318.718 562.631 319.091 563.092 319.091C563.092 319.091 648.192 319.091 648.192 319.091C648.816 319.091 649.128 319.403 649.128 320.026C649.128 320.026 649.128 471.738 649.128 471.738C649.128 472.069 648.859 472.338 648.528 472.338C648.528 472.338 526.179 472.338 526.179 472.338C525.771 472.338 525.451 472.509 525.219 472.853C467.271 560.831 357.885 586.598 260.481 560.327C208.169 546.22 166.574 517.066 135.697 472.865C135.449 472.513 135.105 472.338 134.666 472.338C134.666 472.338 12.616 472.338 12.616 472.338C12.1192 472.338 11.7165 471.935 11.7165 471.438C11.7165 471.438 11.7165 319.69 11.7165 319.69C11.7165 319.359 11.985 319.091 12.3162 319.091C12.3162 319.091 84.5481 319.091 84.5481 319.091C85.4191 319.09 86.1762 318.492 86.3787 317.645C86.5812 316.798 86.1763 315.922 85.3996 315.528C83.5847 314.608 81.426 313.653 78.9235 312.661C64.8441 307.087 51.4203 298.35 38.6521 286.45C17.3531 266.621 1.05502 245.1 0.0116558 215.878C-0.468052 202.599 13.9592 193.446 24.8365 201.303C32.7157 206.989 35.9417 218.553 43.3053 225.583C60.2629 241.789 84.0564 250.462 107.226 250.822C108.038 250.836 108.756 250.286 108.965 249.491C126.846 180.539 159.898 112.534 209.02 60.3043C252.278 14.3122 313.021 -14.9456 376.546 7.97843C396.422 15.1519 414.591 25.5963 431.053 39.3116C431.053 39.3116 431.053 39.3116 431.053 39.3116ZM424.001 46.8691C424.242 46.4783 424.154 45.9696 423.797 45.6815C411.125 35.381 397.205 26.912 382.039 20.2743C314.987 -9.09154 251.978 25.5884 208.253 76.031C166.026 124.722 136.836 185.421 120.37 247.476C120.242 247.955 120.426 248.151 120.922 248.063C120.922 248.063 132.411 245.988 132.411 245.988C132.838 245.907 133.182 245.595 133.298 245.184C148.397 193.746 170.452 145.955 201.801 102.878C233.149 59.8246 286.277 14.8522 343.926 22.1816C371.797 25.7204 395.386 38.8079 417.753 55.9499C418.113 56.2218 418.408 56.1659 418.64 55.782C418.64 55.782 424.001 46.8691 424.001 46.8691C424.001 46.8691 424.001 46.8691 424.001 46.8691ZM234.025 328.663C234.025 328.663 23.1215 328.699 23.1215 328.699C22.7138 328.699 22.5099 328.899 22.5099 329.299C22.5099 329.299 22.5099 460.006 22.5099 460.006C22.5099 460.854 23.1972 461.541 24.045 461.541C24.045 461.541 140.878 461.541 140.878 461.541C141.198 461.541 141.453 461.673 141.645 461.937C144.971 466.431 148.269 470.958 151.539 475.516C176.208 509.884 214.957 535.136 254.88 547.311C339.609 573.162 437.481 558.24 498.979 490.091C500.53 488.372 503.732 484.517 508.585 478.527C512.591 473.585 515.877 467.515 519.823 462.069C520.048 461.753 520.414 461.565 520.806 461.565C520.806 461.565 638.322 461.481 638.322 461.481C638.874 461.481 639.15 461.205 639.15 460.653C639.15 460.653 639.018 329.335 639.018 329.335C639.018 328.903 638.806 328.687 638.382 328.687C638.382 328.687 553.474 328.687 553.474 328.687C552.739 328.687 552.375 328.319 552.383 327.583C552.767 255.932 530.412 186.165 492.767 125.502C492.431 124.958 492.132 124.982 491.868 125.574C491.868 125.574 486.723 137.449 486.723 137.449C486.571 137.801 486.587 138.149 486.771 138.493C486.771 138.493 495.525 154.759 495.525 154.759C524.416 208.501 540.318 266.489 540.174 327.691C540.174 328.075 539.986 328.275 539.611 328.291C535.541 328.507 531.471 328.619 527.402 328.627C483.669 328.667 439.939 328.687 396.214 328.687C396.03 328.687 395.874 328.615 395.746 328.471C395.65 328.359 395.51 328.331 395.327 328.387C394.307 314.16 384.401 312.601 373.356 307.646C372.197 307.127 371.709 305.699 371.893 303.364C371.917 303.004 372.069 302.708 372.349 302.476C393.144 285.106 407.427 267.964 409.394 239.594C409.554 237.323 409.758 235.02 410.006 232.684C410.054 232.269 410.245 231.937 410.581 231.689C423.405 222.484 433.819 211.088 441.822 197.501C441.92 197.326 442.142 197.263 442.326 197.357C445.484 198.996 448.61 200.739 451.704 202.587C455.698 204.962 457.964 208.309 460.675 211.932C460.835 212.147 461.035 212.323 461.274 212.459C461.626 212.659 461.862 212.795 461.982 212.867C462.299 213.035 462.678 213.042 462.999 212.885C463.32 212.728 463.544 212.426 463.601 212.076C464.38 207.265 465.508 197.68 460.567 194.61C458.232 193.17 455.854 191.487 453.431 189.559C452.747 189.015 452.486 188.096 452.782 187.273C453.078 186.451 453.865 185.908 454.738 185.925C464.524 186.069 468.326 185.517 475.965 192.306C476.521 192.806 477.294 192.987 478.014 192.785C478.734 192.583 479.3 192.027 479.515 191.311C483.605 177.911 471.048 177.827 463.889 171.53C458.66 166.935 461.79 162.137 464.536 155.803C472.26 137.961 480.063 120.151 487.946 102.374C492.803 91.4213 493.835 85.6033 506.079 85.5314C526.886 85.4114 546.554 88.9022 563.98 74.3752C568.213 70.8484 568.453 67.0098 568.273 61.7316C567.913 50.4435 565.743 42.3463 554.254 37.6559C544.647 33.7453 529.717 31.3101 522.689 24.8204C513.61 16.4473 509.329 15.4396 497.336 15.2117C474.766 14.7799 461.61 24.0527 446.164 38.6996C434.135 50.1076 428.414 60.4001 417.717 78.9336C410.401 91.6012 403.122 102.278 387.375 103.837C374.983 105.053 362.595 106.388 350.21 107.844C312.589 112.234 277.522 132.483 251.174 159.018C237.743 172.537 223.531 186.212 211.239 200.02C205.818 206.106 198.886 214.023 190.444 223.771C151.647 268.552 80.0628 273.806 35.6059 232.984C32.9036 230.513 30.3651 227.414 27.9906 223.687C24.8125 218.721 21.8024 212.123 16.8854 208.729C16.5656 208.505 16.2058 208.397 15.806 208.405C11.6685 208.453 9.09011 210.9 9.28199 215.266C10.6372 244.764 31.7923 269.14 53.9308 286.606C83.8405 310.189 128.909 318.695 165.691 316.355C182.384 315.288 200.517 309.986 217.379 305.823C220.105 305.151 223.479 304.643 227.501 304.3C227.925 304.26 228.081 304.443 227.969 304.851C227.969 304.851 224.215 318.311 224.215 318.311C223.799 319.798 224.203 321.018 225.426 321.969C225.426 321.969 234.025 328.663 234.025 328.663L234.025 328.663Z" fill="#FFFFFF" fill-opacity="0" transform="translate(4.174 2.998)" />
    <path id="Path" d="M303.67 37.3669C303.67 37.3669 298.309 46.2798 298.309 46.2798C298.078 46.6637 297.782 46.7197 297.422 46.4478C275.056 29.3057 251.466 16.2182 223.595 12.6795C165.946 5.35001 112.819 50.3224 81.4697 93.3755C50.1208 136.453 28.0663 184.244 12.9675 235.682C12.8511 236.093 12.5076 236.404 12.08 236.486C12.08 236.486 0.591026 238.561 0.591026 238.561C0.0953217 238.649 -0.088562 238.453 0.03936 237.973C16.5053 175.919 45.6955 115.22 87.9218 66.5288C131.647 16.0862 194.657 -18.5937 261.708 10.7721C276.875 17.4098 290.794 25.8788 303.466 36.1793C303.823 36.4674 303.911 36.9761 303.67 37.3669C303.67 37.3669 303.67 37.3669 303.67 37.3669Z" fill="#FFFFFF" fill-rule="evenodd" fill-opacity="0.2" transform="translate(124.505 12.5)" />
    <path id="Path" d="M386.055 313.19C386.055 313.19 306.147 313.478 306.147 313.478C302.034 305.369 308.066 296.42 312.192 288.43C315.717 281.581 314.518 272.02 314.566 265.746C314.574 265.283 314.346 265.043 313.883 265.027C302.801 264.655 297.597 268.481 289.897 275.823C284.045 281.401 276.082 285.348 270.829 289.546C267.799 291.953 267.399 294.88 269.63 298.327C269.822 298.62 270.122 298.83 270.469 298.915C280.531 301.278 283.301 301.77 282.426 313.43C282.426 313.43 224.753 313.466 224.753 313.466C224.753 313.466 216.154 306.772 216.154 306.772C214.931 305.82 214.527 304.601 214.943 303.113C214.943 303.113 218.697 289.654 218.697 289.654C218.809 289.246 218.653 289.062 218.229 289.102C214.207 289.446 210.833 289.954 208.107 290.626C191.245 294.788 173.112 300.09 156.419 301.158C119.637 303.497 74.5686 294.992 44.6588 271.408C22.5203 253.942 1.36519 229.567 0.0100193 200.069C-0.181864 195.703 2.39656 193.255 6.53404 193.208C6.9338 193.199 7.29358 193.307 7.61338 193.531C12.5304 196.926 15.5405 203.524 18.7186 208.49C21.0932 212.217 23.6316 215.316 26.334 217.787C70.7909 258.609 142.375 253.355 181.172 208.574C189.614 198.826 196.546 190.908 201.967 184.822C214.259 171.015 228.471 157.34 241.903 143.821C268.25 117.286 303.317 97.0368 340.938 92.6464C353.323 91.1909 365.711 89.8553 378.103 88.6397C393.85 87.0803 401.129 76.404 408.445 63.7364C419.142 45.2028 424.863 34.9104 436.892 23.5023C452.338 8.8554 465.494 -0.417391 488.064 0.0144615C500.057 0.242382 504.338 1.25003 513.417 9.62313C520.445 16.1129 535.375 18.548 544.982 22.4587C556.471 27.1491 558.641 35.2462 559.001 46.5343C559.181 51.8125 558.941 55.6512 554.708 59.1779C537.282 73.7049 517.614 70.2141 496.807 70.3341C484.563 70.4061 483.531 76.224 478.674 87.1762C470.791 104.954 462.988 122.764 455.264 140.606C452.518 146.94 449.388 151.738 454.617 156.332C461.776 162.63 474.333 162.714 470.243 176.113C470.028 176.83 469.462 177.386 468.742 177.588C468.022 177.79 467.249 177.609 466.693 177.109C459.054 170.319 455.252 170.871 445.466 170.727C444.593 170.711 443.806 171.254 443.51 172.076C443.214 172.898 443.475 173.818 444.159 174.362C446.582 176.289 448.96 177.973 451.295 179.412C456.236 182.483 455.109 192.068 454.329 196.878C454.272 197.229 454.048 197.53 453.727 197.687C453.406 197.844 453.027 197.838 452.71 197.67C452.59 197.598 452.354 197.462 452.002 197.262C451.763 197.126 451.563 196.95 451.403 196.734C448.692 193.112 446.426 189.765 442.432 187.39C439.338 185.542 436.212 183.799 433.054 182.159C432.87 182.065 432.648 182.129 432.55 182.303C424.547 195.891 414.134 207.287 401.309 216.491C400.974 216.739 400.782 217.071 400.734 217.487C400.486 219.822 400.282 222.126 400.122 224.397C398.155 252.767 383.872 269.909 363.077 287.279C362.797 287.511 362.645 287.807 362.621 288.167C362.437 290.502 362.925 291.929 364.084 292.449C375.129 297.403 385.035 298.963 386.055 313.19C386.055 313.19 386.055 313.19 386.055 313.19Z" fill="#FFFFFF" fill-rule="evenodd" fill-opacity="0.2" transform="translate(13.446 18.195)" />
    <path id="Shape" d="M211.515 203.552L269.188 203.516L292.909 203.564C292.909 203.564 372.817 203.276 372.817 203.276C373.001 203.22 373.14 203.248 373.236 203.36C373.364 203.504 373.52 203.576 373.704 203.576C417.429 203.576 461.159 203.556 504.892 203.516C508.962 203.508 513.031 203.396 517.101 203.18C517.476 203.164 517.664 202.964 517.664 202.581C517.808 141.378 501.906 83.3899 473.016 29.6485C473.016 29.6485 464.261 13.3821 464.261 13.3821C464.077 13.0382 464.061 12.6904 464.213 12.3385C464.213 12.3385 469.358 0.462585 469.358 0.462585C469.622 -0.129204 469.921 -0.153191 470.257 0.390625C507.902 61.0536 530.257 130.821 529.873 202.473C529.865 203.208 530.229 203.576 530.964 203.576C530.964 203.576 615.872 203.576 615.872 203.576C616.296 203.576 616.508 203.792 616.508 204.224C616.508 204.224 616.64 335.542 616.64 335.542C616.64 336.094 616.364 336.37 615.812 336.37C615.812 336.37 498.296 336.454 498.296 336.454C497.905 336.454 497.538 336.642 497.313 336.958C493.367 342.404 490.081 348.474 486.076 353.416C481.223 359.406 478.02 363.261 476.469 364.98C414.971 433.129 317.099 448.052 232.37 422.201C192.447 410.025 153.698 384.774 129.029 350.405C125.759 345.847 122.461 341.321 119.135 336.826C118.943 336.562 118.688 336.43 118.368 336.43C118.368 336.43 1.53507 336.43 1.53507 336.43C0.687273 336.43 1.90735e-06 335.743 0 334.895C0 334.895 0 204.188 0 204.188C0 203.788 0.203876 203.588 0.611628 203.588C0.611628 203.588 211.515 203.552 211.515 203.552L211.515 203.552ZM604.575 216.376C604.575 215.932 604.216 215.572 603.772 215.572C603.772 215.572 12.7962 215.572 12.7962 215.572C12.5831 215.572 12.3787 215.657 12.228 215.807C12.0773 215.958 11.9927 216.163 11.9927 216.376C11.9927 216.376 11.9927 323.163 11.9927 323.163C11.9926 323.376 12.0772 323.58 12.2278 323.731C12.3785 323.882 12.5828 323.966 12.7959 323.966C12.7959 323.966 603.772 323.966 603.772 323.966C604.216 323.966 604.575 323.607 604.575 323.163C604.575 323.163 604.575 216.376 604.575 216.376C604.575 216.376 604.575 216.376 604.575 216.376ZM397.989 405.754C421.339 396.205 442.278 382.434 460.111 364.62C468.494 356.235 473.795 351.017 479.096 341.828C479.312 341.468 479.595 341.173 479.947 340.941C481.378 340.013 482.362 338.701 482.897 337.006C483.025 336.59 482.869 336.382 482.43 336.382C482.43 336.382 469.466 336.466 469.466 336.466C469.156 336.465 468.863 336.612 468.674 336.862C446.871 365.428 419.192 385.769 385.637 397.885C378.141 400.584 369.243 402.803 360.98 405.094C357.166 406.15 353.82 406.57 350.27 407.458C346.553 408.393 342.187 408.081 339.009 408.441C267.509 416.646 194.174 394.898 148.529 336.994C148.226 336.618 147.834 336.426 147.354 336.418C147.354 336.418 134.09 336.25 134.09 336.25C133.475 336.242 133.335 336.498 133.67 337.018C136.693 341.756 141.07 346.651 143.9 350.093C157.908 367.199 174.625 381.123 194.054 391.863C194.222 391.951 194.405 392.163 194.605 392.499C194.816 392.867 195.129 393.166 195.505 393.362C195.505 393.362 206.022 399.024 206.022 399.024C206.382 399.216 206.762 399.328 207.162 399.36C209.068 399.492 210.747 401.172 211.947 401.7C257.255 421.565 308.08 426.411 356.758 417.858C361.819 416.958 367.84 415.147 373.476 414.091C378.729 413.096 384.006 410.684 387.484 409.581C391.033 408.445 394.535 407.17 397.989 405.754C397.989 405.754 397.989 405.754 397.989 405.754Z" fill="#FFFFFF" fill-opacity="0.2" transform="translate(26.684 128.109)" />
    <path id="Shape" d="M280.917 48.476C280.917 48.476 257.195 48.428 257.195 48.428C258.071 36.768 255.3 36.2762 245.238 33.913C244.892 33.8285 244.592 33.6184 244.399 33.3252C242.168 29.8784 242.568 26.9514 245.598 24.5443C250.851 20.3457 258.814 16.3991 264.667 10.821C272.366 3.47955 277.571 -0.347137 288.652 0.0247498C289.116 0.040741 289.344 0.28064 289.336 0.744507C289.288 7.01831 290.487 16.579 286.961 23.4286C282.836 31.4179 276.803 40.3668 280.917 48.476C280.917 48.476 280.917 48.476 280.917 48.476ZM592.583 168.075C592.583 168.518 592.223 168.878 591.779 168.878C591.779 168.878 0.803509 168.878 0.803509 168.878C0.590397 168.878 0.386021 168.794 0.235336 168.643C0.0846481 168.492 -3.8147e-06 168.288 0 168.075C0 168.075 0 61.2876 0 61.2876C-7.62939e-05 61.0747 0.0845108 60.8703 0.235146 60.7195C0.385788 60.5687 0.590137 60.4839 0.803242 60.4839C0.803242 60.4839 591.779 60.4839 591.779 60.4839C592.223 60.4839 592.583 60.8437 592.583 61.2876C592.583 61.2876 592.583 168.075 592.583 168.075C592.583 168.075 592.583 168.075 592.583 168.075ZM383.706 119.467C386.872 142.103 406.636 156.018 428.835 154.387C444.297 153.251 455.778 145.394 463.278 130.815C463.502 130.383 463.382 130.079 462.918 129.904C462.918 129.904 446.068 123.486 446.068 123.486C445.692 123.341 445.265 123.487 445.049 123.834C436.042 138.289 414.24 139.98 405.797 124.793C391.25 98.6184 430.67 78.4054 445.037 104.28C445.213 104.6 445.473 104.692 445.816 104.556C445.816 104.556 462.894 97.9466 462.894 97.9466C463.278 97.7946 463.378 97.5388 463.194 97.1789C454.463 79.8329 437.397 71.1359 418.485 73.679C396.239 76.6779 380.624 97.4068 383.706 119.467C383.706 119.467 383.706 119.467 383.706 119.467ZM360.603 114.993C360.771 104.33 356.507 94.0335 348.75 86.3698C340.993 78.7061 330.378 74.3026 319.24 74.1278C296.048 73.7635 276.964 91.4686 276.616 113.673C276.448 124.337 280.712 134.633 288.469 142.296C296.226 149.96 306.841 154.364 317.979 154.538C341.171 154.903 360.254 137.197 360.603 114.993C360.603 114.993 360.603 114.993 360.603 114.993ZM566.744 113.732C566.558 103.034 561.953 92.8511 553.944 85.4241C545.934 77.9972 535.176 73.9342 524.035 74.129C500.837 74.5339 482.346 92.921 482.735 115.198C482.922 125.896 487.526 136.079 495.536 143.506C503.545 150.933 514.304 154.996 525.444 154.801C548.642 154.396 567.133 136.009 566.744 113.732C566.744 113.732 566.744 113.732 566.744 113.732ZM201.693 153.955C201.912 153.955 202.089 153.778 202.089 153.559C202.089 153.559 202.041 119.227 202.041 119.227C202.041 119.079 202.123 118.944 202.254 118.876C202.385 118.808 202.544 118.818 202.664 118.903C202.664 118.903 252.746 153.655 252.746 153.655C252.867 153.74 253.025 153.751 253.156 153.683C253.287 153.615 253.37 153.479 253.369 153.331C253.369 153.331 253.333 75.0586 253.333 75.0586C253.334 74.9516 253.29 74.849 253.213 74.7744C253.137 74.6998 253.033 74.6595 252.926 74.6628C252.926 74.6628 233.042 74.9627 233.042 74.9627C232.828 74.9692 232.658 75.1445 232.658 75.3586C232.658 75.3586 232.658 107.951 232.658 107.951C232.658 108.099 232.576 108.235 232.445 108.303C232.314 108.371 232.155 108.36 232.035 108.275C232.035 108.275 182.313 74.5309 182.313 74.5309C182.192 74.4458 182.034 74.4351 181.903 74.5032C181.771 74.5714 181.689 74.7069 181.689 74.8548C181.689 74.8548 181.689 153.583 181.689 153.583C181.689 153.802 181.867 153.979 182.085 153.979C182.085 153.979 201.693 153.955 201.693 153.955C201.693 153.955 201.693 153.955 201.693 153.955ZM25.6403 76.4981C25.6403 76.4981 25.9042 152.312 25.9042 152.312C25.9107 152.804 26.3115 153.2 26.8036 153.2C26.8036 153.2 57.361 153.092 57.361 153.092C68.2881 153.056 78.755 149.13 86.4583 142.178C94.1616 135.226 98.4702 125.819 98.4359 116.024C98.4359 116.024 98.4119 112.258 98.4119 112.258C98.3408 91.8687 79.8449 75.4034 57.097 75.4785C57.097 75.4785 26.5397 75.5865 26.5397 75.5865C26.299 75.5864 26.0684 75.6829 25.8994 75.8542C25.7304 76.0255 25.637 76.2574 25.6402 76.4981C25.6402 76.4981 25.6403 76.4981 25.6403 76.4981ZM149.297 76.0903C149.297 75.7524 149.023 75.4785 148.685 75.4785C148.685 75.4785 127.434 75.4785 127.434 75.4785C127.097 75.4785 126.823 75.7524 126.823 76.0903C126.823 76.0903 126.823 152.528 126.823 152.528C126.823 152.866 127.097 153.14 127.434 153.14C127.434 153.14 148.685 153.14 148.685 153.14C149.023 153.14 149.297 152.866 149.297 152.528C149.297 152.528 149.297 76.0903 149.297 76.0903C149.297 76.0903 149.297 76.0903 149.297 76.0903Z" fill="#FFFFFF" fill-opacity="0" transform="translate(38.677 283.197)" />
    <path id="Shape" d="M403.194 81.1434C380.996 82.7748 361.232 68.8596 358.066 46.2234C354.983 24.1631 370.598 3.43433 392.844 0.435364C411.757 -2.10776 428.822 6.58923 437.553 23.9352C437.737 24.2951 437.637 24.551 437.253 24.7029C437.253 24.7029 420.176 31.3127 420.176 31.3127C419.832 31.4486 419.572 31.3567 419.396 31.0367C405.029 5.16171 365.609 25.3747 380.156 51.5497C388.599 66.7364 410.402 65.045 419.408 50.59C419.624 50.2434 420.052 50.0974 420.428 50.2421C420.428 50.2421 437.277 56.6599 437.277 56.6599C437.741 56.8358 437.861 57.1397 437.637 57.5716C430.138 72.1505 418.657 80.0078 403.194 81.1434C403.194 81.1434 403.194 81.1434 403.194 81.1434ZM334.963 41.7492C334.614 63.9541 315.53 81.6591 292.338 81.2947C281.201 81.1199 270.586 76.7163 262.829 69.0526C255.072 61.3889 250.808 51.0928 250.975 40.4296C251.143 29.766 255.728 19.6091 263.722 12.1929C271.716 4.77667 282.464 0.70874 293.601 0.884094C316.793 1.24863 335.312 19.5445 334.963 41.7491C334.963 41.7491 334.963 41.7492 334.963 41.7492ZM315.252 40.9898C315.231 28.9459 305.195 19.1995 292.836 19.2209C280.477 19.2427 270.475 29.0244 270.496 41.069C270.517 53.1129 280.553 62.8593 292.912 62.8378C305.271 62.8161 315.273 53.0343 315.252 40.9898C315.252 40.9898 315.252 40.9898 315.252 40.9898ZM541.104 40.4884C541.493 62.765 523.002 81.1523 499.804 81.5574C488.664 81.752 477.906 77.6889 469.896 70.2618C461.887 62.8347 457.282 52.6522 457.096 41.9543C456.707 19.6777 475.198 1.29037 498.396 0.885345C509.536 0.690735 520.294 4.75385 528.304 12.1809C536.313 19.608 540.918 29.7905 541.104 40.4884C541.104 40.4884 541.104 40.4884 541.104 40.4884ZM521.493 41.6711C521.849 29.6714 512.101 19.646 499.721 19.2785C493.776 19.1018 488.006 21.2214 483.681 25.1712C479.356 29.1209 476.83 34.5772 476.659 40.3396C476.303 52.3393 486.05 62.3647 498.431 62.7322C504.376 62.9089 510.146 60.7893 514.471 56.8396C518.796 52.8898 521.322 47.4335 521.493 41.6711C521.493 41.6711 521.493 41.6711 521.493 41.6711ZM176.053 80.7115C176.053 80.7115 156.445 80.7354 156.445 80.7354C156.226 80.7354 156.049 80.5582 156.049 80.3396C156.049 80.3396 156.049 1.61087 156.049 1.61087C156.049 1.4631 156.131 1.32755 156.262 1.25937C156.394 1.19122 156.552 1.2019 156.673 1.28702C156.673 1.28702 206.394 35.0313 206.394 35.0313C206.515 35.1164 206.673 35.1271 206.805 35.059C206.936 34.9908 207.018 34.8553 207.018 34.7074C207.018 34.7074 207.018 2.11469 207.018 2.11469C207.018 1.90067 207.188 1.72531 207.402 1.71884C207.402 1.71884 227.286 1.41895 227.286 1.41895C227.393 1.41568 227.496 1.45596 227.573 1.53052C227.65 1.60513 227.693 1.70767 227.693 1.81479C227.693 1.81479 227.729 80.0877 227.729 80.0877C227.729 80.2354 227.647 80.371 227.516 80.4392C227.385 80.5073 227.227 80.4966 227.106 80.4115C227.106 80.4115 177.024 45.6596 177.024 45.6596C176.903 45.5745 176.745 45.5638 176.614 45.6319C176.483 45.7 176.401 45.8356 176.401 45.9835C176.401 45.9835 176.449 80.3156 176.449 80.3156C176.449 80.5343 176.271 80.7115 176.053 80.7114C176.053 80.7114 176.053 80.7115 176.053 80.7115ZM8.39233e-05 3.25449C-0.00313568 3.01379 0.09021 2.78189 0.259239 2.61057C0.428268 2.43924 0.658882 2.34277 0.899529 2.3428C0.899529 2.3428 31.4569 2.23483 31.4569 2.23483C54.2047 2.15973 72.7006 18.6251 72.7717 39.0141C72.7717 39.0141 72.7957 42.7808 72.7957 42.7808C72.8299 52.5752 68.5212 61.9831 60.8178 68.9347C53.1144 75.8864 42.6476 79.812 31.7204 79.848C31.7204 79.848 1.16304 79.9559 1.16304 79.9559C0.670929 79.956 0.270149 79.5605 0.26358 79.0682C0.26358 79.0682 -0.000259399 3.25449 -0.000259399 3.25449C-0.000259399 3.25449 8.39233e-05 3.25449 8.39233e-05 3.25449ZM23.1819 20.7563C23.1819 20.7563 23.1819 61.0383 23.1819 61.0383C23.1819 61.1306 23.2185 61.2191 23.2838 61.2844C23.349 61.3496 23.4374 61.3863 23.5297 61.3863C23.5297 61.3863 29.9098 61.3863 29.9098 61.3863C40.7788 61.3863 49.5898 52.9059 49.5898 42.4448C49.5898 42.4448 49.5898 39.3499 49.5898 39.3499C49.5898 28.8888 40.7787 20.4084 29.9098 20.4084C29.9098 20.4084 23.5297 20.4084 23.5297 20.4084C23.4374 20.4084 23.349 20.4451 23.2837 20.5103C23.2185 20.5756 23.1819 20.6641 23.1819 20.7563C23.1819 20.7563 23.1819 20.7563 23.1819 20.7563Z" fill="#FFFFFF" fill-opacity="0.2" transform="translate(64.316 356.441)" />
    <path id="Path" d="M0 1.22357L0 0.611786C0 0.442841 0.0597076 0.298645 0.179138 0.179199C0.298569 0.0597229 0.442734 0 0.611633 0L21.8627 0C22.0316 0 22.1757 0.0597229 22.2952 0.179199C22.4146 0.298645 22.4743 0.442841 22.4743 0.611786L22.4743 77.0493C22.4743 77.2182 22.4146 77.3624 22.2952 77.4819C22.1757 77.6013 22.0316 77.6611 21.8627 77.6611L0.611633 77.6611C0.442734 77.6611 0.298569 77.6013 0.179138 77.4819C0.0597076 77.3624 0 77.2182 0 77.0493L0 1.22357Z" fill="#FFFFFF" fill-rule="evenodd" fill-opacity="0.2" transform="translate(165.499 358.676)" />
    <path id="Oval" d="M0 21.8084C0 9.76398 10.0191 0 22.3784 0C34.7376 0 44.7567 9.76398 44.7567 21.8084C44.7567 33.8529 34.7376 43.6169 22.3784 43.6169C10.0191 43.6169 0 33.8529 0 21.8084Z" fill="#FFFFFF" fill-rule="evenodd" fill-opacity="0" transform="translate(334.818 375.657)" />
    <path id="Oval" d="M0 21.7373C0 9.73212 10.0404 0 22.4259 0C34.8114 0 44.8518 9.73212 44.8518 21.7373C44.8518 33.7425 34.8114 43.4746 22.4259 43.4746C10.0404 43.4746 0 33.7425 0 21.7373Z" fill="#FFFFFF" fill-rule="evenodd" fill-opacity="0" transform="translate(540.967 375.709)" />
    <path id="Shape" d="M3.05176e-05 0.347931C1.52588e-05 0.255646 0.0366592 0.167145 0.101891 0.101868C0.167107 0.0366516 0.255577 0 0.347816 0C0.347816 0 6.72793 0 6.72793 0C17.5969 0 26.4079 8.48038 26.4079 18.9414C26.4079 18.9414 26.4079 22.0363 26.4079 22.0363C26.4079 32.4975 17.5969 40.9778 6.7279 40.9778C6.7279 40.9778 0.347786 40.9778 0.347786 40.9778C0.255554 40.9778 0.167084 40.9412 0.10186 40.8759C0.0366364 40.8107 0 40.7222 0 40.6299C0 40.6299 0 0.347931 0 0.347931C0 0.347931 3.05176e-05 0.347931 3.05176e-05 0.347931ZM337.174 157.014C333.72 158.429 330.219 159.705 326.669 160.84C323.191 161.944 317.914 164.355 312.661 165.351C307.025 166.406 301.004 168.218 295.943 169.117C247.265 177.67 196.44 172.824 151.132 152.959C149.933 152.431 148.254 150.752 146.347 150.62C145.947 150.588 145.567 150.476 145.207 150.284C145.207 150.284 134.69 144.622 134.69 144.622C134.314 144.426 134.001 144.126 133.79 143.758C133.59 143.422 133.407 143.21 133.239 143.122C113.811 132.382 97.0927 118.459 83.0853 101.353C80.255 97.9101 75.8777 93.0158 72.8555 88.2775C72.5197 87.7577 72.6596 87.5017 73.2753 87.5097C73.2753 87.5097 86.5392 87.6777 86.5392 87.6777C87.0189 87.6857 87.4106 87.8776 87.7144 88.2535C133.359 146.157 206.694 167.906 278.194 159.701C281.372 159.341 285.738 159.653 289.455 158.717C293.005 157.829 296.351 157.41 300.165 156.354C308.428 154.063 317.326 151.843 324.822 149.144C358.377 137.029 386.056 116.688 407.859 88.1215C408.048 87.8716 408.341 87.7249 408.651 87.7256C408.651 87.7256 421.615 87.6417 421.615 87.6417C422.055 87.6417 422.21 87.8496 422.082 88.2654C421.547 89.9609 420.563 91.2724 419.132 92.2001C418.781 92.432 418.497 92.7279 418.281 93.0878C412.98 102.277 407.679 107.495 399.296 115.88C381.463 133.694 360.524 147.465 337.174 157.014C337.174 157.014 337.174 157.014 337.174 157.014Z" fill="#FFFFFF" fill-opacity="0" transform="translate(87.499 376.849)" />
  </g>
</svg>