<?xml version="1.0" encoding="utf-8"?>
<svg width="36" height="34.373" viewBox="0 0 36 34.373" fill="none" xmlns="http://www.w3.org/2000/svg">
  <g id="Group">
    <path id="Path" d="M7.5 0C7.5 0 28.5 0 28.5 0C32.642 0 36 3.20633 36 7.16009C36 7.16009 36 27.211 36 27.211C36 31.1647 32.642 34.3725 28.5 34.3725C28.5 34.3725 23.25 34.3725 18 34.3725C12.75 34.3725 7.5 34.3725 7.5 34.3725C3.35803 34.3725 0 31.1647 0 27.211C0 27.211 0 7.16009 0 7.16009C0 3.20633 3.35803 0 7.5 0C7.5 0 7.5 0 7.5 0Z" fill="#FFFFFF" fill-rule="evenodd" />
    <path d="M14.502 5.32471L11.7773 16.0327L9.19189 16.0327L7.7417 10.4077Q7.69775 10.2466 7.62451 9.91699Q7.55127 9.5874 7.4707 9.19556Q7.39014 8.80371 7.32788 8.45581Q7.26563 8.10791 7.24365 7.90283Q7.22168 8.10791 7.15942 8.45215Q7.09717 8.79639 7.02026 9.18457Q6.94336 9.57275 6.87012 9.90967Q6.79688 10.2466 6.75293 10.4224L5.31006 16.0327L2.73193 16.0327L0 5.32471L2.23389 5.32471L3.60352 11.1694Q3.66211 11.4331 3.73901 11.7993Q3.81592 12.1655 3.89282 12.5647Q3.96973 12.9639 4.03198 13.3337Q4.09424 13.7036 4.12354 13.9746Q4.16016 13.6963 4.21875 13.3264Q4.27734 12.9565 4.34692 12.572Q4.4165 12.1875 4.48975 11.8579Q4.56299 11.5283 4.62158 11.3232L6.18164 5.32471L8.32764 5.32471L9.8877 11.3232Q9.93896 11.521 10.0085 11.8542Q10.0781 12.1875 10.1514 12.5757Q10.2246 12.9639 10.2869 13.3337Q10.3491 13.7036 10.3784 13.9746Q10.4297 13.6084 10.5212 13.0847Q10.6128 12.561 10.719 12.041Q10.8252 11.521 10.9058 11.1694L12.2681 5.32471L14.502 5.32471ZM15.8496 5.32471L19.1821 5.32471Q21.3208 5.32471 22.4194 5.92529Q23.5181 6.52588 23.5181 8.03467Q23.5181 8.64258 23.324 9.1333Q23.1299 9.62402 22.7637 9.93896Q22.3975 10.2539 21.8701 10.3491L21.8701 10.4224Q22.4048 10.5322 22.8369 10.7996Q23.269 11.0669 23.5291 11.5759Q23.7891 12.085 23.7891 12.9272Q23.7891 13.9014 23.313 14.5972Q22.8369 15.293 21.9543 15.6628C21.366 15.9094 20.6665 16.0327 19.856 16.0327L15.8496 16.0327L15.8496 5.32471ZM18.1201 9.56543L19.4385 9.56543Q20.4272 9.56543 20.8081 9.25415Q21.189 8.94287 21.189 8.33496Q21.189 7.71973 20.7385 7.45239Q20.2881 7.18506 19.314 7.18506L18.1201 7.18506L18.1201 9.56543ZM18.1201 11.3672L18.1201 14.1577L19.5996 14.1577Q20.625 14.1577 21.0278 13.7622Q21.4307 13.3667 21.4307 12.7002Q21.4307 12.3047 21.2549 12.0044Q21.0791 11.7041 20.6653 11.5356Q20.2515 11.3672 19.5264 11.3672L18.1201 11.3672Z" fill="#474747" transform="translate(6 6)" />
  </g>
</svg>