<?xml version="1.0" encoding="utf-8"?>
<svg width="354" height="181" viewBox="0 0 354 181" fill="none" xmlns="http://www.w3.org/2000/svg">
  <g id="Group">
    <g id="Group" transform="translate(8.793 7.844)">
      <path id="Path" d="M12.0751 80.128C12.3053 80.3713 12.5388 80.6311 12.7756 80.9075C12.8641 81.0114 12.8475 81.0932 12.7258 81.1529C0.448642 87.1864 -3.47222 101.794 3.28388 113.533C5.52595 117.434 8.73192 120.163 12.9018 121.722C19.5383 124.207 25.5973 122.445 31.7856 119.779C31.9229 119.721 31.9727 119.764 31.935 119.908C29.9265 127.554 30.8096 135.746 35.8061 142.049C42.4327 150.407 53.3786 152.474 62.9566 147.939C63.025 147.906 63.1041 147.902 63.176 147.928C63.2479 147.955 63.3064 148.009 63.3384 148.079C65.8317 153.562 71.5885 157.88 77.8532 155.323C80.6752 154.172 83.2349 151.575 84.7322 148.928C84.7602 148.879 84.813 148.851 84.869 148.853C84.925 148.856 84.9747 148.89 84.9977 148.941C87.5441 154.64 92.544 159.476 98.7656 160.643C106.972 162.182 114.386 157.937 118.616 151.008C119.091 150.225 119.572 149.424 120.056 148.606C120.127 148.489 120.197 148.489 120.266 148.606C120.872 149.628 121.552 150.599 122.304 151.518C128.609 159.237 138.691 155.502 142.698 147.857C142.736 147.786 142.81 147.741 142.889 147.74C142.969 147.739 143.042 147.781 143.08 147.85C148.963 158.17 157.787 164.031 169.55 165.433C183.6 167.111 196.415 158.802 203.666 147.293C203.679 147.272 203.701 147.259 203.726 147.259C203.75 147.259 203.773 147.272 203.786 147.293C209.346 157.141 222.019 153.873 224.824 143.982C224.832 143.948 224.861 143.922 224.896 143.919C224.931 143.915 224.965 143.934 224.98 143.966C227.14 148.139 230.024 151.502 233.632 154.056C240.969 159.25 249.657 160.882 258.133 157.565C267.233 154.009 273.299 146.742 274.925 137.136C275.228 135.345 275.055 133.385 275.052 131.494C275.051 131.455 275.072 131.419 275.105 131.399C275.139 131.38 275.18 131.379 275.214 131.398C276.542 132.161 277.911 132.829 279.321 133.401C294.072 139.395 309.32 129.448 308.633 113.344C308.628 113.2 308.693 113.153 308.825 113.201C311.7 114.258 314.441 114.832 317.046 114.923C329.349 115.347 340.056 105.168 337.709 92.4803C337.326 90.4017 336.553 88.417 335.388 86.5264C333.328 83.1763 330.57 80.4243 327.115 78.2705C326.998 78.1975 326.993 78.119 327.102 78.035C330.926 75.0232 333.984 70.8107 334.801 66.0078C336.656 55.0619 327.012 45.5821 316.72 44.0895C313.637 43.6428 310.807 44.1635 308.231 45.6517C308.132 45.7092 308.093 45.6816 308.115 45.5688C309.572 38.0626 308.138 30.0655 301.352 25.8397C296.644 22.9075 290.728 22.6587 285.506 24.4665C285.393 24.5063 285.336 24.4665 285.333 24.347C285.264 17.1825 282.053 11.3148 274.829 9.24171C269.825 7.80659 265.188 8.6911 260.919 11.8953C260.823 11.966 260.74 11.9528 260.67 11.8555C258.17 8.32955 254.913 5.29456 251.002 3.50673C240.371 -1.35591 228.805 4.27626 223.762 14.4592C223.695 14.5941 223.618 14.6008 223.529 14.4791C217.168 5.75229 205.558 6.83029 200.542 16.1343C200.473 16.2603 200.407 16.2581 200.343 16.1277C199.493 14.3608 198.935 13.2464 198.669 12.7842C192.408 1.91128 178.215 -0.0822032 169.63 9.35449C169.544 9.44736 169.457 9.44847 169.371 9.35781C155.998 -4.66288 133.625 -2.89828 123.917 14.4493C123.853 14.5643 123.771 14.5787 123.672 14.4924C122.572 13.5305 121.867 12.9357 121.557 12.7079C115.787 8.44897 108.779 9.60658 103.423 13.9484C103.324 14.0303 103.23 14.0247 103.141 13.9319C100.045 10.5995 96.4814 8.38373 92.451 7.28472C81.9002 4.41225 69.9716 9.19528 65.4532 19.5375C65.4023 19.6547 65.3215 19.6812 65.2108 19.6171C59.0988 16.1011 52.1867 14.7379 45.3874 16.529C36.6659 18.831 30.0161 26.0718 27.6423 34.666C26.5711 38.5446 26.3165 42.7616 26.8787 47.3168C26.892 47.4407 26.8378 47.5004 26.716 47.4959C8.07783 47.078 -0.793066 66.502 12.075 80.128" fill="none" stroke-width="2" stroke="#000000" stroke-opacity="0.039" />
      <path id="Shape" d="M153.895 44.8868C154.503 44.9365 154.974 44.7773 155.578 44.9266C157.964 45.5192 159.872 45.9051 161.302 46.0842C168.284 46.9532 175.717 43.7126 178.456 36.8233C181.135 30.08 178.31 23.4627 172.218 19.6814C170.667 18.7195 165.953 16.4805 165.933 14.3013C165.907 11.9098 168.974 11.7075 170.734 11.9861C172.55 12.2713 174.615 13.5882 176.368 14.497C176.474 14.5523 176.524 14.5202 176.517 14.4008C176.517 14.4008 175.83 0.0782928 175.83 0.0782928C175.826 -0.00352859 175.789 -0.0212135 175.72 0.025219C173.881 1.27239 170.601 1.17287 168.496 0.798061C162.308 -0.306477 153.683 1.52779 151.339 8.18487C150.639 10.1728 150.251 11.64 150.173 12.5864C149.632 19.3563 154.191 23.2471 159.267 26.5242C160.452 27.2871 161.299 27.924 162.255 28.73C163.506 29.7847 163.789 31.6323 162.593 32.8098C161.558 33.8281 158.925 33.9475 157.647 33.3538C155.141 32.1884 152.89 30.6239 150.894 28.6603C150.855 28.6227 150.796 28.6141 150.748 28.6388C150.7 28.6636 150.673 28.7163 150.681 28.7698C150.978 30.7975 151.125 32.8518 151.123 34.9326C151.123 36.0902 151.329 37.3441 151.382 38.6476C151.455 40.4609 151.642 42.7208 151.943 45.4274C151.958 45.5535 152.013 45.5734 152.106 45.4871C152.595 45.0294 153.191 44.8293 153.895 44.8868M0.154945 20.3779C-3.03552 53.67 44.131 55.3285 41.5149 20.9816C40.997 14.162 38.0588 7.05713 32.3053 3.48147C26.6614 -0.0245285 19.4804 -0.621574 13.2754 1.73345C5.31084 4.7585 0.961693 11.9463 0.154945 20.3779" fill="none" stroke-width="2" stroke="#000000" stroke-opacity="0.039" transform="translate(120.964 40.392)" />
      <path id="Shape" d="M143.174 21.0228C143.174 21.0228 152.888 37.8197 152.888 37.8197C152.977 37.9745 153.067 37.9745 153.157 37.8197C153.157 37.8197 162.832 21.0592 162.832 21.0592C162.861 21.0121 162.916 20.9886 162.97 21.0006C163.024 21.0126 163.064 21.0574 163.071 21.1123C163.635 26.7743 164.196 32.4429 164.654 38.1381C164.873 40.8613 163.725 41.8597 162.466 43.9726C162.4 44.0832 162.432 44.1385 162.563 44.1385C167.751 44.1517 172.94 44.1517 178.13 44.1385C178.884 44.1352 179.853 43.9395 180.819 44.2081C180.874 44.2257 180.933 44.2021 180.961 44.1519C180.988 44.1017 180.976 44.039 180.932 44.0025C178.654 41.9493 178.183 39.7999 177.947 36.5261C177.23 26.5842 176.525 16.6378 175.833 6.68696C175.64 3.95712 176.433 2.03992 178.492 0.321754C178.66 0.182438 178.635 0.112785 178.415 0.112785C178.415 0.112785 161.992 0.139317 161.992 0.139317C161.881 0.139317 161.8 0.186863 161.749 0.28194C161.749 0.28194 153.061 16.2663 153.061 16.2663C153.048 16.2904 153.023 16.3055 152.996 16.3055C152.969 16.3055 152.944 16.2904 152.932 16.2663C152.932 16.2663 143.755 0.155895 143.755 0.155895C143.713 0.0807152 143.648 0.0431213 143.559 0.0431213C143.559 0.0431213 126.943 0 126.943 0C126.885 0.000869751 126.834 0.0390434 126.818 0.0943832C126.801 0.149723 126.822 0.209496 126.87 0.242142C129.493 1.97026 129.639 4.05662 129.552 7.2641C129.302 16.6002 128.903 25.9296 128.354 35.2524C128.284 36.483 128.075 37.7269 127.896 38.9442C127.57 41.2063 126.79 42.679 125.077 44.0157C124.942 44.1197 124.96 44.1716 125.13 44.1716C125.13 44.1716 143.755 44.0821 143.755 44.0821C143.859 44.0821 143.958 44.1042 144.051 44.1484C144.155 44.1971 144.261 44.2114 144.369 44.1915C144.555 44.1584 144.574 44.0854 144.426 43.9726C142.58 42.5596 141.83 40.9111 141.942 38.5196C142.221 32.5602 142.452 26.7732 142.633 21.1587C142.655 20.4843 142.836 20.439 143.174 21.0227M41.0591 0.587105C42.8297 2.43354 43.714 4.5409 43.7117 6.90919C43.6985 16.4863 43.6952 26.0645 43.7018 35.6438C43.7051 39.3787 43.2868 41.6972 40.5777 44.0091C40.4914 44.0843 40.5058 44.1219 40.6209 44.1219C40.6209 44.1219 60.2351 44.092 60.2351 44.092C60.3679 44.092 60.3834 44.0511 60.2816 43.9693C58.2432 42.3208 57.6423 40.5363 57.5958 37.7998C57.5404 34.4696 57.536 31.1361 57.5825 27.7993C57.5825 27.6953 57.6345 27.6434 57.7385 27.6434C57.7385 27.6434 68.2628 27.6434 68.2628 27.6434C68.3734 27.6434 68.4288 27.6986 68.4288 27.8092C68.442 30.3832 68.4432 32.956 68.4321 35.5277C68.4188 39.256 68.0835 41.6773 65.3811 43.9594C65.3534 43.9823 65.3428 44.0201 65.3547 44.0541C65.3665 44.0881 65.3982 44.1111 65.4342 44.112C65.4342 44.112 84.6401 44.1319 84.6401 44.1319C85.096 44.1341 85.1458 43.9926 84.7895 43.7073C82.4888 41.8763 82.2198 39.3522 82.2165 36.2309C82.2099 26.7356 82.2099 17.2415 82.2165 7.7484C82.2198 4.42152 82.6979 2.30863 85.085 0.232224C85.1801 0.150402 85.1646 0.109497 85.0385 0.109497C85.0385 0.109497 65.4508 0.112816 65.4508 0.112816C65.3468 0.112816 65.3335 0.1493 65.4109 0.222271C67.6187 2.29868 68.3391 4.70677 68.2794 7.74508C68.2285 10.4628 68.192 13.1959 68.1698 15.9445C68.1676 16.0507 68.1134 16.1038 68.0072 16.1038C68.0072 16.1038 57.6522 16.1237 57.6522 16.1237C57.5178 16.1237 57.4084 16.0158 57.4066 15.8815C57.3822 12.6398 57.3866 9.40908 57.4198 6.18944C57.4442 3.93171 58.4225 1.95261 60.3547 0.252125C60.4587 0.159248 60.441 0.112808 60.3016 0.112808C60.3016 0.112808 40.7205 0.112808 40.7205 0.112808C40.6187 0.112808 40.5943 0.157032 40.6475 0.245483C40.7371 0.39143 40.9861 0.510834 41.0592 0.587128M214.862 34.9173C215.466 36.8743 216.05 38.8379 216.615 40.8082C217.015 42.2057 216.776 43.307 215.898 44.1119C215.802 44.2003 215.819 44.2435 215.947 44.2412C221.335 44.1727 226.721 44.1373 232.106 44.1351C232.74 44.1351 233.301 43.9062 234.025 44.2943C234.056 44.3098 234.077 44.3009 234.088 44.2678C234.088 44.2678 234.124 44.155 234.124 44.155C234.142 44.0997 234.13 44.0544 234.088 44.019C232.116 42.3672 230.678 40.2299 229.775 37.6073C226.03 26.7455 222.292 15.8803 218.56 5.01182C217.893 3.06478 217.657 1.76123 219.002 0.232113C219.033 0.195755 219.04 0.144714 219.02 0.101311C219 0.0578957 218.957 0.0299873 218.909 0.0297852C218.909 0.0297852 198.411 0.0297852 198.411 0.0297852C198.268 0.0297852 198.247 0.0806389 198.348 0.182362C199.493 1.33224 199.793 2.64132 199.248 4.10961C195.457 14.3523 193.09 21.4671 189.879 29.7562C189.663 30.3134 189.551 31.0332 189.311 31.6501C188.501 33.742 187.711 35.8405 186.941 37.9457C185.895 40.8082 184.886 42.4932 182.542 44.1019C182.485 44.1386 182.464 44.2129 182.495 44.2737C182.526 44.3345 182.598 44.3621 182.662 44.3374C183.521 44.0422 184.112 44.1284 184.972 44.1384C189.784 44.1782 194.596 44.1439 199.407 44.0356C199.775 44.0267 200.113 44.124 200.423 44.3275C200.505 44.3828 200.567 44.3651 200.609 44.2744C200.642 44.2014 200.62 44.1351 200.543 44.0754C199.255 43.1035 199.092 42.0255 199.627 40.4732C200.264 38.6135 200.946 36.766 201.672 34.9306C201.714 34.8267 201.79 34.7747 201.901 34.7747C201.901 34.7747 214.669 34.7747 214.669 34.7747C214.769 34.7747 214.833 34.8223 214.862 34.9173M13.4006 10.4948C13.4161 18.964 13.4172 27.4332 13.404 35.9025C13.3973 39.4947 13.0321 41.7502 10.3795 43.9262C10.2799 44.0058 10.2943 44.0456 10.4226 44.0456C10.4226 44.0456 29.5854 44.0655 29.5854 44.0655C29.7049 44.0655 29.7237 44.0223 29.6418 43.9361C27.8314 42.0167 26.9095 39.571 26.8763 36.599C26.7767 27.8888 26.7812 19.1884 26.8896 10.4981C26.8918 10.403 26.9405 10.3521 27.0357 10.3455C31.6869 10.0801 37.0387 10.707 40.0067 14.2694C40.2679 14.5812 40.3642 14.537 40.2956 14.1367C40.2956 14.1367 37.9816 0.268631 37.9816 0.268631C37.9638 0.158062 37.8986 0.102783 37.7857 0.102783C37.7857 0.102783 2.0099 0.142586 2.0099 0.142586C1.96037 0.142128 1.91871 0.178005 1.91361 0.22551C1.91361 0.22551 0.00463486 14.4684 0.00463486 14.4684C-0.0152817 14.6055 0.0289841 14.631 0.137432 14.5447C1.17658 13.7155 2.30204 12.7768 3.36775 12.2063C6.33578 10.6175 9.97777 10.1863 13.2214 10.3123C13.3387 10.3167 13.3984 10.3776 13.4006 10.4948M43.2105 67.2477C43.2026 67.2922 43.1688 67.3277 43.1246 67.3378C43.0805 67.3479 43.0346 67.3307 43.008 67.2941C41.9589 65.9043 37.9583 61.1544 39.1801 59.5258C40.1927 58.1792 42.2178 58.6601 43.3367 59.632C43.4252 59.7072 43.4916 59.6917 43.5358 59.5855C43.6554 59.3003 43.6454 58.9885 43.7716 58.7165C44.834 56.4123 45.8587 54.0916 46.8459 51.7543C46.8857 51.6636 46.858 51.6028 46.7629 51.5718C45.4548 51.1307 43.7317 51.0577 42.8353 50.9084C40.8766 50.5801 38.7252 50.1323 36.8926 50.182C33.6225 50.2683 29.3198 51.7144 28.377 55.111C27.7307 57.4505 27.9686 59.6884 29.0907 61.8245C29.1209 61.884 29.1248 61.9534 29.1013 62.0153C29.0779 62.0773 29.0294 62.1261 28.9679 62.1495C23.4601 64.2691 20.7909 70.1533 22.6268 75.7291C24.2735 80.7244 28.3006 83.5205 33.4963 83.6001C36.0261 83.6366 39.4556 82.9865 41.3148 81.0229C41.421 80.9101 41.5262 80.9123 41.6302 81.0295C41.6302 81.0295 43.2669 82.9069 43.2669 82.9069C43.3422 82.9931 43.4363 83.0363 43.5491 83.0363C43.5491 83.0363 55.6537 83.0363 55.6537 83.0363C55.7864 83.0363 55.8031 82.9931 55.7035 82.9069C52.9811 80.585 50.6217 77.9415 48.6253 74.9761C48.5612 74.8832 48.5656 74.7937 48.6386 74.7074C51.1684 71.6691 50.8696 67.4467 53.4094 64.3022C53.5023 64.1872 53.4747 64.1297 53.3264 64.1297C53.3264 64.1297 43.8977 64.1297 43.8977 64.1297C43.7959 64.1297 43.7361 64.1795 43.7184 64.279C43.7184 64.279 43.2105 67.2477 43.2105 67.2477M231.654 71.0057C233.131 72.0406 233.244 74.3658 231.193 74.7406C228.497 75.2348 225.887 72.976 224.048 71.281C223.955 71.197 223.913 71.2169 223.922 71.3407C223.922 71.3407 224.775 82.8803 224.775 82.8803C224.786 83.0307 224.859 83.0705 224.994 82.9997C226.521 82.2037 229.709 83.3115 231.305 83.5072C237.819 84.3033 244.041 80.0344 243.881 73.0788C243.789 69.198 241.767 66.7633 238.599 64.75C237.5 64.0534 235.515 63.0981 234.841 62.0035C234.287 61.098 234.602 60.0266 235.588 59.6551C237.899 58.7828 239.957 60.2953 241.66 61.2075C241.807 61.2849 241.876 61.2406 241.87 61.0748C241.87 61.0748 241.441 51.2798 241.441 51.2798C241.437 51.1715 241.386 51.1394 241.289 51.1837C239.865 51.8094 238.427 51.9908 236.973 51.7276C233.41 51.0808 229.579 51.3595 226.76 53.6946C223.846 56.1093 222.408 60.9454 224.447 64.4912C226.063 67.304 229.247 69.3173 231.654 71.0057M86.3963 52.3313C87.6678 53.2004 88.2057 54.4409 88.1857 56.2221C88.1061 64.322 88.2123 72.4187 88.0862 80.5187C88.0839 80.6381 88.0463 80.7442 87.9733 80.8371C87.9733 80.8371 86.3432 82.9467 86.3432 82.9467C86.2989 83.0064 86.3133 83.0362 86.3863 83.0362C86.3863 83.0362 100.141 83.0362 100.141 83.0362C100.336 83.0362 100.352 82.982 100.191 82.8737C98.949 82.0334 98.2651 80.9532 98.139 79.633C97.9951 78.1404 98.0139 75.0114 98.1954 70.2461C98.1976 70.1599 98.222 70.1532 98.2684 70.2262C100.798 74.3326 103.134 78.5473 105.277 82.8704C105.327 82.9718 105.431 83.036 105.546 83.0362C105.546 83.0362 117.239 83.0362 117.239 83.0362C117.402 83.0362 117.421 82.9843 117.295 82.8803C116.306 82.0577 115.446 81.4275 114.759 80.3097C112.439 76.535 110.135 72.7526 107.846 68.9625C107.787 68.863 107.812 68.7977 107.923 68.7668C111.856 67.6611 113.634 65.0076 113.258 60.8061C112.73 54.8986 108.733 52.0162 102.963 52.0229C97.5048 52.0273 92.0181 52.0195 86.5025 51.9996C86.1063 51.9996 86.0709 52.1102 86.3963 52.3313M169.252 69.1482C169.253 69.1256 169.268 69.1052 169.289 69.0989C169.31 69.0926 169.332 69.102 169.342 69.1217C169.342 69.1217 177.715 82.8903 177.715 82.8903C177.775 82.9876 177.861 83.0362 177.974 83.0362C177.974 83.0362 189.531 83.0362 189.531 83.0362C189.714 83.0362 189.735 82.9776 189.594 82.8604C187.814 81.3811 187.505 79.8785 187.529 77.4538C187.622 68.2361 187.422 62.8095 187.572 56.2884C187.615 54.4409 188.266 53.1539 189.756 52.2086C189.81 52.1739 189.835 52.1078 189.818 52.046C189.8 51.9842 189.744 51.9411 189.68 51.9399C189.68 51.9399 175.769 51.9399 175.769 51.9399C175.714 51.9399 175.666 51.9754 175.649 52.0277C175.632 52.08 175.652 52.137 175.696 52.1688C177.1 53.1926 177.816 54.5835 177.844 56.3415C177.9 59.8044 177.917 63.2175 177.897 66.5809C177.896 66.6466 177.851 66.7036 177.788 66.7211C177.725 66.7387 177.657 66.7127 177.622 66.6572C177.622 66.6572 168.937 52.2218 168.937 52.2218C168.886 52.14 168.812 52.0991 168.715 52.0991C168.715 52.0991 157.573 52.1091 157.573 52.1091C157.429 52.1091 157.412 52.1555 157.523 52.2484C158.831 53.3297 159.485 54.609 159.485 56.0861C159.483 63.3701 159.483 70.6541 159.485 77.9381C159.488 80.1173 159.06 81.5337 157.543 82.9334C157.472 82.9997 157.485 83.0329 157.583 83.0329C157.583 83.0329 171.354 83.0395 171.354 83.0395C171.386 83.0391 171.415 83.0184 171.425 82.9879C171.436 82.9574 171.426 82.9236 171.4 82.9035C169.72 81.5768 169.279 80.0443 169.276 77.7988C169.267 74.9153 169.259 72.0317 169.252 69.1482M83.3653 59.6451C84.2118 59.6019 85.0883 60.272 85.5896 60.8889C85.6158 60.9187 85.6579 60.9286 85.6946 60.9136C85.7313 60.8987 85.7545 60.8621 85.7523 60.8226C85.7523 60.8226 84.8792 52.2284 84.8792 52.2284C84.8659 52.0913 84.7906 52.0228 84.6534 52.0228C84.6534 52.0228 63.5551 52.0228 63.5551 52.0228C63.5165 52.0212 63.4813 52.0446 63.4677 52.0808C63.4541 52.117 63.4653 52.1577 63.4954 52.182C65.162 53.595 65.5603 55.0544 65.5438 57.3498C65.4862 64.3131 65.4829 71.2776 65.5338 78.2431C65.5504 80.3992 64.986 81.7458 63.3227 82.9698C63.1877 83.0693 63.2043 83.119 63.3725 83.119C63.3725 83.119 77.313 83.119 77.313 83.119C77.4391 83.119 77.4546 83.0781 77.3595 82.9963C75.7626 81.5999 75.4007 80.2068 75.404 77.9712C75.404 75.9368 75.3985 73.8991 75.3874 71.858C75.3874 71.7386 75.4472 71.6789 75.5667 71.6789C77.3241 71.6723 79.0803 71.6712 80.8354 71.6756C82.4191 71.6789 83.1959 72.2196 84.1288 73.3672C84.146 73.389 84.1749 73.3971 84.2014 73.3875C84.2279 73.3779 84.2466 73.3527 84.2483 73.3241C84.2483 73.3241 84.2948 62.8625 84.2948 62.8625C84.2948 62.7497 84.2561 62.7343 84.1786 62.8161C82.263 64.8328 78.9696 64.2788 75.58 64.1694C75.456 64.165 75.394 64.1019 75.394 63.9803C75.394 63.9803 75.414 59.7877 75.414 59.7877C75.414 59.6572 75.4792 59.5931 75.6098 59.5953C78.1961 59.6119 80.8222 59.7678 83.3652 59.6451M118.693 52.3445C119.958 53.4125 120.552 54.5436 120.555 56.2983C120.562 63.5491 120.562 70.801 120.555 78.0541C120.552 80.2034 120.15 81.5302 118.583 82.857C118.442 82.9764 118.464 83.0361 118.65 83.0361C118.65 83.0361 132.344 83.0361 132.344 83.0361C132.517 83.0361 132.539 82.9797 132.411 82.8669C131.099 81.7192 130.266 80.4356 130.269 78.6047C130.272 70.9868 130.271 63.3644 130.266 55.7377C130.266 54.3247 131.465 53.1372 132.431 52.2284C132.575 52.0913 132.548 52.0227 132.351 52.0227C132.351 52.0227 118.5 52.0227 118.5 52.0227C118.464 52.022 118.43 52.0426 118.415 52.0755C118.399 52.1084 118.404 52.1474 118.427 52.1753C118.51 52.2715 118.613 52.2781 118.693 52.3445M146.039 63.5658C146.039 63.5658 146.039 59.8143 146.039 59.8143C146.039 59.6839 146.104 59.6153 146.235 59.6087C148.561 59.5048 150.887 59.528 153.214 59.6783C154.236 59.7447 154.894 60.1792 155.664 60.7696C155.808 60.8802 155.868 60.8459 155.846 60.6668C155.846 60.6668 154.794 52.1986 154.794 52.1986C154.781 52.0814 154.714 52.0228 154.595 52.0228C154.595 52.0228 134.27 52.0228 134.27 52.0228C134.237 52.0227 134.207 52.0431 134.195 52.0741C134.183 52.1051 134.192 52.1402 134.217 52.1622C135.847 53.6415 136.272 55.1341 136.252 57.456C136.203 63.212 136.207 68.968 136.262 74.724C136.295 78.3063 136.687 80.9366 134.028 82.95C133.877 83.0627 133.896 83.1191 134.084 83.1191C134.084 83.1191 155.664 83.1191 155.664 83.1191C155.756 83.1184 155.833 83.0508 155.846 82.9599C155.846 82.9599 156.949 74.4188 156.949 74.4188C156.959 74.3507 156.921 74.2844 156.857 74.2584C156.793 74.2324 156.72 74.2535 156.68 74.3093C155.973 75.2646 154.917 75.4802 153.675 75.4868C151.194 75.5045 148.705 75.5023 146.209 75.4802C146.096 75.478 146.039 75.4216 146.039 75.311C146.039 75.311 146.039 71.3639 146.039 71.3639C146.039 71.2599 146.09 71.2069 146.192 71.2047C149.376 71.1416 153.127 70.4484 154.641 72.7338C154.772 72.9306 154.837 72.9107 154.837 72.6741C154.837 72.6741 154.837 62.5607 154.837 62.5607C154.837 62.4524 154.798 62.4369 154.721 62.5143C152.819 64.4481 148.26 63.8079 146.265 63.7913C146.115 63.7913 146.039 63.7161 146.039 63.5657M191.755 52.4541C193.146 53.6946 193.508 54.955 193.508 56.922C193.517 63.8964 193.518 70.8719 193.511 77.8486C193.508 80.0311 193.093 81.4143 191.622 82.8671C191.507 82.9799 191.53 83.0363 191.692 83.0363C196.913 83.0606 202.134 83.0252 207.355 82.9301C210.494 82.8726 213.232 82.0964 215.569 80.6016C222.591 76.1171 223.391 64.2756 218.61 57.8209C215.725 53.9202 210.775 52.0229 205.878 52.0129C201.073 52.0063 196.265 52.014 191.453 52.0361C191.422 52.0351 191.393 52.0519 191.379 52.0798C191.364 52.1077 191.366 52.142 191.383 52.1688C191.486 52.3214 191.649 52.3546 191.755 52.4541M102.096 30.4992C104.47 32.8642 108.139 32.224 110.064 29.6866C112.239 26.8174 112.328 23.3612 112.06 20.0343C111.834 17.2248 110.503 13.9344 107.933 12.6972C105.825 11.6822 103.441 12.2561 101.821 13.9344C97.9598 17.9313 98.3482 26.771 102.096 30.4992" fill="none" stroke-width="2" stroke="#000000" stroke-opacity="0.039" transform="translate(36.133 41.506)" />
      <path id="Shape" d="M173.119 12.0444C173.107 12.0811 173.114 12.1213 173.137 12.1522C173.16 12.1831 173.196 12.201 173.235 12.2003C173.235 12.2003 180.818 12.2003 180.818 12.2003C180.856 12.201 180.893 12.1831 180.916 12.1522C180.939 12.1213 180.946 12.0811 180.934 12.0444C180.934 12.0444 177.139 0.0801811 177.139 0.0801811C177.123 0.0321693 177.077 0 177.026 0C176.976 0 176.93 0.0321693 176.914 0.0801811C176.914 0.0801811 173.119 12.0444 173.119 12.0444M5.4913 61.3241C5.4913 61.3241 1.70656 56.0037 1.70656 56.0037C1.67774 55.9621 1.63342 55.9337 1.58349 55.925C1.53357 55.9162 1.48222 55.9279 1.44097 55.9573C1.44097 55.9573 1.39117 55.9937 1.39117 55.9937C0.669289 56.5063 0.184052 57.2896 0.0426025 58.1711C-0.0988464 59.0526 0.115074 59.96 0.637291 60.6935C0.637291 60.6935 0.703697 60.7897 0.703697 60.7897C1.22557 61.5236 2.01308 62.0236 2.89291 62.1797C3.77272 62.3359 4.67272 62.1353 5.39478 61.6223C5.39478 61.6223 5.44789 61.5858 5.44789 61.5858C5.53159 61.5249 5.55081 61.4082 5.49106 61.3237M66.6945 46.2122C66.6945 46.2122 66.7011 51.7846 66.7011 51.7846C66.7011 51.8406 66.7236 51.8943 66.7636 51.9336C66.8036 51.9729 66.8576 51.9945 66.9136 51.9936C66.9136 51.9936 69.0683 51.9903 69.0683 51.9903C70.6948 51.9864 72.0111 50.8287 72.0098 49.4031C72.0098 49.4031 72.0098 48.5805 72.0098 48.5805C72.0091 47.8945 71.6973 47.237 71.143 46.753C70.5888 46.2689 69.8376 45.998 69.0549 45.9999C69.0549 45.9999 66.9003 46.0032 66.9003 46.0032C66.7861 46.005 66.6944 46.098 66.6945 46.2122M172.116 47.4594C172.116 47.4594 172.09 61.9411 172.09 61.9411C172.09 62.0547 172.182 62.1467 172.295 62.1467C172.295 62.1467 174.852 62.1501 174.852 62.1501C177.717 62.1534 180.042 59.4544 180.047 56.1209C180.047 56.1209 180.054 53.3016 180.054 53.3016C180.057 51.7002 179.513 50.1634 178.543 49.0294C177.572 47.8954 176.254 47.257 174.878 47.2548C174.878 47.2548 172.322 47.2515 172.322 47.2515C172.208 47.2515 172.116 47.3435 172.116 47.4571" fill="none" stroke-width="2" stroke="#000000" stroke-opacity="0.039" transform="translate(67.422 54.212)" />
    </g>
    <path id="Shape" d="M32.9101 136.26C19.5439 137.829 6.38367 132.024 1.62617 118.789C-2.55032 107.177 1.53321 94.7482 11.4067 87.4045C11.5086 87.3293 11.5207 87.243 11.4433 87.1457C4.98595 78.8368 4.54772 67.3436 10.8357 58.7925C15.0565 53.052 20.9682 49.922 28.5709 49.4023C28.6041 49.3998 28.6349 49.3839 28.6562 49.3583C28.6775 49.3326 28.6874 49.2994 28.6837 49.2663C28.1393 43.4185 28.9493 37.2889 31.4957 31.9917C38.9125 16.5679 56.9664 12.6175 71.6538 19.9479C71.7179 19.9791 71.792 19.9825 71.8582 19.9573C71.9244 19.9322 71.9767 19.8806 72.0024 19.8152C75.8934 9.98713 86.8526 4.91885 97.0979 6.33849C102.886 7.13898 107.846 9.85555 111.978 14.4882C112.064 14.5855 112.159 14.5966 112.263 14.5214C118.057 10.3918 125.547 9.51613 131.456 13.8845C131.556 13.9575 131.64 13.942 131.708 13.8381C138.328 3.82093 148.975 -1.57904 160.914 0.40781C167.232 1.45596 173.331 4.70988 178.224 8.8063C178.305 8.87503 178.424 8.87503 178.503 8.8063C188.4 0.192211 204.462 3.16418 211.407 13.9807C211.467 14.0758 211.537 14.0824 211.616 14.0006C217.28 8.12301 226.529 7.86429 232.605 13.3571C232.691 13.4367 232.768 13.4268 232.834 13.3273C242.844 -1.77805 260.788 -0.935545 272.033 12.3189C272.115 12.414 272.21 12.4328 272.318 12.3753C284.243 6.35509 297.311 9.43983 299.147 24.376C299.162 24.5087 299.235 24.564 299.366 24.5418C313.944 22.0309 324.309 30.1873 325.082 44.8481C325.089 44.972 325.154 45.0405 325.278 45.0538C325.597 45.0847 326.033 45.1168 326.586 45.15C338.083 45.8532 348.936 54.3578 350.151 66.2225C350.842 72.9691 348.269 79.9115 344.056 85.1688C343.967 85.2794 343.976 85.3822 344.082 85.4773C352.807 93.1892 357.229 104.231 351.267 115.174C345.5 125.758 333.97 129.722 322.433 127.496C322.367 127.484 322.298 127.5 322.245 127.54C322.191 127.581 322.157 127.642 322.151 127.709C320.547 145.083 305.933 154.768 289.366 147.975C289.323 147.957 289.275 147.96 289.235 147.984C289.195 148.007 289.168 148.048 289.164 148.094C287.836 162.321 276.85 173.32 262.737 174.902C251.217 176.192 241.675 170.573 234.667 162.075C234.587 161.98 234.505 161.979 234.421 162.072C234.067 162.47 233.82 162.762 233.681 162.948C228.425 169.897 219.02 170.819 212.898 164.347C212.831 164.277 212.737 164.24 212.64 164.247C212.543 164.255 212.455 164.305 212.4 164.384C204.143 176.142 192.072 182.239 177.822 180.789C167.059 179.695 156.99 173.748 150.114 165.528C149.968 165.356 149.824 165.357 149.683 165.532C143.77 172.809 134.922 173.194 128.75 165.883C128.693 165.815 128.607 165.778 128.518 165.783C128.429 165.789 128.348 165.835 128.299 165.91C124.331 171.857 117.824 176.919 110.348 176.769C103.535 176.63 97.0414 172.335 93.0509 166.961C92.9734 166.859 92.8882 166.853 92.7952 166.941C89.1134 170.414 83.8645 173.015 78.8514 171.844C74.2633 170.769 70.9665 167.217 68.5397 163.342C68.4711 163.232 68.3759 163.198 68.2542 163.24C48.3046 169.99 31.3762 157.813 33.1224 136.462C33.1357 136.309 33.0649 136.242 32.91 136.26C32.91 136.26 32.9101 136.26 32.9101 136.26ZM20.8686 87.9718C21.0987 88.215 21.3322 88.4748 21.5691 88.7512C21.6576 88.8552 21.641 88.937 21.5193 88.9967C9.2421 95.0302 5.32124 109.638 12.0773 121.377C14.3194 125.277 17.5254 128.007 21.6952 129.566C28.3318 132.051 34.3907 130.289 40.5791 127.622C40.7163 127.565 40.7661 127.608 40.7285 127.752C38.7199 135.397 39.603 143.59 44.5996 149.892C51.2262 158.251 62.172 160.317 71.7501 155.783C71.8185 155.75 71.8976 155.746 71.9695 155.772C72.0413 155.798 72.0999 155.853 72.1319 155.923C74.6252 161.405 80.382 165.724 86.6467 163.167C89.4687 162.016 92.0284 159.419 93.5256 156.772C93.5536 156.723 93.6065 156.694 93.6625 156.697C93.7185 156.7 93.7682 156.734 93.7912 156.785C96.3376 162.483 101.337 167.32 107.559 168.487C115.766 170.026 123.179 165.78 127.409 158.851C127.885 158.069 128.365 157.268 128.85 156.45C128.921 156.333 128.99 156.333 129.059 156.45C129.665 157.472 130.345 158.442 131.098 159.362C137.402 167.081 147.485 163.346 151.492 155.7C151.53 155.63 151.603 155.585 151.683 155.584C151.762 155.582 151.836 155.625 151.874 155.694C157.757 166.014 166.58 171.875 178.344 173.277C192.394 174.955 205.209 166.646 212.459 155.136C212.472 155.115 212.495 155.103 212.519 155.103C212.544 155.103 212.566 155.115 212.579 155.136C218.14 164.984 230.812 161.717 233.618 151.826C233.625 151.792 233.654 151.766 233.69 151.762C233.725 151.759 233.759 151.778 233.774 151.81C235.934 155.982 238.818 159.346 242.425 161.9C249.762 167.094 258.451 168.726 266.927 165.409C276.027 161.853 282.092 154.586 283.719 144.98C284.021 143.189 283.848 141.229 283.845 139.338C283.845 139.299 283.865 139.263 283.899 139.243C283.932 139.223 283.974 139.223 284.008 139.242C285.336 140.005 286.705 140.672 288.114 141.245C302.865 147.239 318.113 137.291 317.426 121.188C317.422 121.044 317.486 120.996 317.619 121.045C320.494 122.102 323.234 122.676 325.839 122.766C338.143 123.191 348.85 113.011 346.502 100.324C346.12 98.2454 345.346 96.2608 344.182 94.3701C342.121 91.02 339.363 88.2681 335.908 86.1143C335.791 86.0413 335.787 85.9628 335.895 85.8788C339.72 82.867 342.777 78.6545 343.594 73.8516C345.45 62.9057 335.805 53.4258 325.514 51.9332C322.43 51.4866 319.601 52.0073 317.025 53.4955C316.925 53.553 316.886 53.5254 316.908 53.4126C318.366 45.9063 316.932 37.9092 310.146 33.6834C305.438 30.7513 299.522 30.5025 294.3 32.3102C294.187 32.35 294.129 32.3102 294.127 32.1908C294.057 25.0262 290.847 19.1586 283.623 17.0855C278.618 15.6504 273.981 16.5349 269.712 19.739C269.617 19.8098 269.534 19.7965 269.463 19.6992C266.963 16.1733 263.706 13.1383 259.795 11.3505C249.165 6.48786 237.598 12.12 232.555 22.303C232.489 22.4379 232.411 22.4445 232.323 22.3229C225.962 13.5961 214.352 14.6741 209.335 23.9781C209.267 24.1041 209.2 24.1019 209.136 23.9714C208.286 22.2046 207.729 21.0901 207.463 20.628C201.202 9.75504 187.009 7.76156 178.423 17.1982C178.337 17.2911 178.251 17.2922 178.164 17.2016C164.792 3.18088 142.419 4.94548 132.711 22.2931C132.647 22.4081 132.565 22.4224 132.465 22.3362C131.365 21.3743 130.66 20.7794 130.35 20.5517C124.58 16.2927 117.572 17.4503 112.217 21.7922C112.117 21.874 112.023 21.8685 111.935 21.7756C108.838 18.4432 105.275 16.2275 101.244 15.1285C90.6937 12.256 78.7651 17.039 74.2467 27.3813C74.1958 27.4984 74.115 27.525 74.0043 27.4609C67.8923 23.9449 60.9801 22.5816 54.1809 24.3728C45.4594 26.6747 38.8095 33.9156 36.4358 42.5098C35.3645 46.3884 35.11 50.6053 35.6722 55.1606C35.6855 55.2844 35.6312 55.3441 35.5095 55.3397C16.8713 54.9218 8.00042 74.3458 20.8685 87.9717C20.8685 87.9717 20.8686 87.9718 20.8686 87.9718Z" fill="#000000" fill-opacity="0.039" />
    <path id="Shape" d="M12.0751 80.128C-0.793026 66.502 8.07788 47.078 26.7161 47.4959C26.8378 47.5004 26.892 47.4407 26.8787 47.3168C26.3166 42.7616 26.5711 38.5446 27.6423 34.666C30.0161 26.0718 36.666 18.831 45.3875 16.529C52.1867 14.7379 59.0988 16.1011 65.2109 19.6171C65.3215 19.6812 65.4023 19.6547 65.4532 19.5375C69.9717 9.19528 81.9003 4.41225 92.4511 7.28472C96.4815 8.38373 100.045 10.5994 103.141 13.9319C103.23 14.0247 103.324 14.0303 103.423 13.9484C108.779 9.60657 115.787 8.44897 121.557 12.7079C121.867 12.9357 122.572 13.5305 123.672 14.4924C123.771 14.5787 123.853 14.5643 123.918 14.4493C133.625 -2.89827 155.998 -4.66289 169.371 9.3578C169.457 9.44847 169.544 9.44736 169.63 9.35448C178.215 -0.0822062 192.408 1.91128 198.669 12.7842C198.935 13.2464 199.493 14.3608 200.343 16.1277C200.407 16.2581 200.473 16.2603 200.542 16.1343C205.558 6.83029 217.168 5.75228 223.529 14.4791C223.618 14.6008 223.695 14.5941 223.762 14.4592C228.805 4.27624 240.371 -1.35591 251.002 3.50672C254.913 5.29456 258.17 8.32955 260.67 11.8555C260.74 11.9528 260.823 11.966 260.919 11.8953C265.188 8.6911 269.825 7.80658 274.829 9.24171C282.053 11.3148 285.264 17.1825 285.333 24.347C285.336 24.4665 285.393 24.5063 285.506 24.4664C290.728 22.6587 296.645 22.9075 301.352 25.8397C308.138 30.0654 309.572 38.0626 308.115 45.5688C308.093 45.6816 308.132 45.7092 308.231 45.6517C310.807 44.1635 313.637 43.6428 316.72 44.0895C327.012 45.5821 336.656 55.0619 334.801 66.0078C333.984 70.8107 330.926 75.0232 327.102 78.035C326.993 78.119 326.998 78.1975 327.115 78.2705C330.57 80.4243 333.328 83.1763 335.388 86.5264C336.552 88.417 337.326 90.4017 337.709 92.4803C340.056 105.168 329.349 115.347 317.046 114.923C314.441 114.832 311.7 114.258 308.825 113.201C308.693 113.153 308.628 113.2 308.633 113.344C309.32 129.448 294.072 139.395 279.321 133.401C277.911 132.829 276.542 132.161 275.214 131.398C275.18 131.379 275.139 131.38 275.105 131.399C275.072 131.419 275.051 131.455 275.052 131.494C275.055 133.385 275.228 135.345 274.925 137.136C273.299 146.742 267.233 154.009 258.133 157.565C249.657 160.882 240.969 159.25 233.632 154.056C230.024 151.502 227.14 148.138 224.98 143.966C224.965 143.934 224.931 143.915 224.896 143.919C224.861 143.922 224.832 143.948 224.824 143.982C222.019 153.873 209.346 157.141 203.786 147.293C203.773 147.272 203.75 147.259 203.726 147.259C203.701 147.259 203.679 147.272 203.666 147.293C196.415 158.802 183.6 167.111 169.55 165.433C157.787 164.031 148.963 158.17 143.08 147.85C143.042 147.781 142.969 147.739 142.889 147.74C142.81 147.741 142.736 147.786 142.699 147.857C138.691 155.502 128.609 159.237 122.304 151.518C121.552 150.599 120.872 149.628 120.266 148.606C120.197 148.489 120.127 148.489 120.056 148.606C119.572 149.424 119.091 150.225 118.616 151.008C114.386 157.937 106.973 162.182 98.7656 160.643C92.544 159.476 87.5442 154.64 84.9978 148.941C84.9747 148.89 84.925 148.856 84.869 148.853C84.813 148.851 84.7602 148.879 84.7322 148.928C83.2349 151.575 80.6752 154.172 77.8532 155.323C71.5885 157.88 65.8317 153.562 63.3384 148.079C63.3064 148.009 63.2479 147.955 63.176 147.928C63.1041 147.902 63.025 147.906 62.9566 147.939C53.3786 152.474 42.4327 150.407 35.8061 142.049C30.8096 135.746 29.9265 127.554 31.935 119.908C31.9727 119.764 31.9229 119.721 31.7856 119.779C25.5973 122.445 19.5383 124.207 12.9018 121.722C8.73192 120.163 5.52595 117.434 3.28388 113.533C-3.47222 101.794 0.448642 87.1864 12.7258 81.1529C12.8475 81.0932 12.8641 81.0114 12.7756 80.9074C12.5388 80.631 12.3053 80.3712 12.0751 80.128C12.0751 80.128 12.0751 80.128 12.0751 80.128ZM274.859 85.2791C275.467 85.3289 275.938 85.1697 276.542 85.3189C278.928 85.9116 280.836 86.2974 282.266 86.4765C289.248 87.3456 296.681 84.1049 299.42 77.2157C302.099 70.4723 299.274 63.855 293.182 60.0737C291.631 59.1118 286.917 56.8729 286.897 54.6936C286.871 52.3021 289.938 52.0998 291.698 52.3784C293.514 52.6637 295.579 53.9805 297.332 54.8893C297.438 54.9446 297.488 54.9126 297.481 54.7932C297.481 54.7932 296.794 40.4706 296.794 40.4706C296.789 40.3888 296.753 40.3711 296.684 40.4175C294.845 41.6647 291.565 41.5652 289.46 41.1904C283.272 40.0859 274.646 41.9201 272.303 48.5772C271.603 50.5652 271.215 52.0323 271.137 52.9788C270.596 59.7486 275.154 63.6394 280.231 66.9165C281.416 67.6794 282.262 68.3163 283.219 69.1223C284.47 70.1771 284.752 72.0246 283.557 73.2021C282.521 74.2204 279.889 74.3398 278.61 73.7461C276.105 72.5808 273.854 71.0163 271.858 69.0527C271.819 69.015 271.76 69.0064 271.712 69.0312C271.664 69.056 271.637 69.1086 271.645 69.1621C271.942 71.1899 272.089 73.2441 272.087 75.325C272.087 76.4826 272.293 77.7364 272.346 79.0399C272.419 80.8532 272.606 83.1131 272.907 85.8198C272.922 85.9458 272.976 85.9657 273.069 85.8795C273.559 85.4217 274.155 85.2216 274.859 85.2791C274.859 85.2791 274.859 85.2791 274.859 85.2791ZM121.119 60.7704C117.928 94.0625 165.095 95.721 162.479 61.3741C161.961 54.5545 159.023 47.4496 153.269 43.8739C147.625 40.3679 140.444 39.7709 134.239 42.1259C126.275 45.1509 121.926 52.3388 121.119 60.7704C121.119 60.7704 121.119 60.7704 121.119 60.7704ZM179.308 62.5284C179.308 62.5284 189.022 79.3253 189.022 79.3253C189.11 79.4801 189.2 79.4801 189.291 79.3253C189.291 79.3253 198.965 62.5648 198.965 62.5648C198.994 62.5178 199.049 62.4942 199.103 62.5062C199.157 62.5182 199.198 62.563 199.204 62.6179C199.768 68.2799 200.329 73.9486 200.788 79.6437C201.007 82.367 199.858 83.3653 198.6 85.4782C198.533 85.5888 198.565 85.6441 198.696 85.6441C203.884 85.6573 209.073 85.6573 214.263 85.6441C215.017 85.6408 215.986 85.4451 216.952 85.7138C217.007 85.7314 217.066 85.7078 217.094 85.6575C217.121 85.6073 217.109 85.5446 217.065 85.5081C214.788 83.4549 214.316 81.3056 214.081 78.0317C213.364 68.0898 212.659 58.1434 211.966 48.1926C211.773 45.4627 212.567 43.5455 214.625 41.8274C214.793 41.6881 214.768 41.6184 214.549 41.6184C214.549 41.6184 198.125 41.6449 198.125 41.6449C198.014 41.6449 197.934 41.6925 197.883 41.7876C197.883 41.7876 189.194 57.7719 189.194 57.7719C189.182 57.796 189.157 57.8111 189.13 57.8111C189.102 57.8111 189.077 57.796 189.065 57.7719C189.065 57.7719 179.889 41.6615 179.889 41.6615C179.846 41.5863 179.781 41.5487 179.693 41.5487C179.693 41.5487 163.076 41.5056 163.076 41.5056C163.018 41.5065 162.968 41.5447 162.951 41.6C162.934 41.6553 162.956 41.7151 163.003 41.7478C165.626 43.4759 165.772 45.5622 165.686 48.7697C165.436 58.1058 165.036 67.4352 164.487 76.758C164.418 77.9886 164.208 79.2325 164.029 80.4498C163.704 82.7119 162.924 84.1846 161.21 85.5214C161.075 85.6253 161.093 85.6773 161.264 85.6773C161.264 85.6773 179.889 85.5877 179.889 85.5877C179.993 85.5877 180.091 85.6098 180.184 85.654C180.288 85.7027 180.394 85.7171 180.503 85.6972C180.689 85.664 180.707 85.591 180.559 85.4782C178.713 84.0652 177.963 82.4167 178.076 80.0252C178.355 74.0658 178.585 68.2788 178.766 62.6644C178.789 61.9899 178.969 61.9446 179.308 62.5284C179.308 62.5284 179.308 62.5284 179.308 62.5284ZM77.1926 42.0926C78.9632 43.939 79.8474 46.0464 79.8452 48.4147C79.832 57.9918 79.8286 67.57 79.8353 77.1493C79.8386 80.8842 79.4203 83.2027 76.7112 85.5146C76.6249 85.5898 76.6393 85.6274 76.7544 85.6274C76.7544 85.6274 96.3686 85.5975 96.3686 85.5975C96.5014 85.5975 96.5169 85.5566 96.4151 85.4748C94.3767 83.8263 93.7757 82.0418 93.7293 79.3053C93.6739 75.9751 93.6695 72.6416 93.716 69.3048C93.716 69.2008 93.768 69.1489 93.872 69.1489C93.872 69.1489 104.396 69.1489 104.396 69.1489C104.507 69.1489 104.562 69.2041 104.562 69.3147C104.576 71.8887 104.577 74.4615 104.566 77.0332C104.552 80.7615 104.217 83.1828 101.515 85.4649C101.487 85.4879 101.476 85.5256 101.488 85.5596C101.5 85.5936 101.532 85.6166 101.568 85.6175C101.568 85.6175 120.774 85.6374 120.774 85.6374C121.229 85.6396 121.279 85.4981 120.923 85.2128C118.622 83.3819 118.353 80.8577 118.35 77.7364C118.343 68.2411 118.343 58.747 118.35 49.2539C118.353 45.927 118.831 43.8141 121.218 41.7377C121.314 41.6559 121.298 41.615 121.172 41.615C121.172 41.615 101.584 41.6183 101.584 41.6183C101.48 41.6183 101.467 41.6548 101.544 41.7278C103.752 43.8042 104.473 46.2123 104.413 49.2506C104.362 51.9683 104.325 54.7014 104.303 57.45C104.301 57.5562 104.247 57.6093 104.141 57.6093C104.141 57.6093 93.7857 57.6292 93.7857 57.6292C93.6513 57.6292 93.5418 57.5213 93.54 57.387C93.5157 54.1453 93.5201 50.9146 93.5533 47.6949C93.5776 45.4372 94.5559 43.4581 96.4881 41.7576C96.5921 41.6647 96.5745 41.6183 96.435 41.6183C96.435 41.6183 76.854 41.6183 76.854 41.6183C76.7522 41.6183 76.7278 41.6625 76.7809 41.751C76.8706 41.8969 77.1196 42.0163 77.1926 42.0926C77.1926 42.0926 77.1926 42.0926 77.1926 42.0926ZM250.995 76.4229C251.599 78.3799 252.184 80.3436 252.748 82.3138C253.149 83.7113 252.91 84.8126 252.031 85.6175C251.936 85.7059 251.952 85.7491 252.081 85.7469C257.468 85.6783 262.854 85.6429 268.239 85.6407C268.873 85.6407 269.434 85.4118 270.158 85.7999C270.189 85.8154 270.21 85.8066 270.221 85.7734C270.221 85.7734 270.258 85.6606 270.258 85.6606C270.275 85.6053 270.263 85.56 270.221 85.5246C268.249 83.8728 266.811 81.7356 265.908 79.113C262.164 68.2511 258.425 57.3859 254.694 46.5174C254.026 44.5704 253.791 43.2668 255.135 41.7377C255.166 41.7014 255.173 41.6503 255.153 41.6069C255.133 41.5635 255.09 41.5356 255.042 41.5354C255.042 41.5354 234.545 41.5354 234.545 41.5354C234.401 41.5354 234.38 41.5863 234.482 41.688C235.626 42.8379 235.926 44.1469 235.382 45.6152C231.59 55.8579 229.223 62.9728 226.013 71.2618C225.797 71.819 225.684 72.5388 225.445 73.1558C224.635 75.2476 223.845 77.3461 223.074 79.4513C222.029 82.3138 221.019 83.9988 218.676 85.6075C218.618 85.6442 218.598 85.7185 218.629 85.7793C218.659 85.8401 218.731 85.8677 218.795 85.843C219.655 85.5478 220.246 85.6341 221.106 85.644C225.917 85.6838 230.729 85.6496 235.541 85.5412C235.908 85.5323 236.247 85.6296 236.557 85.8331C236.639 85.8884 236.701 85.8707 236.743 85.78C236.776 85.707 236.754 85.6407 236.676 85.581C235.388 84.6092 235.225 83.5312 235.76 81.9788C236.397 80.1191 237.079 78.2716 237.805 76.4362C237.847 76.3323 237.923 76.2803 238.034 76.2803C238.034 76.2803 250.803 76.2803 250.803 76.2803C250.902 76.2803 250.966 76.3279 250.995 76.423C250.995 76.423 250.995 76.4229 250.995 76.4229ZM49.5341 52.0004C49.5496 60.4696 49.5507 68.9389 49.5374 77.4081C49.5308 81.0004 49.1656 83.2559 46.513 85.4318C46.4134 85.5114 46.4277 85.5512 46.5561 85.5512C46.5561 85.5512 65.7189 85.5711 65.7189 85.5711C65.8384 85.5711 65.8572 85.528 65.7753 85.4417C63.9648 83.5223 63.043 81.0766 63.0098 78.1046C62.9102 69.3944 62.9146 60.694 63.0231 52.0037C63.0253 51.9086 63.074 51.8577 63.1692 51.8511C67.8204 51.5857 73.1722 52.2126 76.1402 55.775C76.4014 56.0868 76.4976 56.0426 76.429 55.6424C76.429 55.6424 74.115 41.7742 74.115 41.7742C74.0973 41.6637 74.032 41.6084 73.9192 41.6084C73.9192 41.6084 38.1434 41.6482 38.1434 41.6482C38.0939 41.6477 38.0522 41.6836 38.0471 41.7311C38.0471 41.7311 36.1381 55.974 36.1381 55.974C36.1182 56.1111 36.1625 56.1366 36.2709 56.0503C37.3101 55.2211 38.4355 54.2824 39.5012 53.7119C42.4693 52.1231 46.1113 51.6919 49.3548 51.8179C49.4721 51.8224 49.5319 51.8832 49.5341 52.0004C49.5341 52.0004 49.5341 52.0004 49.5341 52.0004ZM79.3439 108.753C79.3359 108.798 79.3021 108.833 79.258 108.843C79.2139 108.853 79.1679 108.836 79.1413 108.8C78.0923 107.41 74.0917 102.66 75.3134 101.031C76.326 99.6847 78.3512 100.166 79.47 101.137C79.5586 101.213 79.625 101.197 79.6692 101.091C79.7887 100.806 79.7788 100.494 79.9049 100.222C80.9673 97.9178 81.9921 95.5971 82.9792 93.2598C83.0191 93.1691 82.9914 93.1083 82.8962 93.0773C81.5882 92.6362 79.8651 92.5632 78.9687 92.4139C77.0099 92.0856 74.8586 91.6378 73.026 91.6875C69.7558 91.7738 65.4532 93.2199 64.5103 96.6165C63.864 98.956 64.102 101.194 65.2241 103.33C65.2543 103.389 65.2581 103.459 65.2347 103.521C65.2113 103.583 65.1628 103.632 65.1013 103.655C59.5935 105.775 56.9242 111.659 58.7602 117.235C60.4069 122.23 64.434 125.026 69.6297 125.106C72.1595 125.142 75.589 124.492 77.4482 122.528C77.5544 122.416 77.6595 122.418 77.7636 122.535C77.7636 122.535 79.4003 124.412 79.4003 124.412C79.4756 124.499 79.5696 124.542 79.6825 124.542C79.6825 124.542 91.787 124.542 91.787 124.542C91.9198 124.542 91.9364 124.499 91.8368 124.412C89.1145 122.091 86.7551 119.447 84.7587 116.482C84.6945 116.389 84.6989 116.299 84.772 116.213C87.3018 113.175 87.003 108.952 89.5427 105.808C89.6357 105.693 89.608 105.635 89.4597 105.635C89.4597 105.635 80.0311 105.635 80.0311 105.635C79.9293 105.635 79.8695 105.685 79.8518 105.784C79.8518 105.784 79.3438 108.753 79.3438 108.753C79.3438 108.753 79.3439 108.753 79.3439 108.753ZM267.788 112.511C269.265 113.546 269.378 115.871 267.326 116.246C264.63 116.74 262.021 114.482 260.182 112.787C260.089 112.703 260.046 112.722 260.055 112.846C260.055 112.846 260.909 124.386 260.909 124.386C260.92 124.536 260.993 124.576 261.128 124.505C262.655 123.709 265.842 124.817 267.439 125.013C273.953 125.809 280.174 121.54 280.015 114.584C279.922 110.704 277.9 108.269 274.733 106.256C273.634 105.559 271.649 104.604 270.975 103.509C270.42 102.604 270.736 101.532 271.722 101.161C274.032 100.288 276.091 101.801 277.794 102.713C277.94 102.79 278.01 102.746 278.003 102.58C278.003 102.58 277.575 92.7855 277.575 92.7855C277.57 92.6771 277.519 92.645 277.422 92.6893C275.999 93.3151 274.56 93.4964 273.106 93.2333C269.544 92.5864 265.713 92.8651 262.894 95.2002C259.979 97.6149 258.541 102.451 260.58 105.997C262.197 108.81 265.381 110.823 267.788 112.511C267.788 112.511 267.788 112.511 267.788 112.511ZM122.53 93.8369C123.801 94.706 124.339 95.9465 124.319 97.7277C124.24 105.828 124.346 113.924 124.22 122.024C124.217 122.144 124.18 122.25 124.107 122.343C124.107 122.343 122.477 124.452 122.477 124.452C122.432 124.512 122.447 124.542 122.52 124.542C122.52 124.542 136.274 124.542 136.274 124.542C136.469 124.542 136.486 124.488 136.324 124.379C135.083 123.539 134.399 122.459 134.272 121.139C134.129 119.646 134.147 116.517 134.329 111.752C134.331 111.665 134.355 111.659 134.402 111.732C136.932 115.838 139.268 120.053 141.41 124.376C141.461 124.477 141.565 124.542 141.679 124.542C141.679 124.542 153.372 124.542 153.372 124.542C153.536 124.542 153.555 124.49 153.429 124.386C152.439 123.563 151.579 122.933 150.892 121.815C148.573 118.041 146.269 114.258 143.98 110.468C143.92 110.369 143.946 110.303 144.056 110.272C147.989 109.167 149.768 106.513 149.391 102.312C148.864 96.4043 144.866 93.5218 139.096 93.5285C133.638 93.5329 128.152 93.5251 122.636 93.5052C122.24 93.5052 122.204 93.6158 122.53 93.8369C122.53 93.8369 122.53 93.8369 122.53 93.8369ZM205.386 110.654C205.386 110.631 205.401 110.611 205.423 110.605C205.444 110.598 205.466 110.608 205.475 110.627C205.475 110.627 213.848 124.396 213.848 124.396C213.908 124.493 213.994 124.542 214.107 124.542C214.107 124.542 225.664 124.542 225.664 124.542C225.848 124.542 225.869 124.483 225.727 124.366C223.948 122.887 223.639 121.384 223.662 118.959C223.755 109.742 223.556 104.315 223.705 97.7941C223.748 95.9465 224.399 94.6595 225.89 93.7142C225.944 93.6795 225.969 93.6134 225.951 93.5516C225.934 93.4898 225.878 93.4467 225.813 93.4456C225.813 93.4456 211.903 93.4456 211.903 93.4456C211.848 93.4455 211.799 93.481 211.783 93.5333C211.766 93.5856 211.785 93.6427 211.83 93.6744C213.233 94.6982 213.949 96.0891 213.978 97.8471C214.033 101.31 214.051 104.723 214.031 108.087C214.029 108.152 213.985 108.209 213.921 108.227C213.858 108.244 213.791 108.218 213.755 108.163C213.755 108.163 205.07 93.7275 205.07 93.7275C205.019 93.6457 204.945 93.6047 204.848 93.6047C204.848 93.6047 193.706 93.6147 193.706 93.6147C193.562 93.6147 193.546 93.6611 193.656 93.754C194.964 94.8353 195.618 96.1146 195.618 97.5917C195.616 104.876 195.616 112.16 195.618 119.444C195.622 121.623 195.194 123.039 193.676 124.439C193.605 124.505 193.619 124.539 193.716 124.539C193.716 124.539 207.487 124.545 207.487 124.545C207.52 124.545 207.548 124.524 207.559 124.494C207.569 124.463 207.559 124.429 207.534 124.409C205.854 123.082 205.412 121.55 205.409 119.304C205.4 116.421 205.392 113.537 205.386 110.654C205.386 110.654 205.386 110.654 205.386 110.654ZM119.499 101.151C120.345 101.108 121.222 101.778 121.723 102.395C121.749 102.424 121.791 102.434 121.828 102.419C121.865 102.404 121.888 102.368 121.886 102.328C121.886 102.328 121.013 93.734 121.013 93.734C120.999 93.5969 120.924 93.5284 120.787 93.5284C120.787 93.5284 99.6886 93.5284 99.6886 93.5284C99.6499 93.5269 99.6147 93.5503 99.6011 93.5864C99.5875 93.6226 99.5987 93.6634 99.6288 93.6876C101.295 95.1006 101.694 96.56 101.677 98.8554C101.62 105.819 101.616 112.783 101.667 119.749C101.684 121.905 101.119 123.251 99.4561 124.475C99.3211 124.575 99.3377 124.625 99.5059 124.625C99.5059 124.625 113.446 124.625 113.446 124.625C113.573 124.625 113.588 124.584 113.493 124.502C111.896 123.105 111.534 121.712 111.537 119.477C111.537 117.442 111.532 115.405 111.521 113.364C111.521 113.244 111.581 113.185 111.7 113.185C113.457 113.178 115.214 113.177 116.969 113.181C118.552 113.185 119.329 113.725 120.262 114.873C120.279 114.895 120.308 114.903 120.335 114.893C120.361 114.884 120.38 114.858 120.382 114.83C120.382 114.83 120.428 104.368 120.428 104.368C120.428 104.255 120.39 104.24 120.312 104.322C118.396 106.338 115.103 105.784 111.713 105.675C111.589 105.671 111.527 105.608 111.527 105.486C111.527 105.486 111.547 101.293 111.547 101.293C111.547 101.163 111.613 101.099 111.743 101.101C114.329 101.118 116.956 101.273 119.499 101.151C119.499 101.151 119.499 101.151 119.499 101.151ZM154.826 93.8501C156.091 94.9182 156.685 96.0492 156.689 97.8039C156.695 105.055 156.695 112.307 156.689 119.56C156.685 121.709 156.284 123.036 154.717 124.363C154.575 124.482 154.597 124.542 154.783 124.542C154.783 124.542 168.478 124.542 168.478 124.542C168.651 124.542 168.673 124.485 168.544 124.373C167.233 123.225 166.4 121.941 166.403 120.11C166.405 112.492 166.404 104.87 166.4 97.2433C166.4 95.8303 167.598 94.6428 168.564 93.734C168.708 93.5969 168.682 93.5283 168.485 93.5283C168.485 93.5283 154.634 93.5283 154.634 93.5283C154.597 93.5276 154.564 93.5483 154.548 93.5811C154.532 93.614 154.537 93.653 154.561 93.6809C154.644 93.7771 154.747 93.7838 154.826 93.8501C154.826 93.8501 154.826 93.8501 154.826 93.8501ZM182.173 105.071C182.173 105.071 182.173 101.32 182.173 101.32C182.173 101.189 182.238 101.121 182.369 101.114C184.695 101.01 187.021 101.034 189.347 101.184C190.37 101.25 191.027 101.685 191.797 102.275C191.941 102.386 192.002 102.352 191.98 102.172C191.98 102.172 190.927 93.7042 190.927 93.7042C190.914 93.5871 190.848 93.5284 190.728 93.5284C190.728 93.5284 170.403 93.5284 170.403 93.5284C170.37 93.5283 170.34 93.5487 170.329 93.5797C170.317 93.6107 170.325 93.6458 170.35 93.6678C171.98 95.1471 172.405 96.6397 172.385 98.9616C172.337 104.718 172.34 110.474 172.395 116.23C172.429 119.812 172.82 122.442 170.161 124.456C170.011 124.568 170.029 124.625 170.218 124.625C170.218 124.625 191.797 124.625 191.797 124.625C191.889 124.624 191.967 124.556 191.98 124.466C191.98 124.466 193.082 115.924 193.082 115.924C193.092 115.856 193.055 115.79 192.991 115.764C192.927 115.738 192.853 115.759 192.813 115.815C192.106 116.77 191.05 116.986 189.809 116.992C187.327 117.01 184.839 117.008 182.342 116.986C182.229 116.984 182.173 116.927 182.173 116.817C182.173 116.817 182.173 112.869 182.173 112.869C182.173 112.766 182.224 112.712 182.325 112.71C185.509 112.647 189.261 111.954 190.775 114.239C190.905 114.436 190.971 114.416 190.971 114.18C190.971 114.18 190.971 104.066 190.971 104.066C190.971 103.958 190.932 103.942 190.854 104.02C188.952 105.954 184.394 105.314 182.398 105.297C182.248 105.297 182.173 105.222 182.173 105.071C182.173 105.071 182.173 105.071 182.173 105.071ZM227.888 93.9596C229.279 95.2001 229.641 96.4605 229.641 98.4275C229.65 105.402 229.651 112.377 229.645 119.354C229.641 121.537 229.226 122.92 227.756 124.373C227.64 124.485 227.664 124.542 227.825 124.542C233.046 124.566 238.268 124.531 243.489 124.436C246.627 124.378 249.365 123.602 251.702 122.107C258.724 117.623 259.524 105.781 254.743 99.3264C251.858 95.4257 246.908 93.5284 242.011 93.5184C237.206 93.5118 232.398 93.5195 227.586 93.5416C227.555 93.5406 227.527 93.5574 227.512 93.5853C227.497 93.6132 227.499 93.6475 227.517 93.6743C227.619 93.8269 227.782 93.8601 227.888 93.9596C227.888 93.9596 227.888 93.9596 227.888 93.9596Z" fill="#FFFFFF" fill-opacity="0" transform="translate(8.794 7.844)" />
    <path id="Shape" d="M153.895 44.8868C153.191 44.8293 152.595 45.0294 152.106 45.4871C152.013 45.5734 151.959 45.5535 151.943 45.4274C151.642 42.7208 151.455 40.4609 151.382 38.6476C151.329 37.3441 151.123 36.0903 151.123 34.9327C151.125 32.8518 150.978 30.7975 150.681 28.7698C150.673 28.7163 150.7 28.6636 150.748 28.6389C150.796 28.6141 150.855 28.6227 150.894 28.6603C152.89 30.624 155.141 32.1884 157.647 33.3538C158.925 33.9475 161.558 33.8281 162.593 32.8098C163.789 31.6323 163.506 29.7848 162.255 28.73C161.299 27.924 160.452 27.2871 159.267 26.5242C154.191 23.2471 149.632 19.3563 150.173 12.5865C150.251 11.64 150.639 10.1728 151.339 8.18488C153.683 1.52778 162.308 -0.306484 168.496 0.798061C170.601 1.17288 173.881 1.27238 175.721 0.025219C175.789 -0.0212135 175.826 -0.00352859 175.83 0.0782928C175.83 0.0782928 176.517 14.4008 176.517 14.4008C176.524 14.5202 176.474 14.5523 176.368 14.497C174.615 13.5882 172.55 12.2714 170.734 11.9861C168.974 11.7075 165.907 11.9098 165.933 14.3013C165.953 16.4805 170.668 18.7195 172.218 19.6814C178.31 23.4627 181.135 30.08 178.456 36.8233C175.717 43.7126 168.284 46.9533 161.302 46.0842C159.872 45.9051 157.964 45.5192 155.578 44.9266C154.974 44.7773 154.503 44.9366 153.895 44.8868C153.895 44.8868 153.895 44.8868 153.895 44.8868ZM41.5149 20.9816C44.131 55.3285 -3.03551 53.6701 0.154953 20.378C0.9617 11.9463 5.31084 4.7585 13.2754 1.73345C19.4804 -0.621574 26.6614 -0.0245209 32.3053 3.48148C38.0588 7.05713 40.997 14.162 41.5149 20.9816C41.5149 20.9816 41.5149 20.9816 41.5149 20.9816ZM17.266 31.6125C19.6398 33.9775 23.3083 33.3373 25.2339 30.7999C27.4084 27.9307 27.4981 24.4744 27.2292 21.1476C27.0034 18.3381 25.6721 15.0477 23.1025 13.8105C20.9943 12.7955 18.6106 13.3693 16.9904 15.0477C13.1293 19.0446 13.5178 27.8843 17.266 31.6125C17.266 31.6125 17.266 31.6125 17.266 31.6125Z" fill="#000000" fill-opacity="0.039" transform="translate(129.757 48.236)" />
    <path id="Shape" d="M152.888 37.8197C152.888 37.8197 143.174 21.0228 143.174 21.0228C142.835 20.439 142.655 20.4843 142.633 21.1588C142.451 26.7732 142.221 32.5602 141.942 38.5196C141.83 40.9111 142.58 42.5596 144.426 43.9727C144.574 44.0854 144.555 44.1584 144.369 44.1916C144.261 44.2115 144.155 44.1971 144.051 44.1484C143.958 44.1042 143.859 44.0821 143.755 44.0821C143.755 44.0821 125.13 44.1717 125.13 44.1717C124.96 44.1717 124.942 44.1197 125.077 44.0158C126.79 42.679 127.57 41.2063 127.896 38.9442C128.075 37.7269 128.284 36.483 128.354 35.2524C128.903 25.9296 129.302 16.6002 129.552 7.26411C129.639 4.05663 129.493 1.97028 126.87 0.242149C126.822 0.209496 126.801 0.149723 126.818 0.0943832C126.834 0.0390434 126.885 0.000869751 126.943 0C126.943 0 143.559 0.0431213 143.559 0.0431213C143.648 0.0431213 143.713 0.0807152 143.755 0.155895C143.755 0.155895 152.931 16.2663 152.931 16.2663C152.944 16.2904 152.969 16.3055 152.996 16.3055C153.023 16.3055 153.048 16.2904 153.061 16.2663C153.061 16.2663 161.749 0.28194 161.749 0.28194C161.8 0.186863 161.881 0.139317 161.992 0.139317C161.992 0.139317 178.415 0.112785 178.415 0.112785C178.634 0.112785 178.66 0.182438 178.492 0.321754C176.433 2.03992 175.64 3.95712 175.832 6.68696C176.525 16.6378 177.23 26.5842 177.947 36.5261C178.183 39.7999 178.654 41.9493 180.932 44.0025C180.976 44.039 180.988 44.1017 180.96 44.1519C180.933 44.2021 180.874 44.2257 180.819 44.2081C179.853 43.9395 178.883 44.1352 178.13 44.1385C172.94 44.1517 167.751 44.1517 162.563 44.1385C162.432 44.1385 162.4 44.0832 162.466 43.9726C163.725 41.8597 164.873 40.8613 164.654 38.1381C164.196 32.4429 163.635 26.7743 163.07 21.1123C163.064 21.0574 163.024 21.0125 162.97 21.0006C162.916 20.9886 162.86 21.0121 162.831 21.0592C162.831 21.0592 153.157 37.8197 153.157 37.8197C153.066 37.9745 152.977 37.9745 152.888 37.8197C152.888 37.8197 152.888 37.8197 152.888 37.8197ZM41.0591 0.587128C40.986 0.510834 40.737 0.39143 40.6474 0.245483C40.5943 0.157032 40.6186 0.112808 40.7204 0.112808C40.7204 0.112808 60.3015 0.112808 60.3015 0.112808C60.4409 0.112808 60.4586 0.159248 60.3546 0.252125C58.4224 1.95261 57.4441 3.93171 57.4198 6.18944C57.3865 9.40908 57.3821 12.6398 57.4065 15.8815C57.4083 16.0158 57.5177 16.1237 57.6521 16.1237C57.6521 16.1237 68.0071 16.1038 68.0071 16.1038C68.1133 16.1038 68.1675 16.0507 68.1697 15.9445C68.1919 13.1959 68.2284 10.4628 68.2793 7.74508C68.3391 4.70677 67.6186 2.29867 65.4109 0.222271C65.3334 0.1493 65.3467 0.112816 65.4507 0.112816C65.4507 0.112816 85.0384 0.109497 85.0384 0.109497C85.1646 0.109497 85.1801 0.150402 85.0849 0.232224C82.6978 2.30863 82.2198 4.42152 82.2164 7.7484C82.2098 17.2415 82.2098 26.7357 82.2164 36.2309C82.2198 39.3522 82.4887 41.8764 84.7894 43.7073C85.1457 43.9926 85.0959 44.1341 84.64 44.1319C84.64 44.1319 65.4341 44.112 65.4341 44.112C65.3981 44.1112 65.3664 44.0881 65.3546 44.0541C65.3428 44.0201 65.3533 43.9824 65.381 43.9594C68.0834 41.6774 68.4188 39.256 68.432 35.5278C68.4431 32.956 68.442 30.3832 68.4287 27.8093C68.4287 27.6987 68.3734 27.6434 68.2627 27.6434C68.2627 27.6434 57.7385 27.6434 57.7385 27.6434C57.6345 27.6434 57.5824 27.6954 57.5824 27.7993C57.536 31.1361 57.5404 34.4697 57.5957 37.7999C57.6422 40.5364 58.2431 42.3209 60.2816 43.9694C60.3834 44.0512 60.3679 44.0921 60.2351 44.0921C60.2351 44.0921 40.6208 44.122 40.6208 44.122C40.5057 44.122 40.4913 44.0844 40.5776 44.0092C43.2867 41.6973 43.705 39.3787 43.7017 35.6439C43.6951 26.0646 43.6984 16.4863 43.7117 6.90925C43.7139 4.54096 42.8297 2.4336 41.059 0.587166C41.059 0.587166 41.0591 0.587128 41.0591 0.587128ZM214.669 34.7748C214.669 34.7748 201.901 34.7748 201.901 34.7748C201.79 34.7748 201.714 34.8267 201.672 34.9306C200.946 36.766 200.264 38.6136 199.627 40.4733C199.092 42.0256 199.255 43.1036 200.543 44.0754C200.62 44.1351 200.642 44.2015 200.609 44.2745C200.567 44.3651 200.505 44.3828 200.423 44.3275C200.113 44.1241 199.775 44.0268 199.407 44.0356C194.596 44.144 189.784 44.1783 184.972 44.1384C184.112 44.1285 183.521 44.0423 182.662 44.3375C182.598 44.3621 182.526 44.3346 182.495 44.2737C182.464 44.2129 182.485 44.1386 182.542 44.1019C184.886 42.4932 185.895 40.8082 186.941 37.9457C187.711 35.8405 188.501 33.742 189.311 31.6501C189.55 31.0332 189.663 30.3134 189.879 29.7562C193.09 21.4671 195.457 14.3523 199.248 4.10962C199.793 2.64132 199.493 1.33223 198.348 0.182362C198.247 0.0806389 198.268 0.0297852 198.411 0.0297852C198.411 0.0297852 218.909 0.0297852 218.909 0.0297852C218.957 0.0299873 219 0.0578957 219.02 0.101311C219.04 0.144714 219.033 0.195755 219.002 0.232113C217.657 1.76122 217.893 3.06478 218.56 5.01182C222.292 15.8803 226.03 26.7455 229.775 37.6074C230.678 40.2299 232.116 42.3672 234.088 44.019C234.13 44.0544 234.142 44.0997 234.124 44.155C234.124 44.155 234.088 44.2678 234.088 44.2678C234.077 44.301 234.056 44.3098 234.025 44.2943C233.301 43.9062 232.74 44.1351 232.106 44.1351C226.721 44.1373 221.335 44.1727 215.947 44.2413C215.819 44.2435 215.802 44.2003 215.898 44.1119C216.776 43.307 217.015 42.2057 216.615 40.8082C216.05 38.838 215.466 36.8743 214.862 34.9173C214.833 34.8222 214.769 34.7747 214.669 34.7747C214.669 34.7747 214.669 34.7748 214.669 34.7748ZM204.407 24.751C204.395 24.7878 204.402 24.8279 204.425 24.8589C204.448 24.8898 204.485 24.9077 204.523 24.9069C204.523 24.9069 212.106 24.9069 212.106 24.9069C212.145 24.9077 212.181 24.8898 212.204 24.8589C212.228 24.8279 212.234 24.7878 212.222 24.751C212.222 24.751 208.428 12.7868 208.428 12.7868C208.411 12.7388 208.366 12.7067 208.315 12.7067C208.264 12.7067 208.219 12.7388 208.202 12.7868C208.202 12.7868 204.407 24.751 204.407 24.751C204.407 24.751 204.407 24.751 204.407 24.751ZM13.2214 10.3123C9.97776 10.1863 6.33578 10.6175 3.36774 12.2063C2.30204 12.7768 1.17658 13.7155 0.137432 14.5447C0.0289841 14.631 -0.0152817 14.6055 0.00463486 14.4684C0.00463486 14.4684 1.91361 0.22551 1.91361 0.22551C1.91871 0.178005 1.96037 0.142128 2.00989 0.142586C2.00989 0.142586 37.7856 0.102783 37.7856 0.102783C37.8985 0.102783 37.9638 0.158062 37.9815 0.268631C37.9815 0.268631 40.2955 14.1367 40.2955 14.1367C40.3641 14.537 40.2679 14.5812 40.0067 14.2694C37.0387 10.707 31.6869 10.0801 27.0357 10.3455C26.9405 10.3521 26.8918 10.403 26.8896 10.4981C26.7811 19.1884 26.7767 27.8888 26.8763 36.5991C26.9095 39.571 27.8313 42.0167 29.6418 43.9361C29.7237 44.0224 29.7049 44.0655 29.5854 44.0655C29.5854 44.0655 10.4226 44.0456 10.4226 44.0456C10.2942 44.0456 10.2799 44.0058 10.3795 43.9262C13.0321 41.7503 13.3973 39.4948 13.4039 35.9025C13.4172 27.4333 13.4161 18.964 13.4006 10.4948C13.3984 10.3776 13.3386 10.3168 13.2213 10.3123C13.2213 10.3123 13.2214 10.3123 13.2214 10.3123Z" fill="#000000" fill-opacity="0.039" transform="translate(44.927 49.349)" />
    <path id="Shape" d="M2.99669 18.3054C-0.751526 14.5771 -1.13997 5.73749 2.72113 1.74058C4.34126 0.0622139 6.72499 -0.51162 8.83315 0.503361C11.4028 1.74058 12.7341 5.03098 12.9598 7.84042C13.2287 11.1673 13.1391 14.6236 10.9645 17.4927C9.03897 20.0302 5.37044 20.6703 2.99667 18.3054C2.99667 18.3054 2.99669 18.3054 2.99669 18.3054ZM105.308 12.5571C105.308 12.5571 109.102 0.592876 109.102 0.592876C109.119 0.544865 109.164 0.512695 109.215 0.512695C109.266 0.512695 109.311 0.544865 109.328 0.592876C109.328 0.592876 113.123 12.5571 113.123 12.5571C113.135 12.5938 113.128 12.634 113.105 12.6649C113.082 12.6958 113.045 12.7137 113.007 12.713C113.007 12.713 105.424 12.713 105.424 12.713C105.385 12.7137 105.349 12.6958 105.326 12.6649C105.303 12.634 105.296 12.5938 105.308 12.5571C105.308 12.5571 105.308 12.5571 105.308 12.5571Z" fill="#FFFFFF" fill-opacity="0" transform="translate(144.027 61.543)" />
    <path id="Shape" d="M21.1597 17.0694C21.1597 17.0694 21.6677 14.1008 21.6677 14.1008C21.6854 14.0013 21.7452 13.9515 21.847 13.9515C21.847 13.9515 31.2756 13.9515 31.2756 13.9515C31.4239 13.9515 31.4516 14.009 31.3586 14.124C28.8189 17.2684 29.1177 21.4909 26.5879 24.5292C26.5148 24.6155 26.5104 24.705 26.5746 24.7979C28.571 27.7632 30.9304 30.4068 33.6527 32.7287C33.7523 32.8149 33.7357 32.858 33.6029 32.858C33.6029 32.858 21.4984 32.858 21.4984 32.858C21.3855 32.858 21.2914 32.8149 21.2162 32.7287C21.2162 32.7287 19.5795 30.8513 19.5795 30.8513C19.4755 30.7341 19.3703 30.7319 19.2641 30.8447C17.4049 32.8083 13.9754 33.4584 11.4456 33.4219C6.24988 33.3423 2.22278 30.5462 0.576088 25.5508C-1.25984 19.9751 1.4094 14.0908 6.91719 11.9713C6.9787 11.9478 7.02719 11.8991 7.05061 11.8371C7.07404 11.7751 7.07019 11.7058 7.04002 11.6462C5.91788 9.51014 5.67995 7.27232 6.32624 4.93278C7.2691 1.53624 11.5718 0.0900574 14.8419 0.0038147C16.6745 -0.0459518 18.8259 0.401848 20.7846 0.730225C21.681 0.879486 23.4041 0.952454 24.7121 1.39361C24.8073 1.42457 24.835 1.48538 24.7951 1.57603C23.808 3.91338 22.7832 6.23412 21.7209 8.53828C21.5947 8.81027 21.6047 9.12207 21.4851 9.40732C21.4409 9.51347 21.3745 9.52893 21.2859 9.45376C20.1671 8.4819 18.142 8.00094 17.1294 9.34762C15.9076 10.9762 19.9082 15.7261 20.9573 17.1159C20.9839 17.1525 21.0298 17.1697 21.0739 17.1596C21.118 17.1495 21.1519 17.114 21.1598 17.0694C21.1598 17.0694 21.1597 17.0694 21.1597 17.0694ZM14.729 23.8526C14.729 23.8526 10.9443 18.5323 10.9443 18.5323C10.9155 18.4906 10.8712 18.4622 10.8212 18.4535C10.7713 18.4448 10.72 18.4564 10.6787 18.4858C10.6787 18.4858 10.6289 18.5223 10.6289 18.5223C9.90702 19.0349 9.42178 19.8182 9.28033 20.6997C9.13889 21.5812 9.35281 22.4885 9.87502 23.2221C9.87502 23.2221 9.94143 23.3183 9.94143 23.3183C10.4633 24.0521 11.2508 24.5522 12.1306 24.7083C13.0105 24.8645 13.9105 24.6639 14.6325 24.1508C14.6325 24.1508 14.6856 24.1143 14.6856 24.1143C14.7693 24.0535 14.7885 23.9368 14.7288 23.8523C14.7288 23.8523 14.729 23.8526 14.729 23.8526ZM209.603 20.8276C207.196 19.1393 204.013 17.1259 202.396 14.3131C200.357 10.7673 201.795 5.93121 204.71 3.51649C207.528 1.18137 211.36 0.902748 214.922 1.54955C216.376 1.8127 217.815 1.63136 219.238 1.00557C219.335 0.961334 219.386 0.993401 219.391 1.10175C219.391 1.10175 219.819 10.8967 219.819 10.8967C219.825 11.0625 219.756 11.1068 219.61 11.0294C217.907 10.1172 215.848 8.60468 213.537 9.47704C212.551 9.84853 212.236 10.9199 212.79 11.8254C213.464 12.92 215.45 13.8753 216.549 14.5719C219.716 16.5852 221.738 19.0199 221.831 22.9007C221.99 29.8563 215.768 34.1252 209.255 33.3291C207.658 33.1334 204.471 32.0256 202.943 32.8216C202.808 32.8924 202.735 32.8526 202.724 32.7022C202.724 32.7022 201.871 21.1626 201.871 21.1626C201.862 21.0388 201.904 21.0189 201.997 21.1029C203.837 22.7979 206.446 25.0567 209.142 24.5625C211.194 24.1877 211.081 21.8625 209.603 20.8276C209.603 20.8276 209.603 20.8276 209.603 20.8276ZM66.1351 6.04387C66.155 4.26268 65.6172 3.02215 64.3457 2.15311C64.0203 1.93198 64.0557 1.82142 64.4519 1.82142C69.9675 1.84132 75.4542 1.84908 80.9122 1.84464C86.6823 1.838 90.6795 4.72042 91.2074 10.6279C91.5836 14.8293 89.8053 17.4829 85.8722 18.5885C85.7616 18.6195 85.7361 18.6847 85.7959 18.7842C88.0844 22.5744 90.3885 26.3568 92.708 30.1315C93.3952 31.2493 94.2551 31.8795 95.2444 32.7021C95.3706 32.806 95.3518 32.858 95.188 32.858C95.188 32.858 83.4951 32.858 83.4951 32.858C83.3807 32.8577 83.2766 32.7935 83.2262 32.6921C81.0838 28.3691 78.7476 24.1544 76.2178 20.048C76.1713 19.975 76.147 19.9816 76.1448 20.0679C75.9633 24.8332 75.9445 27.9622 76.0884 29.4548C76.2145 30.7749 76.8984 31.8552 78.1401 32.6955C78.3017 32.8038 78.2851 32.858 78.0903 32.858C78.0903 32.858 64.3357 32.858 64.3357 32.858C64.2627 32.858 64.2483 32.8281 64.2926 32.7684C64.2926 32.7684 65.9227 30.6589 65.9227 30.6589C65.9957 30.566 66.0333 30.4599 66.0356 30.3404C66.1617 22.2405 66.0555 14.1438 66.1351 6.04387C66.1351 6.04387 66.1351 6.04387 66.1351 6.04387ZM75.9322 8.74049C75.9322 8.74049 75.9389 14.3129 75.9389 14.3129C75.9389 14.369 75.9614 14.4226 76.0013 14.4619C76.0413 14.5012 76.0954 14.5228 76.1514 14.5219C76.1514 14.5219 78.306 14.5186 78.306 14.5186C79.9326 14.5147 81.2488 13.357 81.2475 11.9314C81.2475 11.9314 81.2475 11.1088 81.2475 11.1088C81.2468 10.4228 80.935 9.76537 80.3808 9.28132C79.8265 8.79726 79.0753 8.52632 78.2927 8.52821C78.2927 8.52821 76.138 8.53152 76.138 8.53152C76.0238 8.53335 75.9322 8.62637 75.9322 8.74049C75.9322 8.74049 75.9322 8.74049 75.9322 8.74049ZM147.202 18.97C147.208 21.8535 147.216 24.737 147.225 27.6205C147.228 29.8661 147.67 31.3985 149.35 32.7253C149.375 32.7454 149.385 32.7792 149.374 32.8097C149.364 32.8402 149.335 32.8609 149.303 32.8613C149.303 32.8613 135.532 32.8547 135.532 32.8547C135.435 32.8547 135.421 32.8215 135.492 32.7552C137.009 31.3554 137.438 29.9391 137.434 27.7599C137.432 20.4759 137.432 13.1919 137.434 5.9079C137.434 4.43076 136.78 3.15152 135.472 2.0702C135.362 1.97733 135.378 1.93089 135.522 1.93089C135.522 1.93089 146.664 1.92094 146.664 1.92094C146.761 1.92094 146.835 1.96185 146.886 2.04366C146.886 2.04366 155.571 16.479 155.571 16.479C155.606 16.5345 155.674 16.5605 155.737 16.5429C155.801 16.5254 155.845 16.4684 155.847 16.4027C155.867 13.0393 155.849 9.62619 155.794 6.16331C155.765 4.40533 155.049 3.01443 153.646 1.99059C153.601 1.95885 153.582 1.90178 153.598 1.84949C153.615 1.7972 153.664 1.7617 153.719 1.76173C153.719 1.76173 167.629 1.76173 167.629 1.76173C167.694 1.76288 167.75 1.80594 167.767 1.86777C167.785 1.9296 167.76 1.99561 167.706 2.03038C166.215 2.97569 165.564 4.26267 165.521 6.11021C165.372 12.6313 165.571 18.0578 165.478 27.2756C165.455 29.7002 165.763 31.2028 167.543 32.6822C167.685 32.7994 167.664 32.858 167.48 32.858C167.48 32.858 155.923 32.858 155.923 32.858C155.81 32.858 155.724 32.8093 155.664 32.712C155.664 32.712 147.291 18.9434 147.291 18.9434C147.282 18.9238 147.26 18.9143 147.238 18.9207C147.217 18.9269 147.202 18.9474 147.202 18.97C147.202 18.97 147.202 18.97 147.202 18.97ZM63.5389 10.711C63.0376 10.094 62.1611 9.42399 61.3145 9.46711C58.7715 9.58984 56.1454 9.43394 53.5591 9.41734C53.4285 9.41514 53.3632 9.47926 53.3632 9.60973C53.3632 9.60973 53.3433 13.8023 53.3433 13.8023C53.3433 13.924 53.4053 13.987 53.5292 13.9914C56.9189 14.1009 60.2123 14.6548 62.1279 12.6381C62.2054 12.5563 62.2441 12.5718 62.2441 12.6845C62.2441 12.6845 62.1976 23.1461 62.1976 23.1461C62.1959 23.1748 62.1772 23.2 62.1507 23.2095C62.1242 23.2191 62.0953 23.211 62.0781 23.1893C61.1452 22.0416 60.3683 21.5009 58.7847 21.4976C57.0296 21.4932 55.2733 21.4943 53.516 21.501C53.3965 21.501 53.3367 21.5607 53.3367 21.6801C53.3478 23.7211 53.3533 25.7588 53.3533 27.7932C53.35 30.0288 53.7119 31.4219 55.3087 32.8183C55.4039 32.9002 55.3884 32.9411 55.2623 32.9411C55.2623 32.9411 41.3218 32.9411 41.3218 32.9411C41.1536 32.9411 41.137 32.8913 41.272 32.7918C42.9353 31.5678 43.4997 30.2212 43.4831 28.0652C43.4322 21.0996 43.4355 14.1352 43.493 7.17179C43.5096 4.87648 43.1112 3.41702 41.4446 2.004C41.4146 1.97977 41.4034 1.939 41.417 1.90284C41.4305 1.86668 41.4658 1.84328 41.5044 1.8448C41.5044 1.8448 62.6026 1.8448 62.6026 1.8448C62.7399 1.8448 62.8151 1.91335 62.8284 2.05045C62.8284 2.05045 63.7015 10.6446 63.7015 10.6446C63.7037 10.6842 63.6805 10.7207 63.6439 10.7357C63.6072 10.7506 63.565 10.7407 63.5389 10.711C63.5389 10.711 63.5389 10.711 63.5389 10.711ZM96.6421 2.16651C96.5624 2.10017 96.4595 2.09354 96.3765 1.99734C96.3531 1.96944 96.3481 1.93043 96.3638 1.89755C96.3796 1.86468 96.4131 1.84405 96.4496 1.84476C96.4496 1.84476 110.3 1.84476 110.3 1.84476C110.497 1.84476 110.524 1.91331 110.38 2.0504C109.414 2.95924 108.215 4.14671 108.215 5.55972C108.22 13.1865 108.221 20.8088 108.219 28.4267C108.215 30.2576 109.049 31.5413 110.36 32.6889C110.489 32.8017 110.466 32.8581 110.294 32.8581C110.294 32.8581 96.599 32.8581 96.599 32.8581C96.413 32.8581 96.3909 32.7984 96.5325 32.679C98.0995 31.3522 98.5013 30.0254 98.5046 27.8761C98.5112 20.6231 98.5112 13.3711 98.5046 6.12031C98.5013 4.36565 97.907 3.23457 96.6421 2.16653C96.6421 2.16653 96.6421 2.16651 96.6421 2.16651ZM124.214 13.6132C126.21 13.6298 130.768 14.2699 132.67 12.3362C132.748 12.2588 132.786 12.2743 132.786 12.3826C132.786 12.3826 132.786 22.4959 132.786 22.4959C132.786 22.7325 132.721 22.7524 132.59 22.5556C131.077 20.2703 127.325 20.9635 124.141 21.0265C124.039 21.0287 123.988 21.0818 123.988 21.1857C123.988 21.1857 123.988 25.1329 123.988 25.1329C123.988 25.2435 124.045 25.2999 124.158 25.3021C126.654 25.3242 129.143 25.3264 131.624 25.3087C132.866 25.3021 133.922 25.0865 134.629 24.1312C134.669 24.0753 134.743 24.0543 134.806 24.0803C134.87 24.1063 134.908 24.1725 134.898 24.2407C134.898 24.2407 133.796 32.7818 133.796 32.7818C133.782 32.8726 133.705 32.9403 133.613 32.941C133.613 32.941 112.033 32.941 112.033 32.941C111.845 32.941 111.826 32.8846 111.977 32.7718C114.636 30.7584 114.244 28.1281 114.211 24.5458C114.156 18.7898 114.152 13.0338 114.201 7.27785C114.221 4.956 113.796 3.46338 112.166 1.98402C112.141 1.9621 112.132 1.92701 112.144 1.896C112.156 1.865 112.186 1.84457 112.219 1.84473C112.219 1.84473 132.544 1.84473 132.544 1.84473C132.663 1.84473 132.73 1.90334 132.743 2.02054C132.743 2.02054 133.796 10.4887 133.796 10.4887C133.818 10.6678 133.757 10.7021 133.613 10.5915C132.843 10.0011 132.185 9.56657 131.163 9.50025C128.837 9.34989 126.51 9.32667 124.184 9.43058C124.054 9.43723 123.988 9.50578 123.988 9.63623C123.988 9.63623 123.988 13.3877 123.988 13.3877C123.988 13.538 124.064 13.6132 124.214 13.6132C124.214 13.6132 124.214 13.6132 124.214 13.6132ZM169.704 2.27585C169.598 2.17635 169.435 2.14317 169.332 1.9906C169.315 1.96375 169.313 1.92944 169.328 1.90158C169.343 1.8737 169.371 1.85688 169.402 1.85791C174.214 1.83581 179.022 1.82807 183.827 1.83469C188.724 1.84465 193.674 3.74193 196.559 7.64265C201.34 14.0974 200.54 25.9389 193.518 30.4234C191.181 31.9182 188.443 32.6944 185.305 32.7519C180.084 32.8469 174.862 32.8823 169.641 32.858C169.48 32.858 169.456 32.8016 169.571 32.6888C171.042 31.236 171.457 29.8529 171.46 27.6703C171.467 20.6937 171.466 13.7182 171.457 6.74375C171.457 4.77682 171.095 3.51638 169.704 2.27585C169.704 2.27585 169.704 2.27585 169.704 2.27585ZM181.354 9.98782C181.354 9.98782 181.327 24.4696 181.327 24.4696C181.327 24.5831 181.419 24.6752 181.533 24.6752C181.533 24.6752 184.089 24.6785 184.089 24.6785C186.952 24.6835 189.279 21.9858 189.285 18.6523C189.285 18.6523 189.292 15.8329 189.292 15.8329C189.295 14.2316 188.751 12.6948 187.78 11.5608C186.81 10.4267 185.492 9.78837 184.116 9.78616C184.116 9.78616 181.56 9.78284 181.56 9.78284C181.446 9.78284 181.354 9.87492 181.354 9.98849C181.354 9.98849 181.354 9.98782 181.354 9.98782Z" fill="#000000" fill-opacity="0.039" transform="translate(66.978 99.527)" />
    <path id="Shape" d="M66.6943 0.212296C66.6943 0.0981522 66.7859 0.00512695 66.9001 0.00332642C66.9001 0.00332642 69.0548 7.62939e-06 69.0548 7.62939e-06C69.8374 -0.00185394 70.5886 0.269104 71.1429 0.753159C71.6971 1.23722 72.0089 1.89465 72.0095 2.5806C72.0095 2.5806 72.0095 3.40319 72.0095 3.40319C72.0108 4.82896 70.6944 5.98663 69.0679 5.99039C69.0679 5.99039 66.9132 5.99371 66.9132 5.99371C66.8572 5.99461 66.8031 5.97298 66.7632 5.93369C66.7232 5.89439 66.7007 5.84074 66.7007 5.78474C66.7007 5.78474 66.6941 0.212296 66.6941 0.212296C66.6941 0.212296 66.6943 0.212296 66.6943 0.212296ZM172.116 1.45956C172.116 1.34599 172.208 1.25391 172.322 1.25391C172.322 1.25391 174.878 1.25723 174.878 1.25723C176.254 1.25962 177.572 1.89817 178.543 3.03233C179.514 4.1665 180.057 5.70334 180.054 7.30467C180.054 7.30467 180.047 10.1241 180.047 10.1241C180.041 13.4575 177.715 16.1556 174.852 16.1509C174.852 16.1509 172.295 16.1476 172.295 16.1476C172.182 16.1476 172.089 16.0555 172.089 15.942C172.089 15.942 172.116 1.46021 172.116 1.46021C172.116 1.46021 172.116 1.45956 172.116 1.45956ZM5.49107 15.3243C5.55083 15.4087 5.5316 15.5254 5.44791 15.5863C5.44791 15.5863 5.39481 15.6228 5.39481 15.6228C4.6731 16.1357 3.77314 16.3364 2.8933 16.1803C2.01347 16.0243 1.22591 15.5243 0.703941 14.7905C0.703941 14.7905 0.637535 14.6943 0.637535 14.6943C0.115234 13.9608 -0.0988007 13.0535 0.0425339 12.172C0.183876 11.2905 0.669014 10.5071 1.39117 9.99424C1.39117 9.99424 1.44097 9.95776 1.44097 9.95776C1.48222 9.92837 1.53357 9.91673 1.58349 9.92545C1.63342 9.93417 1.67774 9.96256 1.70656 10.0042C1.70656 10.0042 5.4913 15.3246 5.4913 15.3246C5.4913 15.3246 5.49107 15.3243 5.49107 15.3243Z" fill="#FEFEFE" fill-opacity="0.059" transform="translate(76.216 108.056)" />
  </g>
</svg>