<?xml version="1.0" encoding="utf-8"?>
<svg width="36" height="34.373" viewBox="0 0 36 34.373" fill="none" xmlns="http://www.w3.org/2000/svg">
  <g id="Group">
    <path id="Path" d="M7.5 0C7.5 0 28.5 0 28.5 0C32.642 0 36 3.20633 36 7.16009C36 7.16009 36 27.211 36 27.211C36 31.1647 32.642 34.3725 28.5 34.3725C28.5 34.3725 7.5 34.3725 7.5 34.3725C3.35803 34.3725 0 31.1647 0 27.211C0 27.211 0 7.16009 0 7.16009C0 3.20633 3.35803 0 7.5 0C7.5 0 7.5 0 7.5 0Z" fill="#FFFFFF" fill-rule="evenodd" />
    <path id="Shape" d="M12.4591 5.38453L9.88607 5.38453C9.88607 5.38453 13.1711 0.553604 13.1711 0.553604C13.2431 0.448005 13.2231 0.292382 13.1271 0.213461C13.0911 0.182337 13.0431 0.164551 12.9961 0.164551C12.9961 0.164551 8.24407 0.164551 8.24407 0.164551C7.82607 0.164551 7.48507 0.54471 7.48507 1.00824C7.48507 1.47177 7.82707 1.85193 8.24407 1.85193C8.24407 1.85193 10.3791 1.85193 10.3791 1.85193C10.3791 1.85193 7.08307 6.6873 7.08307 6.6873C7.00707 6.7929 7.02707 6.94408 7.12307 7.02744C7.16307 7.06301 7.21007 7.0808 7.25807 7.07635C7.25807 7.07635 12.4551 7.07635 12.4551 7.07635C12.8731 7.05412 13.1951 6.65618 13.1751 6.1882C13.1551 5.75469 12.8451 5.4101 12.4551 5.38787C12.4551 5.38787 12.4551 5.38342 12.4551 5.38342L12.4591 5.38342L12.4591 5.38453ZM29.0639 0.164551C28.6459 0.164551 28.3049 0.544712 28.3049 1.00824C28.3049 1.00824 28.3049 3.84166 28.3049 3.84166C28.3049 3.84166 24.2009 0.221242 24.2009 0.221242C24.1099 0.136762 23.9699 0.150102 23.8949 0.256812C23.8629 0.301276 23.8469 0.353519 23.8469 0.411322C23.8469 0.411322 23.8469 6.23266 23.8469 6.23266C23.8469 6.6973 24.1889 7.07635 24.6059 7.07635C25.0229 7.07635 25.3649 6.70064 25.3649 6.23266C25.3649 6.23266 25.3649 3.39925 25.3649 3.39925C25.3649 3.39925 29.4689 7.02411 29.4689 7.02411C29.5639 7.10859 29.7039 7.0908 29.7789 6.98409C29.8109 6.93962 29.8269 6.88738 29.8269 6.83403C29.8269 6.83403 29.8269 1.00824 29.8269 1.00824C29.8239 0.540264 29.4859 0.164551 29.0639 0.164551C29.0639 0.164551 29.0639 0.164551 29.0639 0.164551ZM18.2049 5.54343C16.4669 5.54343 15.1709 4.52634 15.1709 3.61596C15.1709 2.70557 16.4709 1.68848 18.2049 1.68848C19.9429 1.68848 21.2389 2.70557 21.2389 3.61596C21.2389 4.52634 19.9459 5.54343 18.2049 5.54343C18.2049 5.54343 18.2049 5.54343 18.2049 5.54343ZM18.2051 0C15.6921 0 13.6521 1.61735 13.6521 3.61597C13.6521 5.61459 15.6921 7.23193 18.2051 7.23193C20.7181 7.23193 22.7581 5.61459 22.7581 3.61597C22.7581 1.61735 20.7181 0 18.2051 0C18.2051 0 18.2051 0 18.2051 0ZM3.25704 5.54788C2.29904 5.54788 1.51904 4.68641 1.51904 3.6204C1.51904 2.5544 2.29404 1.68848 3.25305 1.68848C4.21205 1.68848 4.99105 2.54995 4.99105 3.61596C4.99105 3.61596 4.99105 3.6204 4.99105 3.6204C4.99105 4.68196 4.21605 5.54343 3.25704 5.54788C3.25704 5.54788 3.25704 5.54788 3.25704 5.54788ZM3.257 0C1.46 0 0.00399971 1.61735 0 3.61597C0 5.61348 1.455 7.23194 3.253 7.23638C5.05 7.23638 6.50601 5.61903 6.51001 3.62041C6.51001 3.62041 6.51001 3.61597 6.51001 3.61597C6.50601 1.61846 5.051 0 3.257 0C3.257 0 3.257 0 3.257 0Z" fill="#474747" transform="translate(3 14)" />
  </g>
</svg>