<?xml version="1.0" encoding="utf-8"?>
<svg width="62" height="121.457" viewBox="0 0 62 121.457" fill="none" xmlns="http://www.w3.org/2000/svg">
  <g id="Group">
    <g fill="#CB453C" fill-rule="evenodd" transform="translate(9 54)">
      <path id="Oval" d="M0 22C0 9.84974 9.84974 0 22 0C34.1503 0 44 9.84974 44 22C44 34.1503 34.1503 44 22 44C9.84974 44 0 34.1503 0 22Z" />
      <path d="M22 0C9.84974 0 0 9.84974 0 22C0 34.1503 9.84974 44 22 44C34.1503 44 44 34.1503 44 22C44 9.84974 34.1503 0 22 0ZM7.85786 36.1421Q2 30.2842 2 22Q2 13.7157 7.85786 7.85786Q13.7157 2 22 2Q30.2843 2 36.1421 7.85786Q42 13.7157 42 22Q42 30.2843 36.1421 36.1421Q30.2843 42 22 42Q13.7157 42 7.85786 36.1421Z" fill="#FFFFFF" fill-rule="evenodd" />
    </g>
    <g fill="#CB453C" fill-rule="evenodd" transform="translate(14 59)">
      <path id="Oval" d="M0 17.1025C0 7.65707 7.65707 0 17.1025 0C26.548 0 34.2051 7.65707 34.2051 17.1025C34.2051 26.548 26.548 34.2051 17.1025 34.2051C7.65707 34.2051 0 26.548 0 17.1025Z" />
      <path d="M17.1025 0C7.65707 0 0 7.65707 0 17.1025C0 26.548 7.65707 34.2051 17.1025 34.2051C26.548 34.2051 34.2051 26.548 34.2051 17.1025C34.2051 7.65707 26.548 0 17.1025 0ZM6.42344 27.7817Q2 23.3582 2 17.1025Q2 10.8469 6.42343 6.42343Q10.8469 2 17.1025 2Q23.3582 2 27.7817 6.42343Q32.2051 10.8469 32.2051 17.1025Q32.2051 23.3582 27.7817 27.7817Q23.3582 32.2051 17.1025 32.2051Q10.8469 32.2051 6.42344 27.7817Z" fill="#FFFFFF" fill-rule="evenodd" />
    </g>
    <g fill="#CB453C" fill-rule="evenodd" transform="translate(0 91)">
      <path id="Rectangle" d="M8.53604 0L52.048 0Q52.1851 0 52.3206 0.0196537Q52.4562 0.0393074 52.5876 0.0782083Q52.719 0.117109 52.8434 0.174453Q52.9679 0.231796 53.0828 0.306396Q53.1977 0.380996 53.3007 0.471309Q53.4038 0.561623 53.4928 0.665782Q53.5818 0.769941 53.6549 0.885791Q53.7281 1.00164 53.7839 1.12679L60.4404 16.0626Q60.4811 16.1539 60.5119 16.2489Q60.5428 16.3439 60.5635 16.4416Q60.5843 16.5393 60.5947 16.6386Q60.6051 16.738 60.605 16.8379Q60.6049 16.9377 60.5943 17.0371Q60.5838 17.1364 60.5629 17.2341Q60.5419 17.3318 60.5109 17.4267Q60.4799 17.5216 60.4391 17.6128Q60.3982 17.704 60.3481 17.7904Q60.2979 17.8768 60.239 17.9574Q60.1801 18.0381 60.113 18.1121Q60.0459 18.1861 59.9715 18.2527Q59.897 18.3193 59.816 18.3777Q59.735 18.4361 59.6483 18.4857Q59.5616 18.5353 59.4702 18.5756Q59.3787 18.6158 59.2836 18.6463L30.2841 27.9231L1.3207 18.646Q1.22566 18.6156 1.13433 18.5753Q1.043 18.5351 0.956386 18.4855Q0.869772 18.436 0.788827 18.3776Q0.707883 18.3192 0.633497 18.2527Q0.559111 18.1862 0.492102 18.1122Q0.425094 18.0383 0.3662 17.9577Q0.307306 17.8771 0.257175 17.7908Q0.207043 17.7045 0.166225 17.6135Q0.125408 17.5224 0.0943528 17.4276Q0.0632979 17.3327 0.0423475 17.2351Q0.0213972 17.1376 0.0107817 17.0383Q0.000166311 16.9391 2.6077e-06 16.8393Q-0.000161095 16.7395 0.0101287 16.6403Q0.0204185 16.541 0.0410487 16.4433Q0.0616788 16.3457 0.0924224 16.2508Q0.123166 16.1558 0.163685 16.0646L6.79934 1.12881Q6.85502 1.00347 6.92813 0.887428Q7.00123 0.771386 7.09024 0.667044Q7.17925 0.562702 7.28232 0.472222Q7.38539 0.381742 7.50038 0.306999Q7.61538 0.232256 7.73991 0.1748Q7.86445 0.117344 7.99594 0.0783655Q8.12744 0.0393868 8.26316 0.0196934Q8.39889 0 8.53604 0Z" />
      <path d="M52.048 0L8.53604 0Q8.39889 0 8.26316 0.0196934Q8.12744 0.0393868 7.99594 0.0783655Q7.86445 0.117344 7.73991 0.1748Q7.61538 0.232256 7.50038 0.306999Q7.38539 0.381742 7.28232 0.472222Q7.17925 0.562702 7.09024 0.667044Q7.00123 0.771386 6.92813 0.887428Q6.85502 1.00347 6.79934 1.12881L0.163685 16.0646Q0.0824232 16.2475 0.0410488 16.4433Q-0.00032561 16.6392 2.58163e-06 16.8393Q0.000330774 17.0395 0.0423471 17.2351Q0.0843635 17.4308 0.166224 17.6135Q0.248085 17.7961 0.366199 17.9577Q0.484313 18.1193 0.633496 18.2527Q0.782679 18.3861 0.956385 18.4855Q1.13009 18.585 1.3207 18.646L30.2841 27.9231L59.2836 18.6463Q59.4744 18.5852 59.6483 18.4857Q59.8222 18.3863 59.9715 18.2527Q60.1208 18.1192 60.239 17.9574Q60.3572 17.7957 60.4391 17.6128Q60.5209 17.43 60.5629 17.2341Q60.6048 17.0382 60.605 16.8379Q60.6052 16.6375 60.5635 16.4416Q60.5219 16.2456 60.4404 16.0626L53.7839 1.12679Q53.7281 1.00164 53.6549 0.88579Q53.5818 0.769941 53.4928 0.665782Q53.4038 0.561623 53.3007 0.471309Q53.1977 0.380996 53.0828 0.306396Q52.9679 0.231796 52.8434 0.174453Q52.719 0.117109 52.5876 0.0782083Q52.4562 0.0393074 52.3207 0.0196537Q52.1851 0 52.048 0ZM30.2845 25.8231L58.5683 16.7752L51.9834 2L8.60078 2L2.03649 16.7752L30.2845 25.8231Z" fill="#FFFFFF" fill-rule="evenodd" />
    </g>
    <g fill="#CB453C" fill-rule="evenodd" transform="translate(24 47)">
      <path id="Rectangle" d="M0 0L14 0L14 9.5C14 9.5 10.5 8.5 7 8.5C3.5 8.5 0 9.5 0 9.5L0 0Z" />
      <path d="M0 0L0 9.5C0 9.5 0.792328 9.27362 2 9.03628C3.33055 8.77479 5.16528 8.5 7 8.5C8.83472 8.5 10.6694 8.77479 12 9.03628C13.2077 9.27362 14 9.5 14 9.5L14 0L0 0ZM2 2L2 6.97194Q4.49763 6.5 7 6.5Q9.50235 6.5 12 6.97194L12 2L2 2Z" fill="#FFFFFF" fill-rule="evenodd" />
    </g>
    <line id="Line" x1="0" y1="0" x2="0" y2="16" fill="none" stroke-width="2" stroke="#FFFFFF" stroke-linecap="round" transform="translate(30 97)" />
    <line id="Line" x1="13.301" y1="0" x2="0" y2="7.457" fill="none" stroke-width="2" stroke="#FFFFFF" stroke-linecap="round" transform="translate(3 113)" />
    <line id="Line" x1="0" y1="0" x2="12.943" y2="7.435" fill="none" stroke-width="2" stroke="#FFFFFF" stroke-linecap="round" transform="translate(46 113)" />
    <line id="Line" x1="4.053" y1="0" x2="0" y2="10.923" fill="none" stroke-width="2" stroke="#FFFFFF" stroke-linecap="round" transform="translate(12 97)" />
    <line id="Line" x1="0" y1="0" x2="4.184" y2="10.862" fill="none" stroke-width="2" stroke="#FFFFFF" stroke-linecap="round" transform="translate(46 97)" />
    <g fill="#CB453C" fill-rule="evenodd" transform="translate(13 0)">
      <path id="Oval" d="M0 15C0 6.71573 10.0736 0 22.5 0C34.9264 0 45 6.71573 45 15C45 23.2843 34.9264 30 22.5 30C10.0736 30 0 23.2843 0 15Z" />
      <path d="M22.5 0C10.0736 0 0 6.71573 0 15C0 23.2843 10.0736 30 22.5 30C34.9264 30 45 23.2843 45 15C45 6.71573 34.9264 0 22.5 0ZM7.69949 23.9425Q2 20.1428 2 15Q2 9.85716 7.69949 6.0575Q13.7857 2 22.5 2Q31.2142 2 37.3005 6.0575Q43 9.85717 43 15Q43 20.1428 37.3005 23.9425Q31.2142 28 22.5 28Q13.7857 28 7.69949 23.9425Z" fill="#FFFFFF" fill-rule="evenodd" />
    </g>
    <g fill="#CB453C" fill-rule="evenodd" transform="translate(3 21)">
      <path id="Oval" d="M0 9.5C0 4.2533 6.49187 0 14.5 0C22.5081 0 29 4.2533 29 9.5C29 14.7467 22.5081 19 14.5 19C6.49187 19 0 14.7467 0 9.5Z" />
      <path d="M14.5 0C6.49187 0 0 4.2533 0 9.5C0 14.7467 6.49187 19 14.5 19C22.5081 19 29 14.7467 29 9.5C29 4.2533 22.5081 0 14.5 0ZM5.343 14.5446Q2 12.3543 2 9.5Q2 6.64565 5.343 4.45541Q9.09073 2 14.5 2Q19.9093 2 23.657 4.45541Q27 6.64566 27 9.5Q27 12.3543 23.657 14.5446Q19.9093 17 14.5 17Q9.09072 17 5.343 14.5446Z" fill="#FFFFFF" fill-rule="evenodd" />
    </g>
    <g fill="#CB453C" fill-rule="evenodd" transform="translate(30 33)">
      <path id="Oval" d="M0 5C0 2.23859 3.58173 0 8 0C12.4183 0 16 2.23859 16 5C16 7.76141 12.4183 10 8 10C3.58173 10 0 7.76141 0 5Z" />
      <path d="M8 0C3.58173 0 0 2.23859 0 5C0 7.76141 3.58173 10 8 10C12.4183 10 16 7.76141 16 5C16 2.23859 12.4183 0 8 0ZM3.40314 6.83953Q2 5.96257 2 5Q2 4.03743 3.40314 3.16047Q5.25989 2 8 2Q10.7401 2 12.5969 3.16047Q14 4.03743 14 5Q14 5.96257 12.5969 6.83953Q10.7401 8 8 8Q5.25989 8 3.40314 6.83953Z" fill="#FFFFFF" fill-rule="evenodd" />
    </g>
  </g>
</svg>