<?xml version="1.0" encoding="utf-8"?>
<svg width="67.9" height="97" viewBox="0 0 67.9 97" fill="none" xmlns="http://www.w3.org/2000/svg">
  <path id="Shape" d="M24.25 77.6C21.5825 77.6 19.299 76.6503 17.3994 74.7506C15.4998 72.8511 14.55 70.5675 14.55 67.9C14.55 67.9 14.55 61.8375 14.55 61.8375C9.9425 58.6851 6.36563 54.6433 3.81937 49.7125C1.27313 44.7816 0 39.5275 0 33.95C0 24.4926 3.29395 16.4698 9.88187 9.88184C16.4698 3.29395 24.4925 0 33.95 0C43.4075 0 51.4302 3.29395 58.0181 9.88184C64.606 16.4698 67.9 24.4926 67.9 33.95C67.9 39.5275 66.6269 44.7615 64.0806 49.6519C61.5344 54.5422 57.9575 58.6041 53.35 61.8375C53.35 61.8375 53.35 67.9 53.35 67.9C53.35 70.5675 52.4002 72.8511 50.5006 74.7506C48.601 76.6503 46.3175 77.6 43.65 77.6C43.65 77.6 24.25 77.6 24.25 77.6C24.25 77.6 24.25 77.6 24.25 77.6ZM24.2499 67.8999L43.65 67.8999L43.65 56.745C43.65 56.745 47.7725 53.835 47.7725 53.835C51.0866 51.5717 53.6531 48.6819 55.4718 45.1655C57.2906 41.6493 58.2 37.9108 58.2 33.95C58.2 27.2408 55.8356 21.5219 51.1068 16.7931C46.3781 12.0643 40.6591 9.69995 33.95 9.69995C27.2408 9.69995 21.5218 12.0643 16.7931 16.7931C12.0643 21.5219 9.69995 27.2408 9.69995 33.95C9.69995 37.9108 10.6093 41.6493 12.4281 45.1655C14.2468 48.6819 16.8133 51.5717 20.1274 53.835C20.1274 53.835 24.2499 56.745 24.2499 56.745L24.2499 67.8999L24.2499 67.8999ZM24.2499 97C22.8757 97 21.7238 96.5353 20.7943 95.6057C19.8647 94.676 19.3999 93.5242 19.3999 92.15C19.3999 92.15 19.3999 87.3 19.3999 87.3L48.4999 87.3C48.4999 87.3 48.4999 92.15 48.4999 92.15C48.4999 93.5242 48.0351 94.676 47.1055 95.6057C46.1759 96.5353 45.0241 97 43.6499 97C43.6499 97 24.2499 97 24.2499 97C24.2499 97 24.2499 97 24.2499 97Z" fill="#FFFFFF" />
</svg>