<?xml version="1.0" encoding="utf-8"?>
<svg width="683" height="225" viewBox="0 0 683 225" fill="none" xmlns="http://www.w3.org/2000/svg">
  <path d="M81.6 39.2L72.4 72.8L24.2 72.8L33.8 39.2L81.6 39.2ZM69.4 85.8L44.4 177.2L-4.2 177.2L21.2 85.8L69.4 85.8ZM232.8 39.2L224.6 72.6L94 72.6Q97.6 61 108 50.6Q119.4 39.2 131.8 39.2L232.8 39.2ZM221 90.8L210.4 130.091Q206 146.128 197 156.753Q179.6 177.2 146.4 177.2L122.4 177.2Q87.6 177.2 79.8 157.356Q76.6 149.337 76.6 142.725Q76.6 137.313 78.6 129.897L91 85.8L138.2 85.8L126.4 127.159Q125.4 130.575 125.4 132.181Q125.4 136.197 129.4 137.4L157.8 137.4Q163.8 135.775 165.8 127.037L166.2 124.6L136.6 124.6L157.8 90.8L221 90.8ZM388.8 39.2L378.8 72.6L247.8 72.6L257.2 39.2L302.6 39.2L332.2 67.4L339.4 39.2L388.8 39.2ZM376.2 85.8L351.8 177.2L301.6 177.2L317 121.666L287.8 95L264.6 177.2L218.8 177.2L243.8 85.8L376.2 85.8ZM533.2 39.2L524 72.4L390.8 72.4L412 39.2L533.2 39.2ZM481.4 85.8L457.2 177.2L411.4 177.2L436.2 85.8L481.4 85.8ZM691.8 72.4L536.8 72.4L558 39.2L671.8 39.2Q676.4 39.2 681.1 42.4Q685.8 45.6 688.2 50Q691.8 56.6 691.8 72.4ZM689.4 85.8Q687.8 98.0281 675.4 108.85Q669.8 113.862 666 115.063Q670.6 122.281 670.6 130.297Q670.6 134.906 669.2 143.325Q668.4 148.537 658.8 177.2L614 177.2L630 122L582.8 122L565.8 177.2L519.2 177.2L546 85.8L689.4 85.8Z" fill="#FFFFFF" fill-opacity="0.122" />
</svg>