<?xml version="1.0" encoding="utf-8"?>
<svg width="50.78" height="48.665" viewBox="0 0 50.78 48.665" fill="none" xmlns="http://www.w3.org/2000/svg">
  <path id="Shape" d="M23.3619 22.3057C23.3619 22.3057 13.6852 22.3057 13.6852 22.3057C8.34056 22.3057 4.00854 18.1695 4.00854 13.0665C4.00854 7.96344 8.34056 3.82727 13.6852 3.82727C14.2478 3.82727 14.8667 3.88098 15.4293 3.98843M4.17729 14.7317C3.7272 15.054 3.27713 15.3763 2.82706 15.806C-0.942352 19.405 -0.942352 25.2601 2.82706 28.8591C6.59647 32.4581 12.7288 32.4581 16.4982 28.8591C16.4982 28.8591 23.3619 22.3057 23.3619 22.3057M4.17732 29.9334C4.0648 30.4706 4.00854 31.0077 4.00854 31.5986C4.00854 36.7017 8.34056 40.8378 13.6852 40.8378C19.0299 40.8378 23.3619 36.7017 23.3619 31.5986C23.3619 31.5986 23.3619 22.3057 23.3619 22.3057M15.4292 40.6767C15.7668 41.1064 16.1043 41.5361 16.5544 41.9659C20.3238 45.5649 26.4561 45.5649 30.2255 41.9659C33.9949 38.3669 33.9949 32.5118 30.2255 28.9128C30.2255 28.9128 23.3618 22.3057 23.3618 22.3057M31.3507 40.6768C31.9133 40.7842 32.4759 40.8379 33.0948 40.8379C38.4394 40.8379 42.7714 36.7018 42.7714 31.5987C42.7714 26.4957 38.4394 22.3595 33.0948 22.3595C33.0948 22.3595 23.3618 22.3595 23.3618 22.3595M42.6027 29.9335C43.0527 29.6112 43.5028 29.2889 43.9529 28.8591C47.7223 25.2601 47.7223 19.4051 43.9529 15.8061C40.1835 12.2071 34.0512 12.2071 30.2818 15.8061C30.2818 15.8061 23.3618 22.3057 23.3618 22.3057M42.6028 14.7317C42.7153 14.1945 42.7716 13.6574 42.7716 13.0665C42.7716 7.96344 38.4396 3.82727 33.0949 3.82727C27.7502 3.82727 23.4182 7.96344 23.4182 13.0665C23.4182 13.0665 23.4182 22.3057 23.4182 22.3057M31.3509 3.98843C31.0134 3.55872 30.6758 3.12897 30.2257 2.69925C26.4563 -0.89975 20.324 -0.89975 16.5546 2.69925C12.7852 6.29825 12.7852 12.1533 16.5546 15.7523C16.5546 15.7523 23.4183 22.3057 23.4183 22.3057" fill="none" stroke-width="4" stroke="#FFFFFF" transform="translate(2 2)" />
</svg>