<?xml version="1.0" encoding="utf-8"?>
<svg width="36" height="35.742" viewBox="0 0 36 35.742" fill="none" xmlns="http://www.w3.org/2000/svg">
  <g id="Group">
    <path id="Path" d="M7.5 0C7.5 0 28.5 0 28.5 0C32.642 0 36 3.33396 36 7.44629C36 7.44629 36 28.2959 36 28.2959C36 32.4082 32.642 35.7421 28.5 35.7421C28.5 35.7421 7.5 35.7421 7.5 35.7421C3.35803 35.7421 0 32.4082 0 28.2959C0 28.2959 0 7.44629 0 7.44629C0 3.33396 3.35803 0 7.5 0C7.5 0 7.5 0 7.5 0Z" fill="#FFFFFF" fill-rule="evenodd" />
    <path id="Shape" d="M12.4591 5.59877L9.88607 5.59877C9.88607 5.59877 13.1711 0.575574 13.1711 0.575574C13.2431 0.465772 13.2231 0.303955 13.1271 0.221893C13.0911 0.18953 13.0431 0.171037 12.9961 0.171037C12.9961 0.171037 8.24407 0.171037 8.24407 0.171037C7.82607 0.171037 7.48507 0.566326 7.48507 1.0483C7.48507 1.53028 7.82707 1.92557 8.24407 1.92557C8.24407 1.92557 10.3791 1.92557 10.3791 1.92557C10.3791 1.92557 7.08307 6.95339 7.08307 6.95339C7.00707 7.06319 7.02707 7.22038 7.12307 7.30707C7.16307 7.34406 7.21007 7.36255 7.25807 7.35793C7.25807 7.35793 12.4551 7.35793 12.4551 7.35793C12.8731 7.33481 13.1951 6.92103 13.1751 6.43443C13.1551 5.98366 12.8451 5.62535 12.4551 5.60224C12.4551 5.60224 12.4551 5.59761 12.4551 5.59761L12.4591 5.59761L12.4591 5.59877ZM29.0639 0.171037C28.6459 0.171037 28.3049 0.566328 28.3049 1.0483C28.3049 1.0483 28.3049 3.99449 28.3049 3.99449C28.3049 3.99449 24.2009 0.229984 24.2009 0.229984C24.1099 0.142141 23.9699 0.156013 23.8949 0.26697C23.8629 0.313204 23.8469 0.367526 23.8469 0.427629C23.8469 0.427629 23.8469 6.48066 23.8469 6.48066C23.8469 6.96379 24.1889 7.35793 24.6059 7.35793C25.0229 7.35793 25.3649 6.96726 25.3649 6.48066C25.3649 6.48066 25.3649 3.53447 25.3649 3.53447C25.3649 3.53447 29.4689 7.3036 29.4689 7.3036C29.5639 7.39144 29.7039 7.37295 29.7789 7.26199C29.8109 7.21576 29.8269 7.16143 29.8269 7.10596C29.8269 7.10596 29.8269 1.0483 29.8269 1.0483C29.8239 0.561703 29.4859 0.171037 29.0639 0.171037C29.0639 0.171037 29.0639 0.171037 29.0639 0.171037ZM18.2049 5.76412C16.4669 5.76412 15.1709 4.70655 15.1709 3.75993C15.1709 2.81331 16.4709 1.75574 18.2049 1.75574C19.9429 1.75574 21.2389 2.81332 21.2389 3.75993C21.2389 4.70655 19.9459 5.76412 18.2049 5.76412C18.2049 5.76412 18.2049 5.76412 18.2049 5.76412ZM18.2051 0C15.6921 0 13.6521 1.68172 13.6521 3.75988C13.6521 5.83805 15.6921 7.51976 18.2051 7.51976C20.7181 7.51976 22.7581 5.83805 22.7581 3.75988C22.7581 1.68172 20.7181 0 18.2051 0C18.2051 0 18.2051 0 18.2051 0ZM3.25704 5.76875C2.29904 5.76875 1.51904 4.87299 1.51904 3.76456C1.51904 2.65613 2.29404 1.75574 3.25305 1.75574C4.21205 1.75574 4.99105 2.6515 4.99105 3.75993C4.99105 3.75993 4.99105 3.76456 4.99105 3.76456C4.99105 4.86837 4.21605 5.76413 3.25704 5.76875C3.25704 5.76875 3.25704 5.76875 3.25704 5.76875ZM3.257 0C1.46 0 0.00399971 1.68172 0 3.75988C0 5.83689 1.455 7.51976 3.253 7.52439C5.05 7.52439 6.50601 5.84267 6.51001 3.76451C6.51001 3.76451 6.51001 3.75988 6.51001 3.75988C6.50601 1.68287 5.051 0 3.257 0C3.257 0 3.257 0 3.257 0Z" fill="#75BBC8" transform="translate(3 14.558)" />
  </g>
</svg>