<?xml version="1.0" encoding="utf-8"?>
<svg width="484" height="484" viewBox="0 0 484 484" fill="none" xmlns="http://www.w3.org/2000/svg">
  <defs>
    <clipPath id="clip_path_1">
      <rect width="484" height="484" />
    </clipPath>
  </defs>
  <g clip-path="url(#clip_path_1)" transform="scale(1 1)">
    <rect width="484" height="484" />
    <g id="Group" transform="matrix(1 0 0 1 50.364 -0.069)">
      <path id="Path" d="M14.3558 39.9856C17.1631 37.8389 23.4381 35.6922 26.9058 34.206C26.7407 28.9218 24.594 23.9678 25.915 19.5093C28.2269 11.583 33.6762 8.11526 38.9604 7.45471C39.2906 7.61987 39.6209 8.28036 39.2906 8.44553C36.3183 11.2527 35.1624 15.2159 34.667 19.5093C34.5018 21.1606 34.1716 26.2797 35.6578 29.9126C38.7953 28.2613 46.3913 25.6192 48.8683 25.1238C49.1985 19.8396 50.0242 14.7205 51.5104 10.9225C54.4828 3.49158 61.088 -2.45316 67.6933 1.01462C68.0235 1.17975 68.3538 1.84027 68.0235 2.0054C63.8952 3.49158 61.2531 7.785 58.9413 12.739C58.2808 14.2251 55.9689 22.1514 58.6111 23.8027C58.6111 23.8027 58.7762 23.8027 58.7762 23.9679C63.565 22.9771 64.3907 23.4725 69.5097 22.9771C70.3354 17.858 72.6472 13.3994 74.6288 10.0968C77.6012 4.31723 85.3623 -0.306458 92.2979 3.82184C92.6281 3.98697 92.9584 4.81262 92.463 4.81262C87.6742 5.80344 84.5367 8.94092 82.8854 11.7481C82.0597 13.0692 77.6012 19.179 79.913 21.656C80.0782 21.656 80.4084 21.656 80.7386 21.656C84.8669 21.4909 87.8393 22.3165 92.1327 23.1422C93.4538 20.0047 94.6097 19.6744 95.9307 18.0231C100.72 12.2435 108.811 10.2619 111.618 15.7113C111.948 16.0415 111.948 16.7021 111.618 16.7021C109.141 17.0323 105.013 18.3534 103.031 20.8304C102.536 21.3258 101.215 22.812 99.8939 25.6192C105.508 29.9126 108.646 33.3803 110.132 39.1599C110.462 40.1507 110.958 46.0954 108.976 43.1231C99.8939 31.729 87.6742 29.252 69.3446 31.0685C49.694 32.8849 40.6118 35.8573 20.9611 46.4257C31.8598 56.1684 15.5118 65.746 12.8697 51.3796C3.29207 65.9112 -6.78093 47.5816 6.0993 44.9395C-7.11124 32.0593 10.8881 26.1146 14.3558 39.9856C14.3558 39.9856 14.3558 39.9856 14.3558 39.9856C14.3558 39.9856 14.3558 39.9856 14.3558 39.9856Z" fill="#FFF0F0" fill-rule="evenodd" fill-opacity="0.122" transform="translate(199.325 317.592)" />
      <path id="Shape" d="M49.7334 27.5915C56.834 25.2797 64.5952 22.8027 68.5583 21.9771C69.2189 10.4178 80.1175 -3.94858 92.9978 1.00537C93.4931 1.1705 93.8234 1.83102 93.328 1.99615C90.0254 2.98697 79.457 13.06 83.0899 19.5001C85.732 19.6653 92.9978 19.5001 95.1445 19.6653C97.9517 6.95013 109.015 -1.96698 121.566 3.81262C122.061 3.97775 122.391 4.80341 121.896 4.80341C116.942 5.62906 105.713 13.5554 107.034 20.3257C109.346 20.4909 115.621 22.6376 119.584 24.7843C121.07 21.6468 122.721 20.4909 124.208 18.8396C129.657 13.06 140.886 12.5645 144.189 18.179C144.519 18.5093 144.519 19.1698 144.189 19.1698C139.4 19.0047 135.106 19.6653 130.978 23.2981C130.317 23.7935 128.996 25.7751 127.51 28.5823C131.473 30.729 135.932 34.8573 136.758 38.8205C137.418 40.802 137.748 42.4533 137.418 44.4349C137.253 44.9303 136.262 44.4349 135.932 44.1047C125.529 32.7106 102.575 25.61 80.2827 28.4172C65.4209 30.2336 50.8893 34.3619 38.8347 39.6461C42.963 36.0132 46.5959 32.05 49.7334 27.5915C49.7334 27.5915 49.7334 27.5915 49.7334 27.5915C49.7334 27.5915 49.7334 27.5915 49.7334 27.5915ZM17.0374 53.3516C16.0466 54.3423 15.0559 55.168 14.2302 56.1588C19.5144 63.4246 11.0927 69.2042 8.61577 61.9384C2.34076 68.7088 -2.61317 60.7825 1.51511 57.4799C6.7993 56.6542 12.0835 55.3331 17.0374 53.3516C17.0374 53.3516 17.0374 53.3516 17.0374 53.3516C17.0374 53.3516 17.0374 53.3516 17.0374 53.3516Z" fill="#FFF0F0" fill-opacity="0.122" transform="translate(197.469 267.237)" />
      <path id="Path" d="M11.17 37.6718C12.6561 36.0205 16.289 32.883 18.1055 31.3968C12.491 22.6449 15.6285 11.4159 21.0778 10.5903C21.4081 10.7554 21.5732 11.2508 21.4081 11.5811C19.9219 13.7278 19.2614 25.287 23.5548 27.7639C25.7015 26.2778 29.8298 23.3054 31.6462 22.81C28.5087 12.2416 33.9581 -1.95969 44.5265 0.352142C44.8567 0.517273 45.0219 1.1778 44.8567 1.34293C36.2699 5.80148 36.1048 19.012 38.4166 20.4982C41.8844 19.5074 45.6824 18.0212 49.4804 17.6909C51.1317 3.65479 63.5166 -2.62021 69.7916 1.01266C70.1218 1.1778 70.287 2.00348 70.1218 2.00348C66.6541 0.0218811 53.6087 13.3975 57.9021 17.3607C60.8745 17.1956 64.3422 18.5166 67.81 19.3423C69.2962 11.5811 80.1949 5.14096 84.8185 10.0949C85.1488 10.4251 85.1488 11.0857 84.9837 11.0857C80.8554 11.9113 75.4061 15.7094 74.5804 22.9752C83.3324 27.1034 82.3416 35.6902 80.8554 33.3784C72.5988 22.4797 55.0949 24.2962 41.7193 27.1034C33.9581 28.7547 23.0594 36.1857 18.4357 41.4698C32.4719 48.0751 19.7568 60.46 13.8121 46.4238C4.06932 63.5975 -5.5083 47.91 5.88576 43.2863C-7.98528 32.5527 6.38115 25.287 11.17 37.6718C11.17 37.6718 11.17 37.6718 11.17 37.6718C11.17 37.6718 11.17 37.6718 11.17 37.6718Z" fill="#FFF0F0" fill-rule="evenodd" fill-opacity="0.122" transform="translate(199.703 380.344)" />
      <path id="Path" d="M35.0079 50.8605C21.1368 34.8427 9.41249 17.5039 0 0C0 0 151.921 0 151.921 0L151.921 50.8605L35.0079 50.8605L35.0079 50.8605C35.0079 50.8605 35.0079 50.8605 35.0079 50.8605Z" fill="#FFF0F0" fill-rule="evenodd" fill-opacity="0.122" transform="translate(34.513 354.11)" />
      <path id="Path" d="M0 0L111.629 0L111.629 43.7598L0 43.7598L0 0Z" fill="#FFF0F0" fill-rule="evenodd" fill-opacity="0.122" transform="translate(259.587 156.448)" />
      <path id="Path" d="M185.443 32.0355L152.416 20.3112L113.941 12.55L70.6762 3.1375L30.5493 0L0 0L0 46.0716L185.277 46.0716L185.443 32.0355Z" fill="#FFF0F0" fill-rule="evenodd" fill-opacity="0.122" transform="translate(185.773 58.03)" />
      <path id="Shape" d="M13.7059 24.7698C18.1644 23.2836 22.623 21.9626 27.2467 20.6415C28.898 20.1461 30.5493 19.6507 32.3657 19.3205C34.1822 18.9902 35.9986 18.8251 37.8151 19.3205C37.8151 19.3205 38.4756 19.6507 38.4756 19.6507C39.1361 19.981 39.4664 20.4764 39.7967 21.1369C40.292 22.2928 40.4572 23.4488 40.6223 24.7698C40.9526 27.4119 40.9526 30.054 40.6223 32.6961C40.4572 34.8428 40.1269 36.9895 39.3013 38.806C38.971 39.6316 38.4756 40.2922 37.8151 40.9527C37.3197 41.4481 36.8243 41.9435 36.3289 42.2737C35.173 43.0994 34.1822 43.7599 32.8611 44.2553C29.8888 45.5764 26.9164 46.5672 23.7789 47.5579C18.4947 49.3744 13.2105 51.1908 7.9263 53.0073C7.9263 53.0073 7.9263 62.75 7.9263 62.75C5.2842 63.7408 2.6421 64.8967 0 65.8875C0 65.8875 0 29.2283 0 29.2283C4.62368 27.7422 9.08223 26.256 13.7059 24.7698C13.7059 24.7698 13.7059 24.7698 13.7059 24.7698C13.7059 24.7698 13.7059 24.7698 13.7059 24.7698ZM7.92637 46.4021C13.2106 44.5857 18.4948 42.7692 23.9441 40.9528C25.5954 40.4574 27.2467 39.962 28.7329 39.3014C28.7329 39.3014 29.8888 38.6409 29.8888 38.6409L30.3842 38.3107L30.8796 37.8153L31.375 37.3199L31.7053 36.8245C31.7053 36.8245 32.2007 35.8337 32.2007 35.8337C32.3658 35.1732 32.5309 34.6778 32.5309 34.0172C32.6961 32.3659 32.6961 30.8798 32.2007 29.2284C32.2007 29.2284 31.8704 28.4028 31.8704 28.4028L31.5402 27.7423L31.0448 27.2469L30.3842 26.9166L29.7237 26.7515L29.0632 26.7515C29.0632 26.7515 28.4027 26.7515 28.4027 26.7515C26.7513 26.9166 25.2652 27.412 23.6138 27.9074C18.3296 29.5587 13.0454 31.3751 7.76123 33.0265C7.76123 33.0265 7.92637 46.4021 7.92637 46.4021L7.92637 46.4021C7.92637 46.4021 7.92637 46.4021 7.92637 46.4021ZM75.1347 8.09135C78.7675 7.43082 82.2353 6.7703 85.8682 6.44003C87.0241 6.2749 88.18 6.2749 89.3359 6.2749C89.8313 6.2749 90.4919 6.44003 90.9873 6.60516C91.4827 6.7703 91.8129 6.93543 92.3083 7.26569C92.6386 7.59595 92.9688 7.76108 93.2991 8.09135C93.6293 8.42161 93.7945 8.917 93.9596 9.24726C94.2899 9.90779 94.455 10.4032 94.455 11.0637C94.7853 13.2104 94.9504 15.5223 95.1155 17.8341C95.2807 20.4762 95.2807 22.9532 95.1155 25.4301C95.1155 26.4209 95.1155 27.5768 94.9504 28.5676C94.7853 30.5492 94.7853 32.5308 94.2899 34.5124C94.1248 35.0078 93.9596 35.5032 93.7945 35.8334C93.4642 36.4939 93.134 37.1545 92.6386 37.815C92.6386 37.815 91.6478 39.3012 91.6478 39.3012C91.6478 39.3012 90.1616 40.292 90.1616 40.292C89.5011 40.6222 89.0057 40.7873 88.3452 41.1176C85.7031 41.9433 83.061 42.4387 80.4188 43.0992C74.9695 44.2551 69.5202 45.2459 64.0708 46.4018C61.4287 46.8972 58.7866 47.3926 56.1445 47.7229C55.484 47.888 54.6583 47.888 53.9978 47.888C53.9978 47.888 52.3465 47.7229 52.3465 47.7229C51.8511 47.5577 51.5209 47.3926 51.1906 47.2275C51.1906 47.2275 50.3649 46.5669 50.3649 46.5669L49.7044 45.5762L48.7136 40.1268C48.7136 40.1268 48.7136 25.4301 48.7136 25.4301C48.8788 23.7788 49.0439 21.9624 49.3741 20.3111C49.3741 20.3111 49.8695 18.8249 49.8695 18.8249C50.1998 17.9992 50.5301 17.3387 51.0255 16.6782C51.0255 16.6782 52.1814 15.3571 52.1814 15.3571C52.1814 15.3571 53.1722 14.5315 53.1722 14.5315C54.1629 13.8709 55.3189 13.2104 56.6399 12.715C56.6399 12.715 62.5846 10.8986 62.5846 10.8986C66.3827 9.74266 70.6761 8.917 75.1347 8.09135C75.1347 8.09135 75.1347 8.09135 75.1347 8.09135C75.1347 8.09135 75.1347 8.09135 75.1347 8.09135ZM71.0064 15.5224C71.0064 15.5224 62.4195 17.504 62.4195 17.504C61.759 17.6691 61.0985 17.9994 60.438 18.1645C60.438 18.1645 59.7774 18.6599 59.7774 18.6599L59.1169 19.1553L58.6215 19.6507L58.1261 20.1461L57.6307 20.6415C57.6307 20.6415 57.3005 21.302 57.3005 21.302C56.9702 21.7974 56.8051 22.4579 56.6399 22.9533C56.1445 25.1 56.1445 27.2467 56.1445 29.3934C56.1445 31.7053 56.1445 34.0171 56.4748 36.1638C56.4748 36.1638 56.805 36.9895 56.805 36.9895L57.3004 37.8151L57.961 38.4757L58.6215 38.9711L59.4472 39.3013L60.2728 39.4664C60.2728 39.4664 61.2636 39.4664 61.2636 39.4664C61.9241 39.4664 62.4195 39.4664 62.9149 39.3013C66.2175 38.8059 69.5202 38.1454 72.8228 37.4849C75.4649 36.9895 78.2721 36.3289 80.9142 35.6684C81.4096 35.5033 82.0702 35.3382 82.5656 35.173C82.5656 35.173 83.3912 34.6776 83.3912 34.6776L84.2169 34.1823L84.8774 33.5217L85.5379 32.8612L86.0333 32.0355L86.3636 31.2099C86.3636 31.2099 86.6938 30.3842 86.6938 30.3842C87.1892 27.9073 87.0241 25.5954 87.0241 23.1185C87.0241 21.7974 87.0241 20.4763 86.859 19.3204C86.859 19.3204 86.6938 18.3296 86.6938 18.3296C86.5287 17.6691 86.3636 17.0086 86.0333 16.3481C86.0333 16.3481 85.703 15.6875 85.703 15.6875L85.3728 15.1922L84.8774 14.6968L84.5471 14.5316L83.8866 14.2014L83.2261 14.0362C83.2261 14.0362 81.905 13.8711 81.905 13.8711C80.4188 13.8711 79.0978 14.0362 77.7767 14.2014C75.4649 14.6968 73.1531 15.1921 71.0064 15.5224C71.0064 15.5224 71.0064 15.5224 71.0064 15.5224L71.0064 15.5224ZM125.5 1.98157C129.628 1.65131 133.756 1.32104 137.885 1.32104C138.71 1.32104 139.701 1.32104 140.527 1.32104C141.518 1.32104 142.343 1.48618 143.169 1.98157C143.499 2.1467 143.829 2.31183 143.994 2.47696C144.655 2.97236 145.15 3.46775 145.481 4.29341C145.811 4.7888 145.976 5.44933 146.141 5.94472C146.471 7.26577 146.471 8.75196 146.471 10.073C146.471 11.8895 146.471 13.5408 146.306 15.3572C146.306 16.0177 146.141 16.6783 145.976 17.3388C145.976 17.3388 145.646 17.9993 145.646 17.9993C145.316 18.4947 145.15 18.825 144.82 19.3204C144.82 19.3204 143.995 19.9809 143.995 19.9809C143.664 20.146 143.334 20.4763 142.839 20.6414C142.343 20.8065 141.683 20.9717 141.187 21.1368C141.187 21.1368 136.729 22.1276 136.729 22.1276C136.729 22.1276 141.187 24.6046 141.187 24.6046C141.848 25.1 142.343 25.4302 142.839 25.9256C142.839 25.9256 143.334 26.5861 143.334 26.5861C143.995 27.5769 144.49 28.5677 144.985 29.7236C145.646 31.7052 145.976 33.6868 145.976 35.6684C143.334 35.8335 140.692 35.8335 138.05 35.9986C137.885 34.5124 137.72 33.1914 137.224 31.7052C137.224 31.7052 136.564 30.0539 136.564 30.0539L136.233 29.2282L135.738 28.5677L135.243 27.9072L134.582 27.4118C134.582 27.4118 133.756 26.9164 133.756 26.9164C133.261 26.7513 132.766 26.5861 132.27 26.5861C131.279 26.421 130.123 26.5861 129.133 26.5861C124.014 26.9164 119.06 27.4118 113.941 27.9072C113.941 27.9072 111.959 28.0723 111.959 28.0723C111.959 28.0723 111.959 37.8151 111.959 37.8151C109.317 38.1453 106.675 38.4756 104.033 38.6407C104.033 38.6407 104.033 3.96315 104.033 3.96315C111.298 3.13749 118.399 2.47696 125.5 1.98157C125.5 1.98157 125.5 1.98157 125.5 1.98157C125.5 1.98157 125.5 1.98157 125.5 1.98157ZM112.124 22.1277C117.408 21.6323 122.692 21.1369 127.977 20.8066C129.793 20.6415 131.61 20.4763 133.426 20.3112C133.921 20.3112 134.417 20.1461 134.912 19.9809C134.912 19.9809 135.573 19.8158 135.573 19.8158L136.233 19.4856L136.729 19.1553L137.224 18.6599L137.554 18.1645C137.554 18.1645 137.885 17.6691 137.885 17.6691C138.05 17.1737 138.215 16.8435 138.215 16.3481C138.38 14.8619 138.38 13.3757 138.38 11.8895C138.38 11.3941 138.215 10.8987 138.05 10.2382C138.05 10.2382 137.719 9.74281 137.719 9.74281L137.389 9.24741L136.894 8.75202L136.398 8.42176L135.903 8.0915C135.903 8.0915 135.242 7.92636 135.242 7.92636C134.747 7.76123 134.252 7.76123 133.756 7.76123C131.114 7.76123 128.472 8.09149 125.995 8.25663C121.371 8.58689 116.913 9.08228 112.289 9.41254C112.289 9.41254 112.124 22.1277 112.124 22.1277L112.124 22.1277C112.124 22.1277 112.124 22.1277 112.124 22.1277ZM168.269 30.219C171.242 30.219 174.214 30.219 177.352 30.219C179.333 30.219 181.48 30.219 183.627 30.0539C184.122 30.0539 184.452 29.8888 184.948 29.8888C185.443 29.7236 185.773 29.5585 186.103 29.3934C186.103 29.3934 186.599 29.0631 186.599 29.0631L186.929 28.5677L187.259 28.0723L187.425 27.5769L187.59 26.421L187.59 24.7697L187.259 22.9533L187.094 22.4579L186.929 21.9625L186.599 21.4671L186.103 21.1368L185.608 20.8066L184.452 20.4763L182.471 20.146L179.994 20.146C179.994 20.146 163.315 20.146 163.315 20.146C161.664 20.146 160.013 20.146 158.527 19.8158C158.031 19.6506 157.701 19.6506 157.371 19.4855C157.371 19.4855 156.875 19.1552 156.875 19.1552L156.38 18.825L156.05 18.4947L155.719 17.9993C155.719 17.9993 155.389 17.5039 155.389 17.5039C155.059 16.8434 154.729 16.1829 154.563 15.5223C154.233 13.7059 154.233 11.7243 154.233 9.90788C154.233 7.59604 154.398 5.2842 155.389 3.1375C155.554 2.80723 155.884 2.47697 156.05 2.14671C157.206 1.15592 158.692 0.660526 160.178 0.330262C161.664 0 163.315 0 164.802 0C168.434 0 172.067 0 175.7 0C181.645 0 187.755 0.165132 193.7 0.330262C193.7 0.330262 193.7 5.61447 193.7 5.61447C185.773 5.44933 177.847 5.2842 169.921 5.2842C168.104 5.2842 166.288 5.2842 164.471 5.44934C164.141 5.44934 163.646 5.61447 163.315 5.61447C163.315 5.61447 162.655 5.94473 162.655 5.94473L162.159 6.44012L161.829 7.10065L161.664 7.76117C161.664 7.76117 161.499 8.91709 161.499 8.91709C161.499 9.90788 161.499 10.7335 161.499 11.7243C161.499 11.7243 161.664 12.3848 161.664 12.3848L161.829 13.0454L162.325 13.7059L163.15 14.2013C163.15 14.2013 163.976 14.3664 163.976 14.3664C172.232 14.5316 180.654 14.6967 188.911 15.0269C188.911 15.0269 189.902 15.1921 189.902 15.1921C191.223 15.5223 192.544 16.0177 193.534 17.0085C194.03 17.5039 194.36 17.9993 194.525 18.4947C195.351 20.3112 195.516 22.4579 195.516 24.4394C195.516 26.7513 195.516 29.0631 194.856 31.2098C194.69 31.5401 194.69 31.8703 194.525 32.2006C194.525 32.2006 194.03 32.8611 194.03 32.8611C193.7 33.3565 193.369 33.6868 192.874 34.0171C192.048 34.5124 191.223 35.0078 190.397 35.173C189.076 35.5032 187.59 35.5032 186.269 35.6684C182.14 35.8335 178.177 35.8335 174.049 35.8335C167.609 35.8335 161.169 35.9986 154.894 35.9986C154.894 34.1822 154.894 32.2006 154.894 30.3842C159.187 30.219 163.481 30.219 167.774 30.219C167.774 30.219 168.269 30.219 168.269 30.219L168.269 30.219L168.269 30.219L168.269 30.219C168.269 30.219 168.269 30.219 168.269 30.219ZM222.928 37.4848C219.625 37.1546 216.157 36.9894 212.855 36.494C211.369 36.3289 209.882 35.9986 208.561 35.5032C207.901 35.173 207.24 35.0079 206.58 34.5125C206.084 34.1822 205.754 33.8519 205.259 33.5217C204.928 33.1914 204.598 32.696 204.268 32.3657C203.938 31.8704 203.772 31.375 203.607 30.8796C203.112 29.0631 202.947 27.0815 202.947 25.1C202.782 20.3112 202.782 15.6875 202.947 10.8987C202.947 10.8987 202.947 9.74276 202.947 9.74276C203.112 7.59605 203.277 5.44934 204.598 3.6329C205.094 3.1375 205.424 2.64211 206.084 2.31184C207.736 1.48619 209.717 1.15592 211.534 0.990793C213.515 0.825661 215.332 0.825661 217.313 0.990793C221.111 1.15592 225.074 1.32106 228.872 1.65132C234.487 2.14671 239.936 2.64211 245.551 3.30263C245.551 3.30263 245.551 9.57763 245.551 9.57763C238.12 8.9171 230.854 8.25658 223.423 7.76118C221.111 7.59605 218.634 7.43092 216.157 7.59605C216.157 7.59605 215.001 7.76118 215.001 7.76118L214.176 7.92631L213.515 8.25658L212.855 8.75197L212.194 9.41249L211.699 10.073C211.699 10.073 211.369 10.8987 211.369 10.8987C211.203 11.3941 211.038 11.8895 211.038 12.3849C210.708 14.6967 210.543 17.1737 210.708 19.6506C210.708 21.6322 210.708 23.6138 211.038 25.5954C211.203 26.0908 211.203 26.5862 211.369 27.0815C211.369 27.0815 211.699 27.9072 211.699 27.9072L212.194 28.5677L212.855 29.2283L213.515 29.7236L214.176 30.0539C214.176 30.0539 215.001 30.3842 215.001 30.3842C215.662 30.5493 216.323 30.7144 216.983 30.7144C219.13 31.0447 221.442 31.2098 223.588 31.375C231.019 32.0355 238.615 32.696 246.046 33.5217C246.046 35.5032 246.046 37.3197 246.046 39.3013C246.046 39.3013 246.046 39.9618 246.046 39.9618C241.422 39.4664 236.634 38.971 232.01 38.6407C229.203 37.9802 226.065 37.8151 222.928 37.4848C222.928 37.4848 222.928 37.4848 222.928 37.4848C222.928 37.4848 222.928 37.4848 222.928 37.4848ZM273.458 21.7972C279.568 22.9531 285.678 24.109 291.787 25.2649C291.787 25.2649 291.787 11.2288 291.787 11.2288C294.595 11.8893 297.402 12.5498 300.374 13.0452C300.374 13.0452 300.374 49.209 300.374 49.209C297.567 48.5484 294.76 47.8879 291.787 47.2274C291.787 47.2274 291.787 33.0261 291.787 33.0261C286.833 32.0353 282.045 31.0445 277.091 30.0537C272.632 29.2281 268.009 28.4024 263.55 27.5768C263.55 27.5768 263.55 41.6129 263.55 41.6129C260.743 41.1175 257.936 40.7873 254.963 40.2919C254.963 40.2919 254.963 5.1189 254.963 5.1189C257.77 5.44916 260.743 5.77942 263.55 6.27481C263.55 6.27481 263.55 20.1458 263.55 20.1458C266.853 20.6412 270.155 21.1366 273.458 21.7972C273.458 21.7972 273.458 21.7972 273.458 21.7972C273.458 21.7972 273.458 21.7972 273.458 21.7972ZM338.354 24.1093C341.327 25.1001 344.299 26.0909 347.436 27.0817C347.436 27.0817 347.436 33.0264 347.436 33.0264C338.684 30.054 329.767 27.2468 320.85 24.4396C320.85 24.4396 317.878 23.6139 317.878 23.6139C317.878 23.6139 317.878 32.6961 317.878 32.6961C324.318 34.6777 330.923 36.6593 337.363 38.806C340.171 39.7968 343.143 40.6224 345.95 41.6132C345.95 41.6132 345.95 46.8974 345.95 46.8974C337.694 44.0902 329.272 41.4481 320.85 38.9711C320.85 38.9711 317.878 38.1455 317.878 38.1455C317.878 38.1455 317.878 47.7231 317.878 47.7231C324.153 49.5395 330.428 51.5211 336.538 53.5027C340.171 54.6586 343.803 55.9797 347.602 57.1356C347.602 57.1356 347.602 63.2454 347.602 63.2454C335.712 59.2823 323.657 55.6494 311.438 52.1816C311.438 52.1816 310.117 51.8514 310.117 51.8514C310.117 51.8514 310.117 15.5225 310.117 15.5225C319.529 18.1646 328.942 21.1369 338.354 24.1093C338.354 24.1093 338.354 24.1093 338.354 24.1093C338.354 24.1093 338.354 24.1093 338.354 24.1093Z" fill="#FFF0F0" fill-opacity="0.122" transform="translate(13.706 13.609)" />
      <path id="Path" d="M8.25657 48.3835C2.97236 30.7144 0.165129 14.2013 0 0C0 0 110.638 0 110.638 0C110.968 18.6599 118.729 35.8335 130.949 48.3835C130.949 48.3835 8.25657 48.3835 8.25657 48.3835L8.25657 48.3835C8.25657 48.3835 8.25657 48.3835 8.25657 48.3835Z" fill="#FFF0F0" fill-rule="evenodd" fill-opacity="0.122" transform="translate(4.954 255.032)" />
      <path id="Shape" d="M0 36.7277C0 36.7277 2.14671 35.9021 2.14671 35.9021C63.9058 13.1139 125.5 1.22448 187.259 0.0685606C249.018 -0.922228 310.612 8.82052 372.371 29.6271C372.371 29.6271 374.683 30.4527 374.683 30.4527C374.683 30.4527 374.683 32.7646 374.683 32.7646C374.188 106.909 373.692 181.053 373.197 255.197C373.032 293.507 352.886 347.34 314.905 394.402C284.356 432.382 242.083 466.069 189.241 483.903C189.241 483.903 187.424 483.903 187.424 483.903C134.087 470.198 91.9781 437.832 61.2637 400.017C21.9625 351.303 1.81644 293.177 1.65131 253.71C1.65131 253.71 1.65131 253.71 1.65131 253.71L1.65131 253.71C1.65131 253.71 1.65131 253.71 1.65131 253.71C1.32105 217.877 1.15592 182.043 0.825657 146.375C0.825657 146.375 0 36.7277 0 36.7277L0 36.7277L0 36.7277ZM71.9972 402.989L184.287 402.989L184.287 357.908C184.287 357.908 40.292 357.908 40.292 357.908C39.7966 357.082 39.3012 356.257 38.9709 355.431C46.7321 369.302 55.8143 383.008 66.2176 396.053C68.1992 398.365 70.0156 400.677 71.9972 402.989C71.9972 402.989 71.9972 402.989 71.9972 402.989L71.9972 402.989ZM184.452 408.603C184.452 408.603 77.1165 408.603 77.1165 408.603C104.859 438.987 140.692 464.253 184.452 476.472C184.452 476.472 184.452 408.603 184.452 408.603L184.452 408.603L184.452 408.603ZM76.7859 408.273C76.4556 407.943 76.1253 407.613 75.9602 407.282C76.1253 407.613 76.4556 407.943 76.7859 408.273C76.7859 408.273 76.7859 408.273 76.7859 408.273C76.7859 408.273 76.7859 408.273 76.7859 408.273ZM74.8045 406.126C74.6394 405.961 74.6394 405.961 74.6394 405.796C74.6394 405.961 74.8045 406.126 74.8045 406.126C74.8045 406.126 74.8045 406.126 74.8045 406.126C74.8045 406.126 74.8045 406.126 74.8045 406.126ZM37.1545 352.129L184.452 352.129C184.452 352.129 184.452 325.542 184.452 325.542C185.608 325.542 186.763 325.542 187.919 325.542C188.745 325.542 189.406 325.542 190.231 325.542C190.231 325.542 190.231 476.638 190.231 476.638C190.066 476.638 189.901 476.803 189.901 476.803C240.101 459.299 280.393 426.933 309.786 390.439C346.28 345.193 365.766 293.672 366.592 256.683C366.592 256.848 366.592 256.848 366.592 257.013C366.592 257.013 260.412 257.013 260.412 257.013C260.412 255.857 260.577 254.701 260.577 253.545C260.577 253.545 260.577 251.233 260.577 251.233C260.577 251.233 366.757 251.233 366.757 251.233C366.922 235.381 366.922 219.528 367.087 203.841C367.087 203.841 260.577 203.841 260.577 203.841L260.577 198.226C260.577 198.226 367.087 198.226 367.087 198.226C367.252 185.346 367.252 172.631 367.417 159.916C367.417 159.916 260.577 159.916 260.577 159.916L260.577 154.301L259.752 154.301L259.752 154.136C259.752 154.136 367.417 154.136 367.417 154.136C367.582 138.614 367.582 123.257 367.747 107.734C367.747 107.734 188.58 107.734 188.58 107.734L188.58 154.301L182.8 154.301C182.8 154.301 182.8 60.6717 182.8 60.6717C124.014 61.6625 65.0617 73.3868 5.94467 96.3401C5.94467 96.3401 5.77955 90.3954 5.77955 90.3954C66.5479 66.9467 127.316 55.3875 187.919 54.8921C248.027 54.3967 307.97 64.8 367.747 85.4414C367.747 87.423 367.747 89.4046 367.747 91.3862C367.913 72.5612 368.078 53.7362 368.078 35.0764C307.805 15.0955 247.532 5.683 187.424 6.67378C126.325 7.66457 65.392 19.3889 4.4585 42.0119C4.4585 42.0119 7.43086 146.375 7.43086 146.375C7.76112 181.383 7.92625 216.391 8.25652 251.564C8.25652 251.564 8.25652 251.564 8.25652 251.398C8.25652 251.398 115.757 251.398 115.757 251.398C115.757 251.398 115.757 253.71 115.757 253.71C115.757 254.866 115.757 256.022 115.922 257.178C115.922 257.178 8.09139 257.178 8.09139 257.178C8.09139 257.178 8.09139 257.178 8.09139 257.178C8.42165 270.389 11.2289 285.746 16.0177 301.929C16.0177 301.763 15.8526 301.598 15.8526 301.433C15.8526 301.433 133.756 301.433 133.756 301.433C134.747 302.589 135.738 303.745 136.894 304.736C136.894 304.736 140.527 307.213 140.527 307.213C140.527 307.213 17.669 307.213 17.669 307.213C22.4578 321.744 28.8979 336.936 37.1545 352.129C37.1545 352.129 37.1545 352.129 37.1545 352.129L37.1545 352.129ZM38.806 355.266C38.806 355.266 38.806 355.101 38.6409 355.101C38.806 355.101 38.806 355.266 38.806 355.266C38.806 355.266 38.806 355.266 38.806 355.266C38.806 355.266 38.806 355.266 38.806 355.266ZM38.6408 354.936C38.4757 354.771 38.4757 354.606 38.3105 354.441C38.4757 354.606 38.4757 354.771 38.6408 354.936C38.6408 354.936 38.6408 354.936 38.6408 354.936C38.6408 354.936 38.6408 354.936 38.6408 354.936ZM37.6499 353.284C37.6499 353.119 37.6499 353.119 37.6499 353.284C37.6499 353.119 37.6499 353.119 37.6499 353.284C37.6499 353.284 37.6499 353.284 37.6499 353.284C37.6499 353.284 37.6499 353.284 37.6499 353.284ZM17.3388 306.057C17.1737 305.727 17.1737 305.396 17.0085 305.231C17.1737 305.561 17.3388 305.727 17.3388 306.057C17.3388 306.057 17.3388 306.057 17.3388 306.057C17.3388 306.057 17.3388 306.057 17.3388 306.057ZM16.6782 303.91C16.513 303.58 16.513 303.249 16.3479 302.919C16.513 303.249 16.6782 303.58 16.6782 303.91C16.6782 303.91 16.6782 303.91 16.6782 303.91C16.6782 303.91 16.6782 303.91 16.6782 303.91ZM366.427 252.554C366.427 252.554 366.427 252.72 366.427 252.72C366.427 252.72 366.427 252.554 366.427 252.554C366.427 252.554 366.427 252.554 366.427 252.554C366.427 252.554 366.427 252.554 366.427 252.554ZM366.427 253.38C366.427 253.545 366.427 253.545 366.427 253.71C366.427 253.545 366.427 253.545 366.427 253.38C366.427 253.38 366.427 253.38 366.427 253.38C366.427 253.38 366.427 253.38 366.427 253.38ZM366.427 253.71C366.427 253.71 366.427 253.875 366.427 253.875C366.427 253.875 366.427 253.875 366.427 253.71C366.427 253.71 366.427 253.71 366.427 253.71C366.427 253.71 366.427 253.71 366.427 253.71ZM366.427 254.701C366.427 254.701 366.427 254.866 366.427 254.866C366.427 254.866 366.427 254.866 366.427 254.701C366.427 254.701 366.427 254.701 366.427 254.701C366.427 254.701 366.427 254.701 366.427 254.701ZM366.427 255.031C366.427 255.031 366.427 255.197 366.427 255.197C366.427 255.197 366.427 255.031 366.427 255.031C366.427 255.031 366.427 255.031 366.427 255.031C366.427 255.031 366.427 255.031 366.427 255.031ZM366.427 255.197C366.427 255.197 366.427 255.362 366.427 255.197C366.427 255.362 366.427 255.197 366.427 255.197C366.427 255.197 366.427 255.197 366.427 255.197C366.427 255.197 366.427 255.197 366.427 255.197ZM366.427 254.701C366.427 254.701 366.427 254.701 366.427 254.701C366.427 254.701 366.427 254.701 366.427 254.701C366.427 254.701 366.427 254.701 366.427 254.701C366.427 254.536 366.427 254.536 366.427 254.536C366.427 254.536 366.427 254.536 366.427 254.536C366.427 254.536 366.427 254.536 366.427 254.536C366.427 254.536 366.427 254.536 366.427 254.536C366.427 254.536 366.427 254.536 366.427 254.536C366.427 254.536 366.427 254.536 366.427 254.536C366.427 254.536 366.427 254.536 366.427 254.536C366.427 254.536 366.427 254.701 366.427 254.701L366.427 254.701C366.427 254.701 366.427 254.701 366.427 254.701ZM366.427 254.205C366.427 254.205 366.427 254.205 366.427 254.205C366.427 254.04 366.427 254.04 366.427 254.04C366.427 254.04 366.427 254.04 366.427 254.04C366.427 254.04 366.427 254.04 366.427 254.04C366.427 254.04 366.427 254.205 366.427 254.205L366.427 254.205C366.427 254.205 366.427 254.205 366.427 254.205ZM366.427 251.729C366.427 251.729 366.427 251.729 366.427 251.729C366.427 251.729 366.427 251.564 366.427 251.729C366.427 251.564 366.427 251.564 366.427 251.564C366.427 251.564 366.427 251.564 366.427 251.564C366.427 251.564 366.427 251.564 366.427 251.564C366.427 251.564 366.427 251.729 366.427 251.729L366.427 251.729C366.427 251.729 366.427 251.729 366.427 251.729ZM188.58 102.12C188.58 102.12 367.583 102.12 367.583 102.12C367.583 103.11 367.583 103.936 367.583 104.927C367.583 100.468 367.583 96.0098 367.583 91.5512C307.97 70.7447 248.358 60.3414 188.58 60.6717C188.58 60.6717 188.58 102.12 188.58 102.12L188.58 102.12L188.58 102.12ZM367.583 104.927C367.583 105.422 367.583 105.753 367.583 106.248C367.583 105.753 367.583 105.422 367.583 104.927C367.583 104.927 367.583 104.927 367.583 104.927C367.583 104.927 367.583 104.927 367.583 104.927ZM367.583 106.743C367.583 107.074 367.583 107.404 367.583 107.734C367.583 107.404 367.583 107.074 367.583 106.743C367.583 106.743 367.583 106.743 367.583 106.743C367.583 106.743 367.583 106.743 367.583 106.743ZM188.25 477.298C188.085 477.298 188.085 477.298 187.92 477.463C188.085 477.463 188.085 477.463 188.25 477.298C188.25 477.298 188.25 477.298 188.25 477.298C188.25 477.298 188.25 477.298 188.25 477.298ZM185.938 476.968C185.443 476.803 185.113 476.803 184.617 476.637C185.113 476.638 185.608 476.803 185.938 476.968C185.938 476.968 185.938 476.968 185.938 476.968C185.938 476.968 185.938 476.968 185.938 476.968ZM189.571 476.802C189.736 476.802 189.736 476.802 189.571 476.802C189.736 476.802 189.736 476.802 189.571 476.802C189.571 476.802 189.571 476.802 189.571 476.802L189.571 476.802C189.571 476.802 189.571 476.802 189.571 476.802Z" fill="#FFF0F0" fill-opacity="0.122" />
      <path id="Path" d="M17.5665 48.1937C20.704 46.2122 24.0066 44.2306 27.3093 42.5793C26.8139 37.4602 26.3185 29.5339 27.6395 25.2405C30.1165 17.3142 37.3823 10.874 45.9691 12.3602C46.4645 12.5254 46.7948 13.0208 46.4645 13.1859C41.6757 15.6629 37.8777 19.4609 35.731 24.7451C35.0704 26.2313 32.7586 36.7997 36.2264 37.6253C36.5566 37.7905 36.8869 37.7905 37.3823 37.7905C43.6573 35.1484 50.0974 32.8365 56.7026 30.8549C56.7026 25.7359 56.8678 18.6352 58.6842 14.8372C61.9868 7.4063 70.2434 1.95696 79.1605 4.59906C79.6559 4.76419 79.9862 5.42471 79.6559 5.58984C74.3717 7.40629 70.0783 10.5438 67.271 15.4977C66.4454 16.9839 62.9776 27.0569 66.6105 28.378C66.6105 28.378 66.7757 28.378 66.7757 28.378C72.8855 27.0569 79.1605 25.901 85.9309 25.0753C86.7565 19.9563 88.0776 13.351 90.3894 9.88326C95.3434 2.61749 105.251 -2.33646 114.499 1.1313C114.994 1.29643 115.324 1.95696 114.829 2.12209C108.719 3.60828 103.435 6.4155 99.6368 11.2043C98.646 12.5254 93.5269 21.7727 96.4993 23.9194C96.8295 23.9194 97.1598 23.9194 97.4901 23.7543C102.774 23.2589 108.884 23.0938 114.664 23.424C116.15 20.2865 117.636 17.4793 119.287 15.6629C125.067 9.71813 137.782 7.57142 141.58 12.6905C141.91 13.0208 142.076 13.6813 141.58 13.6813C136.131 13.8464 130.516 14.6721 126.388 18.4701C125.728 19.1306 123.416 21.4425 122.095 24.0846C130.847 25.5707 138.278 28.5431 140.589 34.1576C141.415 35.974 141.91 37.6253 141.58 39.6069C141.58 40.1023 140.424 39.772 140.094 39.2767C129.03 29.0385 111.361 27.8826 87.7473 32.0109C63.8033 36.1392 43.8224 43.2398 22.3553 53.478C30.9421 63.2207 17.4014 70.6516 12.9428 60.4135C2.53954 72.7983 -7.03809 54.799 7.16321 52.6523C-0.928206 40.1023 15.4198 39.6069 17.5665 48.1937C17.5665 48.1937 17.5665 48.1937 17.5665 48.1937C17.5665 48.1937 17.5665 48.1937 17.5665 48.1937Z" fill="#FFF0F0" fill-rule="evenodd" fill-opacity="0.122" transform="translate(13.974 79.852)" />
      <path id="Path" d="M15.4012 45.7212C18.2084 43.5745 21.8413 41.7581 24.8136 39.9416C21.8413 35.1528 20.0248 28.2173 21.1807 23.7588C23.1623 15.8324 28.1163 12.0344 34.2261 12.3647C34.7215 12.3647 35.0518 13.0252 34.7215 13.1904C30.4281 15.9976 29.7676 19.6305 28.4465 25.0798C27.786 28.0522 29.4373 33.0061 31.584 34.8226C37.0334 31.8502 36.8682 32.3456 42.6478 30.1989C40.9965 25.0798 41.3268 18.1443 43.4735 13.8509C46.7761 6.91536 52.2254 4.27324 57.6748 5.42917C58.1702 5.5943 58.5004 6.08969 58.005 6.25482C53.7116 8.07127 44.9597 15.0068 50.7393 28.0522C56.0235 26.2357 56.3537 25.9054 63.1241 24.4193C63.6195 19.3002 63.7846 13.1903 65.7662 9.55745C69.8945 2.12654 79.6372 -1.34122 84.0958 0.475235C84.5912 0.64035 84.9214 1.30089 84.426 1.46602C81.9491 3.11732 78.6464 4.43839 75.3438 9.39232C73.5274 12.0344 70.3899 18.1443 71.2155 22.2726C76.0043 21.612 82.2793 21.2818 87.7287 21.4469C88.8846 18.3094 91.1964 14.5114 92.6826 12.6949C93.6734 11.539 94.9944 10.5482 96.3155 10.0529C96.3155 10.0529 96.3155 28.5476 96.3155 28.5476C87.2333 28.0522 77.1603 29.043 67.5826 31.3548C45.9504 36.4739 40.336 40.437 21.0156 50.8403C32.5748 58.106 21.3459 69.1699 14.2452 58.2712C1.69522 72.6376 -6.39622 54.1429 6.64916 51.3357C-3.2587 39.2811 12.9242 32.841 15.4012 45.7212C15.4012 45.7212 15.4012 45.7212 15.4012 45.7212C15.4012 45.7212 15.4012 45.7212 15.4012 45.7212Z" fill="#FFF0F0" fill-rule="evenodd" fill-opacity="0.122" transform="translate(19.111 181.073)" />
      <path id="Path" d="M15.8724 41.5279C19.175 39.5464 23.6336 38.0602 26.9362 36.4089C26.606 31.2898 25.9454 26.6661 27.4316 22.3727C30.0737 14.6115 34.202 10.6484 40.8072 11.3089C41.3026 11.474 41.6329 11.9694 41.3026 12.2997C36.5138 14.7767 37.6698 18.0793 35.523 23.1983C34.8625 24.6845 33.2112 30.9595 36.679 31.9503C37.0092 32.1154 37.3395 32.1154 37.8349 32.1154C44.1099 29.6385 41.798 29.8036 48.2382 28.1523C48.4033 23.1983 48.7336 16.428 50.3849 12.7951C53.8526 5.69441 60.2928 2.22667 66.2375 3.71284C66.7329 3.87798 67.7237 5.03391 67.2283 5.19904C62.4395 6.68521 54.1829 16.428 57.6506 24.024C61.7789 23.3635 64.5862 22.0424 72.0171 21.0516C73.0079 15.9326 74.6592 10.8135 77.1361 7.34573C82.2552 0.245071 90.1815 -1.24109 94.8052 0.905609C95.3006 1.07074 95.9611 2.39178 95.4657 2.55692C89.3559 3.87798 89.1907 3.21745 85.2276 8.00626C83.0809 10.4832 78.7874 17.2536 81.9249 20.3911C87.2091 20.0609 90.842 19.4003 96.6216 19.8957C98.1078 16.9233 99.2637 12.7951 100.915 11.1437C106.695 5.19902 116.768 4.70361 120.07 8.66678C120.401 8.99702 120.566 9.65756 120.07 9.65756C114.621 9.82269 112.639 11.3089 108.346 15.1069C107.851 15.4371 106.86 16.7582 105.704 18.4095C105.704 18.4095 102.566 18.4095 102.566 18.4095C102.566 18.4095 102.566 28.6477 102.566 28.6477C93.6493 27.822 83.9065 28.1523 74.8243 29.4733C50.8803 33.1062 42.1283 38.5555 22.3125 48.1332C30.7342 58.041 17.0283 64.9766 12.9001 54.5733C2.33164 66.793 -7.08084 48.4634 7.45072 46.647C-0.640716 33.6016 13.5606 30.1339 15.8724 41.5279C15.8724 41.5279 15.8724 41.5279 15.8724 41.5279C15.8724 41.5279 15.8724 41.5279 15.8724 41.5279Z" fill="#FFF0F0" fill-rule="evenodd" fill-opacity="0.122" transform="translate(13.025 136.057)" />
      <path id="Shape" d="M141.517 3.46777C141.517 3.46777 141.517 99.4091 141.517 99.4091C141.517 137.224 110.638 167.939 72.4924 167.939C34.5122 167.939 3.46753 137.224 3.46753 99.4091C3.46753 99.4091 3.46753 3.46777 3.46753 3.46777L141.517 3.46777L141.517 3.46777ZM144.82 0L0 0C0 0 0 99.2439 0 99.2439C0 138.71 32.5309 171.241 72.3275 171.241C112.289 171.241 144.655 138.71 144.655 99.2439C144.655 99.2439 144.82 0 144.82 0L144.82 0L144.82 0Z" fill="#FFF0F0" fill-opacity="0.122" transform="translate(115.427 154.302)" />
      <path id="Shape" d="M53.0503 32.1342C53.7109 32.7947 55.1971 31.9691 55.6925 31.3085C56.8484 29.4921 56.6833 27.1803 56.8484 24.8684C57.0135 22.3914 57.0135 20.2447 56.1879 17.9329C54.8668 13.9698 53.0504 10.8323 48.5918 10.1717C48.0964 10.0066 47.1056 10.9974 47.4359 11.3277C50.4083 14.4651 51.5642 14.3 52.3898 19.0888C53.2155 23.7125 52.7201 31.8039 53.0503 32.1342C53.0503 32.1342 53.0503 32.1342 53.0503 32.1342C53.0503 32.1342 53.0503 32.1342 53.0503 32.1342ZM21.8401 89.7651C22.5007 89.9302 23.9869 87.9486 24.4823 86.7927C24.9776 85.8019 24.8125 83.8203 24.8125 83.6552C24.6474 83.325 22.9961 83.9855 22.1704 83.9855C21.3448 83.9855 20.6842 83.8203 19.5283 83.6552C18.3724 83.4901 18.5375 80.848 18.3724 79.3618C18.0421 75.5638 17.877 71.7657 18.0421 67.9677C18.0421 66.977 18.3724 65.6559 19.1981 64.9954C20.354 64.3349 22.0053 64.5 23.3263 64.6651C25.9684 65.1605 28.4454 66.4816 31.2526 66.977C32.7388 67.3072 34.3901 67.1421 35.8763 66.6467C37.1974 66.3164 38.1881 65.3256 39.3441 64.8302C40.0046 64.6651 40.8303 64.5 41.3257 64.8302C43.4724 65.9861 44.9585 68.1329 47.1052 68.9585C49.9125 69.7842 52.8848 69.4539 55.8572 69.619C58.169 69.619 60.4809 69.2888 62.7927 69.619C63.7835 69.7842 65.4348 69.9493 65.7651 71.1052C66.0953 72.5914 63.6184 73.9124 63.9486 75.3986C64.6092 77.7104 67.2513 78.8664 68.4072 80.848C68.9026 81.6736 68.7374 82.6644 68.4072 83.4901C68.0769 84.1506 66.921 84.3157 66.4256 84.9763C65.7651 85.967 65.5999 87.123 64.9394 88.1137C64.2789 89.1046 63.2881 89.9302 62.2973 90.7559C60.1506 92.4072 58.0039 94.0585 55.5269 95.3795C54.7013 95.8749 53.2151 94.8842 52.8848 95.7098C52.2243 97.196 51.5638 99.0124 50.9032 100.003C50.2427 100.994 49.4171 101.159 48.9217 101.655C48.4263 102.315 47.7658 103.471 48.096 103.636C48.4263 103.801 51.5638 103.801 52.7197 103.636C53.8756 103.471 54.5362 103.306 54.8664 103.141C55.1967 102.81 54.7013 101.82 54.371 99.8381C54.2059 97.8565 59.6552 97.0309 62.2973 95.5446C65.1046 93.7282 67.9118 91.7466 70.719 90.0953C71.8749 89.4348 73.5262 89.2697 74.5171 88.2789C75.0125 87.7834 74.8473 86.9578 74.8473 86.2973C74.8473 84.646 74.5171 82.9947 74.5171 81.3434C74.5171 80.5177 74.5171 79.5269 75.1776 79.0315C75.673 78.5361 76.6637 78.371 77.1591 78.7013C78.1499 79.1967 78.3151 80.6828 79.1407 81.3434C80.4618 82.3342 82.1131 82.6644 83.5992 83.325C84.9203 83.9855 87.2321 83.9855 87.3973 85.3065C87.7275 87.7835 86.0762 90.0953 85.0854 92.242C84.5901 93.3979 83.4341 94.0585 82.7736 95.2144C82.4434 95.8749 82.4434 96.7006 81.948 97.196C80.6269 98.517 78.8105 99.3427 77.4894 100.664C76.4986 101.655 75.673 102.645 75.1776 103.801C74.8473 104.462 74.6822 105.122 74.3519 105.783C73.8565 106.443 73.0309 106.608 72.5355 107.599C72.0401 108.59 70.8842 111.232 71.875 111.067C72.8658 110.902 78.6454 109.911 78.8105 109.251C78.9756 108.755 78.4802 107.269 78.15 105.453C77.8197 103.636 81.948 102.315 83.9296 101.159C85.0855 100.499 86.7368 100.829 87.7276 100.003C88.3881 99.5078 88.0578 98.3519 88.223 97.6913C88.7184 96.5355 89.0486 95.2144 90.0394 94.2236C91.1953 92.9025 93.1769 92.4071 94.1677 91.0861C95.1585 89.4348 96.3144 87.4532 95.9842 85.6368C95.6539 84.1506 93.8375 83.6552 92.8467 82.4993C92.021 81.6736 91.1954 80.6828 90.8651 79.5269C90.3697 77.8756 90.0395 76.2243 90.5349 74.573C91.1954 72.5914 93.177 71.2704 94.3329 69.619C95.3237 68.1329 96.8099 66.9769 97.3053 65.3256C97.8007 63.344 96.8099 61.1973 96.6447 59.2158C96.6447 58.8855 96.3145 58.3901 96.6447 58.0598C97.9658 56.9039 99.452 55.4177 101.268 55.0875C102.92 54.9223 104.241 56.5736 105.892 56.9039C107.543 57.0691 109.525 57.2342 111.176 56.5737C111.672 56.4085 111.837 55.2526 111.507 54.7572C110.351 53.7664 107.874 54.0967 107.378 52.7756C107.048 51.6197 109.36 51.2895 110.02 50.1335C110.846 48.6474 111.507 46.996 111.507 45.1796C111.507 44.5191 110.186 44.5191 109.69 44.8493C108.864 45.3447 108.864 46.5006 108.204 47.1612C107.709 47.6566 106.883 47.8217 106.222 47.8217C105.562 47.8217 104.571 47.4914 104.241 46.996C103.745 46.5006 103.415 45.3447 103.911 45.0145C105.232 44.1888 107.048 44.519 108.534 44.1888C109.195 44.0237 110.02 43.8585 110.351 43.3631C110.846 42.3723 110.846 41.2164 110.351 40.2256C110.186 39.7303 109.36 39.7303 108.865 39.8954C108.204 40.0605 107.874 41.0513 107.048 41.0513C106.057 41.0513 105.066 40.5559 104.406 39.8954C103.911 39.2349 103.745 38.2441 104.076 37.5836C104.571 36.4276 106.222 36.0974 106.718 34.9415C107.378 33.4553 107.874 31.6388 107.543 29.9875C107.378 29.327 106.057 28.9967 105.562 29.4921C104.736 29.9875 104.901 31.1434 104.406 31.8039C103.745 32.7947 103.415 34.2809 102.424 34.7763C101.764 35.1066 100.608 34.446 100.443 33.6204C100.113 32.2993 100.938 30.9783 101.268 29.8224C101.764 28.5013 102.424 27.1803 103.25 26.0243C104.076 24.8684 105.727 24.373 106.388 23.052C106.883 22.0612 107.378 20.7401 106.718 19.9145C106.222 19.254 105.066 19.7493 104.406 20.2448C103.911 20.575 104.076 21.7309 103.58 22.0612C102.094 22.7217 100.278 22.2263 98.9566 22.8869C97.8007 23.5474 97.3053 24.7033 96.6448 25.8592C95.4889 27.8408 95.3237 31.3086 94.8283 31.6388C94.3329 32.1342 93.177 31.9691 92.8468 31.3086C92.3514 30.4829 93.177 29.1618 92.5165 28.3362C92.0211 27.8408 90.7 27.8408 90.2047 28.3362C89.5442 28.9967 89.379 29.9875 89.379 30.9783C89.379 32.4645 89.5442 33.9507 90.2047 35.2717C91.3606 37.4184 93.177 39.0698 94.6632 41.0513C96.1494 43.0329 97.9659 44.8493 98.7915 47.1612C99.2869 48.6474 99.452 50.4638 98.7915 51.7849C98.2961 53.1059 96.9751 54.427 95.654 54.427C93.8376 54.2618 92.5165 52.2803 91.0303 51.2895C89.5442 50.2987 88.058 48.9777 86.4066 48.6474C82.6086 47.9869 78.6455 48.6474 74.6823 48.6474C71.2146 48.6474 67.5817 49.1428 64.1139 48.6474C62.4626 48.4822 60.6462 47.8217 59.4902 46.6658C58.3343 45.5099 57.5087 43.8586 57.5087 42.3724C57.3435 40.2257 58.1692 38.2441 58.9948 36.2625C59.6554 34.9415 60.6462 33.6204 61.9672 32.7948C62.958 32.1342 64.6093 31.804 65.6001 32.1342C66.756 32.6296 69.8935 36.923 70.554 36.7579C71.2146 36.5928 70.7192 32.7948 70.3889 31.6389C69.7284 29.8224 67.7468 28.8316 67.2514 27.0152C67.0863 26.5198 67.9119 25.8593 68.4073 25.8593C69.3981 25.8593 70.554 26.5198 71.3797 27.3454C71.8751 27.6757 74.0218 30.8132 74.5172 30.6481C75.0126 30.4829 74.1869 26.1895 73.6915 24.8685C72.8659 23.052 70.2238 21.731 70.0586 21.2356C69.8935 20.9053 70.0586 20.575 70.554 20.4099C71.5448 20.4099 72.5356 20.9053 73.5264 21.2356C74.3521 21.5658 75.6731 22.5566 76.1685 22.3915C76.6639 22.2263 76.1685 20.7402 75.6731 20.0797C73.8567 17.9329 71.3797 16.6119 69.5633 14.6303C68.5725 13.6395 67.5817 12.3185 67.5817 10.8323C67.5817 10.0066 68.5725 9.18097 69.3981 8.85071C70.8843 8.19019 72.8659 7.85992 74.187 7.03427C74.6823 6.70401 74.3521 6.37375 73.8567 6.20862C71.71 5.38297 69.3981 5.0527 67.0863 5.0527C65.7652 5.0527 64.6093 5.87836 63.2883 6.20862C62.4626 6.53888 61.637 7.03427 60.6462 7.03427C58.9948 7.03427 57.1784 7.1994 56.0225 6.20862C55.362 5.54808 56.1876 4.22705 56.683 3.23625C57.1784 2.41058 58.0041 1.91519 58.6646 1.25467C59.16 0.759277 60.6461 0.263885 60.1507 0.0987549C59.6553 -0.0663757 57.0132 -0.0663757 55.5271 0.429016C54.206 0.759277 53.0501 1.25467 52.0593 2.24545C51.2336 3.07112 51.3988 4.88756 50.2428 5.38297C48.2613 6.53888 47.2705 6.20862 45.1237 7.1994C44.6284 7.52966 43.4724 8.85071 42.977 9.01584C40.3349 9.3461 35.0507 8.02505 34.8856 8.52045C34.5554 9.01584 39.0139 11.4928 39.8396 13.8046C40.1698 14.7954 37.6928 13.3092 36.7021 13.4744C35.0508 13.6395 33.3994 13.9698 32.0784 14.6303C30.7573 15.2908 29.6014 16.4467 28.6106 17.6027C27.6198 18.5935 27.1245 19.9145 25.9685 20.7402C25.4731 21.0704 24.3172 20.575 23.987 21.0704C23.4916 21.7309 23.3264 23.2171 24.1521 23.2171C24.1521 23.2171 28.7758 23.5474 28.7758 23.5474C29.6014 23.5474 27.9501 25.3638 28.4455 26.1895C28.7758 26.6849 29.9317 26.5198 30.4271 26.1895C31.0876 25.8593 31.4179 24.8685 32.2436 24.373C33.0692 23.8777 33.8949 23.2171 34.8857 23.2171C36.0416 23.2171 37.5278 23.7125 38.0231 24.7033C38.5186 25.6941 37.3626 26.85 37.1975 27.8408C37.0323 28.9967 37.6929 30.4829 36.8672 31.3086C34.3903 33.6204 33.5646 31.6388 29.9317 36.2625C26.9594 39.8954 28.2804 37.9138 27.2896 42.7026C27.1245 43.6934 26.9594 44.6842 26.1337 45.3447C25.3081 45.8401 23.987 46.1704 23.1613 45.675C21.51 44.8493 20.5192 43.198 19.3633 41.5467C18.7028 40.721 19.0331 39.2349 18.2074 38.5743C17.0515 37.9138 15.4002 37.9138 14.0791 38.2441C13.0883 38.5743 12.5929 39.7303 12.0975 40.5559C10.7765 42.3724 9.78571 44.519 8.62979 46.3355C7.63901 47.8217 6.31796 49.1427 5.49229 50.6289C4.9969 51.4546 5.32716 52.4454 4.83177 53.271C3.84099 55.5829 3.01534 57.7296 1.85941 59.8763C1.364 60.702 0.373215 61.1974 0.0429535 62.1881C-0.122162 63.1789 0.208084 65.3256 0.703491 65.3256C1.19888 65.3256 2.8502 64.1697 3.84099 63.5092C4.9969 63.0138 7.14362 62.3532 7.30875 62.023C7.47388 61.6927 6.15283 60.5368 5.49229 59.7112C4.33638 58.225 6.81335 56.0783 7.80414 54.427C8.1344 53.7664 8.96005 53.6013 9.29033 52.9408C9.95085 51.6197 10.116 49.9684 10.7765 48.6474C11.6022 46.8309 12.593 45.0145 13.914 43.6934C14.5745 43.0329 15.7305 42.5375 16.5561 43.198C17.8772 44.0237 18.0423 45.8401 18.868 47.3263C19.5285 48.3171 20.3541 49.3079 20.6844 50.4638C21.0146 51.4546 20.0239 52.7756 20.6844 53.6013C21.51 54.5921 23.1614 54.9223 24.4824 55.0874C24.4824 55.0874 27.4548 55.4177 27.4548 55.4177C27.4548 55.4177 27.785 59.546 27.785 59.546C27.9502 61.0322 24.6475 59.8763 23.1614 60.2065C21.8403 60.5368 20.5193 61.0322 19.0331 61.3624C17.712 61.6927 15.235 60.5368 14.9048 62.0229C13.7489 67.8026 15.235 73.5821 15.5653 79.3617C15.5653 80.8479 14.7397 83.3249 16.2258 83.9854C16.2258 83.9854 19.0331 85.1413 19.0331 85.1413C19.5285 86.2972 19.8587 87.7834 20.5193 88.6091C20.354 89.4348 21.1796 89.6 21.8401 89.7651C21.8401 89.7651 21.8401 89.7651 21.8401 89.7651C21.8401 89.7651 21.8401 89.7651 21.8401 89.7651Z" fill="#FFF0F0" fill-opacity="0.122" transform="translate(131.732 192.513)" />
      <path id="Shape" d="M111.629 2.31195C111.629 1.15604 110.803 0.660645 109.317 0.660645C109.317 0.660645 103.703 0.660645 103.703 0.660645C102.217 0.660645 101.391 1.15604 101.391 2.31195C101.391 3.46786 102.217 3.96327 103.703 3.96327C103.703 3.96327 104.859 3.96327 104.859 3.96327C104.859 3.96327 104.859 14.3665 104.859 14.3665C104.859 16.183 105.354 17.0086 106.51 17.0086C107.666 17.0086 108.161 16.183 108.161 14.3665C108.161 14.3665 108.161 3.96327 108.161 3.96327C108.161 3.96327 109.317 3.96327 109.317 3.96327C110.968 3.96327 111.629 3.46788 111.629 2.31195C111.629 2.31195 111.629 2.31195 111.629 2.31195C111.629 2.31195 111.629 2.31195 111.629 2.31195ZM95.6113 5.94496C95.6113 7.26602 94.9508 7.92653 93.6297 7.92653C93.6297 7.92653 92.1436 7.92653 92.1436 7.92653L92.1436 3.96338C92.1436 3.96338 93.6297 3.96338 93.6297 3.96338C94.9508 3.96338 95.6113 4.6239 95.6113 5.94496C95.6113 5.94496 95.6113 5.94496 95.6113 5.94496C95.6113 5.94496 95.6113 5.94496 95.6113 5.94496ZM99.2441 15.357C99.2441 14.6965 98.9138 14.036 98.2533 13.2103C98.2533 13.2103 95.6112 9.90768 95.6112 9.90768C97.7579 9.41228 99.079 7.76097 99.079 5.44914C99.079 2.47678 97.0974 0.330078 93.6296 0.330078C93.6296 0.330078 91.1526 0.330078 91.1526 0.330078C89.3362 0.330078 88.8408 1.15573 88.8408 2.97217C88.8408 2.97217 88.8408 14.2011 88.8408 14.2011C88.8408 16.0175 89.3362 16.8432 90.4921 16.8432C91.648 16.8432 92.1434 16.0175 92.1434 14.2011C92.1434 14.2011 92.1434 10.2379 92.1434 10.2379C92.1434 10.2379 95.9415 15.6873 95.9415 15.6873C96.602 16.5129 97.0974 17.0083 97.7579 17.0083C98.5836 17.0083 99.2441 16.3478 99.2441 15.357C99.2441 15.357 99.2441 15.357 99.2441 15.357C99.2441 15.357 99.2441 15.357 99.2441 15.357ZM81.7402 10.2382L78.2725 10.2382L80.0889 4.29346L81.7402 10.2382L81.7402 10.2382L81.7402 10.2382ZM86.3641 15.1919C86.3641 14.8616 86.3641 14.5314 86.1989 14.036C86.1989 14.036 82.566 2.47679 82.566 2.47679C82.0706 1.15573 81.245 0.330078 80.0891 0.330078C78.9332 0.330078 78.1075 1.15573 77.6121 2.64192C77.6121 2.64192 73.8141 14.036 73.8141 14.036C73.6489 14.3662 73.6489 14.6965 73.6489 15.0267C73.6489 16.0175 74.3094 16.8432 75.1351 16.8432C75.7956 16.8432 76.4561 16.3478 76.7864 15.1919C76.7864 15.1919 77.2818 13.5406 77.2818 13.5406L82.566 13.5406C82.566 13.5406 82.8963 15.0267 82.8963 15.0267C83.2265 16.1827 83.7219 16.8432 84.5476 16.8432C85.7035 17.0083 86.3641 16.3478 86.3641 15.1919C86.3641 15.1919 86.3641 15.1919 86.3641 15.1919C86.3641 15.1919 86.3641 15.1919 86.3641 15.1919ZM71.337 9.41248C71.337 7.59604 70.6765 6.9355 69.3555 6.9355C69.3555 6.9355 67.2088 6.9355 67.2088 6.9355C65.8877 6.9355 65.2272 7.43091 65.2272 8.58682C65.2272 9.74274 65.8877 10.2381 67.2088 10.2381C67.2088 10.2381 68.1996 10.2381 68.1996 10.2381C68.1996 12.2197 67.2088 13.5408 65.5574 13.5408C63.741 13.5408 62.42 11.5592 62.42 8.42169C62.42 5.28419 63.741 3.46776 65.5574 3.46776C67.3739 3.46776 68.1996 4.95393 69.0252 4.95393C69.6857 4.95393 70.3463 4.12828 70.3463 3.30263C70.3463 1.65131 68.5298 0 65.7226 0C61.7594 0 59.2825 3.30263 59.2825 8.58682C59.2825 13.7059 61.7594 17.1736 65.3923 17.1736C69.0252 17.1736 71.337 13.871 71.337 9.41248C71.337 9.41248 71.337 9.41248 71.337 9.41248C71.337 9.41248 71.337 9.41248 71.337 9.41248ZM58.4569 2.31195C58.4569 1.15604 57.6312 0.660645 56.145 0.660645C56.145 0.660645 50.5306 0.660645 50.5306 0.660645C49.0444 0.660645 48.2188 1.15604 48.2188 2.31195C48.2188 3.46786 49.0444 3.96327 50.5306 3.96327C50.5306 3.96327 51.6865 3.96327 51.6865 3.96327C51.6865 3.96327 51.6865 14.3665 51.6865 14.3665C51.6865 16.183 52.1819 17.0086 53.3378 17.0086C54.4937 17.0086 54.9891 16.183 54.9891 14.3665C54.9891 14.3665 54.9891 3.96327 54.9891 3.96327C54.9891 3.96327 56.145 3.96327 56.145 3.96327C57.6312 3.96327 58.4569 3.46788 58.4569 2.31195C58.4569 2.31195 58.4569 2.31195 58.4569 2.31195C58.4569 2.31195 58.4569 2.31195 58.4569 2.31195ZM47.5584 2.31195C47.5584 1.15604 46.7328 0.660645 45.2466 0.660645C45.2466 0.660645 39.6321 0.660645 39.6321 0.660645C38.146 0.660645 37.3203 1.15604 37.3203 2.31195C37.3203 3.46786 38.146 3.96327 39.6321 3.96327C39.6321 3.96327 40.7881 3.96327 40.7881 3.96327C40.7881 3.96327 40.7881 14.3665 40.7881 14.3665C40.7881 16.183 41.2834 17.0086 42.4394 17.0086C43.5953 17.0086 44.0907 16.183 44.0907 14.3665C44.0907 14.3665 44.0907 3.96327 44.0907 3.96327C44.0907 3.96327 45.2466 3.96327 45.2466 3.96327C46.7328 3.96327 47.5584 3.46788 47.5584 2.31195C47.5584 2.31195 47.5584 2.31195 47.5584 2.31195C47.5584 2.31195 47.5584 2.31195 47.5584 2.31195ZM35.3384 9.74255C35.3384 9.74255 35.3384 2.97217 35.3384 2.97217C35.3384 1.15573 34.843 0.330078 33.687 0.330078C32.5311 0.330078 32.0357 1.15573 32.0357 2.97217C32.0357 2.97217 32.0357 9.41229 32.0357 9.41229C32.0357 12.2195 31.0449 13.7057 29.2285 13.7057C27.4121 13.7057 26.4213 12.2195 26.4213 9.41229C26.4213 9.41229 26.4213 2.97217 26.4213 2.97217C26.4213 1.15573 25.9259 0.330078 24.77 0.330078C23.614 0.330078 23.1187 1.15573 23.1187 2.97217C23.1187 2.97217 23.1187 9.74255 23.1187 9.74255C23.1187 14.5314 25.4305 17.1735 29.2285 17.1735C32.8614 17.1735 35.3384 14.5314 35.3384 9.74255C35.3384 9.74255 35.3384 9.74255 35.3384 9.74255L35.3384 9.74255ZM21.7975 2.31195C21.7975 1.15604 20.9718 0.660645 19.4856 0.660645C19.4856 0.660645 13.8712 0.660645 13.8712 0.660645C12.385 0.660645 11.5593 1.15604 11.5593 2.31195C11.5593 3.46786 12.385 3.96327 13.8712 3.96327C13.8712 3.96327 15.0271 3.96327 15.0271 3.96327C15.0271 3.96327 15.0271 14.3665 15.0271 14.3665C15.0271 16.183 15.5225 17.0086 16.6784 17.0086C17.8343 17.0086 18.3297 16.183 18.3297 14.3665C18.3297 14.3665 18.3297 3.96327 18.3297 3.96327C18.3297 3.96327 19.4856 3.96327 19.4856 3.96327C20.9718 3.96327 21.7975 3.46788 21.7975 2.31195C21.7975 2.31195 21.7975 2.31195 21.7975 2.31195C21.7975 2.31195 21.7975 2.31195 21.7975 2.31195ZM10.4033 11.7242C10.4033 9.24725 9.08221 7.76108 6.44011 6.77029C4.7888 6.10976 3.79802 5.94463 3.79802 4.78871C3.79802 3.96306 4.45854 3.46767 5.44933 3.46767C6.27498 3.46767 7.26576 3.96306 7.9263 3.96306C8.91708 3.96306 9.41248 3.30254 9.41248 2.47688C9.41248 1.15582 7.9263 0.165039 5.44933 0.165039C2.31183 0.165039 0.330261 2.31175 0.330261 5.2841C0.330261 7.76108 1.65131 8.91699 4.29341 9.90778C5.7796 10.4032 6.77039 10.8986 6.77039 12.2196C6.77039 13.2104 6.10985 13.8709 5.11906 13.8709C3.63289 13.8709 2.47697 13.0453 1.65131 13.0453C0.660522 13.0453 0 13.7058 0 14.6966C0 16.0176 1.98157 17.3387 4.62369 17.3387C8.25656 17.1736 10.4033 14.8617 10.4033 11.7242C10.4033 11.7242 10.4033 11.7242 10.4033 11.7242C10.4033 11.7242 10.4033 11.7242 10.4033 11.7242Z" fill="#FFF0F0" fill-opacity="0.122" transform="translate(132.931 169.824)" />
    </g>
  </g>
</svg>