<?xml version="1.0" encoding="utf-8"?>
<svg width="36" height="34.373" viewBox="0 0 36 34.373" fill="none" xmlns="http://www.w3.org/2000/svg">
  <g id="Group">
    <path id="Path" d="M7.5 0C7.5 0 28.5 0 28.5 0C32.642 0 36 3.20619 36 7.16094C36 7.16094 36 27.2116 36 27.2116C36 31.1663 32.642 34.3725 28.5 34.3725C28.5 34.3725 7.5 34.3725 7.5 34.3725C3.358 34.3725 0 31.1663 0 27.2116C0 27.2116 0 7.16094 0 7.16094C0 3.20619 3.358 0 7.5 0C7.5 0 7.5 0 7.5 0Z" fill="#FFFFFF" fill-rule="evenodd" />
    <path id="Shape" d="M12.4591 5.38447L9.88607 5.38447C9.88607 5.38447 13.1711 0.553543 13.1711 0.553543C13.2431 0.447944 13.2231 0.292321 13.1271 0.2134C13.0911 0.182276 13.0431 0.16449 12.9961 0.16449C12.9961 0.16449 8.24407 0.16449 8.24407 0.16449C7.82607 0.16449 7.48507 0.544649 7.48507 1.00818C7.48507 1.47171 7.82707 1.85187 8.24407 1.85187C8.24407 1.85187 10.3791 1.85187 10.3791 1.85187C10.3791 1.85187 7.08307 6.68724 7.08307 6.68724C7.00707 6.79284 7.02707 6.94402 7.12307 7.02738C7.16307 7.06295 7.21007 7.08074 7.25807 7.07629C7.25807 7.07629 12.4551 7.07629 12.4551 7.07629C12.8731 7.05406 13.1951 6.65611 13.1751 6.18814C13.1551 5.75463 12.8451 5.41003 12.4551 5.3878C12.4551 5.3878 12.4551 5.38336 12.4551 5.38336L12.4591 5.38336L12.4591 5.38447ZM29.0639 0.16449C28.6459 0.16449 28.3049 0.544651 28.3049 1.00818C28.3049 1.00818 28.3049 3.84159 28.3049 3.84159C28.3049 3.84159 24.2009 0.221181 24.2009 0.221181C24.1099 0.136701 23.9699 0.150041 23.8949 0.256751C23.8629 0.301215 23.8469 0.353458 23.8469 0.411261C23.8469 0.411261 23.8469 6.2326 23.8469 6.2326C23.8469 6.69724 24.1889 7.07629 24.6059 7.07629C25.0229 7.07629 25.3649 6.70058 25.3649 6.2326C25.3649 6.2326 25.3649 3.39919 25.3649 3.39919C25.3649 3.39919 29.4689 7.02404 29.4689 7.02404C29.5639 7.10852 29.7039 7.09074 29.7789 6.98403C29.8109 6.93956 29.8269 6.88732 29.8269 6.83397C29.8269 6.83397 29.8269 1.00818 29.8269 1.00818C29.8239 0.540203 29.4859 0.16449 29.0639 0.16449C29.0639 0.16449 29.0639 0.16449 29.0639 0.16449ZM18.2049 5.54349C16.4669 5.54349 15.1709 4.5264 15.1709 3.61602C15.1709 2.70563 16.4709 1.68854 18.2049 1.68854C19.9429 1.68854 21.2389 2.70563 21.2389 3.61602C21.2389 4.5264 19.9459 5.54349 18.2049 5.54349C18.2049 5.54349 18.2049 5.54349 18.2049 5.54349ZM18.2051 0C15.6921 0 13.6521 1.61735 13.6521 3.61597C13.6521 5.61459 15.6921 7.23193 18.2051 7.23193C20.7181 7.23193 22.7581 5.61459 22.7581 3.61597C22.7581 1.61735 20.7181 0 18.2051 0C18.2051 0 18.2051 0 18.2051 0ZM3.25704 5.54794C2.29904 5.54794 1.51904 4.68647 1.51904 3.62046C1.51904 2.55446 2.29404 1.68854 3.25305 1.68854C4.21205 1.68854 4.99105 2.55001 4.99105 3.61602C4.99105 3.61602 4.99105 3.62046 4.99105 3.62046C4.99105 4.68202 4.21605 5.5435 3.25704 5.54794C3.25704 5.54794 3.25704 5.54794 3.25704 5.54794ZM3.257 0C1.46 0 0.00399971 1.61735 0 3.61597C0 5.61348 1.455 7.23194 3.253 7.23638C5.05 7.23638 6.50601 5.61903 6.51001 3.62041C6.51001 3.62041 6.51001 3.61597 6.51001 3.61597C6.50601 1.61846 5.051 0 3.257 0C3.257 0 3.257 0 3.257 0Z" fill="#E43226" transform="translate(3 14)" />
  </g>
</svg>