<?xml version="1.0" encoding="utf-8"?>
<svg width="731" height="235.5" viewBox="0 0 731 235.5" fill="none" xmlns="http://www.w3.org/2000/svg">
  <g id="Group" transform="translate(0.5 0.5)">
    <path id="Path" d="M0 0C0 0 167.691 11.2941 262.375 25.5084C357.058 39.7229 409.076 60.641 409.076 60.641L203.987 55.0631L203.987 55.0631L283.975 164.904C283.975 164.904 312.822 199.411 330.824 206.095C348.827 212.778 361.677 214.104 361.677 214.104L411.955 219.825L723.412 232.712L423.382 227.834C423.382 227.834 382.778 226.6 355.696 221.163C328.615 215.726 320.205 214.151 298.83 194.653C277.455 175.154 261.121 150.029 261.121 150.029L171.992 40.1886L344.536 51.6304C344.536 51.6304 303.471 39.5665 241.333 27.8032C179.194 16.0398 0 0 0 0Z" fill="#FFFFFF" fill-rule="evenodd" fill-opacity="0.141" stroke-width="0" stroke="#FFFFFF" stroke-opacity="0.141" transform="translate(4.571 2.288)" />
    <path id="Path" d="M0 0L46.3952 3.82959L98.958 8.40625L167.518 15.2712L242.934 24.4247L282.928 30.1455L328.635 39.2988L367.486 48.4523L386.911 53.0289L404.051 58.7498L407.479 61.0381L208.654 57.6056L294.355 174.311C294.355 174.311 317.142 204.373 342.347 210.924C367.552 217.476 422.334 221.222 422.334 221.222L552.715 227.451L672.894 231.523C680.634 231.779 649.722 230.791 693.869 232.209C738.015 233.627 729.302 233.124 729.302 233.124L645.155 224.654L521.746 212.068L414.335 198.339L399.48 194.906L368.628 182.32L392.624 182.32L429.19 183.464L528.602 185.753L570.881 186.897L478.325 67.9031C478.325 67.9031 462.038 51.0718 446.33 45.0198C430.622 38.9677 364.058 32.4338 364.058 32.4338L238.364 15.2712L162.948 7.26209L108.099 3.82959L41.8244 1.54126L0 0Z" fill="#BBBBBB" fill-rule="evenodd" fill-opacity="0.141" stroke-width="1" stroke="#BBBBBB" stroke-opacity="0.141" />
    <path id="Path" d="M0 0C0 0 80.3696 2.1698 182.353 10.3575C284.336 18.5454 407.933 32.7512 407.933 32.7512C407.933 32.7512 444.797 37.4818 465.068 57.9219C485.338 78.3621 521.059 130.005 521.059 130.005L566.766 190.646L369.084 186.069L407.934 194.078C407.934 194.078 462.403 203.964 501.633 207.808C540.864 211.653 583.906 215.818 583.906 215.818L714.37 231.472C714.37 231.472 666.536 226.403 637.611 223.827C608.686 221.251 622.756 222.683 601.046 220.394C579.336 218.106 574.765 217.248 550.769 214.674C526.772 212.099 505.061 210.097 505.061 210.097L458.212 204.376L409.254 197.092C409.254 197.092 389.87 193.575 378.096 190.549C366.322 187.523 359.942 182.637 359.942 182.637L561.053 187.213L465.068 64.787C465.068 64.787 445.919 43.4288 419.36 39.6162C392.801 35.8037 366.798 32.7501 366.798 32.7501L176.646 11.2648L0 0Z" fill="#FFFFFF" fill-rule="evenodd" fill-opacity="0.141" stroke-width="1" stroke="#FFFFFF" stroke-opacity="0.141" transform="translate(13.712 0)" />
  </g>
</svg>