<?xml version="1.0" encoding="utf-8"?>
<svg width="46" height="46" viewBox="0 0 46 46" fill="none" xmlns="http://www.w3.org/2000/svg">
  <path id="Shape" d="M23 0C35.7029 0 46 10.2971 46 23C46 35.7029 35.7029 46 23 46C10.2971 46 0 35.7029 0 23C0 10.2971 10.2971 0 23 0C23 0 23 0 23 0ZM30.9341 32.375C31.3569 31.0769 33.3391 18.1411 33.584 15.592C33.658 14.8201 33.4141 14.3069 32.936 14.0779C32.3579 13.8 31.502 13.939 30.509 14.2971C29.147 14.7881 11.7351 22.1809 10.729 22.6089C9.7749 23.0139 8.87305 23.4561 8.87305 24.0959C8.87305 24.5459 9.13989 24.7991 9.87598 25.062C10.6421 25.335 12.571 25.9199 13.71 26.2339C14.8069 26.5371 16.0559 26.2739 16.7561 25.8391C17.498 25.3779 26.061 19.6479 26.676 19.146C27.29 18.644 27.78 19.2871 27.2781 19.79C26.7761 20.292 20.8979 25.9971 20.123 26.7871C19.1819 27.7461 19.8501 28.74 20.481 29.1379C21.2019 29.592 26.387 33.0701 27.168 33.6279C27.949 34.186 28.741 34.439 29.4661 34.439C30.1909 34.439 30.573 33.4839 30.9341 32.375C30.9341 32.375 30.9341 32.375 30.9341 32.375Z" fill="#FFFFFF" />
</svg>