<?xml version="1.0" encoding="utf-8"?>
<svg width="815" height="417" viewBox="0 0 815 417" fill="none" xmlns="http://www.w3.org/2000/svg">
  <g id="Group">
    <g id="Group" transform="translate(20.245 18.071)">
      <path id="Path" d="M27.8 184.604C28.33 185.165 28.8676 185.763 29.4128 186.4C29.6166 186.64 29.5784 186.828 29.2981 186.966C1.03289 200.866 -7.99395 234.52 7.56035 261.565C12.7222 270.551 20.1031 276.841 29.7032 280.432C44.9824 286.156 58.9315 282.098 73.1788 275.954C73.4947 275.822 73.6094 275.921 73.5228 276.252C68.8985 293.867 70.9317 312.742 82.435 327.261C97.6912 346.518 122.891 351.279 144.943 340.833C145.1 340.756 145.282 340.747 145.448 340.807C145.613 340.868 145.748 340.993 145.822 341.154C151.562 353.786 164.815 363.735 179.238 357.844C185.735 355.192 191.628 349.208 195.075 343.11C195.14 342.998 195.262 342.932 195.391 342.939C195.519 342.945 195.634 343.023 195.687 343.141C201.549 356.269 213.06 367.411 227.384 370.101C246.278 373.647 263.346 363.865 273.084 347.902C274.179 346.098 275.285 344.254 276.401 342.369C276.564 342.099 276.725 342.099 276.883 342.369C278.279 344.723 279.843 346.959 281.576 349.078C296.09 366.861 319.303 358.256 328.529 340.642C328.616 340.479 328.785 340.376 328.968 340.373C329.151 340.37 329.32 340.467 329.408 340.627C342.952 364.403 363.266 377.906 390.349 381.136C422.695 385.003 452.199 365.86 468.892 339.343C468.921 339.295 468.973 339.265 469.03 339.265C469.086 339.265 469.138 339.295 469.167 339.343C481.97 362.031 511.145 354.504 517.603 331.716C517.622 331.637 517.688 331.578 517.769 331.569C517.85 331.561 517.928 331.604 517.963 331.678C522.936 341.292 529.576 349.04 537.881 354.924C554.773 366.891 574.776 370.651 594.29 363.009C615.24 354.817 629.205 338.074 632.95 315.944C633.645 311.817 633.248 307.301 633.24 302.945C633.24 302.855 633.287 302.773 633.364 302.727C633.441 302.681 633.536 302.68 633.615 302.723C636.672 304.481 639.824 306.02 643.07 307.339C677.029 321.148 712.135 298.23 710.553 261.129C710.543 260.798 710.691 260.688 710.996 260.801C717.616 263.236 723.924 264.558 729.921 264.767C758.248 265.745 782.898 242.292 777.494 213.062C776.612 208.273 774.831 203.701 772.151 199.345C767.407 191.627 761.058 185.287 753.104 180.325C752.834 180.157 752.823 179.976 753.073 179.782C761.878 172.844 768.918 163.139 770.798 152.073C775.071 126.855 752.867 105.015 729.172 101.576C722.074 100.547 715.559 101.747 709.628 105.176C709.399 105.308 709.31 105.244 709.361 104.985C712.716 87.6911 709.414 69.2668 693.791 59.5312C682.953 52.7758 669.332 52.2027 657.309 56.3675C657.049 56.4592 656.917 56.3675 656.912 56.0924C656.751 39.5861 649.36 26.0678 632.728 21.2917C621.207 17.9853 610.532 20.0231 600.702 27.4051C600.483 27.5681 600.292 27.5376 600.129 27.3134C594.373 19.1902 586.875 12.198 577.871 8.07903C553.397 -3.12383 526.768 9.85193 515.157 33.3122C515.005 33.6229 514.826 33.6382 514.622 33.358C499.978 13.2525 473.249 15.7361 461.7 37.1713C461.542 37.4617 461.389 37.4566 461.241 37.156C459.284 33.0855 458 30.5179 457.389 29.4531C442.973 4.40333 410.298 -0.189385 390.532 21.5515C390.333 21.7655 390.135 21.768 389.936 21.5591C359.148 -10.7427 307.64 -6.67725 285.29 33.2893C285.143 33.5542 284.954 33.5873 284.725 33.3886C282.192 31.1725 280.569 29.8021 279.856 29.2774C266.572 19.4653 250.436 22.1323 238.108 32.1354C237.878 32.3239 237.662 32.3111 237.458 32.0972C230.329 24.4197 222.125 19.315 212.846 16.783C188.556 10.1652 161.093 21.1847 150.69 45.0118C150.573 45.2818 150.387 45.3429 150.132 45.1952C136.061 37.0949 120.147 33.9541 104.494 38.0807C84.4145 43.3841 69.1048 60.0661 63.6397 79.8659C61.1735 88.8017 60.5875 98.517 61.8818 109.012C61.9123 109.297 61.7875 109.435 61.5072 109.424C18.5973 108.462 -1.82584 153.212 27.7999 184.604" fill="none" stroke-width="2" stroke="#FFFFFF" stroke-opacity="0.122" />
      <path id="Shape" d="M354.307 103.413C355.705 103.528 356.791 103.161 358.182 103.505C363.675 104.87 368.067 105.759 371.359 106.172C387.433 108.174 404.547 100.708 410.852 84.836C417.02 69.3003 410.516 54.0549 396.49 45.3433C392.921 43.1272 382.067 37.969 382.021 32.9483C381.96 27.4386 389.023 26.9725 393.074 27.6144C397.255 28.2715 402.009 31.3053 406.045 33.3992C406.289 33.5266 406.404 33.4527 406.388 33.1776C406.388 33.1776 404.806 0.180374 404.806 0.180374C404.796 -0.00813293 404.712 -0.0488739 404.554 0.0580978C400.32 2.93142 392.768 2.70215 387.922 1.83862C373.675 -0.706078 353.817 3.51983 348.421 18.8569C346.811 23.4368 345.916 26.817 345.738 28.9975C344.492 44.5944 354.987 53.5582 366.673 61.1083C369.402 62.8659 371.351 64.3331 373.552 66.19C376.434 68.6201 377.084 72.8766 374.332 75.5894C371.947 77.9354 365.886 78.2105 362.943 76.8427C357.175 74.1579 351.993 70.5535 347.397 66.0296C347.307 65.9429 347.172 65.923 347.062 65.9801C346.951 66.0372 346.889 66.1585 346.908 66.2817C347.59 70.9534 347.929 75.6862 347.924 80.4802C347.924 83.1471 348.398 86.0357 348.52 89.0389C348.688 93.2165 349.119 98.4231 349.812 104.659C349.848 104.949 349.973 104.995 350.186 104.796C351.313 103.742 352.686 103.281 354.306 103.413M0.35672 46.9481C-6.98856 123.649 101.601 127.47 95.578 48.3389C94.3857 32.6274 87.6213 16.2587 74.3753 8.02083C61.3815 -0.0565414 44.8489 -1.43205 30.5634 3.99362C12.2269 10.9629 2.21405 27.5227 0.35672 46.9481" fill="none" stroke-width="2" stroke="#FFFFFF" stroke-opacity="0.122" transform="translate(278.49 93.059)" />
      <path id="Shape" d="M329.624 48.4336C329.624 48.4336 351.989 87.1316 351.989 87.1316C352.193 87.4882 352.399 87.4882 352.608 87.1316C352.608 87.1316 374.881 48.5177 374.881 48.5177C374.947 48.4092 375.075 48.3549 375.199 48.3826C375.324 48.4101 375.417 48.5135 375.431 48.6399C376.73 61.6844 378.022 74.7442 379.077 87.8652C379.581 94.1391 376.937 96.4392 374.04 101.307C373.887 101.562 373.961 101.689 374.261 101.689C386.206 101.72 398.152 101.72 410.101 101.689C411.836 101.682 414.068 101.231 416.292 101.85C416.418 101.89 416.555 101.836 416.618 101.72C416.682 101.604 416.654 101.46 416.552 101.376C411.309 96.6456 410.224 91.6938 409.681 84.1513C408.03 61.2464 406.407 38.3312 404.812 15.4059C404.369 9.11666 406.196 4.69971 410.934 0.74128C411.322 0.420311 411.263 0.259842 410.759 0.259842C410.759 0.259842 372.947 0.320969 372.947 0.320969C372.692 0.320969 372.506 0.430504 372.389 0.649559C372.389 0.649559 352.386 37.4753 352.386 37.4753C352.357 37.5308 352.3 37.5656 352.237 37.5656C352.174 37.5656 352.117 37.5308 352.088 37.4753C352.088 37.4753 330.962 0.359161 330.962 0.359161C330.865 0.185959 330.715 0.09935 330.511 0.09935C330.511 0.09935 292.256 0 292.256 0C292.122 0.00200653 292.006 0.0899506 291.967 0.217445C291.929 0.34494 291.978 0.482651 292.087 0.557861C298.126 4.53922 298.462 9.34591 298.263 16.7355C297.687 38.2446 296.768 59.7384 295.504 81.2169C295.344 84.052 294.862 86.9176 294.449 89.7222C293.7 94.9339 291.904 98.3268 287.96 101.406C287.649 101.646 287.69 101.766 288.082 101.766C288.082 101.766 330.962 101.559 330.962 101.559C331.201 101.559 331.428 101.61 331.642 101.712C331.881 101.824 332.126 101.857 332.376 101.811C332.804 101.735 332.847 101.567 332.506 101.307C328.256 98.0517 326.529 94.2538 326.788 88.744C327.43 75.0143 327.96 61.6819 328.378 48.7469C328.429 47.1931 328.844 47.0887 329.624 48.4336M94.5288 1.35255C98.6052 5.60648 100.641 10.4616 100.636 15.9178C100.605 37.9821 100.598 60.0491 100.613 82.1185C100.621 90.7232 99.6575 96.0648 93.4205 101.391C93.2218 101.564 93.2549 101.651 93.5199 101.651C93.5199 101.651 138.677 101.582 138.677 101.582C138.983 101.582 139.018 101.488 138.784 101.299C134.091 97.5015 132.708 93.3902 132.6 87.0857C132.473 79.4134 132.463 71.7334 132.57 64.0457C132.57 63.8063 132.69 63.6866 132.929 63.6866C132.929 63.6866 157.159 63.6866 157.159 63.6866C157.413 63.6866 157.541 63.8139 157.541 64.0687C157.571 69.9987 157.574 75.9262 157.549 81.8511C157.518 90.4405 156.746 96.019 150.524 101.276C150.46 101.329 150.436 101.416 150.464 101.495C150.491 101.573 150.564 101.626 150.647 101.628C150.647 101.628 194.864 101.674 194.864 101.674C195.913 101.679 196.028 101.353 195.208 100.696C189.911 96.4775 189.292 90.6621 189.284 83.4712C189.269 61.5953 189.269 39.722 189.284 17.8512C189.292 10.1865 190.392 5.3187 195.888 0.534943C196.107 0.346436 196.071 0.252197 195.781 0.252197C195.781 0.252197 150.685 0.25985 150.685 0.25985C150.445 0.25985 150.415 0.343895 150.593 0.512016C155.676 5.29578 157.335 10.8437 157.197 17.8436C157.08 24.1047 156.996 30.4016 156.945 36.7341C156.94 36.9786 156.815 37.1009 156.57 37.1009C156.57 37.1009 132.73 37.1467 132.73 37.1467C132.421 37.1467 132.169 36.8982 132.165 36.5889C132.109 29.1203 132.119 21.6772 132.195 14.2596C132.251 9.05807 134.504 4.49848 138.952 0.580788C139.192 0.366821 139.151 0.259827 138.83 0.259827C138.83 0.259827 93.7493 0.259827 93.7493 0.259827C93.5148 0.259827 93.4588 0.36171 93.5811 0.565491C93.7875 0.901733 94.3608 1.17683 94.5289 1.35259M494.668 80.445C496.059 84.9536 497.404 89.4776 498.703 94.0168C499.626 97.2365 499.075 99.7736 497.052 101.628C496.833 101.832 496.872 101.931 497.167 101.926C509.57 101.768 521.97 101.687 534.368 101.682C535.827 101.682 537.119 101.154 538.785 102.048C538.857 102.084 538.905 102.064 538.931 101.987C538.931 101.987 539.015 101.727 539.015 101.727C539.055 101.6 539.027 101.496 538.931 101.414C534.39 97.6084 531.081 92.6846 529.002 86.6425C520.38 61.6182 511.774 36.5862 503.182 11.5467C501.646 7.06095 501.104 4.05774 504.199 0.534866C504.27 0.451096 504.287 0.333511 504.241 0.233513C504.195 0.133484 504.095 0.069191 503.985 0.0687256C503.985 0.0687256 456.795 0.0687256 456.795 0.0687256C456.464 0.0687256 456.415 0.18589 456.649 0.420242C459.284 3.0694 459.974 6.08534 458.721 9.46811C449.992 33.0659 444.542 49.4576 437.151 68.5544C436.654 69.8382 436.395 71.4965 435.844 72.9178C433.979 77.7372 432.16 82.5719 430.387 87.4219C427.979 94.0168 425.656 97.8988 420.259 101.605C420.127 101.69 420.08 101.861 420.151 102.001C420.222 102.141 420.388 102.204 420.534 102.148C422.514 101.467 423.875 101.666 425.854 101.689C436.932 101.781 448.01 101.702 459.088 101.452C459.934 101.432 460.713 101.656 461.427 102.125C461.615 102.252 461.758 102.211 461.855 102.002C461.931 101.834 461.88 101.682 461.702 101.544C458.736 99.3049 458.362 96.8214 459.592 93.245C461.06 88.9605 462.629 84.7041 464.3 80.4756C464.397 80.2362 464.573 80.1164 464.828 80.1164C464.828 80.1164 494.224 80.1164 494.224 80.1164C494.454 80.1164 494.601 80.226 494.668 80.445M30.8517 24.1786C30.8874 43.6906 30.89 63.2026 30.8594 82.7147C30.8441 90.9907 30.0033 96.1871 23.8963 101.2C23.667 101.384 23.7001 101.475 23.9956 101.475C23.9956 101.475 68.1133 101.521 68.1133 101.521C68.3885 101.521 68.4318 101.422 68.2432 101.223C64.075 96.801 61.9527 91.1665 61.8763 84.3194C61.647 64.2521 61.6572 44.2077 61.9069 24.1862C61.912 23.9672 62.0241 23.85 62.2432 23.8347C72.9516 23.2234 85.2727 24.6677 92.1059 32.8749C92.7072 33.5932 92.9288 33.4914 92.7708 32.5693C92.7708 32.5693 87.4434 0.618965 87.4434 0.618965C87.4026 0.364235 87.2523 0.236877 86.9924 0.236877C86.9924 0.236877 4.62731 0.328575 4.62731 0.328575C4.51327 0.327522 4.41738 0.410172 4.40562 0.519623C4.40562 0.519623 0.0106735 33.3334 0.0106735 33.3334C-0.0351791 33.6493 0.0667267 33.7079 0.316406 33.5092C2.70879 31.5988 5.29989 29.4361 7.75343 28.1218C14.5866 24.4613 22.9714 23.4679 30.439 23.7583C30.7091 23.7685 30.8466 23.9086 30.8517 24.1786M99.4818 154.93C99.4636 155.032 99.3857 155.114 99.2841 155.137C99.1825 155.161 99.0768 155.121 99.0156 155.037C96.6003 151.835 87.3899 140.892 90.2027 137.139C92.5339 134.037 97.1964 135.145 99.7723 137.384C99.9761 137.557 100.129 137.522 100.231 137.277C100.506 136.62 100.483 135.902 100.774 135.275C103.219 129.966 105.579 124.62 107.851 119.235C107.943 119.026 107.879 118.886 107.66 118.814C104.649 117.798 100.682 117.63 98.6181 117.286C94.1085 116.53 89.1556 115.498 84.9364 115.613C77.4077 115.811 67.5019 119.143 65.3311 126.968C63.8432 132.358 64.391 137.514 66.9744 142.435C67.0439 142.572 67.0528 142.732 66.9988 142.875C66.9449 143.018 66.8333 143.13 66.6916 143.184C54.0113 148.067 47.866 161.624 52.0928 174.47C55.8839 185.978 65.1553 192.42 77.1172 192.604C82.9415 192.688 90.8371 191.19 95.1174 186.666C95.362 186.406 95.604 186.411 95.8435 186.681C95.8435 186.681 99.6117 191.006 99.6117 191.006C99.785 191.205 100.002 191.304 100.261 191.304C100.261 191.304 128.129 191.304 128.129 191.304C128.435 191.304 128.473 191.205 128.244 191.006C121.976 185.657 116.544 179.567 111.948 172.735C111.8 172.521 111.811 172.315 111.979 172.116C117.803 165.116 117.115 155.388 122.962 148.144C123.176 147.879 123.113 147.746 122.771 147.746C122.771 147.746 101.064 147.746 101.064 147.746C100.83 147.746 100.692 147.861 100.651 148.09C100.651 148.09 99.4817 154.93 99.4817 154.93M533.328 163.588C536.729 165.972 536.989 171.329 532.266 172.192C526.059 173.331 520.051 168.127 515.817 164.222C515.603 164.028 515.506 164.074 515.526 164.359C515.526 164.359 517.491 190.945 517.491 190.945C517.516 191.292 517.685 191.383 517.995 191.22C521.511 189.386 528.849 191.939 532.525 192.39C547.522 194.224 561.845 184.389 561.479 168.364C561.264 159.423 556.61 153.814 549.318 149.175C546.788 147.571 542.217 145.37 540.666 142.848C539.389 140.762 540.115 138.293 542.385 137.437C547.705 135.428 552.444 138.912 556.365 141.014C556.701 141.192 556.862 141.09 556.847 140.708C556.847 140.708 555.861 118.142 555.861 118.142C555.85 117.892 555.733 117.818 555.509 117.92C552.233 119.362 548.92 119.78 545.573 119.174C537.371 117.683 528.551 118.325 522.062 123.705C515.351 129.268 512.041 140.41 516.734 148.579C520.457 155.059 527.786 159.698 533.328 163.588M198.907 120.564C201.834 122.567 203.072 125.425 203.027 129.528C202.843 148.189 203.088 166.843 202.797 185.504C202.792 185.779 202.706 186.024 202.537 186.238C202.537 186.238 198.785 191.098 198.785 191.098C198.683 191.236 198.716 191.304 198.884 191.304C198.884 191.304 230.55 191.304 230.55 191.304C230.999 191.304 231.037 191.18 230.665 190.93C227.807 188.994 226.232 186.505 225.942 183.464C225.61 180.025 225.654 172.816 226.071 161.838C226.077 161.639 226.133 161.624 226.24 161.792C232.064 171.252 237.442 180.963 242.375 190.922C242.491 191.156 242.73 191.304 242.994 191.304C242.994 191.304 269.914 191.304 269.914 191.304C270.291 191.304 270.334 191.185 270.044 190.945C267.766 189.05 265.786 187.598 264.204 185.023C258.864 176.327 253.56 167.612 248.291 158.88C248.153 158.651 248.212 158.501 248.467 158.429C257.521 155.882 261.616 149.769 260.749 140.089C259.534 126.479 250.331 119.838 237.047 119.854C224.482 119.864 211.85 119.846 199.151 119.8C198.239 119.8 198.158 120.055 198.907 120.564M389.663 159.308C389.663 159.256 389.698 159.209 389.748 159.195C389.797 159.18 389.847 159.202 389.869 159.247C389.869 159.247 409.146 190.968 409.146 190.968C409.283 191.192 409.482 191.304 409.742 191.304C409.742 191.304 436.349 191.304 436.349 191.304C436.772 191.304 436.82 191.169 436.494 190.899C432.397 187.491 431.686 184.029 431.74 178.443C431.954 157.207 431.495 144.705 431.839 129.681C431.938 125.424 433.437 122.459 436.868 120.282C436.993 120.201 437.051 120.049 437.01 119.907C436.97 119.764 436.841 119.665 436.693 119.663C436.693 119.663 404.667 119.663 404.667 119.663C404.54 119.662 404.428 119.744 404.39 119.865C404.352 119.985 404.396 120.117 404.499 120.19C407.729 122.549 409.378 125.753 409.444 129.803C409.571 137.781 409.612 145.645 409.566 153.393C409.563 153.545 409.46 153.676 409.314 153.716C409.168 153.757 409.013 153.697 408.932 153.569C408.932 153.569 388.937 120.312 388.937 120.312C388.82 120.124 388.649 120.029 388.425 120.029C388.425 120.029 362.774 120.052 362.774 120.052C362.442 120.052 362.404 120.159 362.659 120.373C365.67 122.864 367.176 125.812 367.176 129.215C367.171 145.996 367.171 162.777 367.176 179.559C367.184 184.579 366.198 187.843 362.705 191.067C362.542 191.22 362.572 191.297 362.796 191.297C362.796 191.297 394.501 191.312 394.501 191.312C394.576 191.311 394.641 191.263 394.665 191.193C394.689 191.123 394.666 191.045 394.608 190.999C390.741 187.942 389.724 184.411 389.716 179.238C389.696 172.595 389.678 165.951 389.663 159.308M191.929 137.414C193.878 137.315 195.895 138.859 197.05 140.28C197.11 140.349 197.207 140.372 197.291 140.337C197.376 140.303 197.429 140.218 197.424 140.127C197.424 140.127 195.414 120.328 195.414 120.328C195.383 120.012 195.21 119.854 194.894 119.854C194.894 119.854 146.32 119.854 146.32 119.854C146.232 119.85 146.15 119.904 146.119 119.987C146.088 120.071 146.114 120.165 146.183 120.221C150.02 123.476 150.937 126.838 150.899 132.126C150.766 148.169 150.759 164.214 150.876 180.262C150.914 185.229 149.615 188.332 145.785 191.152C145.475 191.381 145.513 191.495 145.9 191.495C145.9 191.495 177.995 191.495 177.995 191.495C178.285 191.495 178.321 191.401 178.102 191.213C174.425 187.995 173.592 184.786 173.6 179.635C173.6 174.948 173.587 170.254 173.561 165.552C173.561 165.276 173.699 165.139 173.974 165.139C178.02 165.124 182.063 165.121 186.104 165.131C189.75 165.139 191.539 166.385 193.686 169.029C193.726 169.079 193.793 169.097 193.854 169.075C193.915 169.053 193.958 168.995 193.962 168.929C193.962 168.929 194.069 144.827 194.069 144.827C194.069 144.567 193.979 144.532 193.801 144.72C189.391 149.366 181.809 148.09 174.005 147.838C173.719 147.828 173.577 147.683 173.577 147.402C173.577 147.402 173.623 137.743 173.623 137.743C173.623 137.443 173.773 137.295 174.074 137.3C180.028 137.338 186.074 137.697 191.928 137.415M273.262 120.595C276.174 123.056 277.542 125.661 277.55 129.704C277.565 146.409 277.565 163.116 277.55 179.826C277.542 184.778 276.617 187.835 273.009 190.892C272.683 191.167 272.734 191.304 273.162 191.304C273.162 191.304 304.691 191.304 304.691 191.304C305.089 191.304 305.14 191.174 304.844 190.915C301.825 188.27 299.906 185.313 299.914 181.095C299.919 163.544 299.917 145.983 299.906 128.412C299.906 125.157 302.666 122.421 304.89 120.327C305.221 120.012 305.16 119.854 304.707 119.854C304.707 119.854 272.818 119.854 272.818 119.854C272.734 119.852 272.657 119.9 272.621 119.975C272.585 120.051 272.596 120.141 272.65 120.205C272.841 120.427 273.078 120.442 273.262 120.595M336.22 146.447C336.22 146.447 336.22 137.804 336.22 137.804C336.22 137.504 336.371 137.346 336.671 137.331C342.027 137.091 347.382 137.145 352.738 137.491C355.092 137.644 356.605 138.645 358.378 140.005C358.71 140.26 358.85 140.181 358.799 139.768C358.799 139.768 356.376 120.259 356.376 120.259C356.345 119.989 356.193 119.854 355.917 119.854C355.917 119.854 309.125 119.854 309.125 119.854C309.048 119.853 308.979 119.9 308.952 119.972C308.925 120.043 308.945 120.124 309.002 120.175C312.755 123.583 313.734 127.022 313.688 132.371C313.576 145.632 313.583 158.893 313.711 172.154C313.787 180.407 314.689 186.467 308.567 191.106C308.22 191.366 308.263 191.495 308.697 191.495C308.697 191.495 358.379 191.495 358.379 191.495C358.59 191.494 358.769 191.338 358.799 191.129C358.799 191.129 361.337 171.451 361.337 171.451C361.36 171.294 361.273 171.141 361.126 171.082C360.979 171.022 360.81 171.07 360.717 171.199C359.089 173.4 356.659 173.896 353.8 173.912C348.088 173.952 342.358 173.947 336.61 173.896C336.35 173.891 336.22 173.761 336.22 173.507C336.22 173.507 336.22 164.413 336.22 164.413C336.22 164.173 336.338 164.051 336.572 164.046C343.902 163.901 352.539 162.304 356.024 167.569C356.325 168.022 356.475 167.977 356.475 167.431C356.475 167.431 356.475 144.132 356.475 144.132C356.475 143.882 356.386 143.846 356.208 144.025C351.828 148.48 341.334 147.005 336.74 146.967C336.394 146.967 336.221 146.793 336.221 146.447M441.47 120.847C444.672 123.705 445.505 126.609 445.505 131.141C445.526 147.209 445.528 163.279 445.513 179.353C445.505 184.381 444.55 187.567 441.164 190.915C440.899 191.174 440.953 191.304 441.324 191.304C453.345 191.36 465.365 191.279 477.386 191.06C484.612 190.927 490.915 189.139 496.296 185.695C512.461 175.364 514.304 148.082 503.297 133.211C496.655 124.225 485.259 119.854 473.985 119.831C462.922 119.815 451.852 119.833 440.774 119.884C440.703 119.882 440.637 119.921 440.603 119.985C440.569 120.049 440.573 120.128 440.614 120.19C440.851 120.541 441.225 120.618 441.47 120.847M235.052 70.2662C240.518 75.7148 248.963 74.2399 253.397 68.394C258.403 61.7838 258.609 53.8211 257.99 46.1564C257.471 39.6838 254.406 32.1031 248.49 29.2528C243.636 26.9144 238.148 28.2364 234.418 32.1031C225.529 41.3115 226.423 61.6768 235.053 70.2662" fill="none" stroke-width="2" stroke="#FFFFFF" stroke-opacity="0.122" transform="translate(83.189 95.623)" />
      <path id="Shape" d="M398.565 27.7486C398.537 27.8333 398.553 27.9258 398.606 27.9971C398.659 28.0683 398.743 28.1096 398.832 28.1078C398.832 28.1078 416.29 28.1078 416.29 28.1078C416.379 28.1096 416.463 28.0683 416.516 27.9971C416.569 27.9258 416.584 27.8333 416.557 27.7486C416.557 27.7486 407.821 0.184723 407.821 0.184723C407.782 0.0741119 407.678 0 407.561 0C407.444 0 407.34 0.0741119 407.301 0.184723C407.301 0.184723 398.565 27.7486 398.565 27.7486M12.6424 141.283C12.6424 141.283 3.92894 129.025 3.92894 129.025C3.86261 128.929 3.76056 128.864 3.6456 128.844C3.53069 128.824 3.41246 128.85 3.31749 128.918C3.31749 128.918 3.20284 129.002 3.20284 129.002C1.54088 130.183 0.423737 131.988 0.0980835 134.019C-0.22757 136.049 0.264938 138.14 1.46721 139.83C1.46721 139.83 1.62009 140.051 1.62009 140.051C2.82158 141.742 4.63464 142.894 6.66023 143.254C8.68579 143.614 10.7578 143.152 12.4202 141.97C12.4202 141.97 12.5425 141.886 12.5425 141.886C12.7351 141.745 12.7794 141.476 12.6418 141.282M153.548 106.467C153.548 106.467 153.563 119.305 153.563 119.305C153.563 119.434 153.615 119.558 153.707 119.648C153.799 119.739 153.924 119.788 154.053 119.786C154.053 119.786 159.013 119.779 159.013 119.779C162.758 119.77 165.788 117.102 165.785 113.818C165.785 113.818 165.785 111.923 165.785 111.923C165.784 110.342 165.066 108.828 163.79 107.713C162.514 106.597 160.784 105.973 158.982 105.978C158.982 105.978 154.022 105.985 154.022 105.985C153.759 105.989 153.548 106.204 153.548 106.467M396.256 109.34C396.256 109.34 396.195 142.704 396.195 142.704C396.195 142.966 396.407 143.178 396.669 143.178C396.669 143.178 402.554 143.185 402.554 143.185C409.151 143.193 414.504 136.975 414.516 129.295C414.516 129.295 414.531 122.8 414.531 122.8C414.538 119.11 413.287 115.57 411.052 112.957C408.817 110.344 405.782 108.874 402.615 108.869C402.615 108.869 396.73 108.861 396.73 108.861C396.468 108.861 396.256 109.073 396.256 109.335" fill="none" stroke-width="2" stroke="#FFFFFF" stroke-opacity="0.122" transform="translate(155.223 124.898)" />
    </g>
    <path id="Shape" d="M75.7675 313.924C44.9952 317.539 14.6969 304.166 3.74387 273.675C-5.8715 246.921 3.52986 218.287 26.2613 201.368C26.4957 201.195 26.5237 200.996 26.3453 200.772C11.479 181.63 10.47 155.151 24.9466 135.45C34.6639 122.225 48.2742 115.014 65.7776 113.816C65.8541 113.811 65.9251 113.774 65.9741 113.715C66.0231 113.656 66.0459 113.579 66.0374 113.503C64.7839 100.031 66.6489 85.9086 72.5114 73.7046C89.5867 38.1703 131.151 29.069 164.966 45.9573C165.113 46.0292 165.284 46.0371 165.436 45.9791C165.589 45.921 165.709 45.8023 165.768 45.6516C174.726 23.009 199.957 11.3324 223.545 14.6031C236.87 16.4473 248.289 22.7059 257.802 33.3789C258.001 33.6031 258.22 33.6285 258.46 33.4553C271.797 23.9413 289.041 21.9239 302.646 31.9881C302.875 32.1562 303.069 32.1205 303.227 31.8811C318.468 8.80292 342.98 -3.63789 370.466 0.93954C385.011 3.35435 399.052 10.8509 410.318 20.2885C410.506 20.4469 410.778 20.4469 410.96 20.2885C433.745 0.442829 470.724 7.28986 486.714 32.2097C486.852 32.4288 487.012 32.4441 487.196 32.2556C500.235 18.7143 521.53 18.1183 535.517 30.7731C535.716 30.9565 535.892 30.9335 536.044 30.7043C559.089 -4.09639 600.402 -2.15537 626.29 28.3812C626.479 28.6002 626.698 28.6435 626.947 28.5111C654.402 14.6413 684.487 21.7481 688.713 56.1591C688.749 56.4647 688.917 56.5921 689.218 56.5412C722.78 50.7563 746.643 69.5475 748.424 103.324C748.439 103.609 748.589 103.767 748.874 103.798C749.608 103.869 750.612 103.943 751.886 104.02C778.355 105.64 803.341 125.233 806.139 152.568C807.728 168.111 801.805 184.105 792.105 196.218C791.902 196.472 791.922 196.709 792.167 196.928C812.253 214.695 822.434 240.135 808.707 265.345C795.43 289.73 768.885 298.862 742.324 293.734C742.172 293.706 742.015 293.743 741.891 293.836C741.768 293.929 741.689 294.07 741.674 294.224C737.983 334.251 704.336 356.565 666.196 340.915C666.098 340.873 665.985 340.88 665.893 340.935C665.801 340.989 665.74 341.084 665.73 341.19C662.672 373.966 637.38 399.306 604.888 402.951C578.366 405.924 556.399 392.978 540.263 373.4C540.08 373.181 539.891 373.178 539.698 373.392C538.883 374.309 538.314 374.982 537.993 375.41C525.894 391.419 504.24 393.544 490.146 378.635C489.993 378.473 489.775 378.388 489.553 378.404C489.33 378.421 489.127 378.536 488.999 378.719C469.99 405.809 442.199 419.854 409.393 416.515C384.614 413.993 361.431 400.292 345.602 381.355C345.265 380.958 344.934 380.96 344.608 381.363C330.995 398.129 310.626 399.015 296.417 382.173C296.284 382.016 296.086 381.931 295.881 381.943C295.677 381.955 295.49 382.063 295.377 382.234C286.243 395.936 271.262 407.597 254.049 407.253C238.365 406.932 223.415 397.036 214.227 384.656C214.049 384.422 213.853 384.407 213.639 384.611C205.162 392.612 193.078 398.603 181.536 395.905C170.973 393.429 163.383 385.245 157.796 376.319C157.638 376.065 157.419 375.986 157.139 376.082C111.21 391.633 72.2361 363.58 76.2565 314.39C76.2871 314.039 76.124 313.883 75.7673 313.924C75.7673 313.924 75.7675 313.924 75.7675 313.924ZM48.0449 202.675C48.5748 203.235 49.1124 203.834 49.6576 204.471C49.8615 204.71 49.8233 204.899 49.543 205.036C21.2778 218.937 12.2509 252.591 27.8052 279.635C32.967 288.622 40.348 294.911 49.9481 298.503C65.2272 304.227 79.1764 300.169 93.4237 294.025C93.7396 293.892 93.8542 293.992 93.7676 294.323C89.1434 311.937 91.1765 330.813 102.68 345.332C117.936 364.589 143.136 369.35 165.187 358.904C165.345 358.827 165.527 358.818 165.692 358.878C165.858 358.939 165.993 359.064 166.066 359.225C171.807 371.857 185.06 381.806 199.483 375.914C205.98 373.263 211.873 367.279 215.32 361.181C215.385 361.069 215.507 361.003 215.635 361.009C215.764 361.016 215.879 361.094 215.932 361.211C221.794 374.34 233.305 385.482 247.629 388.172C266.523 391.718 283.591 381.936 293.329 365.972C294.424 364.169 295.53 362.325 296.646 360.44C296.809 360.17 296.97 360.17 297.128 360.44C298.524 362.793 300.088 365.03 301.821 367.149C316.335 384.932 339.548 376.327 348.774 358.713C348.861 358.55 349.03 358.447 349.213 358.444C349.396 358.441 349.565 358.538 349.653 358.697C363.197 382.474 383.511 395.977 410.594 399.207C442.94 403.073 472.444 383.931 489.137 357.414C489.166 357.365 489.218 357.336 489.275 357.336C489.331 357.336 489.383 357.365 489.412 357.414C502.215 380.102 531.39 372.575 537.848 349.787C537.867 349.708 537.933 349.649 538.014 349.64C538.095 349.631 538.173 349.675 538.208 349.749C543.181 359.362 549.82 367.111 558.126 372.995C575.018 384.962 595.021 388.722 614.534 381.08C635.485 372.888 649.449 356.145 653.195 334.014C653.89 329.888 653.493 325.372 653.485 321.016C653.485 320.926 653.532 320.843 653.609 320.798C653.686 320.752 653.781 320.751 653.86 320.794C656.917 322.552 660.069 324.09 663.314 325.41C697.274 339.219 732.38 316.301 730.798 279.2C730.788 278.869 730.935 278.759 731.241 278.871C737.86 281.307 744.169 282.629 750.166 282.837C778.493 283.816 803.143 260.363 797.739 231.133C796.857 226.344 795.076 221.772 792.396 217.416C787.652 209.698 781.303 203.358 773.349 198.396C773.078 198.228 773.068 198.047 773.318 197.853C782.123 190.914 789.163 181.209 791.043 170.144C795.316 144.926 773.112 123.086 749.417 119.647C742.319 118.618 735.804 119.818 729.873 123.246C729.644 123.379 729.555 123.315 729.605 123.055C732.961 105.762 729.659 87.3376 714.036 77.6019C703.198 70.8466 689.577 70.2735 677.554 74.4382C677.294 74.5299 677.162 74.4382 677.157 74.1631C676.996 57.6569 669.605 44.1386 652.973 39.3625C641.452 36.0561 630.776 38.0939 620.947 45.4759C620.728 45.6389 620.537 45.6083 620.374 45.3842C614.618 37.261 607.12 30.2687 598.116 26.1498C573.642 14.9469 547.013 27.9227 535.402 51.383C535.249 51.6937 535.071 51.709 534.867 51.4288C520.223 31.3233 493.494 33.8069 481.945 55.2421C481.787 55.5324 481.634 55.5274 481.486 55.2268C479.529 51.1563 478.245 48.5886 477.634 47.5239C463.218 22.4741 430.543 17.8814 410.777 39.6223C410.578 39.8362 410.38 39.8388 410.181 39.6299C379.393 7.32811 327.884 11.3935 305.535 51.3601C305.387 51.625 305.199 51.6581 304.97 51.4594C302.437 49.2433 300.814 47.8729 300.101 47.3481C286.817 37.5361 270.681 40.2031 258.353 50.2061C258.123 50.3946 257.907 50.3819 257.703 50.1679C250.574 42.4905 242.37 37.3858 233.091 34.8538C208.8 28.236 181.338 39.2555 170.935 63.0826C170.818 63.3526 170.632 63.4137 170.377 63.2659C156.306 55.1657 140.392 52.0249 124.739 56.1515C104.659 61.4548 89.3497 78.1368 83.8847 97.9367C81.4184 106.873 80.8324 116.588 82.1267 127.082C82.1573 127.368 82.0324 127.505 81.7522 127.495C38.8422 126.532 18.4191 171.283 48.0448 202.675C48.0448 202.675 48.0449 202.675 48.0449 202.675Z" fill="#FFFFFF" fill-opacity="0.122" />
    <path id="Shape" d="M27.8 184.604C-1.82575 153.212 18.5974 108.461 61.5073 109.424C61.7876 109.435 61.9124 109.297 61.8819 109.012C60.5876 98.517 61.1736 88.8017 63.6398 79.8659C69.1049 60.0661 84.4146 43.3841 104.494 38.0807C120.147 33.9541 136.061 37.0949 150.132 45.1952C150.387 45.3429 150.573 45.2818 150.69 45.0118C161.093 21.1847 188.556 10.1652 212.846 16.783C222.125 19.315 230.329 24.4197 237.458 32.0972C237.662 32.3111 237.878 32.3239 238.108 32.1354C250.437 22.1323 266.572 19.4653 279.856 29.2773C280.569 29.8021 282.192 31.1725 284.725 33.3886C284.954 33.5873 285.143 33.5542 285.29 33.2893C307.64 -6.67724 359.148 -10.7427 389.936 21.5591C390.135 21.768 390.333 21.7655 390.532 21.5515C410.298 -0.189392 442.973 4.40333 457.389 29.4531C458 30.5178 459.284 33.0855 461.241 37.156C461.389 37.4566 461.542 37.4617 461.7 37.1713C473.249 15.7361 499.978 13.2525 514.622 33.358C514.826 33.6382 515.005 33.6229 515.157 33.3122C526.768 9.8519 553.397 -3.12383 577.871 8.07902C586.875 12.198 594.373 19.1902 600.129 27.3134C600.292 27.5376 600.483 27.5681 600.702 27.4051C610.532 20.0231 621.207 17.9853 632.728 21.2917C649.36 26.0678 656.751 39.5861 656.912 56.0924C656.917 56.3675 657.049 56.4592 657.309 56.3674C669.332 52.2027 682.953 52.7758 693.791 59.5312C709.414 69.2668 712.716 87.6911 709.361 104.984C709.31 105.244 709.399 105.308 709.628 105.176C715.559 101.747 722.074 100.547 729.172 101.576C752.867 105.015 775.071 126.855 770.798 152.073C768.918 163.138 761.878 172.844 753.073 179.782C752.823 179.976 752.834 180.157 753.104 180.325C761.058 185.287 767.407 191.627 772.151 199.345C774.831 203.701 776.612 208.273 777.494 213.062C782.898 242.292 758.248 265.745 729.921 264.767C723.924 264.558 717.615 263.236 710.996 260.801C710.691 260.688 710.543 260.798 710.553 261.129C712.135 298.23 677.029 321.148 643.07 307.339C639.824 306.019 636.672 304.481 633.615 302.723C633.536 302.68 633.441 302.681 633.364 302.727C633.287 302.772 633.24 302.855 633.24 302.945C633.248 307.301 633.645 311.817 632.95 315.944C629.204 338.074 615.24 354.817 594.289 363.009C574.776 370.651 554.773 366.891 537.881 354.924C529.576 349.04 522.936 341.291 517.963 331.678C517.928 331.604 517.851 331.561 517.769 331.569C517.688 331.578 517.622 331.637 517.603 331.716C511.145 354.504 481.97 362.031 469.167 339.343C469.138 339.294 469.086 339.265 469.03 339.265C468.973 339.265 468.921 339.294 468.892 339.343C452.199 365.86 422.696 385.002 390.349 381.136C363.266 377.906 342.952 364.403 329.408 340.627C329.32 340.467 329.151 340.37 328.968 340.373C328.785 340.376 328.616 340.479 328.529 340.642C319.303 358.256 296.091 366.861 281.576 349.078C279.843 346.959 278.279 344.723 276.883 342.369C276.725 342.099 276.564 342.099 276.401 342.369C275.285 344.254 274.18 346.098 273.084 347.901C263.346 363.865 246.279 373.647 227.384 370.101C213.06 367.411 201.55 356.269 195.687 343.141C195.634 343.023 195.519 342.945 195.391 342.938C195.262 342.932 195.14 342.998 195.075 343.11C191.628 349.208 185.735 355.192 179.238 357.843C164.815 363.735 151.562 353.786 145.822 341.154C145.748 340.993 145.613 340.868 145.448 340.807C145.282 340.747 145.1 340.756 144.943 340.833C122.891 351.279 97.6911 346.518 82.435 327.261C70.9317 312.742 68.8985 293.866 73.5228 276.252C73.6094 275.921 73.4948 275.822 73.1788 275.954C58.9315 282.098 44.9823 286.156 29.7032 280.432C20.1031 276.84 12.7222 270.551 7.56035 261.565C-7.99395 234.52 1.03289 200.866 29.2981 186.965C29.5784 186.828 29.6166 186.639 29.4128 186.4C28.8675 185.763 28.33 185.165 27.8 184.604C27.8 184.604 27.8 184.604 27.8 184.604ZM632.797 196.472C634.196 196.587 635.281 196.22 636.672 196.564C642.165 197.929 646.558 198.818 649.849 199.231C665.923 201.233 683.037 193.767 689.343 177.895C695.511 162.359 689.006 147.114 674.981 138.402C671.411 136.186 660.558 131.028 660.512 126.007C660.451 120.497 667.513 120.031 671.564 120.673C675.745 121.33 680.499 124.364 684.535 126.458C684.779 126.585 684.894 126.511 684.879 126.236C684.879 126.236 683.297 93.2391 683.297 93.2391C683.286 93.0506 683.202 93.0098 683.044 93.1168C678.81 95.9901 671.258 95.7608 666.412 94.8973C652.165 92.3526 632.308 96.5785 626.911 111.916C625.301 116.496 624.407 119.876 624.229 122.056C622.983 137.653 633.477 146.617 645.164 154.167C647.892 155.925 649.842 157.392 652.043 159.249C654.924 161.679 655.574 165.935 652.823 168.648C650.438 170.994 644.377 171.269 641.434 169.901C635.666 167.217 630.483 163.612 625.887 159.088C625.798 159.002 625.663 158.982 625.552 159.039C625.441 159.096 625.379 159.217 625.398 159.34C626.081 164.012 626.42 168.745 626.414 173.539C626.414 176.206 626.888 179.094 627.011 182.098C627.179 186.275 627.609 191.482 628.302 197.717C628.338 198.008 628.463 198.054 628.677 197.855C629.803 196.8 631.176 196.339 632.797 196.472C632.797 196.472 632.797 196.472 632.797 196.472ZM278.847 140.007C271.502 216.707 380.091 220.528 374.068 141.398C372.876 125.686 366.112 109.317 352.866 101.08C339.872 93.0022 323.339 91.6266 309.054 97.0523C290.717 104.022 280.704 120.581 278.847 140.007C278.847 140.007 278.847 140.007 278.847 140.007ZM412.813 144.057C412.813 144.057 435.177 182.755 435.177 182.755C435.381 183.112 435.587 183.112 435.796 182.755C435.796 182.755 458.069 144.141 458.069 144.141C458.136 144.033 458.264 143.978 458.388 144.006C458.512 144.033 458.605 144.137 458.619 144.263C459.919 157.308 461.211 170.368 462.265 183.488C462.77 189.762 460.125 192.063 457.228 196.93C457.075 197.185 457.149 197.312 457.45 197.312C469.394 197.343 481.341 197.343 493.29 197.312C495.025 197.305 497.257 196.854 499.481 197.473C499.606 197.514 499.743 197.459 499.807 197.343C499.87 197.228 499.842 197.083 499.741 196.999C494.497 192.269 493.412 187.317 492.869 179.775C491.218 156.87 489.595 133.954 488.001 111.029C487.557 104.74 489.384 100.323 494.123 96.3646C494.51 96.0436 494.452 95.8831 493.947 95.8831C493.947 95.8831 456.135 95.9443 456.135 95.9443C455.88 95.9443 455.694 96.0538 455.577 96.2728C455.577 96.2728 435.575 133.099 435.575 133.099C435.546 133.154 435.488 133.189 435.426 133.189C435.363 133.189 435.305 133.154 435.276 133.099C435.276 133.099 414.15 95.9825 414.15 95.9825C414.053 95.8092 413.903 95.7226 413.699 95.7226C413.699 95.7226 375.444 95.6233 375.444 95.6233C375.311 95.6253 375.194 95.7132 375.156 95.8407C375.117 95.9682 375.166 96.1059 375.276 96.1812C381.314 100.163 381.65 104.969 381.452 112.359C380.876 133.868 379.956 155.362 378.693 176.84C378.532 179.675 378.05 182.541 377.638 185.345C376.889 190.557 375.092 193.95 371.148 197.03C370.838 197.269 370.878 197.389 371.271 197.389C371.271 197.389 414.15 197.183 414.15 197.183C414.39 197.183 414.616 197.233 414.83 197.335C415.07 197.447 415.314 197.481 415.564 197.435C415.992 197.358 416.036 197.19 415.694 196.93C411.444 193.675 409.717 189.877 409.977 184.367C410.619 170.638 411.149 157.305 411.567 144.37C411.618 142.816 412.033 142.712 412.813 144.057C412.813 144.057 412.813 144.057 412.813 144.057ZM177.717 96.9759C181.794 101.23 183.83 106.085 183.824 111.541C183.794 133.605 183.786 155.672 183.802 177.742C183.809 186.347 182.846 191.688 176.609 197.014C176.41 197.188 176.443 197.274 176.708 197.274C176.708 197.274 221.866 197.206 221.866 197.206C222.171 197.206 222.207 197.111 221.973 196.923C217.28 193.125 215.896 189.014 215.789 182.709C215.662 175.037 215.652 167.357 215.759 159.669C215.759 159.43 215.878 159.31 216.118 159.31C216.118 159.31 240.347 159.31 240.347 159.31C240.602 159.31 240.729 159.437 240.729 159.692C240.76 165.622 240.763 171.55 240.737 177.474C240.707 186.064 239.935 191.642 233.713 196.9C233.649 196.953 233.625 197.04 233.652 197.118C233.679 197.196 233.752 197.25 233.835 197.251C233.835 197.251 278.052 197.297 278.052 197.297C279.102 197.302 279.216 196.976 278.396 196.319C273.099 192.101 272.48 186.285 272.472 179.095C272.457 157.219 272.457 135.345 272.472 113.475C272.48 105.81 273.581 100.942 279.076 96.1583C279.295 95.9698 279.26 95.8755 278.969 95.8755C278.969 95.8755 233.873 95.8832 233.873 95.8832C233.634 95.8832 233.603 95.9672 233.782 96.1354C238.864 100.919 240.523 106.467 240.385 113.467C240.268 119.728 240.184 126.025 240.133 132.357C240.128 132.602 240.003 132.724 239.759 132.724C239.759 132.724 215.919 132.77 215.919 132.77C215.61 132.77 215.358 132.522 215.353 132.212C215.297 124.744 215.308 117.301 215.384 109.883C215.44 104.681 217.692 100.122 222.141 96.2041C222.38 95.9902 222.339 95.8832 222.018 95.8832C222.018 95.8832 176.938 95.8832 176.938 95.8832C176.703 95.8832 176.647 95.9851 176.77 96.1888C176.976 96.5251 177.549 96.8002 177.717 96.9759C177.717 96.9759 177.717 96.9759 177.717 96.9759ZM577.856 176.068C579.247 180.577 580.593 185.101 581.892 189.64C582.814 192.86 582.264 195.397 580.241 197.251C580.022 197.455 580.06 197.555 580.356 197.549C592.758 197.391 605.158 197.31 617.556 197.305C619.016 197.305 620.308 196.778 621.974 197.672C622.045 197.707 622.094 197.687 622.119 197.611C622.119 197.611 622.203 197.351 622.203 197.351C622.244 197.223 622.216 197.119 622.119 197.037C617.579 193.232 614.269 188.308 612.19 182.266C603.569 157.242 594.962 132.21 586.371 107.17C584.835 102.684 584.292 99.6811 587.388 96.1582C587.459 96.0744 587.475 95.9569 587.429 95.8569C587.383 95.7568 587.284 95.6925 587.174 95.6921C587.174 95.6921 539.983 95.6921 539.983 95.6921C539.652 95.6921 539.604 95.8092 539.838 96.0436C542.472 98.6927 543.163 101.709 541.909 105.091C533.181 128.689 527.731 145.081 520.34 164.178C519.843 165.462 519.583 167.12 519.033 168.541C517.168 173.361 515.349 178.195 513.575 183.045C511.168 189.64 508.844 193.522 503.448 197.228C503.316 197.313 503.269 197.484 503.34 197.624C503.411 197.764 503.577 197.828 503.723 197.771C505.703 197.091 507.063 197.29 509.043 197.313C520.121 197.404 531.198 197.325 542.276 197.076C543.122 197.055 543.902 197.279 544.615 197.748C544.804 197.875 544.946 197.835 545.043 197.626C545.12 197.458 545.069 197.305 544.89 197.167C541.925 194.928 541.55 192.445 542.781 188.868C544.248 184.584 545.818 180.327 547.489 176.099C547.586 175.86 547.762 175.74 548.016 175.74C548.016 175.74 577.413 175.74 577.413 175.74C577.642 175.74 577.79 175.849 577.856 176.068C577.856 176.068 577.856 176.068 577.856 176.068ZM114.04 119.802C114.076 139.314 114.079 158.826 114.048 178.338C114.033 186.614 113.192 191.81 107.085 196.823C106.856 197.007 106.889 197.098 107.184 197.098C107.184 197.098 151.302 197.144 151.302 197.144C151.577 197.144 151.62 197.045 151.432 196.846C147.264 192.424 145.141 186.79 145.065 179.943C144.836 159.875 144.846 139.831 145.095 119.81C145.101 119.59 145.213 119.473 145.432 119.458C156.14 118.847 168.461 120.291 175.294 128.498C175.896 129.217 176.117 129.115 175.959 128.193C175.959 128.193 170.632 96.2422 170.632 96.2422C170.591 95.9875 170.441 95.8602 170.181 95.8602C170.181 95.8602 87.8159 95.9519 87.8159 95.9519C87.7019 95.9508 87.606 96.0335 87.5942 96.1429C87.5942 96.1429 83.1993 128.957 83.1993 128.957C83.1534 129.273 83.2553 129.331 83.505 129.132C85.8974 127.222 88.4885 125.059 90.942 123.745C97.7752 120.085 106.16 119.091 113.628 119.382C113.898 119.392 114.035 119.532 114.04 119.802C114.04 119.802 114.04 119.802 114.04 119.802ZM182.67 250.553C182.652 250.655 182.574 250.737 182.473 250.761C182.371 250.784 182.265 250.744 182.204 250.66C179.789 247.458 170.578 236.515 173.391 232.763C175.722 229.66 180.385 230.768 182.961 233.007C183.165 233.181 183.317 233.145 183.419 232.9C183.694 232.243 183.672 231.525 183.962 230.898C186.408 225.59 188.767 220.243 191.04 214.858C191.132 214.649 191.068 214.509 190.849 214.438C187.837 213.421 183.87 213.253 181.807 212.91C177.297 212.153 172.344 211.121 168.125 211.236C160.596 211.435 150.69 214.766 148.52 222.592C147.032 227.982 147.579 233.137 150.163 238.059C150.232 238.196 150.241 238.355 150.187 238.498C150.133 238.641 150.022 238.753 149.88 238.807C137.2 243.691 131.054 257.247 135.281 270.093C139.072 281.601 148.344 288.043 160.306 288.227C166.13 288.311 174.026 286.813 178.306 282.289C178.55 282.029 178.793 282.034 179.032 282.304C179.032 282.304 182.8 286.63 182.8 286.63C182.973 286.828 183.19 286.928 183.45 286.928C183.45 286.928 211.318 286.928 211.318 286.928C211.623 286.928 211.662 286.828 211.432 286.63C205.165 281.28 199.733 275.19 195.137 268.358C194.989 268.144 194.999 267.938 195.167 267.739C200.991 260.739 200.304 251.011 206.151 243.767C206.365 243.502 206.301 243.37 205.96 243.37C205.96 243.37 184.252 243.37 184.252 243.37C184.018 243.37 183.88 243.484 183.84 243.713C183.84 243.713 182.67 250.553 182.67 250.553C182.67 250.553 182.67 250.553 182.67 250.553ZM616.516 259.211C619.918 261.595 620.178 266.952 615.454 267.816C609.248 268.954 603.24 263.75 599.005 259.845C598.791 259.652 598.695 259.698 598.715 259.983C598.715 259.983 600.679 286.569 600.679 286.569C600.705 286.915 600.873 287.007 601.184 286.844C604.7 285.01 612.037 287.562 615.714 288.013C630.71 289.847 645.034 280.012 644.667 263.987C644.453 255.046 639.798 249.437 632.506 244.799C629.976 243.194 625.406 240.993 623.854 238.471C622.578 236.385 623.304 233.917 625.574 233.061C630.894 231.051 635.633 234.536 639.554 236.637C639.89 236.815 640.05 236.714 640.035 236.331C640.035 236.331 639.049 213.765 639.049 213.765C639.039 213.516 638.922 213.442 638.698 213.544C635.421 214.985 632.109 215.403 628.761 214.797C620.56 213.307 611.739 213.949 605.25 219.329C598.539 224.892 595.23 236.033 599.923 244.203C603.645 250.683 610.975 255.321 616.516 259.211C616.516 259.211 616.516 259.211 616.516 259.211ZM282.095 216.188C285.023 218.19 286.261 221.048 286.215 225.152C286.032 243.813 286.276 262.466 285.986 281.128C285.981 281.403 285.894 281.647 285.726 281.861C285.726 281.861 281.973 286.721 281.973 286.721C281.871 286.859 281.904 286.928 282.073 286.928C282.073 286.928 313.739 286.928 313.739 286.928C314.187 286.928 314.226 286.803 313.854 286.553C310.995 284.617 309.421 282.129 309.13 279.087C308.799 275.648 308.842 268.44 309.26 257.461C309.265 257.262 309.321 257.247 309.428 257.415C315.252 266.876 320.631 276.586 325.563 286.546C325.679 286.779 325.919 286.927 326.182 286.928C326.182 286.928 353.102 286.928 353.102 286.928C353.48 286.928 353.523 286.808 353.232 286.569C350.955 284.673 348.975 283.221 347.393 280.646C342.053 271.95 336.748 263.236 331.479 254.504C331.342 254.274 331.4 254.124 331.655 254.053C340.71 251.506 344.804 245.392 343.938 235.713C342.723 222.102 333.52 215.462 320.236 215.477C307.67 215.487 295.038 215.469 282.34 215.424C281.428 215.424 281.346 215.678 282.095 216.188C282.095 216.188 282.095 216.188 282.095 216.188ZM472.851 254.932C472.852 254.88 472.887 254.833 472.936 254.818C472.985 254.804 473.035 254.825 473.058 254.871C473.058 254.871 492.334 286.592 492.334 286.592C492.472 286.816 492.671 286.928 492.931 286.928C492.931 286.928 519.537 286.928 519.537 286.928C519.96 286.928 520.009 286.793 519.682 286.523C515.586 283.115 514.875 279.653 514.928 274.067C515.142 252.83 514.684 240.328 515.028 225.305C515.127 221.048 516.625 218.083 520.057 215.905C520.182 215.825 520.239 215.673 520.199 215.53C520.158 215.388 520.029 215.289 519.881 215.286C519.881 215.286 487.855 215.286 487.855 215.286C487.729 215.286 487.617 215.368 487.579 215.488C487.54 215.609 487.584 215.74 487.687 215.813C490.918 218.172 492.566 221.377 492.633 225.427C492.76 233.405 492.801 241.268 492.755 249.017C492.751 249.168 492.649 249.3 492.503 249.34C492.357 249.38 492.202 249.321 492.12 249.193C492.12 249.193 472.125 215.936 472.125 215.936C472.008 215.747 471.838 215.653 471.613 215.653C471.613 215.653 445.962 215.676 445.962 215.676C445.631 215.676 445.593 215.783 445.847 215.997C448.859 218.488 450.365 221.435 450.365 224.838C450.36 241.62 450.36 258.401 450.365 275.182C450.372 280.203 449.386 283.466 445.893 286.691C445.73 286.844 445.761 286.92 445.985 286.92C445.985 286.92 477.69 286.935 477.69 286.935C477.764 286.934 477.83 286.887 477.854 286.817C477.878 286.746 477.855 286.668 477.797 286.622C473.929 283.565 472.913 280.035 472.905 274.861C472.885 268.218 472.867 261.575 472.851 254.932C472.851 254.932 472.851 254.932 472.851 254.932ZM275.117 233.038C277.066 232.939 279.084 234.482 280.238 235.904C280.298 235.972 280.395 235.995 280.48 235.96C280.564 235.926 280.618 235.842 280.613 235.751C280.613 235.751 278.602 215.951 278.602 215.951C278.572 215.635 278.399 215.477 278.083 215.477C278.083 215.477 229.509 215.477 229.509 215.477C229.42 215.474 229.339 215.527 229.308 215.611C229.276 215.694 229.302 215.788 229.371 215.844C233.208 219.099 234.126 222.462 234.087 227.75C233.955 243.792 233.947 259.838 234.064 275.885C234.103 280.852 232.803 283.955 228.974 286.775C228.663 287.004 228.701 287.119 229.089 287.119C229.089 287.119 261.183 287.119 261.183 287.119C261.474 287.119 261.509 287.025 261.29 286.836C257.614 283.619 256.781 280.409 256.788 275.259C256.788 270.572 256.776 265.877 256.75 261.175C256.75 260.9 256.888 260.762 257.163 260.762C261.209 260.747 265.252 260.744 269.293 260.755C272.939 260.762 274.727 262.008 276.875 264.652C276.915 264.702 276.981 264.721 277.042 264.699C277.103 264.677 277.146 264.618 277.15 264.553C277.15 264.553 277.257 240.45 277.257 240.45C277.257 240.191 277.168 240.155 276.99 240.343C272.579 244.99 264.997 243.713 257.193 243.461C256.908 243.451 256.765 243.306 256.765 243.026C256.765 243.026 256.811 233.366 256.811 233.366C256.811 233.066 256.961 232.918 257.262 232.923C263.216 232.961 269.262 233.321 275.117 233.038C275.117 233.038 275.117 233.038 275.117 233.038ZM356.45 216.218C359.363 218.679 360.731 221.285 360.738 225.327C360.754 242.032 360.754 258.74 360.738 275.45C360.731 280.402 359.806 283.458 356.198 286.515C355.872 286.79 355.923 286.928 356.351 286.928C356.351 286.928 387.88 286.928 387.88 286.928C388.277 286.928 388.328 286.798 388.033 286.538C385.014 283.894 383.095 280.936 383.103 276.718C383.108 259.168 383.105 241.607 383.095 224.036C383.095 220.78 385.854 218.045 388.079 215.951C388.41 215.635 388.349 215.477 387.895 215.477C387.895 215.477 356.007 215.477 356.007 215.477C355.923 215.475 355.846 215.523 355.81 215.599C355.774 215.674 355.785 215.764 355.839 215.829C356.03 216.05 356.267 216.065 356.45 216.218C356.45 216.218 356.45 216.218 356.45 216.218ZM419.409 242.07C419.409 242.07 419.409 233.428 419.409 233.428C419.409 233.127 419.559 232.969 419.86 232.954C425.215 232.714 430.571 232.768 435.926 233.114C438.28 233.267 439.794 234.268 441.567 235.628C441.898 235.883 442.038 235.804 441.987 235.392C441.987 235.392 439.565 215.882 439.565 215.882C439.534 215.612 439.381 215.477 439.106 215.477C439.106 215.477 392.313 215.477 392.313 215.477C392.237 215.477 392.168 215.524 392.141 215.595C392.114 215.667 392.134 215.747 392.191 215.798C395.944 219.206 396.922 222.645 396.876 227.994C396.764 241.255 396.772 254.516 396.899 267.777C396.976 276.031 397.878 282.091 391.755 286.729C391.409 286.989 391.452 287.119 391.885 287.119C391.885 287.119 441.567 287.119 441.567 287.119C441.779 287.117 441.957 286.961 441.988 286.752C441.988 286.752 444.525 267.074 444.525 267.074C444.549 266.917 444.462 266.765 444.315 266.705C444.168 266.645 443.999 266.694 443.906 266.822C442.278 269.023 439.847 269.52 436.989 269.535C431.277 269.576 425.547 269.571 419.799 269.52C419.539 269.515 419.409 269.385 419.409 269.13C419.409 269.13 419.409 260.036 419.409 260.036C419.409 259.797 419.526 259.675 419.761 259.669C427.091 259.524 435.728 257.927 439.213 263.192C439.514 263.646 439.664 263.6 439.664 263.055C439.664 263.055 439.664 239.755 439.664 239.755C439.664 239.505 439.575 239.47 439.397 239.648C435.017 244.103 424.523 242.628 419.929 242.59C419.582 242.59 419.409 242.417 419.409 242.07C419.409 242.07 419.409 242.07 419.409 242.07ZM524.658 216.47C527.861 219.328 528.694 222.232 528.694 226.764C528.714 242.832 528.717 258.903 528.702 274.976C528.694 280.004 527.739 283.191 524.353 286.538C524.088 286.798 524.141 286.928 524.513 286.928C536.534 286.984 548.554 286.902 560.575 286.683C567.8 286.551 574.103 284.762 579.484 281.319C595.65 270.987 597.492 243.706 586.486 228.835C579.844 219.848 568.447 215.477 557.173 215.454C546.111 215.439 535.041 215.457 523.963 215.508C523.891 215.505 523.826 215.544 523.792 215.608C523.758 215.672 523.762 215.751 523.802 215.813C524.039 216.165 524.414 216.241 524.658 216.47C524.658 216.47 524.658 216.47 524.658 216.47Z" fill="#FFFFFF" fill-opacity="0" transform="translate(20.245 18.071)" />
    <path id="Shape" d="M354.307 103.413C352.686 103.281 351.313 103.742 350.187 104.796C349.973 104.995 349.848 104.949 349.812 104.659C349.119 98.4231 348.689 93.2165 348.521 89.039C348.398 86.0358 347.924 83.1472 347.924 80.4802C347.93 75.6862 347.591 70.9534 346.908 66.2818C346.889 66.1586 346.951 66.0372 347.062 65.9801C347.173 65.923 347.308 65.9429 347.397 66.0296C351.993 70.5535 357.175 74.1579 362.944 76.8427C365.886 78.2106 371.948 77.9355 374.332 75.5895C377.084 72.8766 376.434 68.6202 373.553 66.1901C371.351 64.3331 369.402 62.8659 366.674 61.1083C354.987 53.5582 344.492 44.5944 345.738 28.9975C345.917 26.8171 346.811 23.4368 348.421 18.8569C353.817 3.51981 373.675 -0.7061 387.922 1.83862C392.768 2.70215 400.32 2.9314 404.554 0.0580978C404.712 -0.0488739 404.796 -0.00813293 404.806 0.180374C404.806 0.180374 406.389 33.1776 406.389 33.1776C406.404 33.4527 406.289 33.5266 406.045 33.3992C402.009 31.3054 397.255 28.2716 393.074 27.6144C389.023 26.9725 381.96 27.4386 382.022 32.9483C382.068 37.969 392.921 43.1272 396.491 45.3433C410.516 54.055 417.021 69.3003 410.853 84.8361C404.547 100.708 387.433 108.174 371.359 106.172C368.067 105.759 363.675 104.87 358.182 103.505C356.791 103.161 355.705 103.528 354.307 103.413C354.307 103.413 354.307 103.413 354.307 103.413ZM95.578 48.3388C101.601 127.469 -6.98856 123.649 0.35672 46.948C2.21405 27.5225 12.2269 10.9628 30.5634 3.9935C44.8489 -1.43217 61.3815 -0.0566406 74.3753 8.02071C87.6213 16.2586 94.3857 32.6273 95.578 48.3388C95.578 48.3388 95.578 48.3388 95.578 48.3388ZM39.7508 72.8308C45.2158 78.2794 53.6617 76.8045 58.0949 70.9586C63.1013 64.3484 63.3077 56.3857 62.6886 48.721C62.1688 42.2484 59.1038 34.6677 53.1878 31.8173C48.3343 29.479 42.8463 30.801 39.1164 34.6677C30.2271 43.8761 31.1214 64.2414 39.7508 72.8308C39.7508 72.8308 39.7508 72.8308 39.7508 72.8308Z" fill="#FFFFFF" fill-opacity="0.122" transform="translate(298.735 111.13)" />
    <path id="Shape" d="M351.989 87.1317C351.989 87.1317 329.624 48.4337 329.624 48.4337C328.844 47.0887 328.429 47.1931 328.378 48.747C327.96 61.682 327.43 75.0143 326.788 88.744C326.528 94.2538 328.256 98.0517 332.505 101.307C332.847 101.567 332.804 101.735 332.376 101.811C332.126 101.857 331.881 101.824 331.642 101.712C331.428 101.61 331.201 101.559 330.962 101.559C330.962 101.559 288.082 101.766 288.082 101.766C287.69 101.766 287.649 101.646 287.96 101.406C291.904 98.3268 293.7 94.9339 294.449 89.7222C294.862 86.9177 295.343 84.052 295.504 81.2169C296.768 59.7384 297.687 38.2446 298.263 16.7355C298.462 9.34593 298.126 4.53927 292.087 0.557884C291.977 0.482651 291.929 0.34494 291.967 0.217445C292.006 0.0899506 292.122 0.00200653 292.255 0C292.255 0 330.511 0.09935 330.511 0.09935C330.714 0.09935 330.865 0.185959 330.962 0.359161C330.962 0.359161 352.088 37.4753 352.088 37.4753C352.117 37.5308 352.174 37.5656 352.237 37.5656C352.299 37.5656 352.357 37.5308 352.386 37.4753C352.386 37.4753 372.389 0.649559 372.389 0.649559C372.506 0.430504 372.692 0.320969 372.947 0.320969C372.947 0.320969 410.758 0.259842 410.758 0.259842C411.263 0.259842 411.321 0.420311 410.934 0.74128C406.195 4.69971 404.369 9.11667 404.812 15.4059C406.407 38.3312 408.03 61.2464 409.681 84.1513C410.223 91.6938 411.309 96.6456 416.552 101.376C416.654 101.46 416.681 101.604 416.618 101.72C416.554 101.836 416.418 101.89 416.292 101.85C414.068 101.231 411.836 101.682 410.101 101.689C398.152 101.72 386.205 101.72 374.261 101.689C373.961 101.689 373.887 101.562 374.04 101.307C376.936 96.4393 379.581 94.1391 379.077 87.8652C378.022 74.7442 376.73 61.6844 375.431 48.6399C375.416 48.5135 375.323 48.4101 375.199 48.3825C375.075 48.3549 374.947 48.4092 374.88 48.5176C374.88 48.5176 352.607 87.1315 352.607 87.1315C352.399 87.4881 352.192 87.4881 351.988 87.1315C351.988 87.1315 351.989 87.1317 351.989 87.1317ZM94.5287 1.35259C94.3606 1.17683 93.7873 0.901733 93.581 0.565491C93.4587 0.36171 93.5147 0.259827 93.7491 0.259827C93.7491 0.259827 138.83 0.259827 138.83 0.259827C139.151 0.259827 139.192 0.366821 138.952 0.580788C134.504 4.49848 132.251 9.05807 132.195 14.2596C132.119 21.6772 132.109 29.1203 132.165 36.5889C132.169 36.8982 132.421 37.1468 132.73 37.1467C132.73 37.1467 156.57 37.1009 156.57 37.1009C156.815 37.1009 156.939 36.9786 156.945 36.7341C156.995 30.4016 157.08 24.1047 157.197 17.8436C157.334 10.8437 155.676 5.29575 150.593 0.512016C150.415 0.343895 150.445 0.25985 150.685 0.25985C150.685 0.25985 195.781 0.252197 195.781 0.252197C196.071 0.252197 196.107 0.346436 195.888 0.534943C190.392 5.3187 189.291 10.1865 189.284 17.8512C189.268 39.722 189.268 61.5953 189.284 83.4712C189.291 90.6621 189.91 96.4775 195.207 100.696C196.028 101.353 195.913 101.679 194.863 101.674C194.863 101.674 150.646 101.628 150.646 101.628C150.563 101.626 150.491 101.573 150.463 101.495C150.436 101.416 150.46 101.329 150.524 101.277C156.746 96.0191 157.518 90.4406 157.548 81.8512C157.574 75.9263 157.571 69.9988 157.541 64.0688C157.541 63.8141 157.413 63.6867 157.159 63.6867C157.159 63.6867 132.929 63.6867 132.929 63.6867C132.69 63.6867 132.57 63.8064 132.57 64.0459C132.463 71.7335 132.473 79.4135 132.6 87.0859C132.707 93.3903 134.091 97.5016 138.784 101.3C139.018 101.488 138.983 101.582 138.677 101.582C138.677 101.582 93.5197 101.651 93.5197 101.651C93.2548 101.651 93.2216 101.564 93.4204 101.391C99.6574 96.065 100.62 90.7233 100.613 82.1187C100.597 60.0492 100.605 37.9823 100.636 15.9179C100.641 10.4617 98.6051 5.60662 94.5287 1.35268C94.5287 1.35268 94.5287 1.35259 94.5287 1.35259ZM494.224 80.1165C494.224 80.1165 464.828 80.1165 464.828 80.1165C464.573 80.1165 464.397 80.2362 464.3 80.4756C462.629 84.7041 461.06 88.9605 459.592 93.2451C458.362 96.8214 458.736 99.305 461.702 101.544C461.88 101.682 461.931 101.834 461.855 102.003C461.758 102.211 461.615 102.252 461.427 102.125C460.713 101.656 459.934 101.432 459.088 101.452C448.01 101.702 436.932 101.781 425.854 101.689C423.875 101.666 422.514 101.468 420.534 102.148C420.388 102.204 420.222 102.141 420.151 102.001C420.08 101.861 420.127 101.69 420.259 101.605C425.656 97.8988 427.979 94.0168 430.387 87.4219C432.16 82.5719 433.979 77.7372 435.844 72.9178C436.395 71.4964 436.654 69.8381 437.151 68.5543C444.542 49.4575 449.992 33.0659 458.721 9.46805C459.974 6.08529 459.284 3.06931 456.649 0.420181C456.415 0.185829 456.464 0.0686646 456.795 0.0686646C456.795 0.0686646 503.985 0.0686646 503.985 0.0686646C504.095 0.0691299 504.195 0.133423 504.241 0.233452C504.287 0.33345 504.27 0.451035 504.199 0.534805C501.103 4.05766 501.646 7.06089 503.182 11.5466C511.774 36.5862 520.38 61.6181 529.002 86.6424C531.081 92.6845 534.39 97.6084 538.931 101.414C539.027 101.495 539.055 101.6 539.015 101.727C539.015 101.727 538.931 101.987 538.931 101.987C538.905 102.064 538.857 102.084 538.785 102.048C537.119 101.154 535.827 101.681 534.367 101.681C521.97 101.687 509.57 101.768 497.167 101.926C496.872 101.931 496.833 101.832 497.052 101.628C499.075 99.7736 499.626 97.2365 498.703 94.0168C497.404 89.4775 496.059 84.9536 494.668 80.4449C494.601 80.2259 494.454 80.1163 494.224 80.1163C494.224 80.1163 494.224 80.1165 494.224 80.1165ZM470.599 57.0231C470.571 57.1077 470.587 57.2002 470.64 57.2715C470.693 57.3428 470.777 57.384 470.866 57.3822C470.866 57.3822 488.323 57.3822 488.323 57.3822C488.412 57.384 488.497 57.3428 488.55 57.2715C488.603 57.2002 488.618 57.1077 488.591 57.0231C488.591 57.0231 479.855 29.4591 479.855 29.4591C479.816 29.3485 479.712 29.2744 479.595 29.2744C479.478 29.2744 479.373 29.3485 479.335 29.4591C479.335 29.4591 470.599 57.0231 470.599 57.0231C470.599 57.0231 470.599 57.0231 470.599 57.0231ZM30.439 23.7584C22.9714 23.468 14.5866 24.4614 7.75343 28.1218C5.2999 29.4362 2.70879 31.5988 0.316406 33.5093C0.0667267 33.708 -0.0351791 33.6494 0.0106735 33.3335C0.0106735 33.3335 4.40562 0.519684 4.40562 0.519684C4.41738 0.410233 4.51327 0.327583 4.62729 0.328636C4.62729 0.328636 86.9924 0.236938 86.9924 0.236938C87.2523 0.236938 87.4026 0.364296 87.4434 0.619026C87.4434 0.619026 92.7708 32.5693 92.7708 32.5693C92.9287 33.4914 92.7071 33.5933 92.1058 32.875C85.2726 24.6677 72.9515 23.2234 62.2431 23.8348C62.024 23.85 61.9119 23.9672 61.9068 24.1863C61.6571 44.2077 61.6469 64.2522 61.8762 84.3195C61.9526 91.1666 64.0749 96.8011 68.2431 101.223C68.4317 101.422 68.3884 101.521 68.1132 101.521C68.1132 101.521 23.9956 101.475 23.9956 101.475C23.7 101.475 23.6669 101.384 23.8962 101.2C30.0033 96.1872 30.844 90.9908 30.8593 82.7148C30.8899 63.2027 30.8873 43.6907 30.8517 24.1787C30.8465 23.9087 30.709 23.7686 30.4389 23.7584C30.4389 23.7584 30.439 23.7584 30.439 23.7584Z" fill="#FFFFFF" fill-opacity="0.122" transform="translate(103.434 113.694)" />
    <path id="Shape" d="M6.89917 42.1731C-1.73019 33.5838 -2.62448 13.2184 6.26477 4.01007C9.99475 0.143326 15.4827 -1.17871 20.3362 1.15968C26.2522 4.01007 29.3172 11.5907 29.8369 18.0633C30.4561 25.728 30.2497 33.6908 25.2433 40.3009C20.8101 46.1469 12.3642 47.6217 6.89914 42.1731C6.89914 42.1731 6.89917 42.1731 6.89917 42.1731ZM242.445 28.93C242.445 28.93 251.182 1.36606 251.182 1.36606C251.22 1.25545 251.325 1.18134 251.442 1.18134C251.559 1.18134 251.663 1.25545 251.702 1.36606C251.702 1.36606 260.438 28.93 260.438 28.93C260.465 29.0146 260.45 29.1071 260.397 29.1784C260.344 29.2497 260.26 29.2909 260.171 29.2891C260.171 29.2891 242.713 29.2891 242.713 29.2891C242.624 29.2909 242.54 29.2497 242.487 29.1784C242.434 29.1071 242.419 29.0146 242.446 28.93C242.446 28.93 242.445 28.93 242.445 28.93Z" fill="#FFFFFF" fill-opacity="0" transform="translate(331.587 141.787)" />
    <path id="Shape" d="M48.7152 39.3257C48.7152 39.3257 49.8847 32.4863 49.8847 32.4863C49.9255 32.2571 50.063 32.1424 50.2974 32.1424C50.2974 32.1424 72.0047 32.1424 72.0047 32.1424C72.3461 32.1424 72.4097 32.2749 72.1957 32.5398C66.3485 39.7842 67.0365 49.5122 61.2122 56.5121C61.044 56.7108 61.0338 56.9171 61.1816 57.1311C65.7779 63.9628 71.2098 70.0533 77.4774 75.4025C77.7066 75.6012 77.6684 75.7006 77.3627 75.7006C77.3627 75.7006 49.4949 75.7006 49.4949 75.7006C49.235 75.7006 49.0184 75.6012 48.8452 75.4025C48.8452 75.4025 45.077 71.0773 45.077 71.0773C44.8376 70.8073 44.5955 70.8022 44.3509 71.062C40.0706 75.5859 32.175 77.0837 26.3507 76.9997C14.3888 76.8163 5.11742 70.3743 1.32631 58.8657C-2.90048 46.0199 3.2448 32.4634 15.9252 27.5803C16.0668 27.5262 16.1784 27.4139 16.2323 27.2711C16.2863 27.1283 16.2774 26.9686 16.208 26.8314C13.6245 21.9101 13.0767 16.7545 14.5647 11.3645C16.7354 3.53928 26.6412 0.207474 34.17 0.00878906C38.3891 -0.105865 43.342 0.925812 47.8516 1.68234C49.9153 2.02623 53.8823 2.19432 56.8938 3.21069C57.1129 3.28201 57.1766 3.42212 57.0849 3.63098C54.8122 9.01591 52.453 14.3626 50.0071 19.6711C49.7166 20.2977 49.7396 21.016 49.4644 21.6732C49.3624 21.9178 49.2096 21.9534 49.0058 21.7802C46.43 19.5412 41.7675 18.4331 39.4362 21.5357C36.6235 25.2878 45.8338 36.2308 48.2491 39.4327C48.3103 39.5171 48.416 39.5567 48.5176 39.5334C48.6192 39.5101 48.6971 39.4283 48.7153 39.3257C48.7153 39.3257 48.7152 39.3257 48.7152 39.3257ZM33.91 54.9532C33.91 54.9532 25.1965 42.6958 25.1965 42.6958C25.1302 42.5999 25.0281 42.5345 24.9132 42.5144C24.7983 42.4942 24.68 42.5211 24.5851 42.5888C24.5851 42.5888 24.4704 42.6728 24.4704 42.6728C22.8085 43.8537 21.6913 45.6584 21.3657 47.6892C21.04 49.72 21.5325 51.8105 22.7348 53.5005C22.7348 53.5005 22.8877 53.7221 22.8877 53.7221C24.0892 55.4128 25.9022 56.5648 27.9278 56.9245C29.9534 57.2843 32.0254 56.8223 33.6878 55.6402C33.6878 55.6402 33.8101 55.5561 33.8101 55.5561C34.0027 55.4159 34.047 55.147 33.9094 54.9524C33.9094 54.9524 33.91 54.9532 33.91 54.9532ZM482.561 47.9837C477.02 44.094 469.69 39.4555 465.968 32.9752C461.275 24.8062 464.584 13.6644 471.295 8.10126C477.784 2.72145 486.605 2.07953 494.806 3.56969C498.154 4.17593 501.466 3.75816 504.742 2.31642C504.967 2.21451 505.084 2.28839 505.094 2.53801C505.094 2.53801 506.08 25.1042 506.08 25.1042C506.095 25.4863 505.935 25.5882 505.599 25.4099C501.677 23.3084 496.939 19.8238 491.619 21.8336C489.349 22.6894 488.622 25.1577 489.899 27.2439C491.451 29.7657 496.021 31.9666 498.551 33.5714C505.843 38.2099 510.498 43.819 510.712 52.7599C511.079 68.7847 496.755 78.6197 481.759 76.7856C478.082 76.3347 470.745 73.7824 467.229 75.6164C466.918 75.7794 466.75 75.6877 466.724 75.3413C466.724 75.3413 464.76 48.7556 464.76 48.7556C464.739 48.4703 464.836 48.4244 465.05 48.618C469.285 52.523 475.292 57.727 481.499 56.5884C486.223 55.7249 485.963 50.368 482.561 47.9837C482.561 47.9837 482.561 47.9837 482.561 47.9837ZM152.26 13.9243C152.306 9.82065 151.068 6.96263 148.14 4.96048C147.391 4.45102 147.473 4.1963 148.385 4.1963C161.083 4.24216 173.715 4.26001 186.281 4.2498C199.565 4.2345 208.768 10.8752 209.983 24.4852C210.849 34.1648 206.755 40.2782 197.7 42.8255C197.445 42.8968 197.387 43.0471 197.524 43.2764C202.793 52.0084 208.098 60.7226 213.438 69.419C215.02 71.9942 217 73.4462 219.277 75.3413C219.568 75.5807 219.525 75.7005 219.148 75.7005C219.148 75.7005 192.228 75.7005 192.228 75.7005C191.964 75.6999 191.724 75.552 191.608 75.3184C186.676 65.3586 181.297 55.6484 175.473 46.1879C175.366 46.0198 175.31 46.035 175.305 46.2337C174.887 57.2124 174.844 64.4212 175.175 67.86C175.466 70.9014 177.04 73.3901 179.899 75.326C180.271 75.5756 180.233 75.7005 179.784 75.7005C179.784 75.7005 148.118 75.7005 148.118 75.7005C147.949 75.7005 147.916 75.6317 148.018 75.4941C148.018 75.4941 151.771 70.634 151.771 70.634C151.939 70.42 152.026 70.1755 152.031 69.9003C152.321 51.2391 152.077 32.5855 152.26 13.9243C152.26 13.9243 152.26 13.9243 152.26 13.9243ZM174.816 20.1371C174.816 20.1371 174.831 32.9752 174.831 32.9752C174.831 33.1043 174.883 33.2279 174.975 33.3184C175.067 33.4089 175.191 33.4587 175.32 33.4567C175.32 33.4567 180.281 33.449 180.281 33.449C184.026 33.4401 187.056 30.7728 187.053 27.4884C187.053 27.4884 187.053 25.5933 187.053 25.5933C187.051 24.0128 186.333 22.4982 185.057 21.383C183.781 20.2678 182.052 19.6436 180.25 19.648C180.25 19.648 175.29 19.6556 175.29 19.6556C175.027 19.6598 174.816 19.8741 174.816 20.1371C174.816 20.1371 174.816 20.1371 174.816 20.1371ZM338.896 43.7044C338.912 50.3476 338.929 56.9909 338.95 63.6341C338.957 68.8076 339.974 72.3382 343.842 75.3949C343.9 75.4412 343.923 75.519 343.898 75.5892C343.874 75.6596 343.809 75.7072 343.735 75.7082C343.735 75.7082 312.03 75.6929 312.03 75.6929C311.806 75.6929 311.775 75.6165 311.938 75.4636C315.431 72.2388 316.417 68.9758 316.409 63.9551C316.404 47.1738 316.404 30.3924 316.409 13.6111C316.409 10.208 314.904 7.26076 311.892 4.76953C311.637 4.55559 311.676 4.44859 312.007 4.44859C312.007 4.44859 337.658 4.42564 337.658 4.42564C337.882 4.42564 338.053 4.51991 338.17 4.70839C338.17 4.70839 358.165 37.9654 358.165 37.9654C358.246 38.0934 358.402 38.1532 358.548 38.1128C358.694 38.0724 358.796 37.9411 358.8 37.7897C358.846 30.0409 358.805 22.1775 358.677 14.1995C358.611 10.1494 356.963 6.9449 353.732 4.58614C353.629 4.513 353.585 4.38152 353.623 4.26105C353.662 4.14056 353.774 4.05881 353.9 4.05885C353.9 4.05885 385.926 4.05885 385.926 4.05885C386.074 4.06151 386.203 4.16072 386.244 4.30316C386.284 4.4456 386.226 4.5977 386.102 4.6778C382.67 6.85568 381.172 9.82069 381.073 14.0772C380.729 29.1009 381.187 41.6029 380.973 62.8394C380.92 68.4255 381.63 71.8873 385.727 75.2955C386.053 75.5655 386.005 75.7005 385.582 75.7005C385.582 75.7005 358.976 75.7005 358.976 75.7005C358.716 75.7005 358.517 75.5884 358.379 75.3643C358.379 75.3643 339.103 43.6432 339.103 43.6432C339.08 43.5979 339.03 43.5762 338.981 43.5907C338.932 43.6052 338.897 43.6523 338.896 43.7044C338.896 43.7044 338.896 43.7044 338.896 43.7044ZM146.283 24.6765C145.129 23.2551 143.111 21.7115 141.162 21.8108C135.307 22.0936 129.261 21.7344 123.307 21.6962C123.006 21.6911 122.856 21.8388 122.856 22.1394C122.856 22.1394 122.81 31.7987 122.81 31.7987C122.81 32.0788 122.953 32.224 123.238 32.2342C131.042 32.4864 138.624 33.7626 143.035 29.1164C143.213 28.9279 143.302 28.9635 143.302 29.2234C143.302 29.2234 143.195 53.3255 143.195 53.3255C143.191 53.3914 143.148 53.4495 143.087 53.4715C143.026 53.4936 142.96 53.475 142.92 53.4249C140.772 50.7808 138.984 49.5352 135.338 49.5276C131.297 49.5174 127.254 49.5199 123.208 49.5352C122.933 49.5352 122.795 49.6728 122.795 49.9479C122.82 54.6501 122.833 59.3447 122.833 64.0317C122.826 69.1822 123.659 72.3918 127.335 75.609C127.554 75.7975 127.519 75.8917 127.228 75.8917C127.228 75.8917 95.1335 75.8917 95.1335 75.8917C94.7463 75.8917 94.708 75.7771 95.0189 75.5478C98.8482 72.728 100.148 69.6255 100.109 64.6583C99.9922 48.6105 99.9998 32.5654 100.132 16.5227C100.171 11.2346 99.2533 7.87222 95.4164 4.61682C95.3471 4.56099 95.3214 4.46706 95.3526 4.38376C95.3839 4.30045 95.465 4.24654 95.5539 4.25003C95.5539 4.25003 144.128 4.25003 144.128 4.25003C144.443 4.25003 144.617 4.40796 144.647 4.72382C144.647 4.72382 146.658 24.5237 146.658 24.5237C146.662 24.6148 146.609 24.699 146.525 24.7334C146.44 24.7679 146.343 24.7451 146.283 24.6765C146.283 24.6765 146.283 24.6765 146.283 24.6765ZM222.495 4.99121C222.312 4.83838 222.075 4.82312 221.884 4.60149C221.83 4.5372 221.818 4.44733 221.855 4.37158C221.891 4.29584 221.968 4.24831 222.052 4.24994C222.052 4.24994 253.94 4.24994 253.94 4.24994C254.394 4.24994 254.455 4.40787 254.124 4.72372C251.899 6.81757 249.14 9.55333 249.14 12.8087C249.15 30.3797 249.153 47.9406 249.148 65.4912C249.14 69.7095 251.059 72.6668 254.078 75.3109C254.373 75.5707 254.322 75.7006 253.925 75.7006C253.925 75.7006 222.396 75.7006 222.396 75.7006C221.968 75.7006 221.917 75.5631 222.243 75.2879C225.851 72.2312 226.776 69.1745 226.783 64.2227C226.798 47.5126 226.798 30.8052 226.783 14.1003C226.776 10.0578 225.407 7.45189 222.495 4.99126C222.495 4.99126 222.495 4.99121 222.495 4.99121ZM285.973 31.363C290.567 31.4011 301.061 32.876 305.441 28.4209C305.619 28.2426 305.709 28.2782 305.709 28.5279C305.709 28.5279 305.709 51.8277 305.709 51.8277C305.709 52.3728 305.558 52.4186 305.258 51.9652C301.772 46.7 293.135 48.2972 285.805 48.4424C285.571 48.4474 285.454 48.5697 285.454 48.8092C285.454 48.8092 285.454 57.9029 285.454 57.9029C285.454 58.1576 285.584 58.2876 285.843 58.2926C291.591 58.3436 297.321 58.3486 303.033 58.3079C305.892 58.2926 308.323 57.7959 309.951 55.5951C310.043 55.4664 310.212 55.4179 310.359 55.4778C310.506 55.5377 310.593 55.6904 310.57 55.8473C310.57 55.8473 308.032 75.5249 308.032 75.5249C308.002 75.7342 307.823 75.89 307.612 75.8917C307.612 75.8917 257.93 75.8917 257.93 75.8917C257.497 75.8917 257.453 75.7618 257.8 75.5019C263.922 70.8634 263.02 64.8034 262.944 56.5503C262.816 43.2893 262.809 30.0282 262.921 16.7672C262.967 11.418 261.988 7.97916 258.235 4.57091C258.178 4.5204 258.158 4.43956 258.185 4.36812C258.213 4.29671 258.281 4.24965 258.358 4.25002C258.358 4.25002 305.151 4.25002 305.151 4.25002C305.426 4.25002 305.579 4.38504 305.609 4.65504C305.609 4.65504 308.032 24.1645 308.032 24.1645C308.083 24.5772 307.943 24.6561 307.612 24.4014C305.838 23.0412 304.325 22.0401 301.971 21.8873C296.615 21.5409 291.26 21.4874 285.904 21.7268C285.604 21.7421 285.453 21.9 285.453 22.2006C285.453 22.2006 285.453 30.8435 285.453 30.8435C285.453 31.1899 285.627 31.3631 285.973 31.3631C285.973 31.3631 285.973 31.363 285.973 31.363ZM390.703 5.24333C390.459 5.01408 390.084 4.93765 389.847 4.58615C389.807 4.52431 389.803 4.44525 389.837 4.38107C389.87 4.31685 389.936 4.27809 390.008 4.28046C401.085 4.22954 412.156 4.21172 423.218 4.22696C434.492 4.24991 445.888 8.62099 452.531 17.6077C463.537 32.4787 461.695 59.7598 445.529 70.0915C440.148 73.5354 433.845 75.3236 426.62 75.456C414.599 75.6751 402.578 75.7566 390.558 75.7006C390.186 75.7006 390.133 75.5707 390.397 75.3108C393.784 71.9637 394.739 68.7771 394.747 63.7488C394.762 47.6756 394.759 31.6049 394.739 15.5368C394.739 11.0052 393.906 8.10135 390.703 5.24333C390.703 5.24333 390.703 5.24333 390.703 5.24333ZM417.524 23.0105C417.524 23.0105 417.463 56.3745 417.463 56.3745C417.463 56.6361 417.675 56.8483 417.936 56.8483C417.936 56.8483 423.822 56.8559 423.822 56.8559C430.413 56.8674 435.769 50.6521 435.784 42.9723C435.784 42.9723 435.799 36.4768 435.799 36.4768C435.806 32.7875 434.554 29.247 432.319 26.6343C430.085 24.0217 427.05 22.5509 423.883 22.5459C423.883 22.5459 417.997 22.5382 417.997 22.5382C417.736 22.5382 417.524 22.7504 417.524 23.012C417.524 23.012 417.524 23.0105 417.524 23.0105Z" fill="#FFFFFF" fill-opacity="0.122" transform="translate(154.2 229.298)" />
    <path id="Shape" d="M153.548 0.489105C153.548 0.226135 153.759 0.0118103 154.021 0.00765991C154.021 0.00765991 158.982 1.52588e-05 158.982 1.52588e-05C160.784 -0.00427246 162.513 0.61998 163.789 1.73518C165.065 2.85039 165.783 4.36504 165.785 5.94534C165.785 5.94534 165.785 7.8405 165.785 7.8405C165.788 11.1253 162.757 13.7924 159.012 13.8011C159.012 13.8011 154.052 13.8087 154.052 13.8087C153.923 13.8108 153.798 13.761 153.706 13.6704C153.614 13.5799 153.562 13.4563 153.562 13.3273C153.562 13.3273 153.547 0.489105 153.547 0.489105C153.547 0.489105 153.548 0.489105 153.548 0.489105ZM396.256 3.36247C396.256 3.10081 396.468 2.88869 396.729 2.88869C396.729 2.88869 402.615 2.89633 402.615 2.89633C405.783 2.90184 408.818 4.37297 411.052 6.98593C413.287 9.59889 414.538 13.1396 414.531 16.8288C414.531 16.8288 414.516 23.3244 414.516 23.3244C414.501 31.0041 409.146 37.2201 402.554 37.2094C402.554 37.2094 396.668 37.2018 396.668 37.2018C396.407 37.2018 396.194 36.9896 396.194 36.728C396.194 36.728 396.256 3.36397 396.256 3.36397C396.256 3.36397 396.256 3.36247 396.256 3.36247ZM12.6419 35.305C12.7795 35.4996 12.7352 35.7685 12.5425 35.9087C12.5425 35.9087 12.4203 35.9928 12.4203 35.9928C10.7587 37.1745 8.68677 37.6368 6.66115 37.2773C4.63554 36.9178 2.82236 35.7659 1.62067 34.0754C1.62067 34.0754 1.46779 33.8538 1.46779 33.8538C0.26532 32.1639 -0.227463 30.0735 0.0979309 28.0427C0.423355 26.0119 1.54027 24.207 3.20285 23.0254C3.20285 23.0254 3.3175 22.9413 3.3175 22.9413C3.41248 22.8736 3.5307 22.8468 3.64561 22.8669C3.76057 22.887 3.86263 22.9524 3.92896 23.0483C3.92896 23.0483 12.6424 35.3057 12.6424 35.3057C12.6424 35.3057 12.6419 35.305 12.6419 35.305Z" fill="#FEFEFE" fill-opacity="0.122" transform="translate(175.468 248.946)" />
  </g>
</svg>