<?xml version="1.0" encoding="utf-8"?>
<svg width="588.533" height="226.451" viewBox="0 0 588.533 226.451" fill="none" xmlns="http://www.w3.org/2000/svg">
  <g id="Group" transform="matrix(1 0.017 -0.017 1 4.266 0.509)">
    <path id="Path" d="M0 172.271C0 172.271 12.3214 151.597 66.0358 112.712C119.75 73.8282 188.954 54.1493 188.954 54.1493L158.578 92.45C158.578 92.45 219.899 62.4037 290.557 40.9421C361.215 19.4805 441.212 6.60357 441.212 6.60357C441.212 6.60357 436.574 10.857 426.59 17.1693C416.607 23.4816 417.438 23.7729 417.438 23.7729C417.438 23.7729 463.335 12.5468 504.938 6.60357C546.54 0.660354 583.848 0 583.848 0L583.848 158.486L215.369 215.276L243.104 149.241L93.8629 182.259L111.032 137.354L0 172.271Z" fill="none" stroke-width="1" stroke="#FFFFFF" stroke-opacity="0.498" transform="scale(1 1)" />
  </g>
</svg>