<?xml version="1.0" encoding="utf-8"?>
<svg width="46" height="46" viewBox="0 0 46 46" fill="none" xmlns="http://www.w3.org/2000/svg">
  <path id="Shape" d="M23 0C10.3181 0 0 10.3181 0 23C0 26.96 1.02295 30.854 2.96289 34.29C2.96289 34.29 4.20654 36.7544 6.49976 39C8.79297 41.2456 12.136 43.272 12.136 43.272C15.4629 45.0581 19.21 46 23 46C35.6819 46 46 35.6819 46 23C46 10.3181 35.6819 0 23 0C23 0 23 0 23 0ZM34.5701 31.116C34.0779 32.478 31.718 33.7209 30.584 33.8879C29.5659 34.0371 28.2781 34.1011 26.864 33.657C26.0071 33.387 24.907 33.0291 23.498 32.428C17.575 29.9021 13.707 24.0129 13.4109 23.624C13.116 23.2351 11 20.4629 11 17.594C11 14.7251 12.5249 13.314 13.0669 12.73C13.6089 12.146 14.248 12 14.6421 12C15.0359 12 15.429 12.0049 15.7739 12.021C16.137 12.0391 16.624 11.884 17.103 13.022C17.595 14.1899 18.7761 17.0591 18.9221 17.3521C19.0701 17.644 19.168 17.9851 18.9719 18.374C18.7761 18.7629 18.678 19.0061 18.3821 19.3469C18.0859 19.688 17.762 20.1069 17.4961 20.3689C17.2 20.6599 16.8931 20.9751 17.2371 21.5591C17.5811 22.1431 18.7661 24.052 20.522 25.5979C22.7771 27.584 24.6799 28.2 25.27 28.4919C25.8601 28.7839 26.2051 28.7351 26.5491 28.3459C26.8931 27.9561 28.0249 26.6431 28.418 26.0601C28.811 25.4771 29.2051 25.573 29.7471 25.7681C30.2891 25.9619 33.1919 27.3721 33.782 27.6641C34.3721 27.9561 34.7661 28.1021 34.9141 28.345C35.062 28.5869 35.062 29.7549 34.5701 31.116C34.5701 31.116 34.5701 31.116 34.5701 31.116Z" fill="#FFFFFF" />
</svg>