<?xml version="1.0" encoding="utf-8"?>
<svg width="511.999" height="348.882" viewBox="0 0 511.999 348.882" fill="none" xmlns="http://www.w3.org/2000/svg">
  <g id="XMLID_913_">
    <g id="XMLID_425_">
      <path id="XMLID_468_" d="M99.797 0C44.769 0 0 44.769 0 99.797C0 154.825 44.769 199.594 99.797 199.594C154.825 199.594 199.594 154.825 199.594 99.797C199.594 44.769 154.825 0 99.797 0C99.797 0 99.797 0 99.797 0ZM162.81 148.667C162.81 148.667 129.969 115.826 129.969 115.826C130.988 113.916 131.832 111.9 132.477 109.796C132.477 109.796 178.945 109.796 178.945 109.796C177.119 124.324 171.381 137.642 162.81 148.667C162.81 148.667 162.81 148.667 162.81 148.667ZM20.6489 109.797C20.6489 109.797 67.1169 109.797 67.1169 109.797C67.7619 111.901 68.6059 113.917 69.6249 115.827C69.6249 115.827 36.7839 148.668 36.7839 148.668C28.2129 137.642 22.4749 124.324 20.6489 109.797C20.6489 109.797 20.6489 109.797 20.6489 109.797ZM36.7839 50.926C36.7839 50.926 69.6249 83.767 69.6249 83.767C68.6059 85.677 67.7619 87.693 67.1169 89.797C67.1169 89.797 20.6489 89.797 20.6489 89.797C22.4749 75.27 28.2129 61.951 36.7839 50.926C36.7839 50.926 36.7839 50.926 36.7839 50.926ZM85.6211 99.7971C85.6211 91.9801 91.9801 85.6211 99.7971 85.6211C107.614 85.6211 113.973 91.9801 113.973 99.7971C113.973 107.613 107.614 113.973 99.7971 113.973C91.9801 113.973 85.6211 107.613 85.6211 99.7971C85.6211 99.7971 85.6211 99.7971 85.6211 99.7971ZM115.827 69.6249C113.917 68.6059 111.901 67.7619 109.797 67.1169C109.797 67.1169 109.797 20.6489 109.797 20.6489C124.324 22.4749 137.642 28.2129 148.668 36.7839C148.668 36.7839 115.827 69.6249 115.827 69.6249ZM89.797 67.116C87.694 67.761 85.677 68.6049 83.767 69.6239C83.767 69.6239 50.926 36.7829 50.926 36.7829C61.952 28.2119 75.27 22.4739 89.797 20.6479C89.797 20.6479 89.797 67.116 89.797 67.116ZM83.767 129.968C85.677 130.987 87.693 131.831 89.797 132.476C89.797 132.476 89.797 178.944 89.797 178.944C75.27 177.118 61.951 171.38 50.926 162.809C50.926 162.809 83.767 129.968 83.767 129.968ZM109.797 132.477C111.9 131.832 113.917 130.988 115.827 129.969C115.827 129.969 148.669 162.81 148.669 162.81C137.643 171.381 124.325 177.119 109.798 178.945C109.798 178.945 109.798 132.477 109.798 132.477C109.798 132.477 109.797 132.477 109.797 132.477ZM132.477 89.797C131.832 87.694 130.988 85.677 129.969 83.767C129.969 83.767 162.81 50.926 162.81 50.926C171.381 61.952 177.119 75.27 178.945 89.797C178.945 89.797 132.477 89.797 132.477 89.797Z" fill="#B5B5B5" fill-opacity="0.149" transform="translate(62.202 71.631)" />
      <path id="XMLID_488_" d="M505.826 193.634C502.088 192.089 497.788 192.942 494.929 195.802C474.379 216.353 443.777 220.871 418.807 209.357C461.803 197.685 493.516 158.314 493.516 111.674C493.516 107.63 491.079 103.983 487.343 102.435C483.607 100.888 479.306 101.743 476.445 104.603C463.082 117.966 445.315 125.326 426.417 125.326C415.275 125.326 404.528 122.768 394.843 117.93C431.339 106.941 457.999 73.02 457.999 32.9909C457.999 28.9469 455.562 25.2999 451.826 23.7519C448.088 22.204 443.788 23.0609 440.929 25.9189C427.956 38.8919 410.708 46.036 392.363 46.036C374.018 46.036 356.769 38.892 343.797 25.9189C310.787 -7.08905 258.031 -8.56205 223.228 21.454C204.328 13.709 183.656 9.42695 162 9.42695C72.673 9.42695 0 82.1 0 171.427C0 260.754 72.673 333.427 162 333.427C181.401 333.427 200.014 329.995 217.269 323.713C246.801 314.946 276.888 317.948 304.317 332.412C322.162 341.822 341.276 347.354 361.13 348.854C361.386 348.874 361.641 348.883 361.894 348.882C367.074 348.882 371.458 344.886 371.855 339.635C372.271 334.128 368.144 329.326 362.637 328.91C345.534 327.618 329.051 322.844 313.647 314.72C296.916 305.897 279.337 300.718 261.442 299.224C299.487 269.555 323.999 223.302 323.999 171.428C323.999 111.685 291.488 59.398 243.232 31.313C269.883 13.699 306.206 16.615 329.654 40.062C346.404 56.812 368.674 66.037 392.362 66.037C407.19 66.037 421.463 62.423 434.173 55.61C424.801 82.402 399.267 101.674 369.317 101.674C365.273 101.674 361.626 104.111 360.078 107.847C358.53 111.583 359.386 115.885 362.245 118.745C379.386 135.886 402.176 145.326 426.416 145.326C442.055 145.326 457.09 141.396 470.394 134.006C460.669 167.956 429.348 192.874 392.316 192.874C388.272 192.874 384.625 195.311 383.077 199.047C381.529 202.784 382.385 207.085 385.244 209.945C401.782 226.482 423.769 235.59 447.157 235.59C462.512 235.59 477.264 231.664 490.266 224.287C484.951 256.762 467.599 285.942 440.869 306.445C436.487 309.806 435.659 316.084 439.02 320.466C440.989 323.033 443.958 324.381 446.962 324.381C449.086 324.381 451.226 323.707 453.041 322.315C490.51 293.575 511.999 250.04 511.999 202.873C511.999 198.828 509.562 195.182 505.826 193.634C505.826 193.634 505.826 193.634 505.826 193.634ZM252.817 80.6089C254.77 82.5619 257.329 83.5379 259.888 83.5379C262.447 83.5379 265.007 82.5619 266.959 80.6089C266.959 80.6089 269.183 78.3849 269.183 78.3849C288.809 100.965 301.429 129.784 303.641 161.427C303.641 161.427 300.435 161.427 300.435 161.427C294.912 161.427 290.435 165.904 290.435 171.427C290.435 176.949 294.912 181.427 300.435 181.427C300.435 181.427 303.641 181.427 303.641 181.427C301.429 213.07 288.809 241.889 269.183 264.469C269.183 264.469 266.959 262.245 266.959 262.245C263.054 258.341 256.722 258.341 252.816 262.245C248.911 266.15 248.911 272.482 252.816 276.388C252.816 276.388 255.04 278.612 255.04 278.612C232.46 298.238 203.641 310.858 171.998 313.07C171.998 313.07 171.998 309.864 171.998 309.864C171.998 304.342 167.521 299.864 161.998 299.864C156.475 299.864 151.998 304.342 151.998 309.864C151.998 309.864 151.998 313.07 151.998 313.07C120.355 310.858 91.536 298.238 68.956 278.612C68.956 278.612 71.18 276.388 71.18 276.388C75.085 272.483 75.085 266.151 71.18 262.245C67.275 258.341 60.943 258.341 57.037 262.245C57.037 262.245 54.813 264.469 54.813 264.469C35.187 241.889 22.567 213.07 20.355 181.427C20.355 181.427 23.561 181.427 23.561 181.427C29.084 181.427 33.561 176.949 33.561 171.427C33.561 165.904 29.084 161.427 23.561 161.427C23.561 161.427 20.355 161.427 20.355 161.427C22.567 129.784 35.187 100.965 54.813 78.3849C54.813 78.3849 57.037 80.6089 57.037 80.6089C58.99 82.5619 61.549 83.5379 64.108 83.5379C66.667 83.5379 69.227 82.5619 71.179 80.6089C75.084 76.7039 75.084 70.3719 71.179 66.4659C71.179 66.4659 68.955 64.2419 68.955 64.2419C91.535 44.6159 120.354 31.9959 151.997 29.7839C151.997 29.7839 151.997 32.9899 151.997 32.9899C151.997 38.5129 156.474 42.9899 161.997 42.9899C167.52 42.9899 171.997 38.5129 171.997 32.9899C171.997 32.9899 171.997 29.7839 171.997 29.7839C203.64 31.9959 232.459 44.6159 255.039 64.2419C255.039 64.2419 252.815 66.4659 252.815 66.4659C248.913 70.3719 248.913 76.7039 252.817 80.6089C252.817 80.6089 252.817 80.6089 252.817 80.6089Z" fill="#B5B5B5" fill-opacity="0.149" />
      <path id="XMLID_489_" d="M10 0C7.35999 0 4.79001 1.06 2.92001 2.92999C1.06003 4.78998 0 7.35999 0 10C0 12.63 1.06 15.2 2.92001 17.069C4.79001 18.929 7.36002 20 10 20C12.63 20 15.2 18.93 17.06 17.069C18.93 15.21 19.99 12.63 19.99 10C19.99 7.35901 18.93 4.77899 17.06 2.92999C15.2 1.05899 12.63 0 10 0C10 0 10 0 10 0Z" fill="#B5B5B5" fill-rule="evenodd" fill-opacity="0.149" transform="translate(396.669 324.432)" />
    </g>
  </g>
</svg>