<?xml version="1.0" encoding="utf-8"?>
<svg width="168.035" height="67.5" viewBox="0 0 168.035 67.5" fill="none" xmlns="http://www.w3.org/2000/svg">
  <defs>
    <linearGradient id="gradient_1" gradientUnits="userSpaceOnUse" x1="6" y1="58" x2="118" y2="22">
      <stop offset="0" stop-color="#E13B2A" />
      <stop offset="1" stop-color="#EEC72A" />
    </linearGradient>
  </defs>
  <g id="Group" transform="translate(0.5 0.5)">
    <g fill="url(#gradient_1)" fill-rule="evenodd">
      <path id="Path" d="M0 62.7187C0 62.7187 4.66468 54.8919 25 40.171C45.3354 25.4501 71.535 18 71.535 18L60.0349 32.5C60.0349 32.5 83.2499 21.125 110 13C136.75 4.875 167.035 0 167.035 0C167.035 0 165.28 1.61026 161.5 4C157.721 6.38974 92.0351 54 92.0351 54L35.5349 66.5L42.035 49.5L0 62.7187Z" />
      <path d="M0 62.7187C0 62.7187 4.66468 54.8919 25 40.171C45.3354 25.4501 71.535 18 71.535 18L60.0349 32.5C60.0349 32.5 83.2499 21.125 110 13C136.75 4.875 167.035 0 167.035 0C167.035 0 165.28 1.61026 161.5 4C157.721 6.38974 92.0351 54 92.0351 54L35.5349 66.5L42.035 49.5L0 62.7187Z" fill="none" stroke-width="1" stroke="#747474" />
      <path d="M61.7535 30.3332L70.2404 19.6323L71.535 18C71.535 18 70.8129 18.2053 69.5155 18.6152C62.9977 20.674 41.9595 27.894 25 40.171C10.0532 50.9912 3.57243 58.0867 1.18737 61.0874C0.327532 62.1692 0 62.7187 0 62.7187L40.5746 49.9592L42.035 49.5L41.4882 50.9299L36.0483 65.1574L35.5349 66.5L36.9384 66.1895L92.0351 54C92.0351 54 157.721 6.38974 161.5 4C163.037 3.02846 164.239 2.18576 165.124 1.52771C166.417 0.567116 167.035 0 167.035 0C167.035 0 166.19 0.136055 164.657 0.400588C157.015 1.71953 132.281 6.23235 110 13C88.4189 19.555 69.1387 28.2253 62.4934 31.3313C60.9017 32.0753 60.0349 32.5 60.0349 32.5L61.7535 30.3332ZM162.403 1.98562Q134.882 6.69667 110.349 14.1482Q83.6913 22.2451 60.5629 33.5776L59.0947 31.7543L68.1979 20.2765Q62.9528 21.9859 56.3459 24.6766Q38.2962 32.0273 25.7037 41.1431Q13.0774 50.2834 5.73276 57.8037Q4.30846 59.262 3.27598 60.4306L44.042 47.6109L37.4517 64.8469L91.5326 52.8822Q157.052 5.39256 160.859 2.98574Q161.681 2.46594 162.403 1.98562Z" fill="#FFFFFF" fill-rule="evenodd" />
    </g>
  </g>
</svg>