<svg width="121.000000" height="148.000000" viewBox="0 0 121 148" fill="none" xmlns="http://www.w3.org/2000/svg" xmlns:xlink="http://www.w3.org/1999/xlink">
	<desc>
			Created with Pixso.
	</desc>
	<defs>
		<clipPath id="clip4_56">
			<rect id="Сочетание 1" width="121.000000" height="148.000000" fill="white" fill-opacity="0"/>
		</clipPath>
	</defs>
	<g clip-path="url(#clip4_56)">
		<mask id="mask4_59" mask-type="alpha" maskUnits="userSpaceOnUse" x="29.000000" y="0.000000" width="62.000000" height="121.457001">
			<rect id="Group" x="29.000000" width="62.000000" height="121.457001" fill="#000000" fill-opacity="1.000000"/>
		</mask>
		<g mask="url(#mask4_59)">
			<path id="Oval" d="M37.94 76C37.94 63.84 47.78 54 59.94 54C72.09 54 81.94 63.84 81.94 76C81.94 88.15 72.09 98 59.94 98C47.78 98 37.94 88.15 37.94 76Z" fill="#75BBC8" fill-opacity="1.000000" fill-rule="evenodd"/>
			<path id="path" d="M60 54C47.84 54 38 63.84 38 76C38 88.15 47.84 98 60 98C72.15 98 82 88.15 82 76C82 63.84 72.15 54 60 54ZM45.85 90.14C41.95 86.23 40 81.51 40 76C40 70.47 41.95 65.76 45.85 61.85C49.76 57.95 54.47 56 60 56C65.51 56 70.23 57.95 74.14 61.85C78.04 65.76 80 70.47 80 76C80 81.51 78.04 86.23 74.14 90.14C70.23 94.04 65.51 96 60 96C54.47 96 49.76 94.04 45.85 90.14Z" fill="#FFFFFF" fill-opacity="1.000000" fill-rule="evenodd"/>
			<path id="Oval" d="M42.94 76.1C42.94 66.65 50.59 59 60.04 59C69.48 59 77.14 66.65 77.14 76.1C77.14 85.54 69.48 93.2 60.04 93.2C50.59 93.2 42.94 85.54 42.94 76.1Z" fill="#75BBC8" fill-opacity="1.000000" fill-rule="evenodd"/>
			<path id="path" d="M60.1 59C50.65 59 43 66.65 43 76.1C43 85.54 50.65 93.2 60.1 93.2C69.54 93.2 77.19 85.54 77.19 76.1C77.19 66.65 69.54 59 60.1 59ZM49.42 86.78C46.47 83.83 45 80.26 45 76.1C45 71.93 46.47 68.37 49.42 65.42C52.37 62.47 55.93 61 60.1 61C64.26 61 67.83 62.47 70.78 65.42C73.73 68.37 75.19 71.93 75.19 76.1C75.19 80.26 73.73 83.83 70.78 86.78C67.83 89.73 64.26 91.2 60.1 91.2C55.93 91.2 52.37 89.73 49.42 86.78Z" fill="#FFFFFF" fill-opacity="1.000000" fill-rule="evenodd"/>
			<path id="Rectangle" d="M37.53 91L81.04 91C81.12 91 81.23 91 81.32 91.01C81.41 91.03 81.5 91.05 81.58 91.07C81.67 91.1 81.76 91.13 81.83 91.17C81.92 91.21 82 91.25 82.08 91.3C82.15 91.35 82.23 91.41 82.3 91.47C82.36 91.53 82.43 91.59 82.49 91.66C82.55 91.73 82.6 91.8 82.65 91.88C82.7 91.96 82.74 92.04 82.78 92.12L89.44 107.06C89.46 107.12 89.49 107.18 89.51 107.24C89.53 107.31 89.54 107.37 89.56 107.44C89.57 107.5 89.58 107.57 89.59 107.63C89.6 107.7 89.6 107.77 89.6 107.83C89.6 107.9 89.6 107.97 89.59 108.03C89.58 108.1 89.57 108.16 89.56 108.23C89.54 108.29 89.53 108.36 89.51 108.42C89.49 108.49 89.46 108.55 89.43 108.61C89.41 108.67 89.38 108.73 89.34 108.79C89.31 108.84 89.27 108.9 89.23 108.95C89.19 109.01 89.15 109.06 89.11 109.11C89.06 109.16 89.02 109.2 88.97 109.25C88.92 109.29 88.87 109.33 88.81 109.37C88.76 109.41 88.7 109.45 88.64 109.48C88.59 109.51 88.53 109.54 88.47 109.57C88.4 109.6 88.34 109.62 88.28 109.64L59.28 118.92L30.32 109.64C30.25 109.62 30.19 109.6 30.13 109.57C30.07 109.54 30.01 109.51 29.95 109.48C29.89 109.45 29.84 109.41 29.78 109.37C29.73 109.33 29.68 109.29 29.63 109.25C29.58 109.2 29.53 109.16 29.49 109.11C29.44 109.06 29.4 109.01 29.36 108.95C29.32 108.9 29.29 108.84 29.25 108.79C29.22 108.73 29.19 108.67 29.16 108.61C29.13 108.55 29.11 108.49 29.09 108.42C29.07 108.36 29.05 108.3 29.04 108.23C29.02 108.17 29.01 108.1 29.01 108.03C29 107.97 29 107.9 29 107.83C28.99 107.77 29 107.7 29.01 107.64C29.01 107.57 29.02 107.5 29.04 107.44C29.05 107.37 29.07 107.31 29.09 107.25C29.11 107.18 29.13 107.12 29.16 107.06L35.79 92.12C35.83 92.04 35.87 91.96 35.91 91.88C35.97 91.81 36.03 91.73 36.09 91.66C36.14 91.59 36.21 91.53 36.28 91.47C36.34 91.41 36.41 91.35 36.5 91.3C36.57 91.25 36.65 91.21 36.73 91.17C36.82 91.13 36.9 91.1 36.99 91.07C37.08 91.05 37.16 91.03 37.25 91.01C37.34 91 37.43 91 37.53 91Z" fill="#75BBC8" fill-opacity="1.000000" fill-rule="evenodd"/>
			<path id="path" d="M81.04 91L37.53 91C37.43 91 37.34 91 37.25 91.01C37.16 91.03 37.08 91.05 36.99 91.07C36.9 91.1 36.82 91.13 36.73 91.17C36.65 91.21 36.57 91.25 36.5 91.3C36.41 91.35 36.34 91.41 36.28 91.47C36.21 91.53 36.14 91.59 36.09 91.66C36.03 91.73 35.97 91.81 35.91 91.88C35.87 91.96 35.83 92.04 35.79 92.12L29.16 107.06C29.1 107.18 29.06 107.31 29.04 107.44C29.01 107.57 28.99 107.7 29 107.83C29 107.97 29.01 108.1 29.04 108.23C29.07 108.36 29.11 108.49 29.16 108.61C29.22 108.73 29.28 108.85 29.36 108.95C29.44 109.06 29.53 109.16 29.63 109.25C29.73 109.34 29.84 109.41 29.95 109.48C30.07 109.55 30.19 109.6 30.32 109.64L59.28 118.92L88.28 109.64C88.41 109.6 88.53 109.55 88.64 109.48C88.76 109.41 88.87 109.34 88.97 109.25C89.07 109.16 89.16 109.06 89.23 108.95C89.31 108.85 89.38 108.73 89.43 108.61C89.49 108.49 89.53 108.36 89.56 108.23C89.59 108.1 89.6 107.97 89.6 107.83C89.6 107.7 89.59 107.57 89.56 107.44C89.53 107.31 89.49 107.18 89.44 107.06L82.78 92.12C82.74 92.04 82.7 91.96 82.65 91.88C82.6 91.8 82.55 91.73 82.49 91.66C82.43 91.59 82.36 91.53 82.3 91.47C82.23 91.41 82.15 91.35 82.08 91.3C82 91.25 81.92 91.21 81.83 91.17C81.76 91.13 81.67 91.1 81.58 91.07C81.5 91.05 81.41 91.03 81.32 91.01C81.23 91 81.12 91 81.04 91ZM59.28 116.82L87.56 107.77L80.98 93L37.59 93L31.03 107.77L59.28 116.82Z" fill="#FFFFFF" fill-opacity="1.000000" fill-rule="evenodd"/>
			<path id="Rectangle" d="M53.94 47.93L65.94 47.93L65.94 55.93C65.94 55.93 62.94 55.09 59.94 55.09C56.94 55.09 53.94 55.93 53.94 55.93L53.94 47.93Z" fill="#75BBC8" fill-opacity="1.000000" fill-rule="evenodd"/>
			<path id="path" d="M53 47L53 56.5C53 56.5 53.79 56.27 55 56.03C56.33 55.77 58.16 55.5 60 55.5C61.83 55.5 63.66 55.77 65 56.03C66.19 56.27 67 56.5 67 56.5L67 47L53 47ZM55 49L55 53.97C56.66 53.65 58.33 53.5 60 53.5C61.66 53.5 63.33 53.65 65 53.97L65 49L55 49Z" fill="#FFFFFF" fill-opacity="1.000000" fill-rule="evenodd"/>
			<line id="Line" x1="59.000031" y1="97.000015" x2="59.000031" y2="113.000015" stroke="#FFFFFF" stroke-opacity="1.000000" stroke-width="2.000000"/>
			<line id="Line" x1="45.301086" y1="112.999985" x2="32.000099" y2="120.457001" stroke="#FFFFFF" stroke-opacity="1.000000" stroke-width="2.000000"/>
			<line id="Line" x1="75.000244" y1="113.000015" x2="87.943245" y2="120.435013" stroke="#FFFFFF" stroke-opacity="1.000000" stroke-width="2.000000"/>
			<line id="Line" x1="45.053070" y1="97.000015" x2="41.000069" y2="107.923019" stroke="#FFFFFF" stroke-opacity="1.000000" stroke-width="2.000000"/>
			<line id="Line" x1="75.000061" y1="97.000015" x2="79.184067" y2="107.862015" stroke="#FFFFFF" stroke-opacity="1.000000" stroke-width="2.000000"/>
			<path id="Oval" d="M42 15C42 6.71 52.07 0 64.5 0C76.92 0 87 6.71 87 15C87 23.28 76.92 30 64.5 30C52.07 30 42 23.28 42 15Z" fill="#75BBC8" fill-opacity="1.000000" fill-rule="evenodd"/>
			<path id="path" d="M64.5 0C52.07 0 42 6.71 42 15C42 23.28 52.07 30 64.5 30C76.92 30 87 23.28 87 15C87 6.71 76.92 0 64.5 0ZM49.69 23.94C45.89 21.4 44 18.42 44 15C44 11.57 45.89 8.59 49.69 6.05C53.75 3.35 58.69 2 64.5 2C70.3 2 75.24 3.35 79.3 6.05C83.1 8.59 85 11.57 85 15C85 18.42 83.1 21.4 79.3 23.94C75.24 26.64 70.3 28 64.5 28C58.69 28 53.75 26.64 49.69 23.94Z" fill="#FFFFFF" fill-opacity="1.000000" fill-rule="evenodd"/>
			<path id="Oval" d="M32 30.5C32 25.25 38.49 21 46.5 21C54.5 21 61 25.25 61 30.5C61 35.74 54.5 40 46.5 40C38.49 40 32 35.74 32 30.5Z" fill="#75BBC8" fill-opacity="1.000000" fill-rule="evenodd"/>
			<path id="path" d="M46.5 21C38.49 21 32 25.25 32 30.5C32 35.74 38.49 40 46.5 40C54.5 40 61 35.74 61 30.5C61 25.25 54.5 21 46.5 21ZM37.34 35.54C35.11 34.08 34 32.4 34 30.5C34 28.59 35.11 26.91 37.34 25.45C39.84 23.81 42.89 23 46.5 23C50.1 23 53.15 23.81 55.65 25.45C57.88 26.91 59 28.59 59 30.5C59 32.4 57.88 34.08 55.65 35.54C53.15 37.18 50.1 38 46.5 38C42.89 38 39.84 37.18 37.34 35.54Z" fill="#FFFFFF" fill-opacity="1.000000" fill-rule="evenodd"/>
			<path id="Oval" d="M59 38C59 35.23 62.58 33 67 33C71.41 33 75 35.23 75 38C75 40.75 71.41 43 67 43C62.58 43 59 40.75 59 38Z" fill="#75BBC8" fill-opacity="1.000000" fill-rule="evenodd"/>
			<path id="path" d="M66.94 33C62.52 33 58.94 35.23 58.94 38C58.94 40.75 62.52 43 66.94 43C71.35 43 74.94 40.75 74.94 38C74.94 35.23 71.35 33 66.94 33ZM62.34 39.83C61.4 39.25 60.94 38.64 60.94 38C60.94 37.34 61.4 36.74 62.34 36.16C63.58 35.38 65.11 35 66.94 35C68.76 35 70.29 35.38 71.53 36.16C72.47 36.74 72.94 37.34 72.94 38C72.94 38.64 72.47 39.25 71.53 39.83C70.29 40.61 68.76 41 66.94 41C65.11 41 63.58 40.61 62.34 39.83Z" fill="#FFFFFF" fill-opacity="1.000000" fill-rule="evenodd"/>
		</g>
		<path id="ПАРОВОЗИК И ДРУЗЬЯ" d="M22.49 131.89C22.25 132.25 22.13 132.69 22.13 133.21L22.13 141.82C22.13 142.34 22.25 142.78 22.49 143.14C22.56 143.25 22.65 143.35 22.75 143.45C22.85 143.55 22.95 143.63 23.07 143.71C23.43 143.95 23.86 144.07 24.38 144.07L26.23 144.07C26.74 144.07 27.18 143.95 27.55 143.71C27.66 143.63 27.76 143.55 27.86 143.45C27.96 143.35 28.04 143.25 28.12 143.14C28.36 142.78 28.48 142.34 28.48 141.82L28.48 133.21C28.48 132.69 28.36 132.25 28.12 131.89C28.04 131.77 27.96 131.67 27.86 131.58C27.76 131.48 27.66 131.39 27.55 131.32C27.18 131.08 26.74 130.96 26.23 130.96L24.38 130.96C23.86 130.96 23.43 131.08 23.07 131.32C22.95 131.39 22.85 131.48 22.75 131.58C22.65 131.67 22.56 131.77 22.49 131.89ZM36.91 131.89C36.68 132.25 36.56 132.69 36.56 133.21L36.56 141.82C36.56 142.34 36.68 142.78 36.91 143.14C36.99 143.25 37.08 143.35 37.18 143.45C37.28 143.55 37.38 143.63 37.5 143.71C37.86 143.95 38.29 144.07 38.81 144.07L40.66 144.07C41.17 144.07 41.61 143.95 41.98 143.71C42.09 143.63 42.19 143.55 42.29 143.45C42.39 143.35 42.47 143.25 42.55 143.14C42.79 142.78 42.91 142.34 42.91 141.82L42.91 133.21C42.91 132.69 42.79 132.25 42.55 131.89C42.47 131.77 42.39 131.67 42.29 131.58C42.19 131.48 42.09 131.39 41.98 131.32C41.61 131.08 41.17 130.96 40.66 130.96L38.81 130.96C38.29 130.96 37.86 131.08 37.5 131.32C37.38 131.39 37.28 131.48 37.18 131.58C37.08 131.67 36.99 131.77 36.91 131.89ZM9.49 131.78C9.31 132.02 9.2 132.32 9.14 132.66L7.37 143.98L9.49 143.98L9.84 141.5L12.1 141.5L12.45 144L14.56 144L12.52 131.02L11.05 131.02C10.71 131.02 10.42 131.08 10.16 131.22C10.02 131.28 9.89 131.37 9.78 131.47C9.67 131.56 9.57 131.66 9.49 131.78ZM50.95 131.03L50.95 144L51.87 144C52.06 144 52.25 143.96 52.43 143.89C52.57 143.85 52.7 143.78 52.83 143.69C52.94 143.6 53.04 143.5 53.14 143.39C53.26 143.24 53.36 143.06 53.43 142.86L55.36 136.53L55.29 144L57.32 144L57.32 131.03L56.41 131.03C56.21 131.03 56.02 131.07 55.84 131.13C55.7 131.18 55.56 131.25 55.44 131.34C55.32 131.42 55.22 131.52 55.14 131.62C55.01 131.78 54.91 131.96 54.85 132.17L52.92 138.49L52.99 131.03L50.95 131.03ZM60.34 136.21L60.34 131.03L58.3 131.03L58.3 144L60.34 144L60.34 140.71L61.21 139.02L62.93 144L65.18 144L62.56 136.41L65.33 131.03L64.15 131.03C63.97 131.03 63.8 131.06 63.64 131.1C63.42 131.14 63.2 131.23 63 131.37C62.79 131.49 62.62 131.64 62.48 131.82C62.37 131.95 62.28 132.09 62.21 132.25L60.34 136.21ZM68.18 131.03L68.18 144L69.1 144C69.3 144 69.48 143.96 69.66 143.89C69.8 143.85 69.93 143.78 70.06 143.69C70.18 143.6 70.28 143.5 70.37 143.39C70.49 143.24 70.59 143.06 70.66 142.86L72.6 136.53L72.51 144L74.56 144L74.56 131.03L73.65 131.03C73.44 131.03 73.25 131.07 73.08 131.13C72.94 131.18 72.8 131.25 72.67 131.34C72.55 131.42 72.46 131.52 72.37 131.62C72.24 131.78 72.15 131.96 72.08 132.17L70.15 138.49L70.23 131.03L68.18 131.03ZM79 141.96L78.08 141.96L77.41 144L85.12 144L85.12 131.03L80.94 131.03C80.49 131.03 80.11 131.14 79.79 131.35C79.69 131.41 79.61 131.49 79.53 131.57C79.44 131.64 79.37 131.73 79.32 131.83C79.1 132.14 79 132.53 79 132.99L79 141.96ZM95.14 131.03L93.1 131.03L93.1 136.59C93.1 137.03 93.2 137.41 93.41 137.73C93.47 137.83 93.54 137.92 93.63 138C93.71 138.08 93.81 138.16 93.91 138.23C94.22 138.43 94.6 138.53 95.05 138.53L97.19 138.53L97.19 141.39C97.19 141.47 97.17 141.55 97.15 141.62C97.11 141.68 97.07 141.74 97.03 141.78C96.97 141.84 96.92 141.88 96.87 141.91C96.79 141.94 96.71 141.96 96.63 141.96L95.71 141.96C95.62 141.96 95.54 141.94 95.48 141.91C95.41 141.88 95.35 141.84 95.3 141.78C95.25 141.74 95.21 141.69 95.19 141.63C95.15 141.55 95.14 141.47 95.14 141.39L95.14 140.91L93.1 140.22L93.1 142.03C93.1 142.5 93.2 142.88 93.41 143.2C93.47 143.29 93.55 143.38 93.63 143.46C93.71 143.54 93.81 143.62 93.91 143.69C94.22 143.89 94.6 144 95.05 144L97.29 144C97.73 144 98.11 143.89 98.43 143.67C98.53 143.62 98.62 143.54 98.7 143.46C98.78 143.38 98.85 143.29 98.92 143.2C99.12 142.88 99.23 142.5 99.23 142.03L99.23 131.03L97.19 131.03L97.19 136.49L95.71 136.49C95.62 136.49 95.54 136.47 95.48 136.45C95.41 136.42 95.35 136.38 95.3 136.33C95.25 136.27 95.21 136.22 95.19 136.16C95.15 136.08 95.14 136 95.14 135.92L95.14 131.03ZM107.27 131.03L107.27 144L111.46 144C111.91 144 112.29 143.89 112.61 143.67C112.7 143.62 112.79 143.54 112.88 143.46C112.96 143.38 113.03 143.29 113.09 143.2C113.3 142.88 113.41 142.5 113.41 142.03L113.41 138.45C113.41 137.99 113.3 137.61 113.1 137.3C113.03 137.2 112.96 137.11 112.88 137.03C112.79 136.94 112.7 136.86 112.6 136.8C112.28 136.59 111.9 136.49 111.46 136.49L109.32 136.49L109.32 131.03L107.27 131.03ZM6.73 131.05L0.44 131.05L0.44 144L2.49 144L2.49 133.08L4.69 133.08L4.69 144L6.73 144L6.73 131.05ZM19.36 131.05L15.17 131.05L15.17 144L17.21 144L17.21 138.99L19.36 138.99C19.81 138.99 20.19 138.88 20.51 138.67C20.6 138.61 20.69 138.53 20.78 138.45C20.86 138.37 20.93 138.28 20.99 138.19C21.2 137.87 21.31 137.49 21.31 137.03L21.31 133C21.31 132.55 21.2 132.17 21 131.86C20.93 131.75 20.86 131.67 20.78 131.59C20.69 131.49 20.6 131.42 20.5 131.36C20.18 131.15 19.8 131.05 19.36 131.05ZM33.73 131.05L29.54 131.05L29.54 144L33.73 144C34.18 144 34.56 143.89 34.88 143.67C34.97 143.62 35.06 143.54 35.15 143.46C35.23 143.38 35.3 143.29 35.36 143.2C35.57 142.88 35.68 142.5 35.68 142.03L35.68 138.81C35.68 138.77 35.67 138.73 35.66 138.69C35.65 138.57 35.62 138.45 35.56 138.34C35.53 138.27 35.5 138.21 35.46 138.16C35.4 138.07 35.34 137.99 35.25 137.92C35.2 137.86 35.15 137.82 35.09 137.78C35.01 137.72 34.93 137.67 34.84 137.63C34.68 137.55 34.53 137.5 34.39 137.5C34.53 137.5 34.68 137.47 34.84 137.39C34.93 137.36 35.01 137.31 35.09 137.25C35.15 137.21 35.2 137.16 35.25 137.11C35.35 137.02 35.43 136.92 35.5 136.82C35.52 136.78 35.54 136.74 35.56 136.7C35.62 136.56 35.66 136.43 35.68 136.3L35.68 133C35.68 132.55 35.57 132.17 35.37 131.86C35.3 131.75 35.23 131.67 35.15 131.59C35.06 131.49 34.97 131.42 34.87 131.36C34.55 131.15 34.17 131.05 33.73 131.05ZM45.85 141.39L45.85 140.52L43.81 141.19L43.81 142.03C43.81 142.5 43.91 142.88 44.12 143.2C44.18 143.29 44.26 143.38 44.34 143.46C44.42 143.54 44.52 143.62 44.62 143.69C44.93 143.89 45.31 144 45.76 144L48 144C48.44 144 48.82 143.89 49.14 143.67C49.24 143.62 49.33 143.54 49.41 143.46C49.49 143.38 49.56 143.29 49.63 143.2C49.83 142.88 49.94 142.5 49.94 142.03L49.94 138.78C49.94 138.63 49.9 138.48 49.83 138.34C49.8 138.28 49.77 138.22 49.74 138.17C49.68 138.07 49.61 137.99 49.54 137.91C49.46 137.83 49.38 137.77 49.3 137.71C49.24 137.67 49.19 137.64 49.13 137.61C49.01 137.55 48.89 137.52 48.77 137.5C48.73 137.5 48.69 137.5 48.66 137.5C48.7 137.5 48.73 137.51 48.77 137.5C48.89 137.49 49.01 137.44 49.13 137.39C49.23 137.33 49.32 137.27 49.41 137.21C49.45 137.17 49.5 137.14 49.54 137.1C49.58 137.04 49.63 136.99 49.67 136.94C49.73 136.86 49.78 136.77 49.83 136.67C49.9 136.52 49.94 136.37 49.94 136.23L49.94 133C49.94 132.55 49.83 132.17 49.63 131.86C49.57 131.75 49.49 131.67 49.41 131.59C49.32 131.49 49.23 131.42 49.13 131.36C48.81 131.15 48.44 131.05 48 131.05L45.76 131.05C45.32 131.05 44.94 131.14 44.63 131.35C44.52 131.41 44.42 131.49 44.34 131.59C44.25 131.67 44.18 131.75 44.12 131.86C43.91 132.17 43.81 132.55 43.81 133L43.81 135.19L45.85 134.52L45.85 133.64C45.85 133.56 45.86 133.48 45.9 133.41C45.92 133.35 45.96 133.29 46.02 133.24C46.09 133.17 46.17 133.12 46.25 133.1C46.3 133.08 46.36 133.08 46.42 133.08L47.34 133.08C47.42 133.08 47.49 133.09 47.57 133.12C47.63 133.14 47.68 133.18 47.74 133.24C47.78 133.28 47.82 133.34 47.85 133.39C47.88 133.47 47.9 133.55 47.9 133.64L47.9 135.92C47.9 136 47.88 136.08 47.86 136.14C47.83 136.21 47.79 136.27 47.74 136.33C47.68 136.37 47.63 136.41 47.58 136.44C47.5 136.47 47.42 136.49 47.34 136.49L45.85 136.49L45.85 138.53L47.34 138.53C47.42 138.53 47.49 138.55 47.57 138.58C47.63 138.61 47.68 138.65 47.74 138.7C47.79 138.75 47.83 138.81 47.86 138.87C47.88 138.94 47.9 139.02 47.9 139.1L47.9 141.39C47.9 141.47 47.88 141.55 47.86 141.62C47.82 141.68 47.78 141.74 47.74 141.78C47.68 141.84 47.63 141.88 47.58 141.91C47.5 141.94 47.42 141.96 47.34 141.96L46.42 141.96C46.36 141.96 46.3 141.95 46.25 141.92C46.17 141.9 46.09 141.85 46.02 141.78C45.96 141.73 45.92 141.67 45.9 141.61C45.86 141.54 45.85 141.47 45.85 141.39ZM90.28 131.05L86.09 131.05L86.09 144L88.14 144L88.14 138.99L90.28 138.99C90.73 138.99 91.11 138.88 91.43 138.67C91.52 138.61 91.61 138.53 91.7 138.45C91.78 138.37 91.85 138.28 91.91 138.19C92.12 137.87 92.23 137.49 92.23 137.03L92.23 133C92.23 132.55 92.12 132.17 91.92 131.86C91.85 131.75 91.78 131.67 91.7 131.59C91.61 131.49 91.52 131.42 91.42 131.36C91.1 131.15 90.72 131.05 90.28 131.05ZM102.18 141.39L102.18 140.52L100.13 141.19L100.13 142.03C100.13 142.5 100.23 142.88 100.45 143.2C100.51 143.29 100.58 143.38 100.67 143.46C100.75 143.54 100.84 143.62 100.94 143.69C101.25 143.89 101.63 144 102.08 144L104.32 144C104.77 144 105.15 143.89 105.47 143.67C105.56 143.62 105.65 143.54 105.74 143.46C105.82 143.38 105.89 143.29 105.95 143.2C106.16 142.88 106.27 142.5 106.27 142.03L106.27 138.78C106.27 138.63 106.23 138.48 106.15 138.34C106.12 138.28 106.09 138.22 106.06 138.17C106 138.07 105.94 137.99 105.86 137.91C105.79 137.83 105.71 137.77 105.63 137.71C105.57 137.67 105.51 137.64 105.45 137.61C105.33 137.55 105.22 137.52 105.1 137.5C105.06 137.5 105.02 137.5 104.98 137.5C105.02 137.5 105.05 137.51 105.1 137.5C105.21 137.49 105.33 137.44 105.45 137.39C105.55 137.33 105.65 137.27 105.74 137.21C105.78 137.17 105.82 137.14 105.86 137.1C105.91 137.04 105.96 136.99 106 136.94C106.06 136.86 106.11 136.77 106.15 136.67C106.23 136.52 106.27 136.37 106.27 136.23L106.27 133C106.27 132.55 106.16 132.17 105.96 131.86C105.89 131.75 105.82 131.67 105.74 131.59C105.65 131.49 105.56 131.42 105.46 131.36C105.14 131.15 104.76 131.05 104.32 131.05L102.08 131.05C101.64 131.05 101.26 131.14 100.95 131.35C100.85 131.41 100.75 131.49 100.67 131.59C100.58 131.67 100.5 131.75 100.44 131.86C100.23 132.17 100.13 132.55 100.13 133L100.13 135.19L102.18 134.52L102.18 133.64C102.18 133.56 102.19 133.48 102.23 133.41C102.25 133.35 102.29 133.29 102.35 133.24C102.41 133.17 102.49 133.12 102.58 133.1C102.63 133.08 102.68 133.08 102.74 133.08L103.66 133.08C103.74 133.08 103.82 133.09 103.89 133.12C103.95 133.14 104.01 133.18 104.06 133.24C104.11 133.28 104.15 133.34 104.18 133.39C104.21 133.47 104.23 133.55 104.23 133.64L104.23 135.92C104.23 136 104.21 136.08 104.19 136.14C104.15 136.21 104.11 136.27 104.06 136.33C104.01 136.37 103.96 136.41 103.9 136.44C103.82 136.47 103.74 136.49 103.66 136.49L102.18 136.49L102.18 138.53L103.66 138.53C103.74 138.53 103.82 138.55 103.89 138.58C103.95 138.61 104.01 138.65 104.06 138.7C104.11 138.75 104.15 138.81 104.18 138.87C104.21 138.94 104.23 139.02 104.23 139.1L104.23 141.39C104.23 141.47 104.21 141.55 104.18 141.62C104.15 141.68 104.11 141.74 104.06 141.78C104.01 141.84 103.96 141.88 103.9 141.91C103.82 141.94 103.74 141.96 103.66 141.96L102.74 141.96C102.68 141.96 102.62 141.95 102.57 141.92C102.49 141.9 102.41 141.85 102.35 141.78C102.29 141.73 102.25 141.67 102.22 141.61C102.19 141.54 102.18 141.47 102.18 141.39ZM115.42 138.38L113.79 143.98L115.24 143.98C115.39 143.98 115.53 143.95 115.67 143.89C115.73 143.86 115.79 143.83 115.85 143.78C115.91 143.73 115.97 143.67 116.03 143.61C116.11 143.5 116.16 143.39 116.2 143.25L117.58 138.52L118.33 138.52L118.33 143.98L120.37 143.98L120.37 131.05L116.18 131.05C115.74 131.05 115.36 131.14 115.05 131.35C114.95 131.41 114.85 131.49 114.77 131.59C114.68 131.67 114.6 131.75 114.54 131.86C114.33 132.17 114.23 132.55 114.23 133L114.23 136.57C114.23 137 114.33 137.38 114.53 137.69C114.61 137.81 114.73 137.96 114.85 138.06C115.01 138.2 115.2 138.3 115.42 138.38ZM25.87 142.03L24.74 142.03C24.66 142.03 24.58 142.01 24.51 141.99C24.45 141.95 24.39 141.91 24.34 141.87C24.29 141.82 24.25 141.77 24.23 141.71C24.19 141.63 24.18 141.55 24.18 141.46L24.18 133.64C24.18 133.44 24.23 133.28 24.33 133.17C24.38 133.12 24.45 133.07 24.52 133.03C24.58 133.01 24.66 133 24.74 133L25.87 133C25.95 133 26.03 133.01 26.11 133.05C26.17 133.07 26.22 133.11 26.27 133.17C26.37 133.27 26.44 133.45 26.44 133.64L26.44 141.46C26.44 141.54 26.42 141.62 26.39 141.7C26.36 141.75 26.32 141.81 26.27 141.87C26.23 141.91 26.18 141.95 26.12 141.98C26.04 142.01 25.96 142.03 25.87 142.03ZM40.3 142.03L39.16 142.03C39.09 142.03 39.01 142.01 38.93 141.99C38.88 141.95 38.82 141.91 38.77 141.87C38.72 141.82 38.68 141.77 38.66 141.71C38.62 141.63 38.61 141.55 38.61 141.46L38.61 133.64C38.61 133.44 38.66 133.28 38.75 133.17C38.81 133.12 38.88 133.07 38.95 133.03C39.01 133.01 39.09 133 39.16 133L40.3 133C40.38 133 40.46 133.01 40.54 133.05C40.59 133.07 40.65 133.11 40.7 133.17C40.8 133.27 40.87 133.45 40.87 133.64L40.87 141.46C40.87 141.54 40.85 141.62 40.82 141.7C40.79 141.75 40.75 141.81 40.7 141.87C40.66 141.91 40.61 141.95 40.55 141.98C40.47 142.01 40.39 142.03 40.3 142.03ZM17.21 136.95L17.21 133.08L18.7 133.08C18.78 133.08 18.86 133.09 18.93 133.12C18.99 133.14 19.05 133.18 19.1 133.24C19.15 133.28 19.19 133.34 19.21 133.39C19.25 133.47 19.27 133.55 19.27 133.64L19.27 136.38C19.27 136.46 19.25 136.53 19.21 136.61C19.19 136.67 19.15 136.73 19.1 136.78C19.05 136.83 19 136.87 18.94 136.89C18.86 136.93 18.78 136.95 18.7 136.95L17.21 136.95ZM33.31 136.44C33.23 136.47 33.15 136.49 33.07 136.49L31.59 136.49L31.59 133.08L33.07 133.08C33.15 133.08 33.23 133.09 33.3 133.12C33.36 133.14 33.42 133.18 33.47 133.24C33.52 133.28 33.56 133.34 33.59 133.39C33.62 133.47 33.64 133.55 33.64 133.64L33.64 135.92C33.64 136 33.62 136.08 33.59 136.14C33.56 136.21 33.52 136.27 33.47 136.33C33.42 136.37 33.37 136.41 33.31 136.44ZM83.08 133.08L83.08 141.96L81.04 141.96L81.04 133.64C81.04 133.59 81.04 133.53 81.06 133.49C81.08 133.4 81.13 133.32 81.21 133.25C81.29 133.17 81.37 133.11 81.47 133.09C81.51 133.08 81.56 133.08 81.61 133.08L83.08 133.08ZM88.14 136.95L88.14 133.08L89.62 133.08C89.7 133.08 89.78 133.09 89.85 133.12C89.91 133.14 89.97 133.18 90.02 133.24C90.07 133.28 90.11 133.34 90.14 133.39C90.17 133.47 90.19 133.55 90.19 133.64L90.19 136.38C90.19 136.46 90.17 136.53 90.14 136.61C90.11 136.67 90.07 136.73 90.02 136.78C89.97 136.83 89.92 136.87 89.86 136.89C89.78 136.93 89.7 136.95 89.62 136.95L88.14 136.95ZM116.28 135.75L116.28 133.83C116.28 133.63 116.32 133.48 116.41 133.36C116.43 133.33 116.53 133.22 116.57 133.2C116.69 133.12 116.84 133.08 117.02 133.08L118.33 133.08L118.33 136.49L117.02 136.49C116.84 136.49 116.69 136.45 116.57 136.37C116.54 136.34 116.42 136.23 116.4 136.2C116.32 136.08 116.28 135.92 116.28 135.75ZM11.82 139.48L10.12 139.48L10.97 133.5L11.82 139.48ZM31.59 141.96L31.59 138.53L33.07 138.53C33.15 138.53 33.23 138.55 33.3 138.58C33.36 138.61 33.42 138.65 33.47 138.7C33.52 138.75 33.56 138.81 33.59 138.87C33.62 138.94 33.64 139.02 33.64 139.1L33.64 141.39C33.64 141.47 33.62 141.55 33.59 141.62C33.56 141.68 33.52 141.74 33.47 141.78C33.42 141.84 33.37 141.88 33.31 141.91C33.23 141.94 33.15 141.96 33.07 141.96L31.59 141.96ZM109.32 141.96L109.32 138.53L110.8 138.53C110.88 138.53 110.96 138.55 111.03 138.58C111.09 138.61 111.15 138.65 111.2 138.7C111.25 138.75 111.29 138.81 111.32 138.87C111.35 138.94 111.37 139.02 111.37 139.1L111.37 141.39C111.37 141.47 111.35 141.55 111.32 141.62C111.29 141.68 111.25 141.74 111.2 141.78C111.15 141.84 111.1 141.88 111.04 141.91C110.96 141.94 110.88 141.96 110.8 141.96L109.32 141.96Z" fill="#FFFFFF" fill-opacity="1.000000" fill-rule="evenodd"/>
	</g>
</svg>
