<svg width="121.000000" height="148.000000" viewBox="0 0 121 148" fill="none" xmlns="http://www.w3.org/2000/svg" xmlns:xlink="http://www.w3.org/1999/xlink">
	<desc>
			Created with Pixso.
	</desc>
	<defs>
		<clipPath id="clip2_1">
			<rect id="Group" width="62.000000" height="121.457001" transform="translate(29.000000 0.000000)" fill="white" fill-opacity="0"/>
		</clipPath>
	</defs>
	<g clip-path="url(#clip2_1)">
		<path id="Oval" d="M38 76C38 63.84 47.84 54 60 54C72.15 54 82 63.84 82 76C82 88.15 72.15 98 60 98C47.84 98 38 88.15 38 76Z" fill="#CB453C" fill-opacity="1.000000" fill-rule="evenodd"/>
		<path id="path" d="M60 54C47.84 54 38 63.84 38 76C38 88.15 47.84 98 60 98C72.15 98 82 88.15 82 76C82 63.84 72.15 54 60 54ZM45.85 90.14C41.95 86.23 40 81.52 40 76C40 70.47 41.95 65.76 45.85 61.85C49.76 57.95 54.47 56 60 56C65.52 56 70.23 57.95 74.14 61.85C78.04 65.76 80 70.47 80 76C80 81.52 78.04 86.23 74.14 90.14C70.23 94.04 65.52 96 60 96C54.47 96 49.76 94.04 45.85 90.14Z" fill="#FFFFFF" fill-opacity="1.000000" fill-rule="evenodd"/>
		<path id="Oval" d="M43 76.1C43 66.65 50.65 59 60.1 59C69.54 59 77.2 66.65 77.2 76.1C77.2 85.54 69.54 93.2 60.1 93.2C50.65 93.2 43 85.54 43 76.1Z" fill="#CB453C" fill-opacity="1.000000" fill-rule="evenodd"/>
		<path id="path" d="M60.1 59C50.65 59 43 66.65 43 76.1C43 85.54 50.65 93.2 60.1 93.2C69.54 93.2 77.2 85.54 77.2 76.1C77.2 66.65 69.54 59 60.1 59ZM49.42 86.78C46.47 83.83 45 80.27 45 76.1C45 71.93 46.47 68.37 49.42 65.42C52.37 62.47 55.93 61 60.1 61C64.27 61 67.83 62.47 70.78 65.42C73.73 68.37 75.2 71.93 75.2 76.1C75.2 80.27 73.73 83.83 70.78 86.78C67.83 89.73 64.27 91.2 60.1 91.2C55.93 91.2 52.37 89.73 49.42 86.78Z" fill="#FFFFFF" fill-opacity="1.000000" fill-rule="evenodd"/>
		<path id="Rectangle" d="M37.53 91L81.04 91C81.13 91 81.23 91 81.32 91.01C81.41 91.03 81.5 91.05 81.58 91.07C81.67 91.1 81.76 91.13 81.84 91.17C81.92 91.21 82 91.25 82.08 91.3C82.15 91.35 82.23 91.41 82.3 91.47C82.36 91.53 82.43 91.59 82.49 91.66C82.55 91.73 82.6 91.8 82.65 91.88C82.7 91.96 82.74 92.04 82.78 92.12L89.44 107.06C89.46 107.12 89.49 107.18 89.51 107.24C89.53 107.31 89.54 107.37 89.56 107.44C89.57 107.5 89.58 107.57 89.59 107.63C89.6 107.7 89.6 107.77 89.6 107.83C89.6 107.9 89.6 107.97 89.59 108.03C89.58 108.1 89.57 108.16 89.56 108.23C89.54 108.29 89.53 108.36 89.51 108.42C89.49 108.49 89.46 108.55 89.43 108.61C89.41 108.67 89.38 108.73 89.34 108.79C89.31 108.84 89.27 108.9 89.23 108.95C89.19 109.01 89.15 109.06 89.11 109.11C89.06 109.16 89.02 109.2 88.97 109.25C88.92 109.29 88.87 109.33 88.81 109.37C88.76 109.41 88.7 109.45 88.64 109.48C88.59 109.51 88.53 109.54 88.47 109.57C88.4 109.6 88.34 109.62 88.28 109.64L59.28 118.92L30.32 109.64C30.25 109.62 30.19 109.6 30.13 109.57C30.07 109.54 30.01 109.51 29.95 109.48C29.89 109.45 29.84 109.41 29.78 109.37C29.73 109.33 29.68 109.29 29.63 109.25C29.58 109.2 29.53 109.16 29.49 109.11C29.44 109.06 29.4 109.01 29.36 108.95C29.32 108.9 29.29 108.84 29.25 108.79C29.22 108.73 29.19 108.67 29.16 108.61C29.13 108.55 29.11 108.49 29.09 108.42C29.07 108.36 29.05 108.3 29.04 108.23C29.02 108.17 29.01 108.1 29.01 108.03C29 107.97 29 107.9 29 107.83C28.99 107.77 29 107.7 29.01 107.64C29.01 107.57 29.02 107.5 29.04 107.44C29.05 107.37 29.07 107.31 29.09 107.25C29.11 107.18 29.13 107.12 29.16 107.06L35.79 92.12C35.83 92.04 35.87 91.96 35.92 91.88C35.97 91.81 36.03 91.73 36.09 91.66C36.14 91.59 36.21 91.53 36.28 91.47C36.35 91.41 36.42 91.35 36.5 91.3C36.57 91.25 36.65 91.21 36.73 91.17C36.82 91.13 36.9 91.1 36.99 91.07C37.08 91.05 37.17 91.03 37.26 91.01C37.35 91 37.44 91 37.53 91Z" fill="#CB453C" fill-opacity="1.000000" fill-rule="evenodd"/>
		<path id="path" d="M81.04 91L37.53 91C37.44 91 37.35 91 37.26 91.01C37.17 91.03 37.08 91.05 36.99 91.07C36.9 91.1 36.82 91.13 36.73 91.17C36.65 91.21 36.57 91.25 36.5 91.3C36.42 91.35 36.35 91.41 36.28 91.47C36.21 91.53 36.14 91.59 36.09 91.66C36.03 91.73 35.97 91.81 35.92 91.88C35.87 91.96 35.83 92.04 35.79 92.12L29.16 107.06C29.1 107.18 29.06 107.31 29.04 107.44C29.01 107.57 28.99 107.7 29 107.83C29 107.97 29.01 108.1 29.04 108.23C29.07 108.36 29.11 108.49 29.16 108.61C29.22 108.73 29.28 108.85 29.36 108.95C29.44 109.06 29.53 109.16 29.63 109.25C29.73 109.34 29.84 109.41 29.95 109.48C30.07 109.55 30.19 109.6 30.32 109.64L59.28 118.92L88.28 109.64C88.41 109.6 88.53 109.55 88.64 109.48C88.76 109.41 88.87 109.34 88.97 109.25C89.07 109.16 89.16 109.06 89.23 108.95C89.31 108.85 89.38 108.73 89.43 108.61C89.49 108.49 89.53 108.36 89.56 108.23C89.59 108.1 89.6 107.97 89.6 107.83C89.6 107.7 89.59 107.57 89.56 107.44C89.53 107.31 89.49 107.18 89.44 107.06L82.78 92.12C82.74 92.04 82.7 91.96 82.65 91.88C82.6 91.8 82.55 91.73 82.49 91.66C82.43 91.59 82.36 91.53 82.3 91.47C82.23 91.41 82.15 91.35 82.08 91.3C82 91.25 81.92 91.21 81.84 91.17C81.76 91.13 81.67 91.1 81.58 91.07C81.5 91.05 81.41 91.03 81.32 91.01C81.23 91 81.13 91 81.04 91ZM59.28 116.82L87.56 107.77L80.98 93L37.6 93L31.03 107.77L59.28 116.82Z" fill="#FFFFFF" fill-opacity="1.000000" fill-rule="evenodd"/>
		<path id="Rectangle" d="M53 47L67 47L67 56.5C67 56.5 63.5 55.5 60 55.5C56.5 55.5 53 56.5 53 56.5L53 47Z" fill="#CB453C" fill-opacity="1.000000" fill-rule="evenodd"/>
		<path id="path" d="M53 47L53 56.5C53 56.5 53.79 56.27 55 56.03C56.33 55.77 58.16 55.5 60 55.5C61.83 55.5 63.66 55.77 65 56.03C66.2 56.27 67 56.5 67 56.5L67 47L53 47ZM55 49L55 53.97C56.66 53.65 58.33 53.5 60 53.5C61.66 53.5 63.33 53.65 65 53.97L65 49L55 49Z" fill="#FFFFFF" fill-opacity="1.000000" fill-rule="evenodd"/>
		<line id="Line" x1="59.000000" y1="97.000000" x2="59.000000" y2="113.000000" stroke="#FFFFFF" stroke-opacity="1.000000" stroke-width="2.000000"/>
		<line id="Line" x1="45.300995" y1="113.000000" x2="32.000000" y2="120.457001" stroke="#FFFFFF" stroke-opacity="1.000000" stroke-width="2.000000"/>
		<line id="Line" x1="75.000000" y1="113.000000" x2="87.943001" y2="120.434998" stroke="#FFFFFF" stroke-opacity="1.000000" stroke-width="2.000000"/>
		<line id="Line" x1="45.053009" y1="97.000000" x2="41.000008" y2="107.923004" stroke="#FFFFFF" stroke-opacity="1.000000" stroke-width="2.000000"/>
		<line id="Line" x1="75.000000" y1="97.000000" x2="79.184006" y2="107.862000" stroke="#FFFFFF" stroke-opacity="1.000000" stroke-width="2.000000"/>
		<path id="Oval" d="M42 15C42 6.71 52.07 0 64.5 0C76.92 0 87 6.71 87 15C87 23.28 76.92 30 64.5 30C52.07 30 42 23.28 42 15Z" fill="#CB453C" fill-opacity="1.000000" fill-rule="evenodd"/>
		<path id="path" d="M64.5 0C52.07 0 42 6.71 42 15C42 23.28 52.07 30 64.5 30C76.92 30 87 23.28 87 15C87 6.71 76.92 0 64.5 0ZM49.69 23.94C45.89 21.4 44 18.42 44 15C44 11.57 45.89 8.59 49.69 6.05C53.75 3.35 58.69 2 64.5 2C70.3 2 75.24 3.35 79.3 6.05C83.1 8.59 85 11.57 85 15C85 18.42 83.1 21.4 79.3 23.94C75.24 26.64 70.3 28 64.5 28C58.69 28 53.75 26.64 49.69 23.94Z" fill="#FFFFFF" fill-opacity="1.000000" fill-rule="evenodd"/>
		<path id="Oval" d="M32 30.5C32 25.25 38.49 21 46.5 21C54.5 21 61 25.25 61 30.5C61 35.74 54.5 40 46.5 40C38.49 40 32 35.74 32 30.5Z" fill="#CB453C" fill-opacity="1.000000" fill-rule="evenodd"/>
		<path id="path" d="M46.5 21C38.49 21 32 25.25 32 30.5C32 35.74 38.49 40 46.5 40C54.5 40 61 35.74 61 30.5C61 25.25 54.5 21 46.5 21ZM37.34 35.54C35.11 34.08 34 32.4 34 30.5C34 28.59 35.11 26.91 37.34 25.45C39.84 23.81 42.89 23 46.5 23C50.1 23 53.15 23.81 55.65 25.45C57.88 26.91 59 28.59 59 30.5C59 32.4 57.88 34.08 55.65 35.54C53.15 37.18 50.1 38 46.5 38C42.89 38 39.84 37.18 37.34 35.54Z" fill="#FFFFFF" fill-opacity="1.000000" fill-rule="evenodd"/>
		<path id="Oval" d="M59 38C59 35.23 62.58 33 67 33C71.41 33 75 35.23 75 38C75 40.76 71.41 43 67 43C62.58 43 59 40.76 59 38Z" fill="#CB453C" fill-opacity="1.000000" fill-rule="evenodd"/>
		<path id="path" d="M67 33C62.58 33 59 35.23 59 38C59 40.76 62.58 43 67 43C71.41 43 75 40.76 75 38C75 35.23 71.41 33 67 33ZM62.4 39.83C61.46 39.25 61 38.64 61 38C61 37.35 61.46 36.74 62.4 36.16C63.64 35.38 65.17 35 67 35C68.82 35 70.35 35.38 71.59 36.16C72.53 36.74 73 37.35 73 38C73 38.64 72.53 39.25 71.59 39.83C70.35 40.61 68.82 41 67 41C65.17 41 63.64 40.61 62.4 39.83Z" fill="#FFFFFF" fill-opacity="1.000000" fill-rule="evenodd"/>
	</g>
	<path id="ПАРОВОЗИК И ДРУЗЬЯ" d="M22.49 131.89Q22.13 132.44 22.13 133.21L22.13 141.82Q22.13 142.6 22.49 143.14Q22.6 143.31 22.75 143.45Q22.9 143.6 23.07 143.71Q23.61 144.07 24.38 144.07L26.23 144.07Q27 144.07 27.55 143.71Q27.72 143.6 27.86 143.45Q28.01 143.31 28.12 143.14Q28.48 142.6 28.48 141.82L28.48 133.21Q28.48 132.44 28.12 131.89Q28.01 131.72 27.86 131.58Q27.72 131.43 27.55 131.32Q27 130.96 26.23 130.96L24.38 130.96Q23.61 130.96 23.07 131.32Q22.9 131.43 22.75 131.58Q22.6 131.72 22.49 131.89ZM36.92 131.89Q36.56 132.44 36.56 133.21L36.56 141.82Q36.56 142.6 36.92 143.14Q37.03 143.31 37.18 143.45Q37.33 143.6 37.5 143.71Q38.04 144.07 38.81 144.07L40.66 144.07Q41.43 144.07 41.98 143.71Q42.15 143.6 42.29 143.45Q42.44 143.31 42.55 143.14Q42.91 142.6 42.91 141.82L42.91 133.21Q42.91 132.44 42.55 131.89Q42.44 131.72 42.29 131.58Q42.15 131.43 41.98 131.32Q41.43 130.96 40.66 130.96L38.81 130.96Q38.04 130.96 37.5 131.32Q37.33 131.43 37.18 131.58Q37.03 131.72 36.92 131.89ZM9.49 131.78Q9.23 132.15 9.15 132.66L7.37 143.98L9.49 143.98L9.84 141.5L12.1 141.5L12.45 144L14.56 144L12.52 131.02L11.05 131.02Q10.55 131.02 10.16 131.22Q9.96 131.32 9.78 131.47Q9.62 131.61 9.49 131.78ZM50.95 131.04L50.95 144L51.87 144Q52.16 144 52.43 143.9Q52.64 143.83 52.83 143.69Q53 143.56 53.14 143.4Q53.33 143.17 53.43 142.86L55.36 136.54L55.29 144L57.32 144L57.32 131.04L56.41 131.04Q56.11 131.04 55.84 131.13Q55.63 131.21 55.44 131.34Q55.27 131.47 55.14 131.62Q54.95 131.86 54.85 132.17L52.92 138.49L52.99 131.04L50.95 131.04ZM60.34 136.21L60.34 131.04L58.3 131.04L58.3 144L60.34 144L60.34 140.71L61.21 139.02L62.93 144L65.18 144L62.56 136.41L65.33 131.04L64.15 131.04Q63.89 131.04 63.64 131.1Q63.31 131.17 63 131.37Q62.69 131.56 62.48 131.82Q62.32 132.02 62.21 132.25L60.34 136.21ZM68.18 131.04L68.18 144L69.1 144Q69.4 144 69.66 143.9Q69.87 143.83 70.06 143.69Q70.24 143.56 70.37 143.4Q70.56 143.17 70.66 142.86L72.6 136.54L72.52 144L74.56 144L74.56 131.04L73.65 131.04Q73.34 131.04 73.08 131.13Q72.87 131.21 72.67 131.34Q72.5 131.47 72.38 131.62Q72.18 131.86 72.09 132.17L70.15 138.49L70.23 131.04L68.18 131.04ZM79 141.96L78.09 141.96L77.41 144L85.12 144L85.12 131.04L80.95 131.04Q80.27 131.04 79.79 131.35Q79.65 131.45 79.53 131.57Q79.41 131.69 79.32 131.83Q79 132.3 79 132.99L79 141.96ZM95.14 131.04L93.1 131.04L93.1 136.59Q93.1 137.26 93.41 137.73Q93.5 137.88 93.63 138Q93.76 138.13 93.91 138.23Q94.38 138.54 95.05 138.54L97.19 138.54L97.19 141.39Q97.19 141.52 97.15 141.62Q97.1 141.72 97.03 141.79Q96.95 141.87 96.87 141.91Q96.76 141.96 96.63 141.96L95.71 141.96Q95.58 141.96 95.48 141.91Q95.38 141.87 95.3 141.79Q95.23 141.72 95.19 141.63Q95.14 141.52 95.14 141.39L95.14 140.91L93.1 140.22L93.1 142.04Q93.1 142.73 93.41 143.2Q93.51 143.34 93.63 143.46Q93.76 143.59 93.91 143.69Q94.38 144 95.05 144L97.29 144Q97.96 144 98.43 143.68Q98.58 143.59 98.7 143.46Q98.82 143.34 98.92 143.2Q99.23 142.73 99.23 142.04L99.23 131.04L97.19 131.04L97.19 136.49L95.71 136.49Q95.58 136.49 95.48 136.45Q95.38 136.41 95.3 136.33Q95.23 136.25 95.19 136.16Q95.14 136.05 95.14 135.93L95.14 131.04ZM107.27 131.04L107.27 144L111.46 144Q112.14 144 112.61 143.68Q112.75 143.59 112.88 143.46Q113 143.34 113.09 143.2Q113.41 142.73 113.41 142.04L113.41 138.45Q113.41 137.77 113.1 137.3Q113 137.16 112.88 137.03Q112.75 136.9 112.6 136.8Q112.13 136.49 111.46 136.49L109.32 136.49L109.32 131.04L107.27 131.04ZM6.73 131.05L0.44 131.05L0.44 144L2.49 144L2.49 133.08L4.69 133.08L4.69 144L6.73 144L6.73 131.05ZM19.36 131.05L15.17 131.05L15.17 144L17.22 144L17.22 138.99L19.36 138.99Q20.04 138.99 20.51 138.67Q20.65 138.58 20.78 138.45Q20.9 138.33 20.99 138.19Q21.31 137.72 21.31 137.03L21.31 133Q21.31 132.33 21 131.86Q20.9 131.71 20.78 131.59Q20.65 131.45 20.5 131.36Q20.03 131.05 19.36 131.05ZM33.73 131.05L29.54 131.05L29.54 144L33.73 144Q34.41 144 34.88 143.68Q35.02 143.59 35.15 143.46Q35.27 143.34 35.36 143.2Q35.68 142.73 35.68 142.04L35.68 138.81Q35.68 138.75 35.67 138.69Q35.65 138.51 35.56 138.34Q35.52 138.24 35.46 138.16Q35.38 138.03 35.26 137.92Q35.18 137.84 35.09 137.78Q34.98 137.69 34.85 137.63Q34.61 137.51 34.39 137.51Q34.61 137.51 34.85 137.4Q34.98 137.34 35.09 137.25Q35.18 137.19 35.26 137.11Q35.4 136.98 35.5 136.82Q35.53 136.76 35.56 136.7Q35.66 136.5 35.68 136.3Q35.68 136.27 35.68 136.23L35.68 133Q35.68 132.33 35.37 131.86Q35.27 131.71 35.15 131.59Q35.02 131.45 34.87 131.36Q34.4 131.05 33.73 131.05ZM45.85 141.39L45.85 140.52L43.81 141.19L43.81 142.04Q43.81 142.73 44.12 143.2Q44.22 143.34 44.34 143.46Q44.47 143.59 44.62 143.69Q45.09 144 45.76 144L48 144Q48.67 144 49.14 143.68Q49.29 143.59 49.41 143.46Q49.53 143.34 49.63 143.2Q49.94 142.73 49.94 142.04L49.94 138.79Q49.94 138.56 49.83 138.34Q49.79 138.25 49.74 138.17Q49.65 138.03 49.54 137.91Q49.43 137.8 49.3 137.71Q49.22 137.66 49.13 137.61Q48.95 137.53 48.77 137.51Q48.71 137.5 48.66 137.5Q48.72 137.5 48.78 137.49Q48.96 137.47 49.13 137.39Q49.28 137.31 49.41 137.21Q49.48 137.16 49.54 137.1Q49.61 137.02 49.67 136.94Q49.76 136.82 49.83 136.68Q49.94 136.45 49.94 136.23L49.94 133Q49.94 132.33 49.63 131.86Q49.54 131.71 49.41 131.59Q49.28 131.45 49.13 131.36Q48.66 131.05 48 131.05L45.76 131.05Q45.1 131.05 44.63 131.35Q44.47 131.45 44.34 131.59Q44.21 131.71 44.12 131.86Q43.81 132.33 43.81 133L43.81 135.19L45.85 134.52L45.85 133.65Q45.85 133.52 45.9 133.41Q45.94 133.32 46.02 133.24Q46.13 133.14 46.25 133.1Q46.33 133.08 46.42 133.08L47.34 133.08Q47.46 133.08 47.57 133.12Q47.66 133.16 47.74 133.24Q47.81 133.31 47.85 133.4Q47.9 133.51 47.9 133.65L47.9 135.93Q47.9 136.05 47.86 136.15Q47.82 136.25 47.74 136.33Q47.66 136.4 47.58 136.44Q47.47 136.49 47.34 136.49L45.85 136.49L45.85 138.54L47.34 138.54Q47.46 138.54 47.57 138.58Q47.66 138.63 47.74 138.7Q47.82 138.78 47.86 138.87Q47.9 138.98 47.9 139.1L47.9 141.39Q47.9 141.52 47.86 141.62Q47.81 141.72 47.74 141.79Q47.66 141.87 47.58 141.91Q47.47 141.96 47.34 141.96L46.42 141.96Q46.33 141.96 46.25 141.93Q46.13 141.89 46.02 141.79Q45.94 141.71 45.9 141.61Q45.85 141.51 45.85 141.39ZM90.28 131.05L86.09 131.05L86.09 144L88.14 144L88.14 138.99L90.28 138.99Q90.96 138.99 91.43 138.67Q91.57 138.58 91.7 138.45Q91.82 138.33 91.91 138.19Q92.23 137.72 92.23 137.03L92.23 133Q92.23 132.33 91.92 131.86Q91.82 131.71 91.7 131.59Q91.57 131.45 91.42 131.36Q90.95 131.05 90.28 131.05ZM102.18 141.39L102.18 140.52L100.13 141.19L100.13 142.04Q100.13 142.73 100.45 143.2Q100.54 143.34 100.67 143.46Q100.79 143.59 100.94 143.69Q101.41 144 102.08 144L104.32 144Q105 144 105.47 143.68Q105.61 143.59 105.74 143.46Q105.86 143.34 105.95 143.2Q106.27 142.73 106.27 142.04L106.27 138.79Q106.27 138.56 106.15 138.34Q106.11 138.25 106.06 138.17Q105.98 138.03 105.86 137.91Q105.76 137.8 105.63 137.71Q105.54 137.66 105.45 137.61Q105.28 137.53 105.1 137.51Q105.04 137.5 104.98 137.5Q105.04 137.5 105.11 137.49Q105.28 137.47 105.45 137.39Q105.61 137.31 105.74 137.21Q105.8 137.16 105.86 137.1Q105.94 137.02 106 136.94Q106.09 136.82 106.15 136.68Q106.27 136.45 106.27 136.23L106.27 133Q106.27 132.33 105.96 131.86Q105.86 131.71 105.74 131.59Q105.61 131.45 105.46 131.36Q104.99 131.05 104.32 131.05L102.08 131.05Q101.42 131.05 100.95 131.35Q100.8 131.45 100.67 131.59Q100.54 131.71 100.44 131.86Q100.13 132.33 100.13 133L100.13 135.19L102.18 134.52L102.18 133.65Q102.18 133.52 102.23 133.41Q102.27 133.32 102.35 133.24Q102.45 133.14 102.58 133.1Q102.66 133.08 102.74 133.08L103.66 133.08Q103.79 133.08 103.89 133.12Q103.99 133.16 104.06 133.24Q104.14 133.31 104.18 133.4Q104.23 133.51 104.23 133.65L104.23 135.93Q104.23 136.05 104.19 136.15Q104.14 136.25 104.06 136.33Q103.99 136.4 103.9 136.44Q103.79 136.49 103.66 136.49L102.18 136.49L102.18 138.54L103.66 138.54Q103.79 138.54 103.89 138.58Q103.99 138.63 104.06 138.7Q104.14 138.78 104.18 138.87Q104.23 138.98 104.23 139.1L104.23 141.39Q104.23 141.52 104.18 141.62Q104.14 141.72 104.06 141.79Q103.99 141.87 103.9 141.91Q103.79 141.96 103.66 141.96L102.74 141.96Q102.65 141.96 102.57 141.93Q102.45 141.89 102.35 141.79Q102.27 141.71 102.22 141.61Q102.18 141.51 102.18 141.39ZM115.42 138.38L113.79 143.98L115.24 143.98Q115.47 143.98 115.67 143.89Q115.76 143.85 115.85 143.79Q115.95 143.71 116.03 143.61Q116.15 143.46 116.2 143.26L117.58 138.52L118.33 138.52L118.33 143.98L120.37 143.98L120.37 131.05L116.18 131.05Q115.52 131.05 115.05 131.35Q114.9 131.45 114.77 131.59Q114.64 131.71 114.54 131.86Q114.23 132.33 114.23 133L114.23 136.57Q114.23 137.23 114.53 137.69Q114.54 137.71 114.55 137.72Q114.68 137.91 114.85 138.06Q115.1 138.27 115.42 138.38ZM25.87 142.03L24.74 142.03Q24.62 142.03 24.51 141.99Q24.42 141.94 24.34 141.87Q24.27 141.8 24.23 141.71Q24.18 141.6 24.18 141.46L24.18 133.65Q24.18 133.34 24.33 133.18Q24.33 133.17 24.34 133.17Q24.42 133.09 24.52 133.04Q24.62 133 24.74 133L25.87 133Q26 133 26.11 133.05Q26.2 133.09 26.27 133.17Q26.28 133.18 26.29 133.19Q26.44 133.35 26.44 133.65L26.44 141.46Q26.44 141.59 26.39 141.7Q26.35 141.79 26.27 141.87Q26.21 141.94 26.12 141.98Q26.01 142.03 25.87 142.03ZM40.3 142.03L39.17 142.03Q39.05 142.03 38.94 141.99Q38.85 141.94 38.77 141.87Q38.7 141.8 38.66 141.71Q38.61 141.6 38.61 141.46L38.61 133.65Q38.61 133.34 38.76 133.18Q38.76 133.17 38.77 133.17Q38.85 133.09 38.95 133.04Q39.05 133 39.17 133L40.3 133Q40.43 133 40.54 133.05Q40.63 133.09 40.7 133.17Q40.71 133.18 40.72 133.19Q40.87 133.35 40.87 133.65L40.87 141.46Q40.87 141.59 40.82 141.7Q40.78 141.79 40.7 141.87Q40.64 141.94 40.55 141.98Q40.44 142.03 40.3 142.03ZM17.22 136.95L17.22 133.08L18.7 133.08Q18.83 133.08 18.93 133.12Q19.03 133.16 19.1 133.24Q19.18 133.31 19.22 133.4Q19.27 133.51 19.27 133.65L19.27 136.38Q19.27 136.5 19.22 136.61Q19.18 136.71 19.1 136.78Q19.03 136.86 18.94 136.9Q18.83 136.95 18.7 136.95L17.22 136.95ZM33.31 136.44Q33.2 136.49 33.07 136.49L31.59 136.49L31.59 133.08L33.07 133.08Q33.2 133.08 33.3 133.12Q33.4 133.16 33.47 133.24Q33.55 133.31 33.59 133.4Q33.64 133.51 33.64 133.65L33.64 135.93Q33.64 136.05 33.6 136.15Q33.55 136.25 33.47 136.33Q33.4 136.4 33.31 136.44ZM83.08 133.08L83.08 141.96L81.04 141.96L81.04 133.65Q81.04 133.56 81.06 133.49Q81.1 133.36 81.21 133.25Q81.33 133.13 81.47 133.09Q81.54 133.08 81.61 133.08L83.08 133.08ZM88.14 136.95L88.14 133.08L89.62 133.08Q89.75 133.08 89.85 133.12Q89.95 133.16 90.02 133.24Q90.1 133.31 90.14 133.4Q90.19 133.51 90.19 133.65L90.19 136.38Q90.19 136.5 90.14 136.61Q90.1 136.71 90.02 136.78Q89.95 136.86 89.86 136.9Q89.75 136.95 89.62 136.95L88.14 136.95ZM116.28 135.75L116.28 133.83Q116.28 133.54 116.41 133.36Q116.44 133.31 116.48 133.28Q116.52 133.24 116.57 133.2Q116.75 133.08 117.02 133.08L118.33 133.08L118.33 136.49L117.02 136.49Q116.75 136.49 116.57 136.37Q116.52 136.33 116.48 136.29Q116.44 136.25 116.4 136.2Q116.28 136.02 116.28 135.75ZM11.82 139.48L10.12 139.48L10.97 133.5L11.82 139.48ZM31.59 141.96L31.59 138.54L33.07 138.54Q33.2 138.54 33.3 138.58Q33.4 138.63 33.47 138.7Q33.55 138.78 33.59 138.87Q33.64 138.98 33.64 139.1L33.64 141.39Q33.64 141.52 33.59 141.62Q33.55 141.72 33.47 141.79Q33.4 141.87 33.31 141.91Q33.2 141.96 33.07 141.96L31.59 141.96ZM109.32 141.96L109.32 138.54L110.8 138.54Q110.93 138.54 111.03 138.58Q111.13 138.63 111.2 138.7Q111.28 138.78 111.32 138.87Q111.37 138.98 111.37 139.1L111.37 141.39Q111.37 141.52 111.32 141.62Q111.28 141.72 111.2 141.79Q111.13 141.87 111.04 141.91Q110.93 141.96 110.8 141.96L109.32 141.96Z" fill="#FFFFFF" fill-opacity="1.000000" fill-rule="evenodd"/>
</svg>
